<?xml version="1.0" encoding="utf-8"?>
<!-- Generator: Adobe Illustrator 26.0.1, SVG Export Plug-In . SVG Version: 6.00 Build 0)  -->
<svg version="1.1" id="Layer_1" xmlns="http://www.w3.org/2000/svg" xmlns:xlink="http://www.w3.org/1999/xlink" x="0px" y="0px"
	 viewBox="0 0 370 570" style="enable-background:new 0 0 370 570;" xml:space="preserve">
<style type="text/css">
	.st0{fill:#E0EADF;}
	.st1{fill:#C9D1C9;}
	.st2{fill:#003F38;}
	.st3{fill:none;stroke:#003F38;stroke-width:3;stroke-linecap:round;stroke-miterlimit:10;}
	.st4{fill:#012822;}
	.st5{opacity:0.33;}
	.st6{fill:#FFFFFF;}
	.st7{fill:#8E0715;}
	.st8{opacity:0.42;fill:#8E0715;enable-background:new    ;}
</style>
<g id="bellatrix">
	<ellipse class="st0" cx="188.6" cy="300.5" rx="113.2" ry="191.2"/>
	<path class="st1" d="M188.6,377.7c11.6,10.4,56.1,33.9,77.6,15c15-13.1-9.4-77.2-8.9-98.9c0.5-22.4,21.3,15.9-8.9,30.3
		C222.8,336.4,174.9,365.4,188.6,377.7z"/>
	<path class="st2" d="M223.5,46.3l-0.1,0.5C222.9,46.1,223,46,223.5,46.3z"/>
	<path class="st2" d="M258.5,295.6c-0.3,1.5-0.6,3-1,4.4c-0.2-2.2-0.4-4.3-0.7-6.2c0.2,0,0.3,0,0.5,0
		C258.1,294,258.6,294.8,258.5,295.6L258.5,295.6z"/>
	<path class="st3" d="M150,199.2c15.5-32.5,21.5-28.1,21.5-28.1"/>
	<path class="st4" d="M284.2,376.6c-13.6,4-52,11.3-58.1-9.7c-6.3-21.4,22.4-63.1,36.4-67.3"/>
	<path class="st4" d="M58.1,353c0-14.2,4-53,25.9-53c22.3,0.1,54.1,39.5,54.1,54.1s-18.4,26-40.7,25.5
		C75.6,379.1,58.1,367.2,58.1,353z"/>
	<path class="st4" d="M168.1,292.9c-3.9,0-9.8-0.5-12.4-3.5c-1.2-1.4-1.6-3.2-1.2-5c0.1-0.4,0.4-1.5,1.4-4.6
		c13.4-43.6,14.6-53.7,14-55.8c-0.8-0.8-0.7-2.1,0.1-2.8c0.7-0.7,1.8-0.7,2.6-0.1c2.5,1.8,3.2,7.6-12.9,59.9c-0.7,2.1-1.2,4-1.3,4.3
		c-0.2,0.5-0.1,1.1,0.3,1.5c1.7,2,8.4,2.4,12.6,2c1.1-0.1,2.1,0.7,2.2,1.8c0.1,1.1-0.7,2.1-1.8,2.2
		C171,292.8,169.7,292.9,168.1,292.9z M170.3,224.3L170.3,224.3z"/>
	<g class="st5">
		<path class="st4" d="M177.4,293.4c-0.4,0-0.7-0.1-1.1-0.3c-0.9-0.6-1.2-1.8-0.6-2.8c0.2-0.3,1.8-2.8,4.3-2.8l0,0
			c1.1,0,2.7,0.5,4.1,2.7c0.6,0.9,0.3,2.2-0.7,2.7l0,0c-0.9,0.6-2.2,0.3-2.7-0.7l0,0c-0.4-0.7-0.7-0.8-0.7-0.8
			c-0.3,0.2-0.6,0.5-0.9,0.9C178.7,293,178.1,293.3,177.4,293.4z"/>
	</g>
	<path class="st1" d="M100.5,237.2c2.8-6.8,16.4-20.1,32.9-17.6c11.5,1.7,23.1,16,27.3,19.9c8.5,7.8-13.6,13.6-29.9,13.5
		C114.1,252.9,97.2,245.3,100.5,237.2z"/>
	<path class="st1" d="M256.8,243.1c-2.8-6.8-16.4-20.1-32.9-17.6c-11.5,1.7-23.1,16-27.3,19.9c-8.5,7.8,13.6,13.6,30,13.5
		C243.2,258.7,260.1,251.1,256.8,243.1z"/>
	<path class="st2" d="M194.7,219.3l5.4,14.3c0,0,35.6-23.2,41.4-23.2s13.2,5.9,13.2,5.9v-5.9l-13.6-6.3L194.7,219.3z"/>
	<path class="st2" d="M165.7,216.9l-5.4,14.3c0,0-35.6-23.2-41.4-23.2s-13.2,5.8-13.2,5.8V208l13.6-6.3L165.7,216.9z"/>
	<path class="st6" d="M114.5,241.3c-1.6,1.6-2.6,0.9-2.6,3.6c0,3.3,11.9,8.1,18.1,8c10.7-0.1,22.3-3.1,20.6-7.7
		c-1.3-3.3-9-10.7-16.8-11.6S117,238.8,114.5,241.3z"/>
	<ellipse class="st7" cx="131.4" cy="242.4" rx="9.5" ry="8.8"/>
	<circle cx="131.8" cy="241.5" r="3.9"/>
	<path class="st6" d="M243.3,250c1.3,1.6,2.2,1.1,2,3.5c-0.3,3-11.8,5.9-17.4,5.3c-9.8-1.2-20-5.1-18-9c1.5-2.9,9.4-8.6,16.6-8.6
		S241.3,247.5,243.3,250z"/>
	<ellipse class="st7" cx="226.8" cy="249.8" rx="8.8" ry="8.5"/>
	<circle cx="226.8" cy="249.2" r="3.9"/>
	<path class="st7" d="M193,321.3c-0.3,0.2-0.6,0.3-0.9,0.3c-0.5,0-0.9-0.2-1.2-0.6c-0.8-1-1.5-2-2.3-2.9c-5.9-2.8-15.8-8.5-20.1-7.2
		c-8.6,2.5-14.1,4.1-17.3,4.8c-1.5,1.6-2.9,3.4-4.2,5.2c-0.4,0.7-1.4,0.9-2.1,0.5c-0.7-0.4-0.9-1.4-0.5-2.1l0,0c0.9-1.4,1.9-2.7,3-4
		c0.4-1.4,4.3-4.7,9.3-9.9c3-3.4,7.2-5.4,11.7-5.4c6.6,0,24.8,16.2,24.8,19.2C193.7,319.9,193.6,320.8,193,321.3z"/>
	<path class="st7" d="M167.8,327.5c-4.1-0.1-8-1.4-11.4-3.7l-0.6-0.4c-0.3,0.1-0.7,0.1-1,0.1c-1.1-0.2-1.8-1.2-1.7-2.3l0,0
		c0.1-0.8,0.6-1.5,1.3-1.9c1.3-0.6,2.5,0.1,4,1c3.8,2.3,10.8,6.5,21.4-1.8c0.9-0.7,2.1-0.5,2.8,0.4s0.5,2.1-0.4,2.8
		C176.8,326.1,171.9,327.5,167.8,327.5z"/>
	<path class="st8" d="M188.6,316.2c0,4-13.5,8.1-20.9,8s-18.3-3.2-18.3-7.2s10.9-7.3,18.3-7.2S188.6,312.2,188.6,316.2z"/>
	<path class="st2" d="M353.6,211.4c4.7,12.8-15.7,14.1-11,24.4c17.9,39.8,1.8,58.1-39.4,106.7c-0.6,0.7,5,23.4,4.2,23.3
		c1.7,14.4-15.1,10-6.4,24.8c23.9,40.6-11.6,80.6-27.4,95.5c-7.4,7-7.3,28-13.5,46.3c-7.6,22.6-34.2,47.5-49.3,9.1
		c-3.6-9.2,12.6-50.1,26.8-102.9c15.8-58.6,22.1-110.5,19.8-138.7c-6.1,26.4-14.2,30.7-19.1,33.3c-4.1,2.2-5.6,3-0.6,21
		c11.1,39.9-18.2,65.1-18.4,65.3c-0.6,0.5-1.6,0.5-2.1-0.2s-0.5-1.6,0.2-2.1c0.3-0.2,28-24.2,17.5-62.2c-5.3-19.3-3.6-21.3,2.1-24.4
		c4.7-2.5,12.6-6.7,18.6-35.7c0.1-0.6,0.6-1.1,1.2-1.2c-0.4-2.8-1-5.6-1.9-8.4c10.7-17.7,17.1-61,17.1-80.9
		c0-15.9-7.6-31.9-5.5-45.5c-25.5-0.9-47.6-8.2-60.4-18.7c-4,0.6-8,1-12.1,1.1c-1.6,12.5-8.8,25.7-18.8,37
		c-1.4,6.2-1.3,15.7,3.3,30.1c7.6,23.9,4.6,28.4,3,30.9c-0.1,0.2-0.3,0.4-0.4,0.6c0,0,0,0.4,1,1.8c2.3,3.1,1.6,7.6,0.8,13.2
		c-1.3,9.2-2.9,20.6,6.4,32.1c0.5,0.6,0.5,1.6-0.1,2.1s-1.6,0.5-2.1-0.1c0,0,0,0-0.1-0.1c-10.2-12.5-8.4-25.2-7.1-34.5
		c0.7-5,1.3-9-0.3-11c-2.1-2.8-2-4-0.8-5.8s3.8-5.9-3.4-28.4c-3.8-11.8-4.6-20.6-4.1-27.1c-6.1,6.2-12.9,11.6-20.4,16.1
		c0.3,0.4,0.3,1,0.1,1.4c-2.7,5.7-5.6,12.1-8.4,19.1c-11.2,27.3-24,34.7-31.6,39.1c-7,4.1-8.7,5-1.2,18.4c16.8,30,2.6,56.2,2.5,56.4
		c-0.3,0.5-0.8,0.8-1.3,0.8c-0.3,0-0.5-0.1-0.7-0.2c-0.7-0.4-1-1.3-0.6-2c0.1-0.2,13.5-25-2.5-53.5c-8.5-15.2-6-17.6,2.3-22.5
		c7.3-4.2,19.5-11.3,30.3-37.7c2.6-6.2,5.1-12,7.6-17.3c-4.1,2.2-8.5,4-13,5.3c0.1,0.3,0.1,0.5,0,0.8c-2.1,6.6-4.8,13.1-8.2,19.2
		c-5.1,9.5-13.9,22.1-26.7,28.5c-0.8,0.3-1.6,0-2-0.8c-0.3-0.7,0-1.5,0.6-1.9c21-10.5,31.3-39.7,33-45c-3.1,0.7-6.4,1.1-9.6,1.1
		c-8.9,0-23.1,27.6-27.9,33.8c-3.9,5.1,12,36.7,12.8,43.1c1,6.9-5.9-6.5-5.9,14.5c0,29.1,27.2,78.2,30.9,132.7
		c4.7,70.7-5.7,90.1-12.9,101.8c-18.8,30.3-2.2-73.2-35.6-51.9c-14.5,9.2,3.4-59.6-18.7-73.9c-44.1-28.6-40.8-13.2-42.3-48.2
		c-0.5-11.1-18.2-42.3-15-49.8c7.3-17,1.7-41.9,0-63.7c-1.5-19.5,27.7-32.7,18-47.1c-13.8-20.6-5.7-48.7,15.9-53
		c4.7-0.9,36.5-6.2,40.3-26c-2.3-7-33.5,15.7-40.6,12.4c-17-7.7,33.5-26.1,10.3-42.3C35.8,79.4,75.2,83,75.2,83
		c18.5-26.4,39.2-9.1,47.8-16c40.8-32.9,70-29.5,69.3-31.5c-18.7-54.3,38.6-15.2,30.9,10.6c-0.5-0.3-0.6-0.2-0.1,0.5l0.1-0.5
		c4.1,2.9,36.2,37,37.3,30c4.4-29.7,49.4-16.4,57,5.7c4.7,13.5,17.5,11.1,26.5,23.7c5.1,7.1-2.5,49,18.5,70.4
		C364.8,185.1,339.4,172.6,353.6,211.4z"/>
</g>
</svg>
