<svg id="dumbledore" xmlns="http://www.w3.org/2000/svg" xmlns:xlink="http://www.w3.org/1999/xlink" width="280" height="600" viewBox="0 0 280 600"><defs><style>.cls-1{fill:none;}.cls-2{fill:#fde8e1;}.cls-3{fill:#e1cfc9;}.cls-4{fill:#efeeee;}.cls-5{fill:#d3d3d3;}.cls-6{fill:#ec6665;}.cls-7{fill:#f29274;opacity:0.35;}.cls-8{fill:#fff;}.cls-9{fill:#83d0f5;}.cls-10{fill:#008acd;}.cls-11{fill:#c75967;}.cls-12{fill:#0959cc;}.cls-13{fill:#8d58a0;}.cls-14{fill:#673a6f;}.cls-15{clip-path:url(#clip-path);}</style><clipPath id="clip-path"><rect class="cls-1" x="-621.64" y="3349.82" width="1919.03" height="1018.24"/></clipPath></defs><path class="cls-2" d="M242.79,153.49C344.67,239.7,125.55,371.43,42.28,297.2c-36.45-32.5-8-31.61-8.35-80.35-.14-20.61-5.14-37.76-2.39-61.25,4.63-39.42-5.85-56.87,57.68-44.54C151,123,197.09,114.82,242.79,153.49Z"/><path class="cls-3" d="M268.35,186.56h0a25.35,25.35,0,0,1-.63,4.94c-5.92,24.78-2.75,72.95-37.52,75.68-7.31.58-13-.79-17.42-3.72-.32-.21-.63-.42-.94-.65-.55,1-1.13,1.92-1.74,2.8l0,0c-2.19,3.17-4.7,5.58-7.18,6.64-1.1.47-2.27,1.05-3.49,1.7h0c-10.27,5.44-24.2,15.46-33.56,5-2.6-2.91-3.62-5.73-3.46-8.5a14.67,14.67,0,0,1,3.34-7.84c4.28-5.7,12.09-11.4,19.87-17.52,7.62-6,10.19-11.72,12.69-14.79-1.05-9-1.37-19.07-1.58-29.59,0-1.39,0-2.78-.07-4.18-.07-3.71-.14-7.46-.22-11.23-.67-29.43-12.54-41.79-9.4-51,1.49-4.33,6.32-7.94,17.25-12.29a27.8,27.8,0,0,1,7.65-1.88,31,31,0,0,1,15,2.42,41.28,41.28,0,0,1,5.6,2.81c9.33,5.54,17.7,14.79,24,25h0C264.13,162.71,268.71,176.36,268.35,186.56Z"/><path class="cls-4" d="M270.64,184.3c-5.14-18.92-13.7-47-28.87-59.3a26,26,0,0,0-13.67-6,25,25,0,0,0-7.47.33c-8.53,1.63-13.13,6.89-15.16,14-4.88,17,5.15,44.45,11.42,56.81,5.1,10,19.92,30.12,17.6,40.78-1.23,5.68-.86,4.47-.48,3a128.45,128.45,0,0,1-.37,14.8c-.2,2.59-.46,5.12-.75,7.6-.61-17.52-2.53-34.64-9.41-48.21-6.72,29.19-28.28,42.77-51.79,56.54a39.9,39.9,0,0,0-4.72-1.53c-5.7-4-12.06-5.09-18-5.92-4.83-1.58-9-2.89-10.85-3.67s-6.15-3.17-11.14-5.74c-7.47-7.31-15.84-16.54-22.77-11.08l.09.42c.33,1.94-.72,3.38-2.32,4.45-.2.54-.39,1.08-.58,1.62.33,2.73,2,5.67,4.24,8.46,6.82,14.62,14.8,20.12,27.43,24.46,5.21,1.78,11.42,2,17.4,1.32-2.12,1.38-4.22,2.79-6.3,4.26l.54.1c-11.63,6.49-21.63,12.08-30.63,17.51-5.62-1.17-13.31-.92-22,1.18-2.4-7.52-7-10-14-8.45-7.08-8-20.22-15-32.79-19.86a113.33,113.33,0,0,0,26.14-3.44c24-5.79,26.28-15.1,30-25.54a6.79,6.79,0,0,1,2.64-6.36l.17-.13c-1.25-4.28-9.48-2.61-12.61-1.77-2.35.62-8.12,2.58-10.35,5.34-14.36,4.59-31,13.83-42.76,19.25-9.63,4.43-15.2,6.38-22.56,9.65,3-.84,6.56-.77,11,.46l.66.19c-3.49.06-7.23.27-11.43.75-7.69,7.65-7.2,25.42-5.9,38.23,1,10.11,5.66,25.34,12.77,36.08-3.09,1.05-5.54,5.59-6.24,11.42h-.2c-4.85,0-8.79,17.82-8.79,39.79s3.94,39.79,8.79,39.79a2.19,2.19,0,0,0,.93-.22q.35,7.88.92,16.28c-2.89,4.39-4.78,11.65-4.78,19.85,0,11.78,3.89,21.6,9,23.8q1.06,8.77,2.35,18a2.35,2.35,0,0,0-.64-.09c-4.32,0-7.82,10.21-7.82,22.81s3.5,22.81,7.82,22.81a2.73,2.73,0,0,0,1.05-.21c.52,7.26,3.57,12.83,7.25,12.83a4.47,4.47,0,0,0,3.07-1.39c7.36,24.46,15,23.64,21.87,9.61,13.21-3.25,32.7-19.43,53.62-41.24,2.66-1.32,5.33-2.75,7.93-4.24,24-13.84,25.57-3,38-16.71,10.56-11.55,18.36-20.31,19.62-34.89,7.54-4.65,13.62-9.24,15.92-12.17,4.42-5.65,5.45-12,3.1-17.18a86.28,86.28,0,0,0,1.46-16.21c0-2.6-.1-5.12-.29-7.53a.06.06,0,0,0,0,0l.07-.05c15.87-13.53,26.31-23.32,34.2-36.33a8.38,8.38,0,0,1-2.33-.09c1.13-.48,2.22-1,3.3-1.56a51.38,51.38,0,0,0,7.07-4.31c8.53-6.2,14-14.43,14.6-23.52,5.2-4.24,8.85-14.53,8.85-26.54,0-14-5-25.63-11.53-28.12a50,50,0,0,0-3.55-11.5,46.18,46.18,0,0,0-2.46-4.87c-.38.46-.74.93-1.09,1.41a29.17,29.17,0,0,0-5.15,10.44,27.17,27.17,0,0,1,5.58-13c.22.37.45.75.66,1.13,7.34-9.26,18.19-17.12,21.07-36.38C273.77,234.85,276.45,205.73,270.64,184.3ZM177.13,445.92c-.07-.81-.13-1.62-.19-2.46a24.42,24.42,0,0,1,3.23.23C179.14,444.48,178.12,445.23,177.13,445.92Zm57.62-115c-.11.91-.19,1.83-.25,2.77l-.28-.16c0,.37-.09.74-.13,1.12a18,18,0,0,1-1.81-.91,208.7,208.7,0,0,0,1.12-22.6c-.34-.74-.65-1.48-.94-2.23l.92.63.51.34c-.11-.94-.2-1.9-.29-2.86-.16-.35-.3-.71-.44-1.08l.37.25c0,.28,0,.55.07.83s.3.72.47,1.08A201.51,201.51,0,0,1,233,330c-.1.88-.2,1.77-.29,2.65.52.28,1,.55,1.53.84.19-1.42.43-2.8.72-4.12C234.87,329.91,234.81,330.41,234.75,330.92Zm.21-1.59a40.71,40.71,0,0,1,3.59-12.26c.09.56.18,1.13.29,1.71s.22,1.17.35,1.78l-.78-1A38.06,38.06,0,0,0,235,329.33Zm5.42-1.46s0-.05,0-.07,0-.08,0-.11v0h0s0,.05,0,.08,0,0,0,.06A.06.06,0,0,1,240.38,327.87Zm-.71-4.65c.05.34.1.68.14,1-.21-1.23-.42-2.45-.64-3.68C241.18,323.41,244.86,328.66,239.67,323.22Zm.53-3.39c.05.33.1.66.14,1-.21-1.2-.41-2.38-.63-3.58C241.68,320,245.27,325.11,240.2,319.83Zm-.81-4.31c.1.56.21,1.13.34,1.72l-.76-1q-.21.39-.42.81a31.61,31.61,0,0,1,.38-12.33A34.56,34.56,0,0,0,239.39,315.52Z"/><path class="cls-5" d="M58.11,272.38a83.35,83.35,0,0,1-15.38-1.51,1.5,1.5,0,0,1,.55-2.95C81,275,93.05,254.12,93.54,253.23a1.5,1.5,0,0,1,2.63,1.44C95.72,255.51,86.13,272.38,58.11,272.38Z"/><path class="cls-5" d="M144.09,278.4a40.2,40.2,0,0,1-14-2.46c-21-7.75-29.5-30.78-29.86-31.76a1.5,1.5,0,0,1,2.83-1c.08.23,8.41,22.72,28.09,30,12.22,4.5,26.3,2.29,41.86-6.58a1.5,1.5,0,0,1,1.48,2.61C163.7,275.31,153.52,278.4,144.09,278.4Z"/><path class="cls-5" d="M22,441.38a7,7,0,0,1-4-1.28c-4.68-3.21-8.06-12.69-10.07-28.16C6.4,400.65,6.22,390.1,6.22,390a1.5,1.5,0,0,1,1.47-1.53A1.54,1.54,0,0,1,9.22,390c.18,11.4,2.41,42.19,10.4,47.67a4.06,4.06,0,0,0,4,.45,1.5,1.5,0,0,1,1,2.82A7.86,7.86,0,0,1,22,441.38Z"/><path class="cls-5" d="M135.25,374.86a41.89,41.89,0,0,1-17.51-4.07,1.5,1.5,0,1,1,1.25-2.72c10.65,4.87,21,5,30.85.47,31.65-14.71,48.31-73.49,48.47-74.08a1.5,1.5,0,0,1,1.85-1,1.49,1.49,0,0,1,1,1.84,211.6,211.6,0,0,1-12.49,32.09c-11.09,22.7-23.75,37.47-37.61,43.91A37.27,37.27,0,0,1,135.25,374.86Z"/><path class="cls-5" d="M92.94,501.9a41.88,41.88,0,0,1-17.5-4.07,1.49,1.49,0,0,1-.74-2,1.51,1.51,0,0,1,2-.74c10.65,4.88,21,5,30.84.48,31.64-14.7,48.31-73.49,48.48-74.08a1.5,1.5,0,0,1,2.89.8,211.06,211.06,0,0,1-12.5,32.09c-11.09,22.7-23.74,37.47-37.6,43.91A37.28,37.28,0,0,1,92.94,501.9Z"/><path class="cls-6" d="M84.35,277.36C92,284.44,103,284,112.3,281c1.83-.58,1-3.48-.8-2.89-8.24,2.63-18.2,3.43-25-2.91-1.41-1.31-3.54.81-2.12,2.13Z"/><circle class="cls-7" cx="161.74" cy="192.3" r="17.87"/><ellipse class="cls-7" cx="50.44" cy="181.26" rx="18.49" ry="16.89"/><path class="cls-8" d="M65.76,182.91c0,8-7.11,14.47-15.86,14.52s-15.75-6.32-15.75-14.23,7-14.43,15.75-14.53S65.76,174.94,65.76,182.91Z"/><path class="cls-9" d="M60.09,182.45a9.81,9.81,0,0,1-9.67,9.85,9.59,9.59,0,0,1-9.63-9.65,9.83,9.83,0,0,1,9.63-9.85A9.58,9.58,0,0,1,60.09,182.45Z"/><path class="cls-10" d="M49.66,191.55a8.76,8.76,0,0,1-2.31-.56l1.08-2.8a6.39,6.39,0,0,0,1.55.38Zm2.39-.06-.47-3a5.78,5.78,0,0,0,1.52-.45l1.28,2.72-.1,0h0A8.78,8.78,0,0,1,52.05,191.49Zm-6.79-1.64a9,9,0,0,1-1.73-1.64l2.34-1.88a6.32,6.32,0,0,0,1.15,1.1Zm11.1-.27-1.88-2.33a6,6,0,0,0,1.1-1.16L58,187.86A9,9,0,0,1,56.36,189.58ZM42.3,186.22l-.06-.14a9.07,9.07,0,0,1-.63-2.18l3-.47a5.71,5.71,0,0,0,.45,1.51Zm16.85-.45-2.8-1.08a6.58,6.58,0,0,0,.38-1.56l3,.33A8.86,8.86,0,0,1,59.15,185.77Zm-14.62-3.94-3-.31a9.16,9.16,0,0,1,.55-2.31l2.8,1.06A6.56,6.56,0,0,0,44.53,181.83Zm12.17-.3a6.39,6.39,0,0,0-.45-1.53l1.34-.67,1.38-.59-1.38.59,1.39-.57a9.37,9.37,0,0,1,.68,2.31Zm-11-2.66-2.43-1.76a9.27,9.27,0,0,1,1.64-1.73l1.89,2.33A6.38,6.38,0,0,0,45.66,178.87Zm9.72-.28a5.51,5.51,0,0,0-1.16-1.1L56,175.06a9,9,0,0,1,1.74,1.63Zm-7.22-1.74-.65-1.35-.59-1.38a9,9,0,0,1,2.26-.67l.48,3A6,6,0,0,0,48.16,176.85Zm4.65-.12a6.34,6.34,0,0,0-1.56-.37l.31-3a9.33,9.33,0,0,1,2.32.55Z"/><path d="M54.25,183.05a4.47,4.47,0,0,1-4.4,4.49,4.37,4.37,0,0,1-4.39-4.4,4.48,4.48,0,0,1,4.39-4.49A4.37,4.37,0,0,1,54.25,183.05Z"/><path class="cls-8" d="M176.46,193.78c0,8-7.11,14.48-15.85,14.53s-15.75-6.32-15.75-14.24,7-14.42,15.75-14.53S176.46,185.81,176.46,193.78Z"/><path class="cls-9" d="M171.39,192.2a9.82,9.82,0,0,1-9.68,9.85,9.58,9.58,0,0,1-9.62-9.65,9.82,9.82,0,0,1,9.62-9.85A9.59,9.59,0,0,1,171.39,192.2Z"/><path class="cls-10" d="M161,201.3a8.93,8.93,0,0,1-2.32-.56l1.08-2.8a6.47,6.47,0,0,0,1.56.38Zm2.38-.06-.46-3a5.89,5.89,0,0,0,1.52-.45l1.27,2.72-.1,0h0A9.4,9.4,0,0,1,163.34,201.24Zm-6.79-1.64a9.21,9.21,0,0,1-1.72-1.64l2.33-1.88a6.07,6.07,0,0,0,1.16,1.1Zm11.11-.27L165.78,197a6.32,6.32,0,0,0,1.1-1.15l2.42,1.77A9.21,9.21,0,0,1,167.66,199.33ZM153.6,196l-.06-.14a9.22,9.22,0,0,1-.64-2.18l3-.47a6.22,6.22,0,0,0,.44,1.51Zm16.84-.45-2.8-1.09a6,6,0,0,0,.39-1.55l3,.33A9.3,9.3,0,0,1,170.44,195.52Zm-14.62-3.94-3-.31a8.76,8.76,0,0,1,.56-2.31l2.8,1.06A6.58,6.58,0,0,0,155.82,191.58Zm12.17-.3a5.85,5.85,0,0,0-.45-1.53l1.35-.67,1.38-.59-1.38.59,1.38-.57a9,9,0,0,1,.69,2.31Zm-11-2.66-2.43-1.76a8.63,8.63,0,0,1,1.63-1.73l1.9,2.32A5.81,5.81,0,0,0,157,188.62Zm9.72-.29a6.3,6.3,0,0,0-1.16-1.09l1.75-2.44a9,9,0,0,1,1.73,1.64Zm-7.22-1.73-.66-1.35-.6-1.37.05,0a9.12,9.12,0,0,1,2.22-.65l.48,3A6.07,6.07,0,0,0,159.46,186.6Zm4.65-.12a6.56,6.56,0,0,0-1.56-.37l.31-3a8.75,8.75,0,0,1,2.31.55Z"/><path d="M165.55,192.8a4.49,4.49,0,0,1-4.41,4.49,4.37,4.37,0,0,1-4.39-4.4,4.48,4.48,0,0,1,4.39-4.49A4.37,4.37,0,0,1,165.55,192.8Z"/><path class="cls-11" d="M89.24,236.91c-8,0-11-4.9-12.2-8.31-2.4-7.12.45-17.86,5.26-19.82,3.28-1.33,2.09-14.24-.89-25.43a1.5,1.5,0,0,1,2.9-.77c1.15,4.31,6.51,26-.88,29-2.76,1.13-5.66,9.83-3.55,16.08,1.94,5.73,7.35,7.57,15.67,5.32a1.5,1.5,0,0,1,.78,2.9A27.5,27.5,0,0,1,89.24,236.91Z"/><path class="cls-9" d="M178.21,210.13c0,3.33-10.09,7.85-21.82,7.85s-23.4-8.7-23.4-12,5.65-4.38,17.38-4.38S178.21,206.8,178.21,210.13Z"/><path class="cls-9" d="M67.59,197.37c0,3.83-13.29,8.69-21,8.69s-11.43-9.75-11.43-13.58,7.56-1.27,15.29-1.27S67.59,193.53,67.59,197.37Z"/><path class="cls-12" d="M223.76,196.6a98.41,98.41,0,0,0-18.6-.07c-12.78,1.17-22.25,4.74-28.17,10.61a27.4,27.4,0,0,0-7.69-4.47l-.2-.06a81.4,81.4,0,0,0-38-.19c-9.51-7.8-36.36-23.8-61.35-6.47l-.74.51a1.48,1.48,0,0,0-.67-1.9C48.53,183.81,33.61,189.78,33,190l-.86.36-.07.93c-.09,1.29,1,10.79,8.28,14.92s17.69,1.46,31.08-7.84c27.36-19,58,5.6,60.59,9,8.37,10.86,18.56,12.53,24.05,12.53a21.48,21.48,0,0,0,3.88-.31c12.86-1.57,18.8-4,19.28-7.85a4,4,0,0,0-.38-2.23c13.17-13.48,44.25-10,44.56-10a1.5,1.5,0,1,0,.36-3ZM42,203.74c-4.94-2.67-6.52-8.79-6.87-11.26,3.55-1.06,16.1-3.78,31.74,4.71a1.37,1.37,0,0,0,.71.18C56.53,204.62,47.7,206.82,42,203.74Zm117.52,12.91-.13,0c-.59.12-14.34,2.74-25-11.1a8.91,8.91,0,0,0-.6-.7,81.17,81.17,0,0,1,34.52.64c3,1.18,6.15,3.07,7.4,4.6l0,0a2.2,2.2,0,0,1,.14.18s0,0,0,0a1.62,1.62,0,0,1,.38,1.06C176.18,211.94,175.05,214.76,159.53,216.65Z"/><path class="cls-13" d="M103.45,58.43,70.07,42.31c-.76-3.6-2.8-6.45-7.29-7.36a36.72,36.72,0,0,0-7.63-.89c-3.72.19-6.72,1.08-9,3.1a13.48,13.48,0,0,0,.38,1.42,10.42,10.42,0,0,1,1.23-1.33c2.08,10.62,18.37,17.14,36.48,21.18l1.14.24c21.67,4.46,45.16,5.62,50.22,6.09,2.29.21,8.59-.07,16.92-.92C136.44,64.48,120.81,62,103.45,58.43ZM220,42.66c-16.61,9.3-31.17,15-44.8,18.15,13.44-2.25,27.69-5.5,38.33-9.83.41-.16.8-.33,1.19-.5,6.06-2.57,10.83-5.52,13.45-8.86l.25-.34C226.37,40.19,223.74,40.55,220,42.66Z"/><path class="cls-13" d="M234.86,54.71c-1.93-5.91-3.52-10.21-5.76-12.35a5.69,5.69,0,0,0-.93-.74c-2.62,3.34-7.39,6.29-13.45,8.86-.39.17-.78.34-1.19.5-10.55,4.46-24.82,7.78-38.29,10.08a117.57,117.57,0,0,1-22.4,3.06c-8.23.85-14.45,1.14-16.71.93-5.09-.48-29-1.68-50.75-6.38l-1.14-.24c-18.11-4-34.4-10.56-36.48-21.18a10.42,10.42,0,0,0-1.23,1.33c-.14.18-.28.36-.41.55a18.63,18.63,0,0,0-2.65,6.81c-3.11,15-7.8,35.06-4.49,51-.45.89-.9,1.85-1.35,2.9-3.31,7.69-3,10.92,6.07,15q5.29,2.41,10.67,4.58l0-.07c46.92,18.26,98.18,23.3,146.51,14.18a247.16,247.16,0,0,0,24.14-5.81c2.38-.7,4.76-1.45,7.12-2.22l1-.35.38.34c6.81-2.57,5.33-4.12,5.35-13.29C239,92.9,242.3,77.46,234.86,54.71ZM58,51.94l-.32-.18a4.26,4.26,0,0,1,.74-.92Z"/><path class="cls-13" d="M58.38,50.84,58,51.94l-.32-.18A4.26,4.26,0,0,1,58.38,50.84Z"/><path class="cls-14" d="M58.38,52.84,58,53.94l-.32-.18A4.26,4.26,0,0,1,58.38,52.84Z"/><path class="cls-14" d="M230.38,40.25a8.9,8.9,0,0,1-1.28,4.11,5.69,5.69,0,0,0-.93-.74c-2.62,3.34-7.39,6.29-13.45,8.86-.39.17-.78.34-1.19.5-10.55,4.46-24.82,7.78-38.29,10.08a117.57,117.57,0,0,1-22.4,3.06c-8.23.85-14.45,1.14-16.71.93-5.09-.48-29-1.68-50.75-6.38l-1.14-.24c-18.11-4-34.4-10.56-36.48-21.18a10.42,10.42,0,0,0-1.23,1.33c-.14.18-.28.36-.41.55A12.89,12.89,0,0,1,45.93,39c-.15-25.39,67.9-30.62,87.66-28.29S231.36,19.07,230.38,40.25Z"/></svg>