<svg xmlns="http://www.w3.org/2000/svg" xmlns:xlink="http://www.w3.org/1999/xlink" width="420" height="510" viewBox="0 0 420 510"><defs><style>.cls-1,.cls-10{fill:none;}.cls-2{fill:#fde8e1;}.cls-3{fill:#e1cfc9;}.cls-4{fill:#c75967;}.cls-5{fill:#f29274;opacity:0.35;}.cls-6{fill:#fff;}.cls-7{fill:#3a2a00;}.cls-8{fill:#1d1d1b;}.cls-9{fill:#ec6665;}.cls-10{stroke:#3a2a00;stroke-miterlimit:10;}.cls-11{clip-path:url(#clip-path);}</style><clipPath id="clip-path"><rect class="cls-1" x="653.55" y="3349.82" width="1919.03" height="1018.24"/></clipPath></defs><g id="hagrid"><g id="Layer_12" data-name="Layer 12"><path class="cls-2" d="M323.34,176c0,8.7,15.61,53.71,15,78s-43.38,34.88-41.5,25.5c7-35,19.26-39-12-39-18,0-28.89,5-49,5s-44.12,29.55-61,24C154,262.66,69.74,280,57.34,267s6-27.48,6-44c0-9-16.93-25.21-11-43,12-36,44.77-94.31,62.5-104.5,10.41-6,25.75,1.8,37.61,5.9,13.41,4.63,28.6,7.1,45.39,7.1,26.2,0,82.49-32,92-12C309.84,118.52,323.34,147,323.34,176Z"/><path class="cls-3" d="M364.34,181.52c0,59.93-43.25,136.5-67,136.5-11,0,16.61-52.79,9-70-5.54-12.52-23.47-14.27-25.85-32.5-1.39-10.69,15.85-18.62,15.85-30.5,0-26.84-14.14-54.91-7.74-73.86,3.34-9.86-38.78-37.8-34.26-44.14,6.18-8.66,59.43,6,67,6C345.09,73,364.34,121.6,364.34,181.52Z"/><g id="Layer_13" data-name="Layer 13"><path class="cls-4" d="M206.28,224.57a1.24,1.24,0,0,1-1.13-.8c-.74-1.37.18-1.9,2.94-3.47,2.08-1.19,2.07-2.26,2.06-2.61,0-2.81-5.17-6.75-9-9l-7.35,8.11-.36.13c-1.13.39-27.77,9.54-41.39,2.17a14.21,14.21,0,0,1-7.32-9.4,32,32,0,0,1-1-7.38c-.14-15.72,14.08-19.72,14.22-19.76a1.5,1.5,0,0,1,.78,2.9h0a17,17,0,0,0-12,16.84,28.69,28.69,0,0,0,.92,6.67,11.18,11.18,0,0,0,5.83,7.49c11.68,6.31,35.43-1.19,38.62-2.24l8.43-9.3,1,.56c1.18.63,11.52,6.34,11.59,12.16a4,4,0,0,1,0,.49c2.43-1.23,5.07-2.59,7.22-3.71.47-1.12,1.55-4.26.41-6.6-.69-1.41-2.18-2.36-4.41-2.82a1.49,1.49,0,0,1-1.17-1.77,1.51,1.51,0,0,1,1.77-1.17c3.2.66,5.39,2.15,6.51,4.45,2.06,4.22-.5,9.45-.61,9.67l-.21.44-.44.22s-3.74,1.94-7.49,3.85c-1.88,1-3.77,1.91-5.19,2.61A9.65,9.65,0,0,1,206.28,224.57Z"/><path class="cls-4" d="M134,220.65a1.47,1.47,0,0,1-.91-.31c-.23-.18-5.57-4.35-4.45-9.47,1-4.48,6.31-7.76,16.27-10a1.5,1.5,0,1,1,.67,2.92c-8.35,1.89-13.33,4.64-14,7.74s3.3,6.41,3.34,6.44a1.5,1.5,0,0,1-.91,2.69Z"/><path class="cls-4" d="M191.74,179a1.49,1.49,0,0,1-.47-.07c-11.3-3.73-18.68-.13-18.75-.09a1.5,1.5,0,0,1-1.37-2.67c.34-.18,8.5-4.24,21.06-.09a1.5,1.5,0,0,1-.47,2.92Z"/><ellipse class="cls-5" cx="103.84" cy="184.02" rx="17.5" ry="15"/><ellipse class="cls-6" cx="103.84" cy="187.02" rx="12.5" ry="11"/><ellipse class="cls-7" cx="103.84" cy="187.52" rx="7.5" ry="6.5"/><ellipse class="cls-8" cx="104.34" cy="187.52" rx="4" ry="3.5"/><ellipse class="cls-5" cx="257.84" cy="177.52" rx="19.5" ry="16.5"/><ellipse class="cls-6" cx="254.84" cy="181.02" rx="12.5" ry="11"/><ellipse class="cls-7" cx="254.84" cy="181.52" rx="7.5" ry="6.5"/><ellipse class="cls-8" cx="254.34" cy="181.52" rx="4" ry="3.5"/><path class="cls-9" d="M181.57,246.51a40.36,40.36,0,0,1-19.63-5.37,2,2,0,0,1,2.16-3.37c.76.48,17.94,11.14,34.57-.87a2,2,0,0,1,2.79.45,2,2,0,0,1-.45,2.79A32.55,32.55,0,0,1,181.57,246.51Z"/><path class="cls-3" d="M210.34,217.52c0,3-2.86-1.5-7-1.5-1.37,0-1.89.47-3,0-2.24-1-5,2-5,0s-.19-2,2-3c1.12-.49,2.59-4,4-4,1.82,0,5,3.48,6.3,4.28A5.06,5.06,0,0,1,210.34,217.52Z"/><path class="cls-5" d="M153.34,201c0,3.95,4,9,10,13,2.93,2,23.38,2,21,2-1.46,0-7.7,2.75-16,3-5.67.17-13.85-1.68-16-3-4.25-2.58-6-8.19-6-12,0-8.56,7.58-20,12-20S153.34,192.46,153.34,201Z"/></g></g><g id="Layer_10" data-name="Layer 10"><path class="cls-7" d="M410.84,300.52c1.25,4.37-17,13-23,24-4.63,8.48-19.11,8.24-24,12-14,11-24.63,15.7-30,30-7.18,19.11-2,44-4,57-1.48,9.6-7.46,8.66-17,13-11,5-20.81,23.4-26,26-4.37,2.18-30,13-54,5-8-2.67,50.55-50.07,48-84-1.56-20.75,36.12-32.33,19-70-5-11-1.65-24.25,1-34,4.65-17.08,30.64-19.18,28-30-3.27-13.39-3.36-25.87-6-36-7-16.53-1.39-22.7-8-43-14-43-18.84-70.17-26-96-20.62,3.73-54,5-78,17-5.33,2.67-34.28,1.18-40,1-36.73-1.13-31.79-9.57-49-16-.29,7.22-1.66,8.11-10.44,18.34-7.88,9.2-32.33,44.1-50.58,67.05,9.8,2.43-6,41.61,14,50.61,15.72,7.08-16,23-6,40,5.7,9.68,4,15.26,1,25-3.86,12.41-18.17,40.51-19,54-1.34,21.6,5.2,35.38,4.58,42.77h0C59,381.38,67,399.81,76.84,414.52c6,9,15,14,21,20,17.72,17.72,43,60,1,12-2.4-2.74-36.53-5.73-39.36-7.85-4.9-3.66-12.64-14-12.64-21.15,0-5.45,3.95-18.33,7-22,1.95-2.34-3-9.65-6.35-15.2-5.35-2-18-16.5-26.65-20.8-12-6-10-22-13-42-2.34-15.62,1.91-14.15,6-33,1.2-5.52-10.45-16.37-5-24,5-7,13.52-6.55,14-13,.75-10.15.23-26,2-31,4-11.42,26-20,20-29-5.65-8.47-9.93-7.72-5-12,6.46-7.65,26.22-28,32-40,3.78-7.83,3.83-25,5-35,1.27-10.79,3.59-14.19,6-17,3.29-3.84,5.6-7.22,9-10,4.43-3.62,6.2-10.61,10-12-1.31-1.43.79-6.09,2-7,7.5-5.62,12-2.59,26-9,8.4-3.84,22.87-19.38,36-19,20,.57,39-9,68-18,2.47-.77,20.48,8.3,23,8,12.39-1.47,25.5-8.75,35-4,8,4,24.46,6.37,28,17,9,27,40,15.85,40,23,0,2.17,8-1,7,19,7.16,7.32,1.9,9.17,9,23,10.2,19.88-.25,21.4,7,50,1.94,7.65,11,14.42,11,24,0,32,7,58,14,75C418.22,268.73,408.86,293.59,410.84,300.52Z"/></g><g id="Layer_11" data-name="Layer 11"><path class="cls-7" d="M314.34,308c-5.87-19.84-3.69-68.79-13.5-68.5-18.24.54-41,0-66,8-1.8.58-3.86-.4-5-3-1.43-3.27-8.8-8.19-11-12-2.49-4.32-9.58-10.85-10-10.92-7-1.08-11.69-1.83-13-1.08-.9.52-11.85,1-15,1-4.71,0-7.28-.3-13,0a50.89,50.89,0,0,1-18-2c-3.83-1.59-10.89,1.68-16,14-1.87,4.51-7.27,11.19-8,15-7,6-16.25.37-27,5-6.49,2.8-17.08.92-21,5-11.44,11.91-15.59,36-21,52a176.49,176.49,0,0,0-8,34C46.1,363.5,57,386.9,74,409.32c12,15.81,27.44,31.27,42.84,44.2,17.63,14.79,35.33,26.31,50,32,15.92,6.17-1.22,16,17,16,12.85,0,39.44-34.17,51-38,19.27-6.38,44.63-39.33,58-54,11.49-12.6-5.24-6.51,11-13C328.84,386.52,317.73,319.49,314.34,308Zm-144.5-41.5c-10.78-.83-10-2-16-7-1.85-1.53-6.65-10.9-6-13,1.54-5,3-8,6-11,2,.08,4.44-5,7-5,5.15,0,9.46-.65,16-1,10.09-.54,27.36,0,28.79,2.82,1,2,.5,3.82,1.21,6.18,1.84,6.18.2,18.08-2,19C190.26,266.85,186.2,267.79,169.84,266.52Z"/><path class="cls-10" d="M210,222.25c0,.13-.89-.31-1.16-.65C209.57,221.79,210,222,210,222.25Z"/><path class="cls-7" d="M268.84,144.52c-.76-2.82,3.63-6.11-1-8-6.29-2.56-23-1-33.74-.07-8.44.73-16,6.38-22.26,7.07-9,1-5.51,9.76-4.5,13.5.89,3.34-2.7,13.46,4,14s19.91-7.92,29.24-10.42C259.25,155.58,270.63,151.19,268.84,144.52Z"/><path class="cls-7" d="M143,159c-1.46,4.25-6.13,11.16-14.2,10.57-3.84-.28-9.67-6.51-14-8-6.38-2.18-22.07-12.82-27-12-6,1,7.87-8.71,9-12,1.22-3.56,6.8-.79,13-1,4.73-.15,6.94.76,12.75,2.75,5.54,1.89,17.66,5.4,21.25,8.25C149,151.6,144.3,155.26,143,159Z"/></g></g></svg>