<svg xmlns="http://www.w3.org/2000/svg" xmlns:xlink="http://www.w3.org/1999/xlink" width="430" height="580" viewBox="0 0 430 580"><defs><style>.cls-1{fill:none;}.cls-2{fill:#673a6f;}.cls-3{fill:#8d58a0;}.cls-4{fill:#fde8e1;}.cls-5{fill:#c75967;}.cls-15,.cls-6{fill:#e1cfc9;}.cls-6{opacity:0.73;}.cls-7{fill:#ec6665;}.cls-8{fill:#f29274;opacity:0.35;}.cls-9{fill:#fff;}.cls-10,.cls-13{fill:#83d0f5;}.cls-11{fill:#008acd;}.cls-12{fill:#1d1d1b;}.cls-13{opacity:0.6;}.cls-14{fill:#294093;}.cls-16{fill:#efeeee;}.cls-17{clip-path:url(#clip-path);}</style><clipPath id="clip-path"><rect class="cls-1" x="45.68" y="3349.82" width="1919.03" height="1018.24"/></clipPath></defs><g id="mcgonagall"><g id="Layer_6" data-name="Layer 6"><path class="cls-2" d="M321,217.5c-.7.94-14.14,17.2-15,18-22.7,21,1.68,37.54,14,48,18.16,15.43,25,39.79,17,47-9.7,8.79-24.45,22.58-35.15,31.06C278.77,379.83,247.91,391,214,391c-27.94,0-53.81-7.58-75-20.48-12.69-7.74-40.3-8.95-49-20-14-17.72-1-34-1-57,0-22.72,12-38,15.5-61.5,2-13.22,20.18-33.41,32-41,21.63-13.89,53.39-10.5,82.5-10.5,7.63,0,30.43-13.23,31-14l4-15c.33-.45,0-7.44,0-8l-6-31c0-1.43,4.57-15,6-15L272.89,92A2.61,2.61,0,0,0,275,91l17-8.46,15-9,15-14a90.6,90.6,0,0,0,10-16c4.88-10.31,7.37-22.47,8-22l4-11,6-4c.52.39,2.84,4.79,5.12,9.56,2.7,5.65,5.34,11.82,4.88,12.44l-.56,12.43L351,60.5l-13,21-10,10-8.77,5.68L311,102.5c-.33.45-9,13.44-9,14l-4,10-1,16c0,1.43,1.38,18.68,3.37,20.16L328,204.5c1.15.85-4.15,9.85-5,11Z"/><path class="cls-3" d="M421.51,417c0,21.24-13.74,45.88-38,62-38.2,25.39-78.73,21-150,21-5.84,0-32.28-8.78-38-9-47.64-1.82-92.45,4.17-126-10-19-8-30.28-10.24-42-21-14.72-13.52-19.37-27.78-19-44,.36-15.87,3.16-18,16-32,13.42-14.62,31-27,55-43a147.51,147.51,0,0,1,61-23c19.84-2.75,46.15-13,68-13,22,0,46.18,4.11,66,7,24,3.51,44.37,13.24,63,23,30.5,16,43.82,24.52,58,40C409.11,389.85,421.51,401.34,421.51,417Z"/><path class="cls-4" d="M300,467.5c0,23.83-7.48,41.72-22,58-16.27,18.25-52,48-78,48-21.64,0-51.58-27.8-67-41-19.62-16.78-31-31.71-31-60,0-12.63-4.5-23.05,0-34,13.51-32.84,65.64-45.5,102.5-45.5,30.17,0,75.4,2.9,91.5,26.5C306.14,434.35,300,448,300,467.5Z"/><path class="cls-5" d="M198.64,514.5h-.73c-4.28-.22-8.1-2-9.49-4.37a3.59,3.59,0,0,1-.2-3.51c.75-1.49,1.2-4.09,1.8-10.3.91-9.39-4.77-21.85-4.83-22a2,2,0,1,1,3.64-1.68c.25.55,6.18,13.56,5.17,24-.65,6.69-1.15,9.47-2.09,11.48.42.68,2.61,2.14,6.21,2.32,4.67.23,9.84-2.7,9.89-2.72a2,2,0,0,1,2,3.46C209.76,511.37,204.25,514.5,198.64,514.5Z"/><path class="cls-6" d="M277.51,505c-2.58,3.44-4.88,5.25-7,8-4.15,5.38-16,8-12,7,2.07-.52,12.65,1.94,19.29-3.68,1.95-1.65,2.67-5.28,4.71-7.32,2.46-2.46,4.81-4,7-6,7.13-6.54,5.58-10.58,7-12,4-4,.42-2.19-5,2C288.78,495.11,280.51,501,277.51,505Z"/><path class="cls-6" d="M125.44,510.12c2.58,3.44,4.88,5.25,7,8,4.15,5.38,16,8,12,7-2.07-.52-12.66,1.94-19.29-3.68-2-1.65-2.67-5.28-4.71-7.32-2.47-2.46-4.81-4-7-6-7.13-6.54-5.59-10.58-7-12-4-4-.42-2.19,5,2C114.17,500.23,122.44,506.12,125.44,510.12Z"/><path class="cls-7" d="M202.37,541.54a22.49,22.49,0,0,1-16.93-7.17,2,2,0,1,1,3.14-2.48c.47.59,11.74,14.06,34.76-2.51a2,2,0,0,1,2.34,3.24C216.31,539.37,208.52,541.54,202.37,541.54Z"/><ellipse class="cls-8" cx="244.51" cy="471.5" rx="16" ry="13.5"/><ellipse class="cls-9" cx="244.01" cy="473.5" rx="12.5" ry="10.5"/><ellipse class="cls-10" cx="244.51" cy="474" rx="8" ry="7"/><path class="cls-11" d="M244.35,480.32a8.07,8.07,0,0,1-1.71-.18l.63-2.94a5.31,5.31,0,0,0,1.54.1l.27,3C244.84,480.31,244.59,480.32,244.35,480.32Zm3.11-.63-1.17-2.76a4.58,4.58,0,0,0,1.25-.79l2,2.2A7,7,0,0,1,247.46,479.69Zm-7.12-.45a7.15,7.15,0,0,1-1.92-1.66l2.34-1.87a4.22,4.22,0,0,0,1.1,1Zm10.75-3L248.37,475a3,3,0,0,0,.3-1.3h3A6.07,6.07,0,0,1,251.09,476.28Zm-13.85-1a6.3,6.3,0,0,1-.2-1.56,6.38,6.38,0,0,1,.09-1.08l3,.54a3.12,3.12,0,0,0,0,.54,2.93,2.93,0,0,0,.1.78Zm11.42-1.81a3.25,3.25,0,0,0-.4-1.28l2.61-1.48a6.28,6.28,0,0,1,.78,2.51Zm-8-1.54-2.47-1.7a6.67,6.67,0,0,1,1.8-1.79l1.69,2.48A3.77,3.77,0,0,0,240.61,471.92Zm6.72-.82a4.34,4.34,0,0,0-1.3-.72l1-2.83a7.62,7.62,0,0,1,2.18,1.21Zm-4.33-.82-.81-2.89a8.27,8.27,0,0,1,2.16-.29h.27l-.1,3h-.17A5.05,5.05,0,0,0,243,470.28Z"/><circle class="cls-12" cx="245.01" cy="474.5" r="3.5"/><ellipse class="cls-8" cx="154.51" cy="472.5" rx="16" ry="13.5"/><ellipse class="cls-9" cx="154.51" cy="474.5" rx="12" ry="10.5"/><ellipse class="cls-10" cx="154.51" cy="475" rx="8" ry="7"/><path class="cls-11" d="M154.2,481.22a8.16,8.16,0,0,1-1.72-.18l.64-2.93a5.63,5.63,0,0,0,1.54.09l.26,3Zm3.11-.62-1.18-2.77a4.35,4.35,0,0,0,1.25-.79l2,2.21A7.55,7.55,0,0,1,157.31,480.6Zm-7.13-.46a6.92,6.92,0,0,1-1.91-1.65l2.34-1.88a4.22,4.22,0,0,0,1.1.95Zm10.76-3-2.72-1.27a3.08,3.08,0,0,0,.29-1.3h3A6,6,0,0,1,160.94,477.18Zm-13.86-1a6.3,6.3,0,0,1-.2-1.56,5.64,5.64,0,0,1,.1-1.08l3,.54a3.29,3.29,0,0,0-.05.54,3,3,0,0,0,.1.79Zm11.42-1.81a3.14,3.14,0,0,0-.4-1.28l2.62-1.47a6.07,6.07,0,0,1,.77,2.51Zm-8.05-1.54-2.47-1.7a7.12,7.12,0,0,1,1.8-1.79l1.7,2.48A3.81,3.81,0,0,0,150.45,472.82Zm6.73-.82a4.89,4.89,0,0,0-1.31-.72l1-2.82a7.21,7.21,0,0,1,2.17,1.21Zm-4.34-.82-.8-2.89a8.14,8.14,0,0,1,2.15-.29h.28l-.1,3h-.18A5.05,5.05,0,0,0,152.84,471.18Z"/><circle class="cls-12" cx="155.01" cy="475.5" r="3.5"/><ellipse class="cls-13" cx="153.51" cy="485.5" rx="17" ry="5.5"/><ellipse class="cls-13" cx="241.51" cy="486.5" rx="17" ry="5.5"/><path class="cls-14" d="M241.83,495.55a7.63,7.63,0,0,1-1.1-.07c-7.32-1.05-7.6-1.18-22.09-8.36-13-6.42-38.07-1.34-40.92-.73-3.08,1.66-28.81,15-39.29,1.33-9.05-11.76-33.11-4.87-33.36-4.8L104,479.08c1.09-.32,26.93-7.73,37.65,6.2,4.49,5.84,13.43,4.94,20.15,3.16A71,71,0,0,0,176,482.75l.25-.14.28-.06c1.17-.27,28.9-6.42,43.85,1,14.19,7,14.19,7,20.87,8,4.6.67,18.84-6.25,26.73-10.76l.1-.05c.6-.3,15.06-7.36,29.78,0,4.28,2.14,6.42,2.72,7.41,2.86l0-.09,3.48-2c.85,1.49,1.28,3.6-.07,5-1.84,1.94-5.48,1.29-12.56-2.25-12.54-6.27-25.35-.41-26.18,0C267.58,485.62,249.88,495.55,241.83,495.55Z"/><path class="cls-15" d="M104.51,470c2.19-.44,27.58-28.51,47-26,31,4,67.83-14.09,72-37,2-11,20,24,25,28,12.83,10.27,40.89,35.14,51,30,5.94-3-4.45-42.22,1.49-43.49,9.72-2.07-35.34-21.33-69.83-27.81-22.77-4.28-45.63,3.37-58.52,4.19-35.5,2.23-56.58,14.86-66.14,31.11-7.68,13.06-8.5,28.35-5,35C103.61,468,100.76,470.75,104.51,470Z"/><path class="cls-16" d="M134,440.5c7.48-6.23,41.84,1.47,52-5,22-14,28-32,41-42,7.88-6.06-41.08-4-75,5-22.39,5.95-44.17,18-51,29C88.6,447.42,104,465.5,134,440.5Z"/><path class="cls-16" d="M293,408.5c6.82,6.82,10.13,9.24,13,16,3.54,8.34,1,37-3,41-3.18,3.18-.75-4.29-7-6-7.94-2.18-13.68-10.36-23-18-7.42-6.08-17-12-22-20-2.72-4.36-26.71-25.29-24-28C234.23,386.28,277.78,393.27,293,408.5Z"/></g></g></svg>