<svg xmlns="http://www.w3.org/2000/svg" xmlns:xlink="http://www.w3.org/1999/xlink" width="380" height="470" viewBox="0 0 380 470"><defs><style>.cls-1{fill:none;}.cls-2{fill:#e0eadf;}.cls-3{fill:#c9d1c9;}.cls-4{fill:#b59e64;}.cls-5{fill:#f4e9d3;}.cls-6{fill:#c1b9aa;}.cls-7{fill:#8e0715;}.cls-8{fill:#003f38;}.cls-9{opacity:0.54;}.cls-10{fill:#fff;}.cls-11{clip-path:url(#clip-path);}</style><clipPath id="clip-path"><rect class="cls-1" x="2255.3" y="3349.82" width="1919.03" height="1018.24"/></clipPath></defs><g id="Ormehale"><g id="Layer_19" data-name="Layer 19"><path class="cls-2" d="M291.51,204.77c0,23-43,77.14-34.95,96.5,15.3,37,68.85,114,40.42,100.61s-93.5,53.38-114.68,53.38c-20.67,0-46.57-14.29-60.62-29.26-16.38-17.45-25.41-49.2-45.87-69.81-15.29-15.39-17.48-26.35-17.48-55.43,0-10.58-20.63-53.84-15.29-62.62,21.85-35.93,2.13-43.25,10.93-57.49,9.25-15,26.78-60.7,38.77-71.35,20-17.74,21.1,9.24,47,9.24,25.14,0,67.74-25.05,87.38-8.21,21,18,16.35,18.47,26.21,49.27C259.66,179.53,291.51,181.77,291.51,204.77Z"/><path class="cls-3" d="M234.46,302c-2.42,5.25,47.15-97.24,30.46-101.22-12.66-3-28.37-64.62-44.44-72-15.31-7.06-72.78,16.23-83.12,8.88-14.82-10.53-40-19.31-37.51-24.75,4.26-9.23,75.77-51.44,113-34.27,18.63,8.59,128.17,217.59,139,226.24,5.22,4.18-17.44,104.24-46.71,102C273.85,404.43,235.56,299.62,234.46,302Z"/><path class="cls-4" d="M355.16,337.26l2.64,23a11.34,11.34,0,0,1-7.53,11.14c-3.93,1.41-14.31,3.59-15.11,2.89,11,16,20.81,52.85,15,63-6.84,11.94-13-5.84-20-7-12-2-23.79,30.55-29-2-2.23-13.92-13.87-48.35-27.5-75.5-10.85-21.62-26.5-47.2-26.5-54.5,0-15.85,10.28-29.69,13-43s4-6,18-34c-9.26-16.22,1-18-13.5-27.5-4.85-3.18-16.42,58.51-20,53-5.66-8.72,5.31-45.26,5-74-.14-13.06-9.67-24.1-12-34-2-8.56-14.19-17.81-21.69-22.58a26.91,26.91,0,0,0-23.79-2.53c-9.48,3.52-17.94,10.55-27.52,11.11-7.53.44-19,0-27,0-14.59,0-16.24-14.62-29-16-.32,0-1.11,2.14-11.3,10.24-6.51,5.17-13.11,16.1-15,24.2C80,153.44,71.9,156.84,67.66,169.76c-8.18,25-.7,46.7-7,55-2.81,3.71-13.24,24.92-11,29,9.69,17.6,4.18,2,12,37,3.18,14.26,6.31,28.39,8,41s6.21,21.43,11.25,27.85c10.33,13.18,22.74,15.81,16.75,17.15-2.5.55,53.42,75.11,53,85-.29,6.72-40-23-45-33-4-8-2.51,20.86-8,22-24,5-26.71-51.72-28.18-42.92-.82,4.92-25.37,18.1-28.82,12.92-10.93-16.41,14.16-35.84,11-50-.73-3.28-4.37,1.19-4-3,6-67,3.59-40.94,4-59,.12-5.29-11.78-6.08-10-23,2-19-14.84-1.94-17-13-1.24-6.35-25,14-18-36-1.78-9,13.68-34,30-53,6-7-.21-25.2,3-35,4.47-13.64,15-19,12-22-.85-.85-17,17-19,17-24,0,2.71-27.06,5-33s24.63-26.09,26-28c-3.84-3,30-8.61,30-12,0-8.54-5-2-16-7-12.32-1.71-.06-12,3-13,15-5,24.77-11,51-11,15.47,0,38,4,38,3,0-3.55,22.73-21.73,38.5-23.5,8.75-1,27.87-12,39-12,31.2,0,26,3.48,26,9,0,4.24-87,12.68-10,22,6.9,4.24,23,18,28,26,.57.91,58.28,46,58,47,10,11-32-5-2,29,9.36,10.61-18.74.7-14,16,3.86,12.44,34,21.16,34,33,0,9-14,2-7,19,3.69,9-11,8-12,14-7.74-.24,26,50,26,54,5.06,5.75-32.89-1.85-26,4l13.44,33a16.27,16.27,0,0,1,.3,12.06Z"/><path class="cls-4" d="M227.16,196.26c0-3.87-12-7-28-7-6.35,0-19.22,5.16-24,6-2.47.43-6.78,5.73-9.5,10.5-5.27,9.25-8.5,21-8.5,22.5,0,2.57,10.94-12.72,19.5-11.5,4.31.61,16.13-11.5,21.5-11.5,6.21,0,11.78-5.7,16.5-6.5C222.11,197.49,227.16,198.63,227.16,196.26Z"/><path class="cls-4" d="M123.66,228.76c0-2.24-9.23-26.72-16-28-4.93-.93-10.75-3.5-17.5-3.5-16,0-20.5,1.63-20.5,5.5,0,2.34-3.3,5.73,4,7a94.39,94.39,0,0,0,16.5,1.5c6.23,0,17.6,5.71,21.5,8.5C118.66,224.76,123.66,231.12,123.66,228.76Z"/><path class="cls-5" d="M161.78,334c-2.49,13-11.05,21.9-15.73,21s-7.57-19-5.08-32c.88-4.58,2.17-6.57,3.67-10,2.77-6.41,7.4-5.76,10.43-5.18,2.86.55,10.54-2.69,10.91,3.66C166.22,315.5,162.75,329,161.78,334Z"/><path class="cls-5" d="M137.52,328.84c0,7.85,5.93,26.24,2.54,26.24s-14.83-18.39-14.83-26.24c0-2.28-2-.64-1.57-2.55,1-4.68-2.35-9.53-1.26-11.68,1.59-3.11,17.49-10.58,18.71-5.09C141.72,312.26,137.52,324.91,137.52,328.84Z"/><path class="cls-6" d="M146.85,356.11a4.46,4.46,0,0,1-1-.12c-10.63-2.54-5.51-28.83-3-41.46.42-2.18.83-4.26.92-5.13a1.36,1.36,0,0,1,0-.85l.19-.73h1.24l.34.38a.91.91,0,0,1,.11.16,35.85,35.85,0,0,0,4.27-.7c5-1,11.9-2.35,15.25.15a4.81,4.81,0,0,1,1.92,3.57c1,10.41-7.44,35.58-15.69,42.74A6.93,6.93,0,0,1,146.85,356.11Zm-1.27-45.77c-.15,1-.42,2.37-.85,4.57-2.16,11.08-7.21,37,1.56,39.13,1.05.25,2.29-.23,3.69-1.44,7.68-6.66,15.92-31.18,15-41a2.86,2.86,0,0,0-1.13-2.16c-2.63-2-9.27-.65-13.66.22A31.37,31.37,0,0,1,145.58,310.34Z"/><path class="cls-6" d="M140,356.09a1.92,1.92,0,0,1-1.07-.37c-3.87-2.55-15.59-22.85-16.22-29.33a32.18,32.18,0,0,0-1.37-6.4c-.74-2.49-1.33-4.46.42-6.11s9.64-7.83,15.63-7.36a6.1,6.1,0,0,1,4.55,2.39l.27.35-3.63,19.58c4.81,26.24,2.72,26.91,1.82,27.19A1.34,1.34,0,0,1,140,356.09ZM136.7,308.5c-4.81,0-11.7,5-13.61,6.83-.81.77-.6,1.65.13,4.09a34.58,34.58,0,0,1,1.44,6.77c.59,6,11.64,24.67,14.93,27.57.39-3-1.15-14.41-3.05-24.74l0-.18,3.53-19a4.79,4.79,0,0,0-3.34-1.3Z"/><path class="cls-7" d="M176.49,315.33a1.49,1.49,0,0,1-.83-.25c-29.39-19.36-56.41-.24-56.68,0a1.5,1.5,0,0,1-1.77-2.43c.29-.21,28.94-20.56,60.1,0a1.5,1.5,0,0,1-.82,2.76Z"/><path class="cls-8" d="M182.16,331.62a1.49,1.49,0,0,1-1.49-1.37c-2.57-29.58-6.26-44.64-11.62-47.41-3-1.53-6.9.79-11.44,3.46-4.09,2.41-8.72,5.14-13.87,5.75-7.21.84-24.27,1-27.09-15.94-1.17-7,22.79-64.39,25.53-70.91a1.5,1.5,0,0,1,2.77,1.16c-10.21,24.32-26.11,64.63-25.34,69.26,1,5.95,5.4,15.61,23.78,13.45,4.52-.53,8.67-3,12.69-5.35,5.09-3,9.9-5.83,14.34-3.54,6.63,3.42,10.46,17.85,13.24,49.81a1.5,1.5,0,0,1-1.37,1.62Z"/><path class="cls-8" d="M106.42,339.41a1.49,1.49,0,0,1-1.48-1.27c-.18-1.09-4-27.1,16.27-54a1.5,1.5,0,0,1,2.39,1.81,79.22,79.22,0,0,0-15.23,35.65,59,59,0,0,0-.47,16.09,1.5,1.5,0,0,1-1.25,1.72Z"/><path class="cls-8" d="M209.34,278.27a29.78,29.78,0,0,1-11.07-2.36,47.94,47.94,0,0,1-11.58-6.81,1.5,1.5,0,0,1,1.93-2.3c.18.15,18.13,14.89,30.95,5.09a1.5,1.5,0,1,1,1.82,2.38A19.41,19.41,0,0,1,209.34,278.27Z"/><path class="cls-8" d="M85.91,286.53a1.5,1.5,0,0,1-.82-2.76c10-6.49,13.26-23.11,13.29-23.28a1.5,1.5,0,0,1,3,.56c-.14.73-3.53,18-14.61,25.23A1.43,1.43,0,0,1,85.91,286.53Z"/><path class="cls-8" d="M160.84,405C145,405,129,395.5,113.09,376.62a1.5,1.5,0,0,1,.18-2.11,1.48,1.48,0,0,1,2.11.18c17.2,20.4,34.35,29.46,51,26.92,32.34-4.94,52.56-52.32,52.76-52.79a1.5,1.5,0,1,1,2.76,1.15,139.07,139.07,0,0,1-14.53,25.23c-12.39,17.06-26.4,27.22-40.53,29.38A39.76,39.76,0,0,1,160.84,405Z"/><g class="cls-9"><path class="cls-8" d="M162.41,421a48.33,48.33,0,0,1-21.36-4.63,1.5,1.5,0,0,1,1.31-2.7c29.22,14.22,67-11.14,67.43-11.4a1.5,1.5,0,0,1,1.69,2.48,110.53,110.53,0,0,1-23.43,11.47A77.86,77.86,0,0,1,162.41,421Z"/></g><g class="cls-9"><path class="cls-8" d="M176.23,423.49a7.6,7.6,0,0,1-4.34-1,4.22,4.22,0,0,1-2.18-3.51,1.5,1.5,0,0,1,3-.21,1.24,1.24,0,0,0,.68,1.13c5.41,3.14,31.36-7.19,46.44-14.45a1.5,1.5,0,0,1,1.3,2.71c-.1,0-10.11,4.85-21,9C187,422.25,180,423.49,176.23,423.49Z"/></g><path class="cls-10" d="M217.24,251.51c-3.78,7.46-10.84,9.32-17.49,7.58-6.5-1.69-9.75-3.68-9.75-9.21,0-.63-5.43-1.7-5.3-2.29,1-4.66,10.76-10.31,16.45-12.11,6.31-2,22.33,4.41,23.67,7.87C225.57,245.27,218.18,249.66,217.24,251.51Z"/><path class="cls-10" d="M95.9,256.84c0,6.6-8.52,10-15.31,10-4.41,0-8.89-1.58-11.06-5-1.17-1.84-3.08-3.62-3.08-5.94,0-1.79-4.19-2.56-3.47-4.08,2-4.11,12.66-9,17.61-9,5.43,0,12.68,1.73,14.31,6.48A45.82,45.82,0,0,1,95.9,256.84Z"/><circle class="cls-7" cx="81.15" cy="253.87" r="8.81"/><circle class="cls-7" cx="204.07" cy="245.05" r="8.81"/><circle cx="81.15" cy="253.89" r="4.18"/><circle cx="204.07" cy="245.05" r="4.18"/></g></g></svg>