<svg xmlns="http://www.w3.org/2000/svg" xmlns:xlink="http://www.w3.org/1999/xlink" width="1920" height="1080" viewBox="0 0 1920 1080"><defs><style>.cls-1,.cls-32,.cls-37,.cls-44,.cls-45,.cls-46,.cls-47,.cls-49,.cls-50,.cls-52{fill:none;}.cls-2{clip-path:url(#clip-path);}.cls-3{clip-path:url(#clip-path-2);}.cls-11,.cls-4{fill:#3a2a00;}.cls-5{fill:#99825b;}.cls-6{fill:#b59e64;}.cls-7{fill:#84724c;}.cls-8{fill:#f4e9d3;}.cls-10,.cls-9{fill:#c1b9aa;}.cls-10,.cls-24{opacity:0.35;}.cls-11{opacity:0.16;}.cls-12{fill:#294093;}.cls-13,.cls-43{fill:#ffed00;}.cls-14{fill:#003f38;}.cls-15{fill:#bf6800;}.cls-16{fill:#673a6f;}.cls-17{fill:#1f306d;}.cls-18{filter:url(#AI_Shadow_1);}.cls-19{fill:#8d58a0;}.cls-20{fill:#fde8e1;}.cls-21{fill:#c75967;}.cls-22,.cls-30{fill:#e1cfc9;}.cls-22{opacity:0.73;}.cls-23{fill:#ec6665;}.cls-24{fill:#f29274;}.cls-25{fill:#fff;}.cls-26,.cls-29{fill:#83d0f5;}.cls-27{fill:#008acd;}.cls-28{fill:#1d1d1b;}.cls-29{opacity:0.6;}.cls-31{fill:#efeeee;}.cls-32{stroke:#3a2a00;}.cls-32,.cls-37,.cls-43,.cls-44,.cls-46,.cls-47{stroke-miterlimit:10;}.cls-33,.cls-51{fill:#d3d3d3;}.cls-34{fill:#0959cc;}.cls-35{fill:#e0eadf;}.cls-36{fill:#c9d1c9;}.cls-37{stroke:#003f38;}.cls-37,.cls-45,.cls-47,.cls-49,.cls-50,.cls-52{stroke-linecap:round;}.cls-37,.cls-43{stroke-width:3px;}.cls-38{fill:#012822;}.cls-39{opacity:0.33;}.cls-40,.cls-41{fill:#8e0715;}.cls-41{opacity:0.42;}.cls-42{opacity:0.54;}.cls-43{stroke:#f7931e;}.cls-44{stroke:#294093;stroke-dasharray:2;opacity:0.4;}.cls-44,.cls-45,.cls-46,.cls-47,.cls-49,.cls-52{stroke-width:2px;}.cls-45{stroke:#ec6665;}.cls-45,.cls-49,.cls-50,.cls-52{stroke-linejoin:round;}.cls-46{stroke:#e0eadf;}.cls-47,.cls-50{stroke:#d3d3d3;}.cls-48{fill:#feffe9;}.cls-49{stroke:#000;}.cls-51{opacity:0.49;}.cls-52{stroke:#f29274;}.cls-53{filter:url(#AI_Shadow_2);}</style><clipPath id="clip-path"><rect class="cls-1" x="-1493.8" y="2489.73" width="1919.03" height="1018.24"/></clipPath><clipPath id="clip-path-2"><rect class="cls-1" width="1920" height="1080"/></clipPath><filter id="AI_Shadow_1" name="AI_Shadow_1"><feGaussianBlur result="blur" stdDeviation="2" in="SourceAlpha"/><feOffset result="offsetBlurredAlpha" dx="4" dy="4" in="blur"/><feMerge><feMergeNode in="offsetBlurredAlpha"/><feMergeNode in="SourceGraphic"/></feMerge></filter><filter id="AI_Shadow_2" x="-15%" y="-15%" width="140%" height="130%" name="AI_Shadow_2"><feGaussianBlur result="blur" stdDeviation="6" in="SourceAlpha"/><feOffset result="offsetBlurredAlpha" dx="8" dy="8" in="blur"/><feMerge><feMergeNode in="offsetBlurredAlpha"/><feMergeNode in="SourceGraphic"/></feMerge></filter></defs><g id="Startskærm"><g class="cls-3"><rect class="cls-4" x="-20" y="549.74" width="1823.85" height="530.26"/><rect class="cls-5" width="340.82" height="549.74"/><polygon class="cls-6" points="1988.75 859.84 359.41 630.77 347.05 122.45 1938.18 -314 1988.75 859.84"/><polygon class="cls-7" points="534.18 242.91 394.61 200.49 390.86 700.8 537.93 656.09 534.18 242.91"/><polygon class="cls-8" points="1343.27 94.17 340.82 273.28 340.82 0 1343.27 0 1343.27 94.17"/><polygon class="cls-4" points="1955.69 1020.32 335.82 731.81 334.96 801.95 1956.74 1183.83 1955.69 1020.32"/><polygon class="cls-4" points="1954.9 897.67 336.47 679.1 335.61 749.15 1955.95 1060.71 1954.9 897.67"/><path class="cls-8" d="M342.08,223.42l-6.26,508.43,88.65,15.79A252.49,252.49,0,0,1,422,709.18l2.84-251c1.1-97.47,62-186.87,144.1-201.3h0c92.46-16.26,175.73,66.85,174.81,187.9l-2.37,312.07a234.91,234.91,0,0,1-4.89,46.39l188.07,33.5a260.24,260.24,0,0,1-6-56.58l1.92-345.9c.74-134.1,117-263,281.68-292.26h0c195.48-34.7,383.27,80,383.67,263.16l1,473.55a234.27,234.27,0,0,1-11.54,74l380.38,67.76-7.56-1174.9Z"/><path class="cls-9" d="M745.42,625.47l38.67,2.65c7.75.53,14.14-5.87,14.19-14.3l.63-89.37c.06-8.41-6.23-15.22-14-15.2l-38.63.1C739,509.37,733,515.93,733,524l-.66,85.89C732.25,618,738.09,625,745.42,625.47Z"/><path class="cls-9" d="M747.54,504.21l38.68-.22c7.76-.05,14.15-6.9,14.21-15.31l.62-89.19c.06-8.39-6.23-14.71-14-14.12l-38.66,2.95c-7.33.56-13.27,7.55-13.34,15.62l-.66,85.7C734.35,497.73,740.2,504.25,747.54,504.21Z"/><path class="cls-9" d="M744.49,749.22l38.7,5.58c7.76,1.12,14.15-4.82,14.21-13.28l.62-89.64c.06-8.43-6.23-15.73-14-16.3l-38.66-2.82c-7.33-.53-13.28,5.6-13.34,13.71l-.67,86.13C731.3,740.72,737.15,748.16,744.49,749.22Z"/><path class="cls-9" d="M730.79,806.12c21.43,3.46,43.6,7,66.09,9.21m0,0,.25-35.77c.06-8.46-6.24-16.26-14-17.42l-38.7-5.75c-7.34-1.09-13.29,4.62-13.35,12.75l-.29,37m.09-3.83c20.59,3.66,41,6.58,62.69,12.65C771.93,808.87,751.47,806,730.88,802.29Z"/><path class="cls-9" d="M399.3,549.08l23.89.66c4.76.13,8.71-5.1,8.78-11.69l.79-69.87c.07-6.57-3.76-11.74-8.52-11.53l-23.88,1c-4.55.2-8.28,5.52-8.36,11.9l-.79,67.71C391.14,543.68,394.75,549,399.3,549.08Z"/><path class="cls-9" d="M401.84,444.87l22.8,8.38c4.54,1.67,9.42-2.13,10.87-8.51l15.58-68.44c1.48-6.52-1.13-12.93-5.81-14.3l-23.48-6.87c-4.48-1.31-9.23,2.78-10.63,9.11l-14.71,66.52C395.09,437,397.49,443.27,401.84,444.87Z"/><path class="cls-9" d="M429.16,330.37l15.61,23.76c3.09,4.71,8.7,4.72,12.55,0l42.2-51.85c4.11-5,4.72-13,1.36-17.72l-16.95-23.84c-3.25-4.58-9.09-4.15-13,.9l-40.49,51.94C426.72,318.29,426.16,325.8,429.16,330.37Z"/><path class="cls-9" d="M502.72,244.66l4.5,33.91c.88,6.64,5.89,10.35,11.22,8.26l59.23-23.2c5.84-2.29,9.8-9.83,8.8-16.82l-5.07-35.68c-1-6.92-6.48-10.48-12.25-8l-58.49,25.45C505.39,230.91,501.85,238.08,502.72,244.66Z"/><path class="cls-9" d="M611.15,214.9l-12.41,37.19c-2.4,7.19.16,14.54,5.75,16.46l62.1,21.29c6.12,2.1,13.28-2.29,15.94-9.84l13.81-39.1c2.72-7.7-.21-15.48-6.51-17.34L626,204.7C620.2,203,613.59,207.58,611.15,214.9Z"/><path class="cls-9" d="M726.54,262.47l-31.32,24.94c-6,4.76-8.06,13.68-4.7,20l36.59,68.82c3.54,6.66,11.54,8.41,17.9,3.85l33.38-23.92c6.66-4.77,9-14.2,5.22-21l-39.22-70.12C740.8,258.63,732.79,257.5,726.54,262.47Z"/><path class="cls-9" d="M398.18,645.81l23.9,2.45c4.76.49,8.71-4.46,8.78-11.06l.79-70c.07-6.59-3.76-12.06-8.52-12.21l-23.88-.76c-4.56-.14-8.29,4.92-8.37,11.31l-.79,67.87C390,639.77,393.63,645.34,398.18,645.81Z"/><path class="cls-9" d="M430.53,666.38c.08-6.61-3.75-12.38-8.51-12.89l-23.9-2.55c-4.55-.48-8.29,4.31-8.36,10.72l-.89,76a6.6,6.6,0,0,0,5.42,6.58c9.77,1.73,19.65,3,29.5,6.59a6.59,6.59,0,0,0,8.21-3.36c.78-1.64,9.17-6.85,9.69-8,.42-.94,4.9-1.33-7.05.54Z"/><path class="cls-9" d="M1069.59,135.3l9.45,47.18c1.85,9.26,11.89,14,22.52,10.56l120.28-39c12.08-3.92,20.19-15.21,18-25.16l-11.15-50.67c-2.16-9.81-13.62-14.18-25.47-9.82l-118.1,43.47C1074.67,115.68,1067.77,126.16,1069.59,135.3Z"/><path class="cls-9" d="M929.58,261l30.2,31.74c6,6.32,16.85,6,24.22-.82l81.91-75.64c8.08-7.46,9.18-18.71,2.44-25l-33.83-31.73c-6.46-6.05-17.88-4.85-25.49,2.6l-77.3,75.62C924.77,244.51,923.81,254.88,929.58,261Z"/><path class="cls-9" d="M875.13,419.76l43,10.91c8.62,2.19,17.84-3.16,20.51-12l28.8-95.16c2.76-9.1-2.35-17.82-11.32-19.43l-44.71-8c-8.46-1.51-17.33,4.37-19.87,13.12l-26.6,91.49C862.44,409.17,867,417.7,875.13,419.76Z"/><path class="cls-9" d="M931.66,854.84l.7-130A18.69,18.69,0,0,0,916,706.56l-45-4.81c-8.51-.91-15.39,5.45-15.44,14.18L854.9,830c25,8.15,50.43,17.43,76.56,27.12A17,17,0,0,0,931.66,854.84Z"/><path class="cls-9" d="M872,562.15l44.91,1.24a16,16,0,0,0,16.5-16l.52-96.34a15.5,15.5,0,0,0-16.31-15.7l-44.86,1.93a16.46,16.46,0,0,0-15.41,16.39l-.58,92.3A15.93,15.93,0,0,0,872,562.15Z"/><path class="cls-9" d="M871.19,694.41l45,4.62a14.71,14.71,0,0,0,16.52-14.82l.52-96.65a17,17,0,0,0-16.32-17L872,569.16a15.06,15.06,0,0,0-15.43,15.28L856,677C855.89,685.75,862.68,693.53,871.19,694.41Z"/><path class="cls-9" d="M1592.27,684.35l90.16,6.21c18.35,1.26,33.38-8.26,33.33-21.28l-.51-137.95c0-13-15.11-23.45-33.42-23.41l-90,.19c-16.81,0-30.25,10-30.23,22.17l.25,129.8C1561.91,672.33,1575.42,683.19,1592.27,684.35Z"/><path class="cls-9" d="M1594.6,498.14l90.15-.56c18.34-.11,33.37-10.72,33.32-23.7l-.51-137.48c0-12.93-15.11-22.26-33.42-20.85l-89.94,6.91c-16.81,1.3-30.25,12.19-30.23,24.36l.25,129.39C1564.24,488.42,1577.75,498.24,1594.6,498.14Z"/><path class="cls-9" d="M1592.69,872.42l90.38,13.07c18.4,2.66,33.47-5.76,33.42-18.84L1716,728.07c0-13-15.16-24.7-33.51-26l-90.17-6.61c-16.86-1.24-30.33,7.71-30.31,20l.25,130.36C1562.26,858.05,1575.8,870,1592.69,872.42Z"/><path class="cls-9" d="M1562.45,957.14c49.37,8.31,101.17,16.94,154.46,23.73m0,0-.2-55.37c0-13.09-15.2-26-33.6-28.7l-90.39-13.46c-16.89-2.52-30.4,5.45-30.38,17.76l.11,56m.11-5.81c47.45,8.47,95.19,15.87,146.44,28.43C1657.75,967.2,1610,959.8,1562.56,951.33Z"/><path class="cls-9" d="M1288.54,79.1l-25.44,55.28c-4.89,10.64.6,21,12.37,23.13l133.42,24.54c13.43,2.47,29.06-4.75,34.79-16.22l29.81-59.64c5.9-11.79-.78-23-14.78-24.89l-139-19C1307.49,60.62,1293.57,68.17,1288.54,79.1Z"/><path class="cls-9" d="M1541.7,134.7l-69.79,40.78c-13.15,7.68-17.62,21.14-10.06,30.18l83.44,99.9c8.18,9.79,26.45,11.93,40.92,4.64l76.9-38.74c15.54-7.84,20.88-22.47,11.79-32.53l-92.49-102.48C1574.05,127.19,1555.78,126.47,1541.7,134.7Z"/><path class="cls-10" d="M772.65,134.72l-.3,42c-.06,8.2,6,13.66,13.68,12.18l85.72-16.59c8.52-1.65,15.54-10.11,15.59-18.87l.27-44.93c0-8.75-6.88-14.2-15.4-12.18l-85.66,20.27C778.91,118.44,772.71,126.53,772.65,134.72Z"/><path class="cls-10" d="M1631.21,65.09l.17,63.77c0,12.45,14.25,20.51,32,18L1868,117.44c21-3,38.16-16.67,38.08-30.47l-.42-70.68c-.08-13.77-17.36-21.72-38.31-17.8L1663,36.64C1645.32,40,1631.17,52.66,1631.21,65.09Z"/><path class="cls-10" d="M392.56,221.27l-.38,32.45c-.07,6.33,3.52,10.76,8.06,9.88l50.21-9.72c4.93-.95,9-7.13,9.09-13.79l.37-34.15c.08-6.66-3.89-11.1-8.82-9.94l-50.2,11.88C396.35,209,392.64,215,392.56,221.27Z"/><path class="cls-10" d="M341.21,294.44l-.39,31.22c-.07,6.09,3.24,10.55,7.42,9.95L394.48,329c4.53-.65,8.29-6.37,8.37-12.76l.38-32.79c.07-6.39-3.57-10.88-8.1-10L348.9,282C344.71,282.8,341.28,288.36,341.21,294.44Z"/><path class="cls-10" d="M1840.68,508.69l.36,69.77c.07,13.61,16.86,25.2,37.79,25.89l68.85,2.26c22.33.73,40.6-10.3,40.51-24.65l-.51-73.52c-.1-14.32-18.5-25.73-40.78-25.49l-68.74.73C1857.26,483.91,1840.61,495.1,1840.68,508.69Z"/><path class="cls-10" d="M826.76,340.41l-.29,43.65c-.06,8.51,6.48,15,14.66,14.44l91.92-6.1a18.15,18.15,0,0,0,16.75-17.64L950,328c.05-9.12-7.41-15.69-16.56-14.68l-91.86,10.08C833.44,324.28,826.82,331.9,826.76,340.41Z"/><path class="cls-10" d="M770.45,437.61l-.31,42.33c-.06,8.26,6.05,14.88,13.71,14.8l85.92-1a16.13,16.13,0,0,0,15.64-16.17l.27-45.26c.05-8.82-6.89-15.59-15.44-15.12l-85.87,4.69C776.71,422.34,770.51,429.36,770.45,437.61Z"/><path class="cls-11" d="M502.93,485.5l.11,14.6c0,6.69-2.87,12.62-6.77,13.29L469.43,518c-6.55,1.11-12.41-5.73-12.51-15.4l-.22-21.1c-.1-9.7,5.64-16.39,12.23-15l27,5.5C499.85,472.73,502.88,478.78,502.93,485.5Z"/><path class="cls-11" d="M589.06,382.3l-.15,16c-.07,7.34,4.76,13,10.82,12.54L633,408.53c6.39-.44,11.66-7,11.73-14.59l.14-16.58c.07-7.61-5.09-13.27-11.48-12.65L600.13,368C594.07,368.55,589.13,375,589.06,382.3Z"/><path class="cls-11" d="M616,427l-.15,16.29c-.07,7.48,4.94,13.36,11.24,13.12l34.5-1.29c6.64-.25,12.12-6.76,12.19-14.53l.14-16.91c.06-7.77-5.3-13.7-11.94-13.26l-34.5,2.29C621.2,413.09,616.08,419.49,616,427Z"/><path class="cls-11" d="M1011.13,710.15l-.09,20.72c0,9.52,8,18.24,18.14,19.48l55.8,6.89c10.81,1.34,19.69-5.67,19.73-15.66l.07-21.74c0-10-8.79-18.91-19.59-19.93l-55.77-5.26C1019.32,693.69,1011.18,700.64,1011.13,710.15Z"/><path class="cls-11" d="M1112.14,720.6l-.07,21.82c0,10,8.94,19.27,20.15,20.65l62,7.66c12,1.49,21.93-5.85,22-16.4l0-23c0-10.54-9.82-20-21.86-21.15l-62-5.85C1121.2,703.31,1112.17,710.58,1112.14,720.6Z"/><path class="cls-11" d="M1019.73,276l-.09,20.58c0,9.46,8.06,16.27,18.2,15.21l56-5.85c10.84-1.13,19.75-10.11,19.78-20l.07-21.6c0-9.91-8.81-16.76-19.65-15.32l-55.93,7.45C1027.94,257.78,1019.77,266.53,1019.73,276Z"/><path class="cls-11" d="M1283.49,477.39l0,23.55c0,10.82,10.55,19.63,23.74,19.67l73.2.24c14.25,0,25.94-9.18,25.94-20.61V475.35c0-11.42-11.68-20.37-25.93-20l-73.15,1.87C1294.08,457.55,1283.5,466.58,1283.49,477.39Z"/><path class="cls-11" d="M556.3,430.4,556.15,446c-.08,7.19,4.54,12.84,10.34,12.62l31.78-1.19c6.11-.23,11.15-6.46,11.22-13.91l.15-16.22c.06-7.45-4.87-13.16-11-12.75L566.9,416.7C561.09,417.08,556.37,423.21,556.3,430.4Z"/><path class="cls-11" d="M1227,408.54l0,22.9c0,10.52,10,18.75,22.49,18.38l69.28-2.06c13.47-.4,24.53-9.72,24.54-20.82V402.78c0-11.08-11-19.42-24.5-18.64l-69.23,4.05C1237.06,388.93,1227,398,1227,408.54Z"/><path class="cls-11" d="M1352.46,402.33v24.25c0,11.15,11.24,19.85,25.27,19.43l78-2.32c15.21-.45,27.67-10.38,27.66-22.17l0-25.67c0-11.79-12.48-20.61-27.68-19.72l-77.92,4.56C1363.71,381.51,1352.47,391.2,1352.46,402.33Z"/><path class="cls-9" d="M591.78,254.82c-21.06,11.54-66.54,54.28-83,82.48-14,24-27.21,65.24-38.52,102.38L466,732.8l-44.9,12.28,2.69-368,38.33-49.8c2.47-7.83,5-13.94,7.63-17.62C488.56,283,603.38,248.47,591.78,254.82Z"/><path class="cls-9" d="M1238.63,136.42c-40.1,16.85-126.71,79.24-158,120.41-26.64,35-51.82,95.25-73.36,149.47L999,834.23l-67.57,22.9c-5.83.55-11.63-20.49-11.64-26.35l-1.18-515.9,73-72.7c4.7-11.43,9.58-20.35,14.53-25.73C1042.06,177.56,1260.72,127.15,1238.63,136.42Z"/><rect class="cls-12" x="30.91" y="-43.83" width="274.15" height="398.88"/><path class="cls-13" d="M230.9-43.28a106.25,106.25,0,0,1,13,51.12,106.7,106.7,0,0,1-106.69,106.7,106.21,106.21,0,0,1-67-23.69A106.7,106.7,0,1,0,230.9-43.28Z"/><rect class="cls-9" x="31.34" width="12.6" height="354.89"/><rect class="cls-9" x="162.11" y="52.1" width="12.6" height="274.15" transform="translate(357.58 20.76) rotate(90)"/><rect class="cls-9" x="162.11" y="-107.43" width="12.6" height="274.15" transform="translate(198.05 -138.77) rotate(90)"/><rect class="cls-9" x="162.11" y="212.49" width="12.6" height="274.15" transform="translate(517.98 181.16) rotate(90)"/><rect class="cls-9" x="292.88" width="12.6" height="354.89"/><rect class="cls-9" x="162.11" width="12.6" height="354.89"/><rect class="cls-4" y="138.48" width="342.08" height="34.24"/><rect class="cls-4" y="36.92" width="342.08" height="34.24" transform="translate(69.4 -93.75) rotate(37.95)"/><polygon class="cls-4" points="709.01 54.05 396.08 95.94 396.08 -43.83 709.01 -1.94 709.01 54.05"/><polygon class="cls-14" points="682.79 35.8 422.3 69.89 422.3 -43.83 682.79 -9.75 682.79 35.8"/><polygon class="cls-6" points="975.49 85.35 785.42 95.94 785.42 -43.83 975.49 -33.24 975.49 85.35"/><polygon class="cls-15" points="957.27 60.8 803.65 69.34 803.65 -43.28 957.27 -34.75 957.27 60.8"/><polygon class="cls-4" points="1972.06 204.34 1781.99 221.76 1781.99 -33.94 1972.06 -16.52 1972.06 204.34"/><polygon class="cls-16" points="2036.94 136.49 1846.87 153.9 1846.87 -101.8 2036.94 -84.38 2036.94 136.49"/><polygon class="cls-12" points="1561.65 989.26 1514.52 975.56 1514.52 624.31 1561.65 610.61 1561.65 989.26"/><polygon class="cls-17" points="1580.69 964.34 1557.01 992.28 1557 576.01 1580.05 555.52 1580.69 964.34"/><polygon class="cls-17" points="1357.4 1064.07 1333.71 1092.01 1333.71 675.73 1356.75 655.24 1357.4 1064.07"/><polygon class="cls-17" points="1357.4 1089.81 1333.71 1117.75 1333.71 701.48 1356.75 680.99 1357.4 1089.81"/><polygon class="cls-12" points="1908.73 1053.61 1861.61 1039.91 1861.61 688.65 1908.73 674.95 1908.73 1053.61"/><polygon class="cls-12" points="1670.36 812.62 1285.87 731.03 1295.32 652.52 1684.74 693.16 1670.36 812.62"/><polygon class="cls-12" points="1904.28 353.19 1443.18 387.14 1437.83 606.34 1913.06 621.79 1904.28 353.19"/><g class="cls-18"><path class="cls-16" d="M1847.48,419.12c-.29.15-5.5,2.66-5.81,2.76-8.07,2.61-3.9,9.54-2,13.57,2.75,5.93,1.64,12.78-1.17,13.67-3.43,1.07-8.7,2.81-12.34,3.69a38.84,38.84,0,0,1-25.28-2.77,39.5,39.5,0,0,1-16.32-13.73c-2.27-3.38-9-6.86-9.92-10.63-1.44-6,3.67-8.59,6.31-14.31s7.36-8.09,10.94-13.55c2-3.07,8.87-6,12.69-6.53,7-1,14.51,3.52,21.77,6.87,1.9.88,9.1.2,9.33.08l2.72-3.28a15.73,15.73,0,0,0,.92-2l2.08-8.42c.16-.35,2.86-3.21,3.22-3.05l5.33.81a.72.72,0,0,0,.64,0l5.22-.14,4.77-.52,5.35-1.76a24.73,24.73,0,0,0,4.34-2.84c2.4-2,4.42-4.75,4.52-4.56l2.26-2.28,2-.31a19.79,19.79,0,0,1,.17,3,13.28,13.28,0,0,1-.21,3.66l-1.57,3-4.36,3.9-5.65,3.74-3.64,1.34-2.84.41-2.67.38c-.13.07-3.78,2.31-3.85,2.45l-2.15,2-2.09,3.88c-.16.35-1.8,4.81-1.47,5.41l2.07,13.6c.18.35-2.17,2-2.51,2.17Z"/><path class="cls-19" d="M1849.57,480.39c-2.44,5.29-8.7,9.85-16.6,11.08-12.44,1.93-22-3.82-39.8-12-1.45-.67-7-5.9-8.43-6.62-11.66-5.93-23.52-9.59-30.25-17-3.81-4.19-6.37-6-8-10.07a14.81,14.81,0,0,1,.33-13.15c1.91-3.91,2.86-4.12,7.67-6.13,5-2.1,10.83-3.16,18.65-4.39a40.37,40.37,0,0,1,17.85,1.29c5.26,1.59,13,2.06,18.44,4.58s11,6.33,15.64,9.34c5.59,3.64,9.53,8.4,13,13,5.76,7.5,8.1,11.16,9.85,16.64C1849.6,472.2,1851.37,476.49,1849.57,480.39Z"/><path class="cls-20" d="M1813.48,479a22.48,22.48,0,0,1-12.15,11.92c-6.15,2.68-18.49,6-25,3-5.39-2.49-9.65-12.86-12-17.93-3-6.44-4.08-11.46-.82-18.51,1.45-3.15,1.53-6.27,3.91-8.48,7.15-6.63,21.59-3.78,30.78.46,7.51,3.47,18.45,9.39,19.75,17.13C1818.82,471.44,1815.73,474.13,1813.48,479Z"/><path class="cls-21" d="M1782.82,479.05l-.18-.09a3.27,3.27,0,0,1-1.87-2.18,1,1,0,0,1,.36-.9,9.08,9.08,0,0,0,1.63-2.36c1.31-2.23,1.33-6,1.33-6a.55.55,0,0,1,1.09,0c0,.17,0,4.09-1.47,6.59a10.51,10.51,0,0,1-1.84,2.62,2.41,2.41,0,0,0,1.28,1.29,6,6,0,0,0,2.78.46.54.54,0,0,1,.59.5.54.54,0,0,1-.5.59A7.16,7.16,0,0,1,1782.82,479.05Z"/><path class="cls-22" d="M1803.56,485.75c-1,.56-1.82.75-2.66,1.19-1.65.87-4.91.16-3.8.37.58.11,2.93,1.94,5.23,1.3.68-.19,1.28-1,2-1.28.9-.33,1.66-.44,2.43-.69,2.53-.81,2.61-2,3.13-2.19,1.46-.53.35-.5-1.48-.08A25.5,25.5,0,0,0,1803.56,485.75Z"/><path class="cls-22" d="M1765.08,469.54c.25,1.15.61,1.87.82,2.8.42,1.81,3.07,3.83,2.19,3.12-.46-.37-3.38-1-4.39-3.14-.29-.63,0-1.62-.33-2.36-.33-.9-.74-1.55-1-2.3-1-2.45-.17-3.28-.36-3.8-.54-1.45.14-.59,1,1.08A24.15,24.15,0,0,1,1765.08,469.54Z"/><path class="cls-23" d="M1780.63,486.22a6.17,6.17,0,0,1-3.39-3.74.55.55,0,0,1,1.07-.26c0,.21,1.31,4.86,9,3.38a.53.53,0,0,1,.64.43.55.55,0,0,1-.43.65A11.15,11.15,0,0,1,1780.63,486.22Z"/><ellipse class="cls-24" cx="1799.19" cy="473.61" rx="3.71" ry="4.39" transform="translate(615.08 1908.63) rotate(-65.22)"/><ellipse class="cls-25" cx="1798.84" cy="474.05" rx="2.88" ry="3.43" transform="translate(614.48 1908.57) rotate(-65.22)"/><ellipse class="cls-26" cx="1798.91" cy="474.23" rx="1.92" ry="2.2" transform="translate(614.35 1908.73) rotate(-65.22)"/><path class="cls-27" d="M1798.14,475.79a3.38,3.38,0,0,1-.41-.24l.5-.66a1.65,1.65,0,0,0,.37.2l-.28.77Zm.85.2,0-.82a1.4,1.4,0,0,0,.41-.06l.25.79A2,2,0,0,1,1799,476Zm-1.73-.93a2,2,0,0,1-.28-.63l.8-.2a1,1,0,0,0,.16.36Zm3,.5-.54-.63a.92.92,0,0,0,.23-.29l.74.34A1.66,1.66,0,0,1,1800.29,475.56Zm-3.34-1.85a1.51,1.51,0,0,1,.13-.41,1.35,1.35,0,0,1,.15-.26l.67.48a.54.54,0,0,0-.07.13.48.48,0,0,0-.07.2Zm3,.87a.92.92,0,0,0,0-.37l.82-.07a1.74,1.74,0,0,1-.09.72Zm-1.83-1.31-.42-.71a1.87,1.87,0,0,1,.66-.24l.14.81A1,1,0,0,0,1798.17,473.27Zm1.77.57a1.12,1.12,0,0,0-.24-.33l.58-.59a2.15,2.15,0,0,1,.4.55Zm-1-.71.13-.81a2.21,2.21,0,0,1,.57.17l.07,0-.37.73,0,0A1.65,1.65,0,0,0,1799,473.13Z"/><circle class="cls-28" cx="1798.97" cy="474.42" r="0.96"/><ellipse class="cls-24" cx="1776.65" cy="463.51" rx="3.71" ry="4.39" transform="translate(611.16 1882.3) rotate(-65.22)"/><ellipse class="cls-25" cx="1776.42" cy="464" rx="2.88" ry="3.29" transform="translate(610.58 1882.38) rotate(-65.22)"/><ellipse class="cls-26" cx="1776.36" cy="464.13" rx="1.92" ry="2.2" transform="translate(610.43 1882.4) rotate(-65.22)"/><path class="cls-27" d="M1775.57,465.64a2.1,2.1,0,0,1-.41-.24l.5-.66a1.33,1.33,0,0,0,.37.2l-.28.78Zm.85.21,0-.83a1.13,1.13,0,0,0,.41,0l.25.78A2.24,2.24,0,0,1,1776.42,465.85Zm-1.73-.94a1.87,1.87,0,0,1-.28-.63l.8-.2a1,1,0,0,0,.16.36Zm3,.5-.53-.63a.92.92,0,0,0,.23-.29l.74.35A1.62,1.62,0,0,1,1777.71,465.41Zm-3.33-1.84a1.57,1.57,0,0,1,.13-.42,1.28,1.28,0,0,1,.15-.25l.67.47a.54.54,0,0,0-.07.13.58.58,0,0,0-.07.21Zm3,.86a.92.92,0,0,0,0-.37l.82-.06a1.57,1.57,0,0,1-.1.71Zm-1.83-1.31-.42-.71a1.87,1.87,0,0,1,.66-.24l.14.82A1,1,0,0,0,1775.6,463.12Zm1.77.57a1.27,1.27,0,0,0-.24-.33l.58-.59a2.15,2.15,0,0,1,.4.55Zm-1-.7.13-.82a1.9,1.9,0,0,1,.57.18l.07,0-.37.74,0,0A1.24,1.24,0,0,0,1776.39,463Z"/><circle class="cls-28" cx="1776.43" cy="464.31" r="0.96"/><ellipse class="cls-29" cx="1774.91" cy="466.63" rx="1.51" ry="4.67" transform="translate(607.31 1882.53) rotate(-65.22)"/><ellipse class="cls-29" cx="1796.72" cy="477" rx="1.51" ry="4.67" transform="translate(610.57 1908.36) rotate(-65.22)"/><path class="cls-12" d="M1795.76,479.3l-.27-.15c-1.7-1.1-1.75-1.17-4.54-4.62-2.49-3.1-9.33-4.72-10.11-4.89-1,.06-8.9.41-9.95-4.19-.9-4-7.69-5-7.76-5l.16-1.09c.31.05,7.61,1.17,8.67,5.88.45,2,2.78,2.77,4.66,3.1a19.38,19.38,0,0,0,4.22.23h.08l.07,0c.33.07,7.94,1.72,10.82,5.29,2.72,3.38,2.72,3.38,4.28,4.39,1.07.69,5.41.61,7.9.39h0a9.78,9.78,0,0,1,7.42,3.43,7.52,7.52,0,0,0,1.52,1.56v0l1.09-.1a1.16,1.16,0,0,1-.6,1.25c-.68.27-1.51-.31-2.87-2a8.8,8.8,0,0,0-6.52-3C1803.32,479.78,1797.77,480.22,1795.76,479.3Z"/><path class="cls-30" d="M1764.48,457.13c.6.14,10.15-3.93,14.7-1.07,7.27,4.56,18.53,4.29,22.2-.94,1.76-2.51,2.22,8.28,3,9.85,2,4,6.15,13.46,9.26,13.35,1.82-.07,3.75-11,5.37-10.67,2.66.6-6.35-9.38-14.2-15-5.18-3.69-11.76-4.41-15.07-5.69-9.1-3.53-15.8-2.81-20.06.14-3.41,2.37-5.37,6.09-5.27,8.15C1764.49,456.53,1763.46,456.89,1764.48,457.13Z"/><path class="cls-31" d="M1775.22,453.17c2.59-.69,10.26,5.18,13.54,4.74,7.09-1,10.66-4.75,15-5.75,2.66-.6-9.78-5.73-19.27-7.38-6.26-1.09-13.08-.59-16,1.36C1763.11,449.67,1764.87,456,1775.22,453.17Z"/><path class="cls-31" d="M1818.53,463.49c.91,2.48,1.46,3.47,1.4,5.48-.08,2.49-4,9.34-5.47,9.88-1.16.42.31-1.16-1-2.31-1.73-1.45-2.22-4.15-3.66-7.13-1.15-2.37-2.86-4.94-3.18-7.51-.18-1.4-3.75-9.38-2.76-9.74C1806.44,451.19,1816.48,457.94,1818.53,463.49Z"/></g><g class="cls-18"><path class="cls-20" d="M1876,531.51c-1.17,2.53-2.67,17.72-6.11,24.7s-17.3,4.32-15.5,1.85c6.74-9.25,10.84-8.76,1.75-13-5.24-2.42-9.08-2.43-14.93-5.13s-16.8,2.67-21-1.21c-5.15-4.8-32-11.06-33.84-16.5s5.44-7.19,7.65-12c1.21-2.61-1.54-9.6,2.58-14,8.32-8.86,25.69-21.43,32.21-22,3.83-.34,7.25,4,10.15,6.77a44.37,44.37,0,0,0,12.25,8.16c7.62,3.52,28.29,1.78,28.37,8.86C1879.79,513,1879.89,523.07,1876,531.51Z"/><path class="cls-30" d="M1887.19,538.61c-8,17.43-30.92,33.9-37.82,30.71-3.21-1.48,11.92-13.12,12-19.15.07-4.39-4.9-7.31-3.15-12.93,1-3.3,7.11-3.29,8.71-6.74,3.6-7.81,3.26-17.87,7.66-22.52,2.3-2.43-6.2-16.21-4-17.45,3-1.69,16.49,9.73,18.69,10.75C1896.16,504.47,1895.23,521.18,1887.19,538.61Z"/><path class="cls-21" d="M1835.43,529.91a.38.38,0,0,1-.22-.39c0-.49.3-.52,1.32-.61.76-.07.9-.38,1-.48.36-.82-.6-2.66-1.41-3.82l-3.23,1.37h-.12c-.38,0-9.36-1-12.33-4.93a4.53,4.53,0,0,1-.87-3.72,10,10,0,0,1,.7-2.28,6.47,6.47,0,0,1,6.79-3.84.49.49,0,0,1,.39.56.48.48,0,0,1-.55.39h0a5.4,5.4,0,0,0-5.75,3.29,9.06,9.06,0,0,0-.64,2.06,3.59,3.59,0,0,0,.7,3c2.54,3.41,10.46,4.41,11.53,4.54l3.7-1.58.23.3c.26.35,2.49,3.4,1.74,5.1a1,1,0,0,1-.08.14l2.6-.11a2.81,2.81,0,0,0,1-1.87,1.88,1.88,0,0,0-.91-1.41.48.48,0,1,1,.58-.77,2.77,2.77,0,0,1,1.29,2.17,4,4,0,0,1-1.47,2.73l-.13.1h-.15s-1.35.07-2.7.12l-1.86.06A3.18,3.18,0,0,1,1835.43,529.91Z"/><path class="cls-21" d="M1814.92,519.06a.45.45,0,0,1-.22-.21c0-.08-1-2,0-3.35.89-1.17,2.88-1.41,6.08-.73a.48.48,0,0,1,.37.57.49.49,0,0,1-.57.37c-2.69-.57-4.5-.44-5.12.37s.1,2.31.11,2.32a.49.49,0,0,1-.2.65A.5.5,0,0,1,1814.92,519.06Z"/><path class="cls-21" d="M1837.31,514.71a.34.34,0,0,1-.12-.09,8.41,8.41,0,0,0-5.45-2.54.48.48,0,0,1,0-1c.12,0,3-.09,6.13,2.8a.48.48,0,0,1,0,.68A.51.51,0,0,1,1837.31,514.71Z"/><ellipse class="cls-24" cx="1811.07" cy="504.36" rx="4.81" ry="5.61" transform="translate(594.07 1937.28) rotate(-65.22)"/><ellipse class="cls-25" cx="1810.67" cy="505.23" rx="3.52" ry="4" transform="translate(593.04 1937.42) rotate(-65.22)"/><ellipse class="cls-4" cx="1810.6" cy="505.38" rx="2.08" ry="2.4" transform="translate(592.87 1937.44) rotate(-65.22)"/><ellipse class="cls-28" cx="1810.75" cy="505.44" rx="1.12" ry="1.28" transform="translate(592.89 1937.61) rotate(-65.22)"/><ellipse class="cls-24" cx="1856.74" cy="523.15" rx="5.29" ry="6.25" transform="translate(603.53 1989.66) rotate(-65.22)"/><ellipse class="cls-25" cx="1855.4" cy="523.76" rx="3.52" ry="4" transform="translate(602.2 1988.79) rotate(-65.22)"/><ellipse class="cls-4" cx="1855.33" cy="523.91" rx="2.08" ry="2.4" transform="translate(602.03 1988.82) rotate(-65.22)"/><ellipse class="cls-28" cx="1855.19" cy="523.84" rx="1.12" ry="1.28" transform="translate(602 1988.65) rotate(-65.22)"/><path class="cls-23" d="M1825.29,533a12.9,12.9,0,0,1-5-4.2.64.64,0,0,1,.2-.88.65.65,0,0,1,.89.19c.15.25,3.72,5.65,10.17,4.39a.65.65,0,0,1,.75.51.64.64,0,0,1-.51.75A10.38,10.38,0,0,1,1825.29,533Z"/><path class="cls-30" d="M1837.55,528.4c-.4.89-.63-.82-1.83-1.37-.4-.19-.62-.12-.87-.41-.53-.57-1.73-.08-1.46-.67s.22-.62,1-.6c.39,0,1.29-.82,1.7-.63s1,1.69,1.26,2.09A1.63,1.63,0,0,1,1837.55,528.4Z"/><path class="cls-24" d="M1823.19,516c-.53,1.15,0,3.16,1.16,5.12.59,1,6.54,3.73,5.84,3.41a25.76,25.76,0,0,1-5-1.28,13.23,13.23,0,0,1-4.26-3,4.71,4.71,0,0,1-.13-4.3c1.15-2.49,4.89-4.8,6.18-4.2S1824.34,513.46,1823.19,516Z"/><path class="cls-4" d="M1884.73,579.47c-.22,1.44-6.69,1.5-9.91,3.9-2.49,1.84-6.67-.17-8.59.26-5.55,1.32-9.28,1.26-12.76,4.7-4.65,4.6-6.49,12.53-8.82,16-1.72,2.59-3.33,1.51-6.69,1.49-3.87,0-9.19,4-11,4.08-1.57,0-10.48-.25-16.38-5.8-2-1.85,21.43-7.78,25.24-18,2.33-6.25,14.85-4.55,14.93-17.81,0-3.87,2.77-7.28,4.85-9.76,3.65-4.34,11.49-1.46,12.18-5,.84-4.34,2.49-8,3.09-11.28.17-5.75,2.64-6.79,3.44-13.58,1.71-14.39,4-22.95,5.33-31.42-6.5-1.69-16.38-5.8-25-5.53-1.91.06-10.13-4.26-11.77-5.08-10.53-5.26-8-7.05-12.11-11.24-1,2.06-1.57,2.14-5.5,3.94-3.52,1.61-15.32,8.48-23.71,12.71,2.52,2-7.33,11.3-2.72,16.6,3.62,4.17-7.74,4.55-7.12,10.83.36,3.58-.87,5-3.06,7.41-2.79,3.09-10.73,9.34-12.78,13.16-3.29,6.1-3.24,11-4.41,13.05h0a114.54,114.54,0,0,0,.83,14.57c.54,3.43,2.49,6.09,3.43,8.64,2.77,7.53,4.45,23.23-1.32,3.63-.33-1.12-9.86-6.58-10.4-7.57-.93-1.73-1.8-5.77-.83-7.85.73-1.59,3.61-4.81,5-5.46.88-.42.41-3.22.19-5.28-1.29-1.29-3-7.22-5-9.63-2.68-3.35.05-7.74,1.86-14,1.42-4.86,2.45-3.86,6.18-8.79,1.09-1.45-.85-6.17,1.76-7.66,2.4-1.36,4.82-.09,5.82-1.9,1.58-2.85,3.56-7.53,4.75-8.75,2.71-2.78,10.25-2.32,9.71-5.75-.51-3.22-1.85-3.58.16-4.16,2.9-1.36,11.39-4.63,14.68-7.34,2.15-1.77,4.47-6.76,6.15-9.51,1.82-3,3-3.64,4-4.14a24.71,24.71,0,0,1,4-1.7c1.78-.46,3.23-2.25,4.52-2.15-.19-.59,1-1.66,1.52-1.76,2.94-.63,3.84.86,8.77.87,3,0,9.26-2.57,13-.69,5.75,2.85,12.55,2.62,22.2,3.89.82.11,4.84,5.17,5.61,5.42,3.8,1.24,8.6.88,10.72,3.54,1.79,2.23,6.26,5.13,5.86,8.7-1,9.06,9.51,10,8.55,12.06-.29.63,2.46.79-.51,6.47,1.09,3.09-.68,2.92-.48,7.9.3,7.15-2.94,6.19-4.67,15.48-.47,2.49,1.26,5.68,0,8.46a64.21,64.21,0,0,0-6,23.7C1891.15,571.22,1885.09,577.19,1884.73,579.47Z"/><path class="cls-4" d="M1855.65,568.7c1-6.56,8.17-20.51,5.28-21.74-5.38-2.3-11.93-5.51-20.28-6.54-.6-.07-1.07-.63-1.05-1.54,0-1.15-1.46-3.57-1.59-5a16.63,16.63,0,0,0-1.44-4.52c-1.89-1.25-3.16-2.1-3.64-2.06a38.13,38.13,0,0,1-4.49-1.72c-1.38-.62-2.08-1.07-3.79-1.75a16.21,16.21,0,0,1-5-3c-.9-1-3.4-1-6.54,1.93-1.15,1.06-3.62,2.27-4.34,3.28-2.84.81-4.78-2.07-8.53-2.17-2.26,0-5.09-2-6.78-1.36-4.92,1.93-9.36,8.37-13.09,12.3a56.37,56.37,0,0,0-6.89,8.82c-3.35,5.15-3.32,13.42-1.38,22.23a91,91,0,0,0,6.52,18.61c3.15,6.67,6.75,12.4,10.25,16,3.8,3.93-2.5,4.49,2.8,6.94,3.74,1.72,16.06-4.64,19.94-4.21,6.46.74,18.26-5.44,24.12-7.92,5-2.12-.65-2.59,4.94-2.3C1849.33,593.48,1855.1,572.49,1855.65,568.7Zm-36.46-31.48c-3-1.69-2.64-1.93-3.71-4.19-.33-.69-.47-4.06,0-4.58a7.71,7.71,0,0,1,3.22-2.4c.58.3,2-.85,2.71-.51,1.5.69,2.84,1.08,4.79,1.86,3,1.19,8,3.66,8,4.68,0,.72-.37,1.18-.48,2-.3,2.05-2.37,5.29-3.14,5.26C1825.09,540.06,1823.78,539.79,1819.19,537.22Z"/><path class="cls-32" d="M1836.82,529.73s-.22-.21-.25-.34C1836.76,529.54,1836.85,529.66,1836.82,529.73Z"/><path class="cls-4" d="M1864.37,515c.16-.92,1.88-1.29.79-2.46-1.49-1.59-6.56-3.38-9.81-4.55-2.55-.92-5.5-.29-7.42-.93-2.75-.92-2.91,2.1-3.12,3.32s-2.6,3.55-.72,4.61,6.85.37,9.91.9C1860.1,517,1864,517.2,1864.37,515Z"/><path class="cls-4" d="M1825.84,502.33c-1,1-3.28,2.42-5.55,1.17-1.08-.6-1.94-3.2-3-4.21-1.56-1.49-4.69-6.69-6.24-7.12-1.88-.51,3.46-1.47,4.23-2.28s2.09.68,3.92,1.46a9.87,9.87,0,0,1,3.34,2.51c1.35,1.29,4.41,3.94,5.07,5.25C1828.55,501,1826.7,501.42,1825.84,502.33Z"/></g><g class="cls-18"><path class="cls-20" d="M1753.83,467.28c34.27,23.67-29.77,71.27-57.89,50.75-12.32-9-3.46-9.57-5-24.7-.67-6.4-2.75-11.57-2.61-18.95.23-12.39-3.55-17.49,16.55-15.6C1724.38,460.62,1738.45,456.66,1753.83,467.28Z"/><path class="cls-30" d="M1762.78,476.77h0a8,8,0,0,1,0,1.56c-1.08,7.87,1.37,22.74-9.34,24.65a8.37,8.37,0,0,1-5.53-.63l-.31-.17c-.14.32-.29.63-.45.92h0a5.76,5.76,0,0,1-2,2.28c-.32.18-.67.39-1,.63h0c-3,2-7,5.54-10.27,2.57a3.62,3.62,0,0,1-1.34-2.53,4.61,4.61,0,0,1,.8-2.54c1.16-1.9,3.41-3.91,5.64-6a19.27,19.27,0,0,0,3.49-5c-.6-2.76-1-5.88-1.39-9.14-.06-.43-.1-.86-.15-1.3-.14-1.15-.27-2.31-.41-3.48-1.11-9.12-5.17-12.6-4.48-15.54.33-1.39,1.72-2.66,5-4.34a8.7,8.7,0,0,1,2.32-.82,9.68,9.68,0,0,1,4.74.29,12.75,12.75,0,0,1,1.83.7,23.4,23.4,0,0,1,8.22,7h0C1760.74,469.49,1762.58,473.59,1762.78,476.77Z"/><path class="cls-31" d="M1763.42,476c-2.18-5.72-5.69-14.18-10.78-17.54a8.15,8.15,0,0,0-4.43-1.45,8,8,0,0,0-2.31.33,5.73,5.73,0,0,0-4.28,4.8c-1,5.43,3,13.65,5.28,17.3,1.89,3,7.11,8.74,6.71,12.13-.21,1.8-.13,1.41-.06.94a41.39,41.39,0,0,1,.34,4.61c0,.81,0,1.6,0,2.38-.73-5.42-1.84-10.68-4.4-14.68-1.19,9.27-7.47,14.14-14.36,19.14a10.83,10.83,0,0,0-1.51-.33,12.3,12.3,0,0,0-5.78-1.29c-1.55-.35-2.88-.63-3.48-.81s-2-.8-3.64-1.44c-2.54-2-5.42-4.66-7.41-2.75a.5.5,0,0,1,0,.13,1.35,1.35,0,0,1-.58,1.45c0,.17-.09.35-.13.52a5.65,5.65,0,0,0,1.57,2.5c2.57,4.33,5.21,5.8,9.27,6.76a12.85,12.85,0,0,0,5.44-.12c-.61.49-1.22,1-1.82,1.51l.17,0c-3.42,2.37-6.35,4.41-9,6.37a16.36,16.36,0,0,0-6.81,1c-1-2.26-2.49-2.9-4.59-2.2-2.44-2.26-6.74-4-10.79-5.17a35,35,0,0,0,8-1.86c7.29-2.53,7.7-5.49,8.52-8.85a2.1,2.1,0,0,1,.62-2.05l0-.05c-.52-1.29-3-.52-4-.17a7.34,7.34,0,0,0-3,2c-4.32,1.86-9.21,5.24-12.69,7.28-2.86,1.67-4.53,2.45-6.72,3.69a6.29,6.29,0,0,1,3.42-.19l.21,0a34.39,34.39,0,0,0-3.53.58c-2.15,2.61-1.46,8.11-.66,12.05a28,28,0,0,0,5.06,10.82c-.92.42-1.55,1.9-1.59,3.74h-.06c-1.5.15-2.18,5.8-1.51,12.62s2.43,12.24,3.94,12.09a.58.58,0,0,0,.28-.09c.23,1.62.49,3.3.79,5a11.72,11.72,0,0,0-.88,6.31c.36,3.66,1.86,6.59,3.53,7.11q.6,2.7,1.28,5.53a.69.69,0,0,0-.2,0c-1.34.13-2.12,3.41-1.73,7.32s1.78,7,3.12,6.85a.75.75,0,0,0,.32-.1c.38,2.24,1.5,3.88,2.64,3.77a1.4,1.4,0,0,0,.91-.53c3,7.37,5.38,6.89,7.09,2.32,4-1.41,9.56-7,15.4-14.45.78-.49,1.57-1,2.33-1.56,7-5,7.85-1.72,11.3-6.35,2.93-3.91,5.09-6.86,5-11.43a22.62,22.62,0,0,0,4.58-4.27,5.2,5.2,0,0,0,.44-5.43,26.34,26.34,0,0,0-.05-5.08c-.07-.8-.18-1.58-.32-2.33h0l0,0c4.52-4.68,7.46-8,9.51-12.32a2.82,2.82,0,0,1-.72,0c.33-.18.66-.38,1-.59a15.4,15.4,0,0,0,2.06-1.55,10.16,10.16,0,0,0,3.82-7.75c1.48-1.48,2.3-4.78,1.94-8.51-.43-4.35-2.33-7.81-4.44-8.39a15.63,15.63,0,0,0-1.46-3.46,14.69,14.69,0,0,0-.91-1.44l-.3.47a9.37,9.37,0,0,0-1.28,3.4,8.46,8.46,0,0,1,1.34-4.2l.24.33c2-3.1,5.13-5.87,5.43-11.94C1765.93,491.6,1765.88,482.48,1763.42,476Zm-21.06,84.11c0-.25-.09-.5-.14-.76a8.33,8.33,0,0,1,1,0C1742.94,559.6,1742.64,559.86,1742.36,560.11Zm14.38-37.48c0,.29,0,.58,0,.87l-.09,0c0,.12,0,.23,0,.35a5.5,5.5,0,0,1-.59-.23,64.67,64.67,0,0,0-.34-7.05q-.2-.33-.36-.66l.31.16.16.09c-.06-.28-.12-.58-.17-.88a3.24,3.24,0,0,1-.17-.32l.12.07a2.21,2.21,0,0,0,.05.25,2.68,2.68,0,0,0,.18.33,66,66,0,0,1,.33,6.84c0,.28,0,.56,0,.83l.5.22c0-.45,0-.88.1-1.3C1756.75,522.31,1756.75,522.47,1756.74,522.63Zm0-.5a12.6,12.6,0,0,1,.74-3.92l.14.53c0,.17.11.35.17.54l-.28-.29A11.94,11.94,0,0,0,1756.76,522.13Zm1.64-.62v0a0,0,0,0,0,0,0h0v0h0Zm-.36-1.42c0,.1,0,.21.07.32-.1-.38-.2-.75-.31-1.13C1758.51,520.1,1759.81,521.62,1758,520.09Zm.06-1.07c0,.1.05.2.07.31l-.3-1.09C1758.56,519,1759.83,520.51,1758.1,519Zm-.39-1.31c0,.17.1.34.16.52l-.26-.28c0,.08-.07.17-.11.26a10,10,0,0,1-.26-3.84A10.93,10.93,0,0,0,1757.71,517.71Z"/><path class="cls-33" d="M1700.09,509.84a25.79,25.79,0,0,1-4.82,0,.47.47,0,0,1,.08-.93c12,1,15-5.81,15.16-6.1a.47.47,0,1,1,.87.37C1711.26,503.45,1708.8,509,1700.09,509.84Z"/><path class="cls-33" d="M1727,509.09a12.84,12.84,0,0,1-4.42-.34c-6.75-1.77-10.1-8.66-10.24-9a.47.47,0,0,1,.22-.62.48.48,0,0,1,.63.22c0,.07,3.3,6.8,9.64,8.45,3.93,1,8.24-.09,12.8-3.32a.47.47,0,0,1,.65.11.48.48,0,0,1-.11.66A19.43,19.43,0,0,1,1727,509.09Z"/><path class="cls-33" d="M1694,563.43a2.21,2.21,0,0,1-1.29-.27c-1.55-.86-2.89-3.7-4-8.44a66.94,66.94,0,0,1-1.18-6.77.47.47,0,0,1,.41-.52.49.49,0,0,1,.52.42c.4,3.53,2,13,4.68,14.49a1.27,1.27,0,0,0,1.25,0,.48.48,0,0,1,.63.22.48.48,0,0,1-.22.63A2.3,2.3,0,0,1,1694,563.43Z"/><path class="cls-33" d="M1727.18,539.31a13,13,0,0,1-5.56-.72.47.47,0,0,1,.3-.89,11.08,11.08,0,0,0,9.6-.79c9.38-5.54,12.76-24.3,12.79-24.49a.47.47,0,0,1,.55-.38.47.47,0,0,1,.38.54,66.41,66.41,0,0,1-2.91,10.35c-2.75,7.38-6.23,12.36-10.34,14.78A11.43,11.43,0,0,1,1727.18,539.31Z"/><path class="cls-33" d="M1717.92,580.06a12.83,12.83,0,0,1-5.56-.73.46.46,0,0,1,.3-.88,11.06,11.06,0,0,0,9.59-.79c9.38-5.54,12.77-24.3,12.8-24.49a.46.46,0,0,1,.54-.38.45.45,0,0,1,.38.54,65.68,65.68,0,0,1-2.9,10.35c-2.75,7.38-6.23,12.36-10.34,14.78A11.61,11.61,0,0,1,1717.92,580.06Z"/><path class="cls-23" d="M1707.59,512.17c1.66,1.46,3.81,1.25,5.6.38a1,1,0,0,0,.49-1.29.89.89,0,0,0-1.15-.6,7.13,7.13,0,0,1-1.16.45h0l-.17,0-.27,0c-.21,0-.42,0-.64,0h-.1l-.26,0-.26-.06-.19-.05c.11,0-.15-.06-.17-.08l-.24-.12a1.82,1.82,0,0,1-.23-.15c.17.12-.09-.08-.12-.1a.81.81,0,0,0-1.24.12,1.12,1.12,0,0,0,.14,1.42Z"/><circle class="cls-24" cx="1729.84" cy="481.8" r="5.58"/><ellipse class="cls-24" cx="1694.93" cy="481.77" rx="5.77" ry="5.27" transform="translate(-38.98 168.01) rotate(-5.61)"/><path class="cls-25" d="M1699.74,481.82a4.78,4.78,0,0,1-4.48,5,4.68,4.68,0,0,1-5.33-3.94,4.78,4.78,0,0,1,4.45-5A4.67,4.67,0,0,1,1699.74,481.82Z"/><path class="cls-26" d="M1698,481.85a3.07,3.07,0,0,1-2.71,3.35,3,3,0,0,1-3.28-2.7,3.06,3.06,0,0,1,2.69-3.35A3,3,0,0,1,1698,481.85Z"/><path class="cls-27" d="M1695,485a3.07,3.07,0,0,1-.74-.1l.25-.9a2.76,2.76,0,0,0,.49.07Zm.73-.09-.23-.91a2,2,0,0,0,.46-.18l.48.8,0,0h0A3.21,3.21,0,0,1,1695.74,484.9Zm-2.15-.3a2.67,2.67,0,0,1-.59-.46l.67-.65a1.93,1.93,0,0,0,.39.3Zm3.44-.42-.66-.67a2,2,0,0,0,.31-.4l.8.48A3.18,3.18,0,0,1,1697,484.18Zm-4.47-.62,0,0a3,3,0,0,1-.26-.66l.91-.24a1.83,1.83,0,0,0,.18.46Zm5.22-.65-.91-.25a1.73,1.73,0,0,0,.07-.5h.94A3.07,3.07,0,0,1,1697.78,482.91Zm-4.67-.78h-.93a2.62,2.62,0,0,1,.1-.73l.9.24A2.87,2.87,0,0,0,1693.11,482.13Zm3.77-.46a1.91,1.91,0,0,0-.18-.47l.4-.25.41-.22-.41.22.41-.22a2.77,2.77,0,0,1,.28.7Zm-3.5-.5-.81-.47a2.82,2.82,0,0,1,.45-.58l.66.66A1.85,1.85,0,0,0,1693.38,481.17Zm3-.38a1.68,1.68,0,0,0-.4-.3l.47-.81a2.37,2.37,0,0,1,.59.45Zm-2.3-.32-.24-.4-.23-.41a3.61,3.61,0,0,1,.68-.28l.24.91A1.77,1.77,0,0,0,1694.09,480.47Zm1.44-.18a2.05,2.05,0,0,0-.49-.06v-.94a2.64,2.64,0,0,1,.74.1Z"/><path d="M1696.17,482.21a1.4,1.4,0,0,1-1.23,1.53,1.37,1.37,0,0,1-1.5-1.23,1.41,1.41,0,0,1,1.23-1.53A1.36,1.36,0,0,1,1696.17,482.21Z"/><path class="cls-25" d="M1734.46,481.82a4.78,4.78,0,0,1-4.49,5,4.67,4.67,0,0,1-5.32-3.94,4.77,4.77,0,0,1,4.45-5A4.68,4.68,0,0,1,1734.46,481.82Z"/><path class="cls-26" d="M1732.83,481.48a3.05,3.05,0,0,1-2.7,3.35,3,3,0,0,1-3.29-2.7,3.06,3.06,0,0,1,2.69-3.35A3,3,0,0,1,1732.83,481.48Z"/><path class="cls-27" d="M1729.87,484.62a2.64,2.64,0,0,1-.74-.1l.25-.9a2.15,2.15,0,0,0,.5.07Zm.74-.09-.24-.9a1.86,1.86,0,0,0,.46-.19l.48.81h0A2.55,2.55,0,0,1,1730.61,484.53Zm-2.16-.3a2.85,2.85,0,0,1-.59-.46l.67-.65a1.85,1.85,0,0,0,.39.3Zm3.44-.42-.65-.67a2.25,2.25,0,0,0,.3-.39l.81.47A2.93,2.93,0,0,1,1731.89,483.81Zm-4.47-.62,0,0a2.6,2.6,0,0,1-.26-.66l.9-.23a1.49,1.49,0,0,0,.19.45Zm5.22-.65-.9-.25a2.08,2.08,0,0,0,.07-.5h.93A2.64,2.64,0,0,1,1732.64,482.54Zm-4.66-.78H1727a3.07,3.07,0,0,1,.1-.74l.91.25A1.66,1.66,0,0,0,1728,481.76Zm3.77-.46a2.11,2.11,0,0,0-.19-.47l.4-.24.41-.23-.41.23.41-.22a3,3,0,0,1,.29.69Zm-3.51-.49-.81-.47a2.67,2.67,0,0,1,.46-.59l.66.66A1.72,1.72,0,0,0,1728.24,480.81Zm3-.39a1.85,1.85,0,0,0-.39-.3l.47-.81a3.18,3.18,0,0,1,.59.45Zm-2.29-.32-.25-.4-.23-.4h0a2.61,2.61,0,0,1,.67-.27l.24.9A1.77,1.77,0,0,0,1729,480.1Zm1.44-.17a1.73,1.73,0,0,0-.5-.07v-.94a3.06,3.06,0,0,1,.73.1Z"/><path d="M1731,481.84a1.4,1.4,0,0,1-1.23,1.53,1.36,1.36,0,0,1-1.5-1.23,1.39,1.39,0,0,1,1.22-1.53A1.37,1.37,0,0,1,1731,481.84Z"/><path class="cls-21" d="M1708.68,497.87a3.68,3.68,0,0,1-4-2.21c-1-2.13-.41-5.56,1-6.31,1-.52.21-4.49-1.05-7.87a.48.48,0,0,1,.27-.61.47.47,0,0,1,.6.28c.49,1.3,2.82,7.87.61,9-.82.43-1.45,3.22-.61,5.1.78,1.72,2.52,2.13,5,1.17a.47.47,0,0,1,.33.88A8.45,8.45,0,0,1,1708.68,497.87Z"/><path class="cls-26" d="M1735.5,486.84c.1,1-2.9,2.75-6.54,3.1s-7.53-2-7.63-3,1.62-1.53,5.26-1.89S1735.4,485.8,1735.5,486.84Z"/><path class="cls-26" d="M1700.75,486.25c.12,1.19-3.86,3.11-6.26,3.34s-3.85-2.68-4-3.87,2.31-.62,4.71-.86S1700.64,485.06,1700.75,486.25Z"/><path class="cls-34" d="M1749.23,481.25a30.77,30.77,0,0,0-5.78.54c-3.93.76-6.76,2.15-8.42,4.16a8.61,8.61,0,0,0-2.53-1.16h-.06a25.51,25.51,0,0,0-11.82,1.1c-3.2-2.13-12-6.28-19.25-.13l-.22.18a.47.47,0,0,0-.26-.57c-6.47-2.74-10.92-.43-11.11-.33l-.25.14v.29a5.89,5.89,0,0,0,3,4.38c2.37,1.05,5.54-.09,9.41-3.38,7.92-6.73,18.18,0,19.1.94a9.32,9.32,0,0,0,7.85,3.16,6.34,6.34,0,0,0,1.19-.22c4-.88,5.72-1.81,5.75-3a1.19,1.19,0,0,0-.19-.68c3.68-4.59,13.45-4.46,13.54-4.46a.47.47,0,1,0,0-.93ZM1693,489a4.92,4.92,0,0,1-2.48-3.29,13.14,13.14,0,0,1,10,.5.46.46,0,0,0,.23,0C1697.54,488.84,1694.86,489.79,1693,489Zm36.89.42h0a8.18,8.18,0,0,1-8.11-2.68l-.21-.2a25.33,25.33,0,0,1,10.74-.85,6.37,6.37,0,0,1,2.44,1.2h0l0,.06h0a.49.49,0,0,1,.15.31C1734.92,487.46,1734.66,488.37,1729.89,489.43Z"/><path class="cls-19" d="M1707.65,442l-10.86-4a2.73,2.73,0,0,0-2.49-2.07,11.29,11.29,0,0,0-2.39,0,4.38,4.38,0,0,0-2.71,1.24,3.83,3.83,0,0,0,.17.43,2.61,2.61,0,0,1,.34-.46c1,3.24,6.23,4.77,12,5.47l.37,0a127.77,127.77,0,0,0,15.78.36,38.59,38.59,0,0,0,5.23-.8A62.36,62.36,0,0,1,1707.65,442Zm35.72-8.45a52.56,52.56,0,0,1-13.36,7,60.22,60.22,0,0,0,11.6-4.22l.36-.19a10.58,10.58,0,0,0,3.9-3.16l.07-.12C1745.27,432.59,1744.47,432.78,1743.37,433.55Z"/><path class="cls-19" d="M1748.35,436.84c-.78-1.78-1.4-3.06-2.17-3.66a1.49,1.49,0,0,0-.31-.2,10.58,10.58,0,0,1-3.9,3.16l-.36.19a57.16,57.16,0,0,1-11.58,4.3,36.33,36.33,0,0,1-6.87,1.63,35.91,35.91,0,0,1-5.16.8,119.42,119.42,0,0,1-16-.43l-.37,0c-5.74-.7-11-2.23-12-5.47a2.61,2.61,0,0,0-.34.46,1.74,1.74,0,0,0-.11.18,5.57,5.57,0,0,0-.62,2.19c-.51,4.75-1.35,11.13.16,16-.11.29-.22.6-.33.94-.79,2.49-.59,3.48,2.34,4.48,1.15.39,2.3.76,3.46,1.1v0a83.84,83.84,0,0,0,45.93-.06,77.16,77.16,0,0,0,7.32-2.54c.72-.29,1.44-.6,2.15-.91l.31-.14.13.09c2-1,1.53-1.44,1.25-4.29C1750.79,448.58,1751.36,443.68,1748.35,436.84Zm-55,4.54-.1-.05a1.1,1.1,0,0,1,.2-.31Z"/><path class="cls-19" d="M1693.42,441l-.1.36-.1-.05A1.1,1.1,0,0,1,1693.42,441Z"/><path class="cls-16" d="M1693.48,441.64l-.09.36-.11-.05A1.38,1.38,0,0,1,1693.48,441.64Z"/><path class="cls-16" d="M1746.52,432.48a2.8,2.8,0,0,1-.27,1.32,1.87,1.87,0,0,0-.32-.2,10.58,10.58,0,0,1-3.9,3.16l-.36.19a57.16,57.16,0,0,1-11.58,4.3,74.55,74.55,0,0,1-12,2.43,119.42,119.42,0,0,1-16-.43l-.37,0c-5.74-.7-11-2.23-12-5.46a2.22,2.22,0,0,0-.34.45,1.74,1.74,0,0,0-.11.18,4.26,4.26,0,0,1-.13-.64c-.82-7.88,20.16-11.59,26.37-11.46S1746.18,425.88,1746.52,432.48Z"/></g><g class="cls-18"><ellipse class="cls-35" cx="1502.37" cy="503.97" rx="34.54" ry="58.34"/><path class="cls-36" d="M1481.57,486.45c.86-2.06,5-6.13,10-5.37,3.49.53,7,4.87,8.33,6.07,2.59,2.39-4.15,4.14-9.14,4.11S1480.55,488.9,1481.57,486.45Z"/><path class="cls-36" d="M1502.37,527.53c-3.53,3.17-17.11,10.33-23.68,4.59-4.56-4,2.88-23.54,2.72-30.18-.16-6.82-6.51,4.87,2.7,9.26C1491.93,514.93,1506.55,523.77,1502.37,527.53Z"/><path class="cls-36" d="M1529.23,484.67c-.86-2.07-5-6.14-10-5.37-3.49.53-7,4.87-8.33,6.06-2.59,2.39,4.15,4.15,9.14,4.11S1530.25,487.12,1529.23,484.67Z"/><path class="cls-14" d="M1500.51,479.2l-1.65,4.37s-10.85-7.08-12.63-7.08-4,1.79-4,1.79v-1.79l4.16-1.93Z"/><path class="cls-14" d="M1509.34,478.46l1.66,4.36s10.84-7.07,12.63-7.07,4,1.79,4,1.79v-1.79l-4.16-1.93Z"/><path class="cls-14" d="M1491.71,426.43c0,.05,0,.1,0,.14C1491.89,426.36,1491.86,426.32,1491.71,426.43Z"/><path class="cls-14" d="M1481.05,502.48q.15.7.3,1.35c.06-.67.13-1.3.22-1.89h-.16A.47.47,0,0,0,1481.05,502.48Z"/><path class="cls-37" d="M1514.15,473.08c-4.74-9.92-6.56-8.57-6.56-8.57"/><path class="cls-38" d="M1473.18,527.19c4.14,1.24,15.86,3.45,17.74-3s-6.82-19.26-11.1-20.54Z"/><path class="cls-38" d="M1542.16,520c0-4.32-1.23-16.18-7.91-16.16s-16.51,12.05-16.51,16.51,5.61,7.95,12.41,7.78S1542.16,524.31,1542.16,520Z"/><path class="cls-14" d="M1452,476.8c-1.43,3.89,4.78,4.3,3.37,7.44-5.47,12.15-.54,17.72,12,32.56.18.21-1.53,7.15-1.27,7.1-.52,4.39,4.6,3.06,1.95,7.57-7.28,12.4,3.53,24.57,8.34,29.14,2.25,2.14,2.24,8.55,4.11,14.12,2.3,6.89,10.42,14.51,15,2.78,1.12-2.82-3.83-15.29-8.17-31.38-4.81-17.88-6.75-33.71-6-42.3,1.88,8.06,4.33,9.37,5.83,10.17,1.24.66,1.7.91.19,6.39-3.38,12.18,5.54,19.85,5.62,19.93a.49.49,0,0,0,.3.1.45.45,0,0,0,.29-.8,19.08,19.08,0,0,1-5.33-19c1.63-5.88,1.11-6.51-.63-7.44-1.44-.77-3.85-2.05-5.67-10.89a.44.44,0,0,0-.38-.36,14.86,14.86,0,0,1,.59-2.55c-3.27-5.4-5.23-18.6-5.23-24.68,0-4.84,2.33-9.73,1.67-13.88,7.79-.27,14.53-2.49,18.41-5.72a34.16,34.16,0,0,0,3.69.35c.51,3.81,2.7,7.83,5.72,11.27.43,1.88.41,4.78-1,9.19-2.31,7.28-1.41,8.67-.93,9.42a1.07,1.07,0,0,1,.11.19s0,.12-.32.53c-.7.94-.5,2.31-.25,4,.4,2.81.89,6.29-2,9.81a.45.45,0,0,0,.07.64.43.43,0,0,0,.29.1.44.44,0,0,0,.35-.16c3.11-3.83,2.56-7.69,2.16-10.52-.21-1.52-.39-2.73.09-3.36.63-.85.59-1.22.24-1.76s-1.15-1.79,1-8.65a21.78,21.78,0,0,0,1.25-8.26,30.43,30.43,0,0,0,6.21,4.91.44.44,0,0,0,0,.43c.83,1.75,1.7,3.7,2.56,5.81,3.42,8.33,7.32,10.58,9.64,11.93,2.15,1.24,2.66,1.54.38,5.62a18.57,18.57,0,0,0-.75,17.21.44.44,0,0,0,.39.24.46.46,0,0,0,.23-.06.45.45,0,0,0,.17-.62,17.7,17.7,0,0,1,.76-16.32c2.59-4.64,1.84-5.38-.72-6.86-2.23-1.29-6-3.45-9.25-11.49-.78-1.9-1.56-3.67-2.32-5.29a20.73,20.73,0,0,0,4,1.62.36.36,0,0,0,0,.25,32.46,32.46,0,0,0,2.49,5.85c1.56,2.89,4.24,6.74,8.12,8.68a.41.41,0,0,0,.21,0,.45.45,0,0,0,.2-.86c-6.42-3.21-9.54-12.11-10.06-13.72a13.52,13.52,0,0,0,2.93.34c2.71,0,7,8.42,8.5,10.32,1.19,1.56-3.64,11.2-3.92,13.14-.3,2.1,1.8-2,1.8,4.42,0,8.87-8.31,23.86-9.42,40.47-1.44,21.55,1.73,27.48,3.94,31,5.75,9.23.66-22.33,10.87-15.85,4.42,2.81-1-18.17,5.7-22.54,13.45-8.72,12.44-4,12.89-14.69.15-3.4,5.56-12.91,4.58-15.21-2.2-5.16-.49-12.77,0-19.42.45-5.94-8.46-10-5.5-14.38,4.2-6.27,1.72-14.85-4.85-16.17-1.43-.28-11.13-1.89-12.29-7.93.72-2.12,10.22,4.78,12.4,3.8,5.17-2.34-10.22-8-3.15-12.89,4.56-3.18-7.43-2.06-7.43-2.06-5.65-8.06-12-2.77-14.57-4.87-12.45-10-21.37-9-21.15-9.62,5.69-16.57-11.77-4.63-9.41,3.21.15-.11.18-.07,0,.14,0,0,0-.09,0-.14-1.26.9-11.06,11.3-11.37,9.16-1.33-9-15.06-5-17.4,1.74-1.43,4.13-5.32,3.4-8.09,7.23-1.56,2.16.76,14.95-5.66,21.47C1448.63,468.76,1456.37,465,1452,476.8Z"/><path class="cls-38" d="M1507.54,501.6a.61.61,0,1,1,.11-1.21c1.27.11,3.3,0,3.82-.61a.45.45,0,0,0,.09-.45l-.4-1.32c-4.9-16-4.68-17.73-3.93-18.27a.62.62,0,0,1,.86.13.6.6,0,0,1,0,.76c-.17.64.2,3.73,4.28,17,.29.95.39,1.28.42,1.39a1.67,1.67,0,0,1-.36,1.53c-.78.9-2.57,1.07-3.77,1.07A10.66,10.66,0,0,1,1507.54,501.6Zm.41-20.88Z"/><g class="cls-39"><path class="cls-38" d="M1505.79,501.79a.62.62,0,0,0,.32-.09.61.61,0,0,0,.19-.84A1.72,1.72,0,0,0,1505,500h0a1.49,1.49,0,0,0-1.24.84.61.61,0,0,0,1,.64c.13-.22.21-.26.21-.26a1.13,1.13,0,0,1,.27.27A.59.59,0,0,0,1505.79,501.79Z"/></g><path class="cls-25" d="M1525,485.91c.48.48.78.27.79,1.11,0,1-3.64,2.46-5.52,2.45-3.26,0-6.81-1-6.28-2.34a7.63,7.63,0,0,1,5.13-3.54C1521.46,483.32,1524.19,485.14,1525,485.91Z"/><ellipse class="cls-40" cx="1519.82" cy="486.25" rx="2.9" ry="2.68"/><circle cx="1519.68" cy="485.96" r="1.19"/><path class="cls-25" d="M1485.66,488.57c-.38.48-.68.32-.6,1.08s3.59,1.81,5.31,1.61c3-.36,6.11-1.57,5.48-2.74a7.06,7.06,0,0,0-5.06-2.63C1488.58,485.89,1486.28,487.81,1485.66,488.57Z"/><ellipse class="cls-40" cx="1490.71" cy="488.5" rx="2.68" ry="2.59"/><circle cx="1490.71" cy="488.33" r="1.19"/><path class="cls-40" d="M1501,510.31a.46.46,0,0,0,.64-.09c.23-.3.46-.59.7-.87,1.8-.85,4.82-2.58,6.13-2.2,2.61.76,4.3,1.24,5.29,1.45a11.47,11.47,0,0,1,1.27,1.59.46.46,0,0,0,.78-.49,12.29,12.29,0,0,0-.91-1.21c-.12-.42-1.31-1.43-2.84-3a4.74,4.74,0,0,0-3.59-1.66c-2,0-7.56,4.94-7.56,5.87A.46.46,0,0,0,1501,510.31Z"/><path class="cls-40" d="M1508.7,512.21a6.65,6.65,0,0,0,3.47-1.12l.18-.11a.7.7,0,0,0,.29,0,.61.61,0,0,0,.52-.69.75.75,0,0,0-.41-.58c-.39-.19-.75,0-1.21.3-1.15.69-3.29,2-6.53-.54a.61.61,0,0,0-.85.11.62.62,0,0,0,.1.86A7.24,7.24,0,0,0,1508.7,512.21Z"/><path class="cls-41" d="M1502.37,508.75c0,1.22,4.11,2.48,6.37,2.45s5.58-1,5.58-2.2-3.33-2.21-5.58-2.19S1502.37,507.53,1502.37,508.75Z"/></g><g class="cls-18"><path class="cls-14" d="M1576.09,512.87c1.52,4,13.1,7.34,23.77,2.55,10.41-4.67,16-15.58,14.53-19.37s-20.23-13.45-30.71-8.95C1572.94,491.72,1574.57,508.91,1576.09,512.87Z"/><path class="cls-38" d="M1571.72,505.52c.94,2.89,10.41,2,20.93-1.95,10.27-3.83,19.33-10.45,16.8-11.88-10.24-5.76-9.8-2.06-20.11,1.66C1578.78,497.15,1570.79,502.64,1571.72,505.52Z"/><path class="cls-35" d="M1544.91,423c-.29,16.25,17.62,42.63,6.31,56.33-9.18,11.12,9.7,21.19,24,19.9,3.21-.29,43-12.78,49.69-22.51s0-19.47,4.45-25.4c9.53-12.63,8.67-24.65,8.17-28.54-3-23.06-25.12-41.42-44-42.68C1560.85,377.88,1545.43,394.77,1544.91,423Z"/><path class="cls-36" d="M1604.14,489.36c7-2.16-23.07,14.6-30.1,9.31-4.87-3.68-7.15-15.79-7.79-22.45-.66-6.85,2.15-2.73,11.72,1C1586.11,480.42,1598.73,491.05,1604.14,489.36Z"/><path class="cls-36" d="M1560,449.52c6.48,10.85-4.45,13.53-5,18.57-.5,4.45-1.48-5.74-6-20.06-3.87-12.3-5.3-31.31-2.92-21.71C1547.27,431.24,1554,439.52,1560,449.52Z"/><path class="cls-36" d="M1625.84,454.42c-6.77,5.95-4.38,9.27-3.65,9.62s.72-.68,4.12-7.46,7.88-11.36,7.15-11.74S1629.4,451.29,1625.84,454.42Z"/><path class="cls-36" d="M1576.74,455.44c8.49,3,7.49,7,6.94,7.61s-.92-.38-6.57-5.43-11.5-7.67-11-8.29S1572.29,453.84,1576.74,455.44Z"/><ellipse class="cls-40" cx="1585.36" cy="439.52" rx="2.7" ry="2.61"/><circle cx="1585.36" cy="439.52" r="1.2"/><path class="cls-14" d="M1596.41,444.22a.47.47,0,0,0,.34-.16.46.46,0,0,0,0-.65,64,64,0,0,0-7.89-5.81c-4.3-2.7-10.77-6-17.16-6.36a.46.46,0,0,0-.48.44.45.45,0,0,0,.43.48c11.86.69,24.35,11.82,24.48,11.94A.47.47,0,0,0,1596.41,444.22Z"/><ellipse class="cls-40" cx="1622.19" cy="438.33" rx="2.7" ry="2.61"/><circle cx="1622.19" cy="438.33" r="1.2"/><path class="cls-14" d="M1613.36,443.23a.48.48,0,0,0,.35-.16c.08-.1,8.11-9.39,13.54-10.43a.46.46,0,0,0,.37-.54.46.46,0,0,0-.54-.36c-5.75,1.09-13.73,10.33-14.07,10.73a.47.47,0,0,0,0,.65A.5.5,0,0,0,1613.36,443.23Z"/><path class="cls-14" d="M1604.12,457a.5.5,0,0,0,.26-.08.46.46,0,0,0,.12-.64l-2.8-4a.46.46,0,0,0-.64-.12.46.46,0,0,0-.11.64l2.79,4A.47.47,0,0,0,1604.12,457Z"/><path class="cls-14" d="M1611.11,457a.47.47,0,0,0,.41-.24l2.24-4a.46.46,0,1,0-.8-.45l-2.25,4a.47.47,0,0,0,.18.63A.46.46,0,0,0,1611.11,457Z"/><path class="cls-14" d="M1602.72,470.39a.43.43,0,0,0,.36-.17c2.1-2.55,4-3.75,5.35-3.47,1.59.33,2.23,2.49,2.24,2.51a.46.46,0,0,0,.89-.25c0-.11-.8-2.72-2.94-3.16-1.78-.37-3.89.91-6.25,3.79a.45.45,0,0,0,.35.75Z"/><path class="cls-14" d="M1564,459.41a.45.45,0,0,0,.19-.05.47.47,0,0,0,.23-.61c-4.87-10.57-4-11.86-3.75-12,.53-.35,3,1.33,5.78,4.33a.47.47,0,0,0,.66,0,.46.46,0,0,0,0-.65c-1.21-1.33-5.31-5.57-7-4.47-.94.63-1.41,2.69,3.42,13.17A.46.46,0,0,0,1564,459.41Z"/><path class="cls-14" d="M1530.72,495.06c25.42-22.52,18.16-6.16,34.51-.21,15.78,5.74,44.35,16.59,37.49,19.61-13.23,5.83-25.57,8.63-41.5,3.27C1544.7,512.18,1525.76,499.46,1530.72,495.06Z"/><path class="cls-38" d="M1567.91,495.38c11.95,6.2,33.89,18.65,31.95,20-8.48,6.13-16.21-.32-28.27-6.58S1548,485.68,1549,483.54,1556,489.18,1567.91,495.38Z"/></g><g class="cls-18"><path class="cls-35" d="M1528.48,535.9c0,5.54,10.35,18.59,8.42,23.26-3.68,8.91-16.59,27.46-9.74,24.24s22.53,12.87,27.64,12.87,11.22-3.45,14.61-7c3.94-4.21,6.12-11.86,11-16.82,3.69-3.72,4.21-6.35,4.21-13.36,0-2.55,5-13,3.69-15.1-5.27-8.65-.52-10.42-2.64-13.85-2.23-3.61-6.45-14.63-9.34-17.19-4.81-4.28-5.08,2.22-11.32,2.22-6,0-16.32-6-21-2-5.06,4.34-3.94,4.46-6.32,11.88C1536.15,529.82,1528.48,530.36,1528.48,535.9Z"/><path class="cls-36" d="M1542.23,559.34c.58,1.26-11.37-23.44-7.34-24.4,3-.72,6.83-15.57,10.71-17.36,3.69-1.7,17.53,3.92,20,2.14,3.57-2.53,9.64-4.65,9-6-1-2.22-18.26-12.4-27.24-8.26-4.49,2.07-30.89,52.44-33.5,54.52-1.26,1,4.21,25.12,11.26,24.58C1532.74,584,1542,558.76,1542.23,559.34Z"/><path class="cls-6" d="M1513.14,567.83l-.64,5.54a2.74,2.74,0,0,0,1.82,2.68,12.52,12.52,0,0,0,3.64.7c-2.65,3.85-5,12.74-3.62,15.18,1.65,2.88,3.14-1.41,4.82-1.69,2.9-.48,5.74,7.37,7-.48.54-3.35,3.35-11.65,6.63-18.19,2.61-5.21,6.39-11.38,6.39-13.14,0-3.82-2.48-7.15-3.14-10.36s-1-1.44-4.33-8.19c2.23-3.91-.25-4.34,3.25-6.63,1.17-.77,4,14.1,4.82,12.77,1.36-2.1-1.28-10.9-1.21-17.83,0-3.15,2.33-5.81,2.9-8.19.48-2.07,3.41-4.3,5.22-5.45a6.54,6.54,0,0,1,5.74-.61c2.28.85,4.32,2.55,6.63,2.68,1.81.11,4.57,0,6.5,0,3.52,0,3.92-3.52,7-3.85a19.91,19.91,0,0,0,2.73,2.46,12.1,12.1,0,0,1,3.61,5.84c.57,2.46,2.52,3.28,3.54,6.4,2,6,.17,11.25,1.69,13.25.68.89,3.19,6,2.65,7-2.33,4.24-1,.47-2.89,8.92-.77,3.43-1.52,6.84-1.93,9.88a13.45,13.45,0,0,1-2.71,6.71c-2.49,3.17-5.48,3.81-4,4.13.61.14-12.87,18.1-12.77,20.49.07,1.62,9.64-5.54,10.85-8,1-1.93.6,5,1.92,5.3,5.79,1.21,6.44-12.46,6.79-10.34.2,1.19,6.12,4.36,7,3.11,2.64-4-3.41-8.63-2.65-12,.18-.79,1,.28,1-.73-1.44-16.14-.86-9.86-1-14.22,0-1.27,2.84-1.46,2.41-5.54-.48-4.58,3.58-.47,4.1-3.13.3-1.53,6,3.37,4.33-8.68.43-2.17-3.29-8.18-7.23-12.77-1.44-1.69.06-6.07-.72-8.43-1.08-3.29-3.61-4.58-2.89-5.31.21-.2,4.1,4.1,4.58,4.1,5.78,0-.65-6.52-1.21-8s-5.93-6.29-6.26-6.75c.92-.73-7.23-2.07-7.23-2.89,0-2.06,1.2-.48,3.85-1.69,3-.41,0-2.89-.72-3.13-3.61-1.21-6-2.65-12.29-2.65-3.73,0-9.16,1-9.16.72,0-.85-5.47-5.23-9.28-5.66-2.1-.24-6.71-2.89-9.39-2.89-7.52,0-6.27.83-6.27,2.16,0,1,21,3.06,2.41,5.31-1.66,1-5.54,4.33-6.75,6.26-.13.22-14,11.08-14,11.33-2.41,2.65,7.71-1.21.48,7-2.26,2.55,4.51.17,3.37,3.85-.93,3-8.19,5.1-8.19,8,0,2.16,3.37.48,1.68,4.57-.88,2.16,2.66,1.93,2.9,3.38,1.86-.06-6.27,12-6.27,13-1.22,1.39,7.93-.44,6.27,1l-3.24,8a3.88,3.88,0,0,0-.07,2.9Z"/><path class="cls-6" d="M1544,533.85c0-.93,2.88-1.68,6.74-1.68,1.53,0,4.64,1.24,5.79,1.44.59.11,1.63,1.38,2.29,2.53a19.55,19.55,0,0,1,2,5.42c0,.62-2.64-3.06-4.7-2.77-1,.15-3.89-2.77-5.19-2.77-1.49,0-2.83-1.37-4-1.56C1545.2,534.15,1544,534.42,1544,533.85Z"/><path class="cls-6" d="M1568.93,541.68c0-.53,2.22-6.43,3.85-6.74a19.75,19.75,0,0,1,4.22-.85c3.86,0,4.94.4,4.94,1.33,0,.56.8,1.38-1,1.69a22.75,22.75,0,0,1-4,.36c-1.5,0-4.24,1.37-5.18,2C1570.13,540.72,1568.93,542.25,1568.93,541.68Z"/><path class="cls-8" d="M1559.74,567.05c.6,3.14,2.67,5.28,3.79,5.06s1.83-4.57,1.23-7.71a9.63,9.63,0,0,0-.89-2.42,2,2,0,0,0-2.51-1.24c-.69.13-2.54-.65-2.63.88A42.45,42.45,0,0,0,1559.74,567.05Z"/><path class="cls-8" d="M1565.59,565.8c0,1.9-1.43,6.33-.61,6.33s3.57-4.43,3.57-6.33c0-.55.48-.15.38-.61-.24-1.13.57-2.3.3-2.82-.38-.74-4.21-2.55-4.51-1.22C1564.58,561.81,1565.59,564.86,1565.59,565.8Z"/><path class="cls-9" d="M1562.27,571.89c-2-1.72-4-7.79-3.78-10.3a1.18,1.18,0,0,1,.46-.86c.81-.6,2.47-.27,3.68,0a8.17,8.17,0,0,0,1,.16l0,0,.08-.09h.3l0,.17a.3.3,0,0,1,0,.21c0,.21.12.71.22,1.23.6,3,1.83,9.38-.73,10l-.25,0A1.68,1.68,0,0,1,1562.27,571.89Zm.26-10.72c-1.06-.21-2.66-.53-3.29,0a.69.69,0,0,0-.27.52c-.22,2.37,1.76,8.28,3.62,9.89a1.05,1.05,0,0,0,.89.35c2.11-.51.89-6.76.37-9.43-.1-.53-.17-.88-.2-1.1A8,8,0,0,1,1562.53,561.17Z"/><path class="cls-9" d="M1564.9,572.36c-.21-.07-.72-.23.44-6.56l-.87-4.72.06-.08a1.49,1.49,0,0,1,1.1-.58c1.44-.11,3.37,1.4,3.77,1.78s.28.87.1,1.47a7.38,7.38,0,0,0-.33,1.54c-.16,1.57-3,6.46-3.91,7.07a.48.48,0,0,1-.26.09Zm.77-11.45a1,1,0,0,0-.69.31l.85,4.58v.05a35.59,35.59,0,0,0-.73,6c.79-.7,3.46-5.2,3.6-6.64a7.92,7.92,0,0,1,.35-1.64c.17-.58.22-.8,0-1a6.44,6.44,0,0,0-3.28-1.65Z"/><path class="cls-40" d="M1556.2,562.55a.36.36,0,0,0,.2-.06,12.4,12.4,0,0,1,13.66,0,.36.36,0,0,0,.5-.08.37.37,0,0,0-.08-.51,13.15,13.15,0,0,0-14.48,0,.36.36,0,0,0-.1.5A.34.34,0,0,0,1556.2,562.55Z"/><path class="cls-14" d="M1554.83,566.47a.36.36,0,0,0,.36-.33c.62-7.12,1.51-10.75,2.8-11.42.72-.37,1.66.19,2.76.83a8.87,8.87,0,0,0,3.34,1.39c1.74.2,5.85.24,6.53-3.84.28-1.69-5.49-15.52-6.15-17.09a.37.37,0,0,0-.48-.2.37.37,0,0,0-.19.48c2.46,5.86,6.29,15.57,6.1,16.69-.23,1.43-1.3,3.76-5.73,3.24a8.17,8.17,0,0,1-3.05-1.29c-1.23-.72-2.39-1.41-3.46-.85-1.6.82-2.52,4.3-3.19,12a.36.36,0,0,0,.33.39Z"/><path class="cls-14" d="M1573.08,568.35a.37.37,0,0,0,.36-.31,18.36,18.36,0,0,0-3.92-13,.37.37,0,0,0-.51-.07.35.35,0,0,0-.07.5,19.11,19.11,0,0,1,3.67,8.59,14.51,14.51,0,0,1,.12,3.88.37.37,0,0,0,.3.42Z"/><path class="cls-14" d="M1548.28,553.62a7.17,7.17,0,0,0,2.67-.57,11.81,11.81,0,0,0,2.79-1.64.36.36,0,0,0,0-.51.35.35,0,0,0-.51,0s-4.36,3.59-7.45,1.23a.37.37,0,0,0-.51.07.35.35,0,0,0,.07.5A4.67,4.67,0,0,0,1548.28,553.62Z"/><path class="cls-14" d="M1578,555.61a.35.35,0,0,0,.3-.17.36.36,0,0,0-.11-.5c-2.4-1.56-3.19-5.57-3.2-5.61a.38.38,0,0,0-.42-.29.36.36,0,0,0-.29.43c0,.17.85,4.34,3.52,6.08A.36.36,0,0,0,1578,555.61Z"/><path class="cls-14" d="M1560,584.16c3.81,0,7.67-2.29,11.51-6.84a.37.37,0,0,0-.56-.47c-4.14,4.92-8.27,7.1-12.28,6.49-7.79-1.19-12.66-12.61-12.71-12.72a.36.36,0,0,0-.47-.2.37.37,0,0,0-.2.48,33.51,33.51,0,0,0,3.51,6.08c3,4.11,6.36,6.55,9.76,7.07A8.73,8.73,0,0,0,1560,584.16Z"/><g class="cls-42"><path class="cls-14" d="M1559.59,588a11.58,11.58,0,0,0,5.15-1.12.36.36,0,1,0-.32-.65c-7,3.43-16.16-2.68-16.25-2.75a.36.36,0,1,0-.4.6,26.62,26.62,0,0,0,5.64,2.77A18.92,18.92,0,0,0,1559.59,588Z"/></g><g class="cls-42"><path class="cls-14" d="M1556.26,588.61a1.87,1.87,0,0,0,1-.23,1,1,0,0,0,.52-.85.36.36,0,0,0-.34-.38.35.35,0,0,0-.38.33.3.3,0,0,1-.17.27c-1.3.76-7.55-1.73-11.19-3.48a.36.36,0,0,0-.31.66s2.44,1.16,5.06,2.17A18,18,0,0,0,1556.26,588.61Z"/></g><path class="cls-25" d="M1546.38,547.17a3.46,3.46,0,0,0,4.21,1.82c1.57-.4,2.35-.88,2.35-2.22,0-.15,1.31-.4,1.28-.55-.25-1.12-2.6-2.48-4-2.91-1.53-.49-5.39,1.06-5.71,1.89C1544.37,545.66,1546.15,546.72,1546.38,547.17Z"/><path class="cls-25" d="M1575.62,548.45c0,1.59,2.05,2.41,3.69,2.41a3.11,3.11,0,0,0,2.66-1.2c.28-.44.75-.87.75-1.43s1-.62.83-1c-.47-1-3-2.15-4.24-2.15s-3.06.41-3.45,1.56A10.68,10.68,0,0,0,1575.62,548.45Z"/><circle class="cls-40" cx="1579.17" cy="547.74" r="2.12"/><circle class="cls-40" cx="1549.55" cy="545.61" r="2.12"/><circle cx="1579.17" cy="547.74" r="1.01"/><circle cx="1549.55" cy="545.61" r="1.01"/></g><polygon class="cls-34" points="1911.94 616.25 1435.9 601.71 1295.32 652.52 1684.74 693.16 1911.94 616.25"/><path class="cls-6" d="M1404.1,655.38c-.22,1.82-20.16,1.35-43.32-.93-21.91-2.15-38.66-5.14-38.46-6.79s17.29-1.44,39.21.54C1384.71,650.3,1404.32,653.57,1404.1,655.38Z"/><path class="cls-6" d="M1492.59,647.92c-.25,2-24.4,1.67-52.34-.6-26.28-2.15-46.31-5.25-46.09-7s20.61-1.76,46.92.18C1469,642.53,1492.83,645.92,1492.59,647.92Z"/><path class="cls-6" d="M1567.28,670.79c-.26,2.17-28.38,1.18-60.76-2-30.33-3-53.36-6.82-53.13-8.74s23.66-1.38,54,1.37C1539.82,664.34,1567.54,668.63,1567.28,670.79Z"/><path class="cls-6" d="M1803.8,644.52c-.32,2.66-42.5,2.31-90.5-.55-44.34-2.64-77.66-6.5-77.38-8.8s34.07-2.42,78.46-.12C1762.42,637.54,1804.12,641.87,1803.8,644.52Z"/><path class="cls-6" d="M1487.8,626.92c-.24,2-24.09,2.19-51.69.54-26-1.54-45.78-4.18-45.56-6s20.38-2.19,46.38-.84C1464.55,622.09,1488,624.93,1487.8,626.92Z"/><path class="cls-6" d="M1738.77,670.58c-.3,2.53-35.79,1.6-76.48-1.84-37.93-3.21-66.61-7.45-66.34-9.67s29.41-1.81,67.37,1.11C1704.05,663.3,1739.07,668.06,1738.77,670.58Z"/><path class="cls-6" d="M1629.73,645.05c-.28,2.29-31.78,2-67.94-.51-33.76-2.33-59.32-5.75-59.08-7.77s26.22-2.08,60,0C1598.92,639,1630,642.76,1629.73,645.05Z"/><path class="cls-6" d="M1783.18,625.11c-.31,2.6-41.07,2.9-87.51.83-43-1.93-75.28-5.22-75-7.48s33.06-2.89,76.06-1.3C1743.21,618.88,1783.49,622.5,1783.18,625.11Z"/><path class="cls-6" d="M1565.2,616.19c-.26,2.15-28.09,2.65-60.16,1.22-30-1.35-52.88-3.93-52.65-5.83s23.45-2.61,53.53-1.49C1538,611.28,1565.46,614,1565.2,616.19Z"/><g class="cls-18"><path class="cls-43" d="M1629.7,493.25l-16.31,7.92L1587.75,560l-12.19-54.9-9.92-.42,30.28-15.19-11,11.3,7.92,33,14.72-33.24-10.86-7.12Z"/><path class="cls-43" d="M1692.72,534.63c1,5.52.33,10.23-2.07,14a24.52,24.52,0,0,1-9.81,8.86,40.31,40.31,0,0,1-13.18,4,53.94,53.94,0,0,1-12.66.3,44.09,44.09,0,0,1-13.67-3.82,41.47,41.47,0,0,1-11.22-7.47l-7.2,18.74,2.92-42.16a31.83,31.83,0,0,0,3.55,8.59,32.15,32.15,0,0,0,5.8,7.15,28.37,28.37,0,0,0,17.64,7.44,27.49,27.49,0,0,0,4.65-.17,18.27,18.27,0,0,0,5.25-1.34,11,11,0,0,0,4.18-3,6,6,0,0,0,1.31-4.81,9.76,9.76,0,0,0-3.48-6.3,27.43,27.43,0,0,0-6.71-4.29,45.38,45.38,0,0,0-7.27-2.61c-2.38-.62-4.24-1.05-5.62-1.31a89.2,89.2,0,0,1-8.82-2.07,34.45,34.45,0,0,1-8.19-3.47,19.22,19.22,0,0,1-5.89-5.36,13.08,13.08,0,0,1-2.21-7.89,18.55,18.55,0,0,1,2.18-9.18,21.5,21.5,0,0,1,5.57-6.52,31,31,0,0,1,7.82-4.44,52.46,52.46,0,0,1,9-2.66,45.39,45.39,0,0,1,12.5-.88,66.39,66.39,0,0,1,13.44,2.7l9.57-14.31,1.52,35.77a57.71,57.71,0,0,0-8.56-7.71,49,49,0,0,0-9.25-5.36,38.25,38.25,0,0,0-9.43-2.79,28,28,0,0,0-9.18,0,20.52,20.52,0,0,0-3.61,1,20.22,20.22,0,0,0-3.83,1.93,12,12,0,0,0-3,2.73,5.42,5.42,0,0,0-1.13,3.6,3.88,3.88,0,0,0,1.65,3.14,12.24,12.24,0,0,0,3.89,1.87,34.14,34.14,0,0,0,4.74,1c1.63.23,3,.39,4,.49,3.08.38,6.75,1,11.08,1.78a71.49,71.49,0,0,1,13.52,4,46.45,46.45,0,0,1,12.82,7.7A21.79,21.79,0,0,1,1692.72,534.63Z"/></g><polygon class="cls-17" points="1927.77 365.66 1927.76 665.07 1904.28 679.9 1670.36 812.62 1684.74 693.16 1904.28 619.25 1904.28 353.2 1927.77 365.66"/><polygon class="cls-17" points="1706.13 1141.54 1672.02 1166.08 1672.01 800.55 1705.2 782.56 1706.13 1141.54"/><polygon class="cls-17" points="1927.77 1028.68 1904.09 1056.63 1904.08 640.35 1927.13 619.86 1927.77 1028.68"/><rect class="cls-12" x="1624.89" y="787.42" width="47.13" height="378.66"/><rect class="cls-12" x="1286.58" y="720.76" width="47.13" height="378.66"/><g id="Harry"><path class="cls-20" d="M170.2,449c-7.1-18.63-21.1-42.22-6.3-47.86s52.8,8.8,59.9,27.43.86,38.3-13.94,43.94S177.3,467.61,170.2,449Z"/><path class="cls-20" d="M117.32,335.67c0-54,112.19-81.06,153.74-59.09,36.86,19.5,26.53,41.26,9.05,100.17-2.77,9.34,2.2,12.58,1.24,23.05-2,21.38-36.16,57.3-46.54,59.5C192.39,468.3,117.32,389.66,117.32,335.67Z"/><path class="cls-22" d="M224.05,466.63c-8.49-1.05-18.35,12.8-35.07,6.76S163.86,427,156.68,418c-5.31-6.69,23.33,24.93,40,31S252.72,470.17,224.05,466.63Z"/><ellipse class="cls-20" cx="135.43" cy="386.66" rx="10.46" ry="17.7"/><path class="cls-22" d="M124.93,372.44c2.42-1.76,7.5,1.09,11.34,6.37s6.22,20.93,2.58,12.75c-1.22-2.74-5.63-4.28-9.47-9.56S122.52,374.2,124.93,372.44Z"/><path class="cls-20" d="M148.51,394q14.9,9.13,29.23,19.14c1.59,1.11,3.09-1.49,1.51-2.59q-14.33-10-29.23-19.14c-1.65-1-3.16,1.58-1.51,2.59Z"/><ellipse class="cls-22" cx="167.81" cy="411.83" rx="2.45" ry="16.42" transform="matrix(0.42, -0.91, 0.91, 0.42, -276.33, 389.24)"/><path class="cls-4" d="M293.05,355c-4.55-9.11-4.7-47.94-14.05-41.64-15.46,10.41-28.95-16.86-28.95-16.86-1.46,3.92-28.61,1.44-35.61-9.25-7.8-1.15-18.73,13.88-20.81,12-8.55-6.48-17.15,27.36-23.35,24.74-12-5.09-12.85,32.35-20.11,40.43,2.56,2.88-11.8,13.44-18,14.59-8.83,1.64,6.68,23.12-2.31,23.12-6.7,0-13.37-21.75-22.57-34.68-.68-.15,10.07-36.3,0-54.68-3.71-6.77,27.43-29.25,28.81-40.81.91-7.52,21-25.66,28.9-30.52,0-.37,11.87-5,12.2-5.17,16.56-10.54,26,7.49,58.32,3.32a89.8,89.8,0,0,1,11.08-1.11,1.2,1.2,0,0,0,.33,0c7.47-2.45,33.67,17.63,36.45,20.28,20.71,19.75,15.54,50.56,15.26,60.33-.08,2.56,6.56,12.87,4.81,15.06C296,343.47,294.16,357.23,293.05,355Z"/><path class="cls-4" d="M164.61,362.73c0,3.68,6.36-6.89,16.57-9.34,10.74-2.59,24.9,1,24.9-2.69s-7.41-8.12-17.91-8.12S164.61,359.05,164.61,362.73Z"/><path class="cls-4" d="M285.51,359.1c0,3.68-5.77-5-16-7.42-10.75-2.59-24.9,1-24.9-2.68s7.4-8.12,17.9-8.12S285.51,355.43,285.51,359.1Z"/><path class="cls-26" d="M288.4,739.05c6.38,73.39,9.45,273,12.89,339.29.92,17.6-91.78,10.16-91.78,10.16C191,1103,216,1014.82,216,913.73c0-35.66-5.89-46.86-1.77-75-8.62,1.87-6.81-.14-16.46,0,4.69,27.65,3.12,42,4.57,74.76,4.89,110.49-12.19,166.42-4.74,170.06,28,13.69-102.35,10.42-102.5,0-.8-53.21-16.16-228-5.62-262.44C88.42,817.86,108,741.31,108,737.87c0-14.66,7.11,1.9,23.47-7.57a94.78,94.78,0,0,1,13.08-6.24c13.77-5.39,30.26-8.52,48-8.52,24.6,0,46.81,6,62.72,15.75,1.13-.4,29.82-16.87,30.1-15.75,1.11,4.48,2.13,12.6,3.08,23.51"/><path class="cls-12" d="M210.53,800.35a9.38,9.38,0,0,1-1.66-.14,1,1,0,1,1,.33-2,7.07,7.07,0,0,0,6.22-1.85c11.18-10,9.36-52.45,9.34-52.88a1,1,0,0,1,1-1.06,1,1,0,0,1,1.06,1c.09,1.79,1.89,43.91-10,54.49A9.18,9.18,0,0,1,210.53,800.35Z"/><path class="cls-12" d="M284.62,742.88c-4.76,0-10.46-2.57-11.3-3a1,1,0,1,1,.86-1.84c2.81,1.31,10.76,4.21,13.75,1.94a1,1,0,1,1,1.23,1.61A7.44,7.44,0,0,1,284.62,742.88Z"/><path class="cls-12" d="M157.36,754.45c-3.69,0-8.1-.13-13.37-.43a1,1,0,0,1-1-1.07,1,1,0,0,1,1.07-1c26.22,1.51,29.65-1.4,30-1.76a1,1,0,0,1,2,.38C176,751.89,173.75,754.45,157.36,754.45Zm16.68-4Zm0,0Z"/><path class="cls-44" d="M110.42,1096.57s-38.9-310.15,21.32-366.24"/><path class="cls-20" d="M474.76,601.42c7.82-35.83-5.86-30.31-36.08-24.93-12.3,2.18-43.36-1.53-29,17.78,21,28.34,19.45,8.22,30.52,14C455,616.08,471.1,618.2,474.76,601.42Z"/><ellipse class="cls-30" cx="465.98" cy="581.03" rx="11.63" ry="5.29" transform="matrix(0.84, -0.54, 0.54, 0.84, -240.37, 344.8)"/><ellipse class="cls-30" cx="451.85" cy="582.28" rx="5.29" ry="11.63" transform="translate(-278.23 683.29) rotate(-60.07)"/><ellipse class="cls-30" cx="467.41" cy="588.6" rx="11.63" ry="5.29" transform="translate(-100.89 96.71) rotate(-10.67)"/><ellipse class="cls-30" cx="466.53" cy="597.34" rx="11.63" ry="5.29" transform="translate(-102.52 96.7) rotate(-10.67)"/><ellipse class="cls-30" cx="463.67" cy="606.58" rx="5.29" ry="11.63" transform="translate(-161.76 1044.5) rotate(-87.61)"/><ellipse class="cls-20" cx="467.61" cy="580.89" rx="11.14" ry="5.01" transform="translate(-242.9 354.45) rotate(-33.49)"/><ellipse class="cls-20" cx="454.21" cy="582.2" rx="5.09" ry="10.98" transform="translate(-277.09 684.48) rotate(-60)"/><ellipse class="cls-20" cx="468.9" cy="588.13" rx="11.06" ry="5.05" transform="translate(-107.78 105.21) rotate(-11.49)"/><ellipse class="cls-20" cx="468" cy="596.52" rx="11.06" ry="5.05" transform="translate(-109.47 105.2) rotate(-11.49)"/><ellipse class="cls-20" cx="465.22" cy="605.39" rx="5.07" ry="11.02" transform="translate(-153.97 1052.09) rotate(-88.27)"/><path class="cls-30" d="M463.68,587.5a3.58,3.58,0,0,1-4.91,1.15c-1.87-1-.46-1.92.39-3.53s.83-3.3,2.69-2.32A3.58,3.58,0,0,1,463.68,587.5Z"/><path class="cls-30" d="M458,598.18a3.58,3.58,0,0,1,2.83-4.17c2-.54,1.64,1.1,2.11,2.86s1.63,3-.41,3.53A3.58,3.58,0,0,1,458,598.18Z"/><path class="cls-30" d="M458.64,589.71a3.59,3.59,0,0,1,2.83-4.18c2-.54,1.63,1.1,2.1,2.87s1.63,3-.4,3.53A3.59,3.59,0,0,1,458.64,589.71Z"/><path class="cls-30" d="M455,607a3.58,3.58,0,0,1,2.83-4.17c2-.54,1.63,1.1,2.1,2.86s1.63,3-.4,3.53A3.58,3.58,0,0,1,455,607Z"/><path class="cls-16" d="M248.44,460c-.56,4.83,6.12,20.64,0,29.28-6.62,9.35-28,10.78-40.21,10.78-23.46,0-40.71-8.35-42.48-18.31-9.48-53.5,5.12-17.82,42.48-18.32C234.24,463.12,249.47,451.18,248.44,460Z"/><path class="cls-16" d="M436.56,572.37c-5.21-3.52-68.74,9-70.58,4.22-14.06-6.33-61-80.11-80.47-82.59-22.61-2.88-102.51-44.42-118.16-7.23-.09-.09-53.21,19.69-56.32,22.92-22.9,23.81-112.46,137.22-110,143,5.76,13.36,54.69,56.16,85.9,87.37s30.59,11.42,40.87,1.12c1.3-1.29,5.58-9.41,6-11.4,12.53,7.37,28.18,16.11,52.85,17.83,15.48,1.07,70.19-9.1,97.07-18.54,12-4.21,35.16-19.07,23.9-20-5.85-.48-15.1-54.12-17.08-88.88-.77-13.53-1.34-27.17-2.41-40.39,15.47,17.42,32.59,28.11,42.21,42.17,3.65,5.34,25.92,21.46,30.45,18.8,6.33,1.07,66.65-23.14,71.05-27.09C435.16,610.79,438.23,573.5,436.56,572.37ZM70.22,635.07C82,620,97.18,612.41,115.44,591c5.1-5.95,9.91-11.91,14.42-17.77-7.46,36.29-16.25,119-16.35,120.38C107.12,684.68,80.62,653.9,70.22,635.07Z"/><path class="cls-12" d="M189.9,398.86a22.59,22.59,0,1,1,22.59-22.58A22.61,22.61,0,0,1,189.9,398.86Zm0-42.13a19.55,19.55,0,1,0,19.55,19.55A19.57,19.57,0,0,0,189.9,356.73Z"/><path class="cls-12" d="M262.15,389.64a22.59,22.59,0,1,1,22.59-22.59A22.62,22.62,0,0,1,262.15,389.64Zm0-42.14a19.55,19.55,0,1,0,19.55,19.55A19.57,19.57,0,0,0,262.15,347.5Z"/><path class="cls-12" d="M210.44,369,208.11,367c5.07-6.09,18.68-14.49,33.9-2.75l-1.85,2.41C223.47,353.81,211,368.34,210.44,369Z"/><path class="cls-12" d="M139.07,382.38l-2.48-1.75c2.54-3.65,22.57-5,31.07-5.43l.15,3C155.18,378.86,140.61,380.62,139.07,382.38Z"/><ellipse class="cls-24" cx="188" cy="374.06" rx="16.21" ry="14.82"/><circle class="cls-25" cx="188" cy="377.74" r="10.69"/><circle class="cls-26" cx="189.9" cy="378.83" r="7"/><circle cx="190.25" cy="378.69" r="4.17"/><ellipse class="cls-24" cx="264.07" cy="367.09" rx="16.21" ry="14.91"/><circle class="cls-25" cx="264.07" cy="369.93" r="10.69"/><circle class="cls-26" cx="265.98" cy="371.02" r="7"/><circle cx="266.33" cy="370.88" r="4.17"/><path class="cls-30" d="M236.83,402.4c.57.69,3.13,1.33,2.31,2s-4.7,1.11-5.27.42a1.94,1.94,0,0,1,3-2.42Z"/><path class="cls-30" d="M250.64,402.27c-.45.77-2.88,1.81-2,2.34s4.82.37,5.27-.4a1.94,1.94,0,0,0-3.3-1.94Z"/><path class="cls-21" d="M246.48,406.87l-.48-.18a77.23,77.23,0,0,0-8-2.59,9,9,0,0,1-3.51-1.78c-.19.66-.43,1.69-.6,2.46a1,1,0,1,1-2-.45c.66-3,.89-4,1.82-4.31.75-.27,1.36.21,1.89.62a7.08,7.08,0,0,0,2.88,1.5,79,79,0,0,1,7.73,2.47c3.09-2.08,4.88-4.4,5.33-6.88s-.39-4.87-2.4-7.54c-4.9-6.51-11.18-22.44-11.44-23.11a1,1,0,0,1,1.88-.74c.07.16,6.45,16.34,11.18,22.63,2.36,3.14,3.29,6.21,2.77,9.12-.57,3.17-2.81,6-6.65,8.5Z"/><path class="cls-21" d="M256.55,406.44h-.17a1,1,0,0,1-.83-1.17c.51-3.12.23-5.39-.83-6.57a2.64,2.64,0,0,0-1.95-.89,1,1,0,0,1-.14-2,4.68,4.68,0,0,1,3.57,1.52c1.53,1.67,2,4.46,1.34,8.29A1,1,0,0,1,256.55,406.44Z"/><path class="cls-21" d="M226.32,409.66a1,1,0,0,1-.7-.29c-3.82-3.68-1.14-9,.81-11.35a1,1,0,0,1,1.55,1.31c-.18.21-4.37,5.3-1,8.59a1,1,0,0,1,0,1.43A1,1,0,0,1,226.32,409.66Z"/><path class="cls-45" d="M242.17,419.29c-18.53,7.8-29.68-5.49-29.68-5.49a16.15,16.15,0,0,0,11.84,10.72C233.76,426.58,242.17,419.29,242.17,419.29Z"/><polyline class="cls-45" points="218.18 303.79 219.22 322.87 226.36 315.91 227.19 329.47"/><path class="cls-20" d="M172.29,747.41c4,2.71,9.19,7-28.24,5.6-3.42-.13-7.83,9.49-8.41,14.59-2.59,22.92-10.55,39-15.22,38.58s-7.57-28.51-5-51.45c.86-7.58,3.28-5.43,4.69-11.48q.6-2.55,1.23-4.82c2.64-9.52,5.74-15.51,8.44-15.28C132.17,723.35,152.3,733.75,172.29,747.41Z"/></g><g id="Malfoy"><ellipse class="cls-33" cx="513.51" cy="622.38" rx="21.62" ry="7.28" transform="translate(-246.15 894.35) rotate(-70.17)"/><path class="cls-38" d="M684.09,1111.32c6-28.12,7-139.82,10.36-244.19,5,105,9.86,217.12,15.68,244.19,7.47,34.86,166.82,29,138.07,0-52.73-53.08-39.73-401.28-59.93-427.78-16.77-22-77.24-33.28-95,25.27-15-53.08-55.14-56.21-70.79-35.67-20.2,26.49-23.77,385.1-76.48,438.18C517.27,1140.27,676.6,1146.18,684.09,1111.32Z"/><path class="cls-46" d="M765,753.24s28.63,386,52.8,380.18"/><path class="cls-46" d="M771.42,750.05s28.62,386,52.79,380.18"/><path class="cls-33" d="M811.46,869.3c1.55,2.31,1.16,8.73,12.24,1.28s29.42-25.94,27.87-28.25-11.78,1.87-22.86,9.32S809.91,867,811.46,869.3Z"/><path class="cls-20" d="M861.69,913.51c-3.36,3.36-13.27-1.67-18.3-8.09a51.19,51.19,0,0,1-3.86-5.62c-11.16-.37-17.29-8.61-17.29-21.52,0-13.22-19.13-31.9,14.7-36.47,11.57-1.56,8.18,13.73,16.57,24,5.72,7,3,20.28-3.11,28a23.2,23.2,0,0,0,2.3,8.87C856.65,909.8,864.46,910.75,861.69,913.51Z"/><path class="cls-31" d="M851,841.69s-38.8,15.71-38.45,29.15c.2,7.47-61.35-197.65-42.28-232,0,0,35.12-11.42,35,6.43C804.93,702.39,830.56,782.54,851,841.69Z"/><path class="cls-31" d="M605,690.32c-24.6,6.82-98.65-45.1-96.84-48,16.07-25.71,9.92-43.21,15.47-39.41,12.31,8.4,38.12,17.61,60.82,25.92.34-.58.81-1.3,1.35-2.06,1.41-2,3.26-4.47,4.28-6,18.51-28.3,42.61-41.68,53.6-34.5S609.21,689.14,605,690.32Z"/><path class="cls-33" d="M608.91,670.33c-5,5.72,12.84-36.42,4.69-43.56s-18.25-14.69-13.22-20.41,20.15-1.59,28.29,5.56S613.94,664.6,608.91,670.33Z"/><path class="cls-47" d="M585.75,626.77c14.74,2.84,10.7,23.46,10.7,23.46"/><path class="cls-47" d="M596.15,661.39s.14-27.66-10.4-32.89"/><path class="cls-47" d="M584.53,672.38s9.46-30.27,5.34-37.07"/><path class="cls-33" d="M768.54,695.8c2.47,7.2,2-38.56,12.23-42.07s27.08-4.56,24.61-11.77-22.65-11.21-32.9-7.7S766.07,688.59,768.54,695.8Z"/><path class="cls-14" d="M771.55,639.48c-17.48,27,11.56,94.47,7.33,108.35-2.11,6.9-56.25,11.84-98.42,6.71s-113.75-26.27-94.26-38.91c10.52-6.82,25.24-51.92,40.79-97.18-13.55-10.13-41.5-9.19-36.83-15.85,17.74-25.32,43.71-75.35,43.71-75.35,1.08.39,38.43-7.72,39.43-7.17a2,2,0,0,1,.33-.16c22.16,39.76,73.49-.11,77.36-.19,46-.92,60.53,108.68,66.63,121.13C819.69,645.08,798.19,645,771.55,639.48Z"/><path class="cls-20" d="M474.52,598.48c15.25-33.35,22.88-20.73,43.83,1.7,8.53,9.14,35.6,24.81,12.55,31.66-33.82,10-20.49-5.1-32.82-7.1C481.55,622.07,467.38,614.1,474.52,598.48Z"/><ellipse class="cls-30" cx="491.29" cy="586.17" rx="5.29" ry="11.63" transform="translate(-224.41 316.48) rotate(-29.38)"/><ellipse class="cls-30" cx="503.2" cy="593.88" rx="11.63" ry="5.29" transform="translate(-21.4 18.82) rotate(-2.1)"/><ellipse class="cls-30" cx="486.49" cy="592.2" rx="5.29" ry="11.63" transform="translate(-279.82 604.2) rotate(-51.49)"/><ellipse class="cls-30" cx="483.19" cy="600.35" rx="5.29" ry="11.63" transform="matrix(0.62, -0.78, 0.78, 0.62, -287.44, 604.7)"/><ellipse class="cls-30" cx="481.41" cy="609.85" rx="5.29" ry="11.63" transform="translate(-276.11 782.58) rotate(-64.56)"/><ellipse class="cls-20" cx="489.92" cy="585.29" rx="5.01" ry="11.14" transform="translate(-220.76 306.86) rotate(-28.67)"/><ellipse class="cls-20" cx="501.16" cy="592.7" rx="10.98" ry="5.09" transform="translate(-21.99 19.32) rotate(-2.16)"/><ellipse class="cls-20" cx="485.39" cy="591.09" rx="5.05" ry="11.06" transform="translate(-279.46 591.93) rotate(-50.67)"/><ellipse class="cls-20" cx="482.28" cy="598.93" rx="5.05" ry="11.06" transform="translate(-286.66 592.39) rotate(-50.67)"/><ellipse class="cls-20" cx="480.59" cy="608.07" rx="5.07" ry="11.02" transform="translate(-276.92 772.09) rotate(-63.9)"/><path class="cls-30" d="M490.3,593a3.59,3.59,0,0,0,3.82,3.31c2.1,0,1.29-1.48,1.29-3.31s.81-3.31-1.29-3.31A3.59,3.59,0,0,0,490.3,593Z"/><path class="cls-30" d="M490.32,605.06a3.6,3.6,0,0,0-.55-5c-1.55-1.42-2,.21-3.2,1.55s-2.84,1.88-1.29,3.31A3.58,3.58,0,0,0,490.32,605.06Z"/><path class="cls-30" d="M493.73,597.28a3.59,3.59,0,0,0-.55-5c-1.55-1.43-2,.21-3.2,1.55s-2.84,1.88-1.29,3.31A3.58,3.58,0,0,0,493.73,597.28Z"/><path class="cls-30" d="M488.94,614.26a3.59,3.59,0,0,0-.56-5c-1.54-1.43-1.95.21-3.19,1.55s-2.84,1.88-1.29,3.31A3.58,3.58,0,0,0,488.94,614.26Z"/></g><path class="cls-20" d="M788.36,422.34c-10.21,14.29-26.38,27.63-44.14,39-2.3,25.5-4.11,51.1,3.88,58.44,22.6,20.76-91.4,24.73-74.46,4.72,3.93-4.64,8.46-18.44,13.84-35.2-19.3,6.94-34.26,9.39-37.49,5.55-20-23.83-24-54.71-25-68a12.93,12.93,0,0,1,3.65-10C649.3,396,651.75,281.29,751.45,300.19,796.22,308.68,825.49,370.36,788.36,422.34Z"/><path class="cls-30" d="M656.85,425c0-1.78,3.66-3.25,4.1-4.51.6-1.67,3.22,1.44,3.22,3.22a3.22,3.22,0,0,1-3.22,3.22C659.18,426.88,656.85,426.73,656.85,425Z"/><ellipse class="cls-30" cx="640.97" cy="414.86" rx="1.75" ry="2.05"/><path class="cls-21" d="M656.72,426.14c-2.67,0-12.33-1.88-15.3-5.94-.95-1.28-1.69-3.37.14-6s5.15-6.69,9.09-11.49c9.33-11.37,26.7-32.54,23.53-37a1,1,0,0,1,1.65-1.18c3.77,5.28-8.47,21-23.62,39.45-3.91,4.76-7.28,8.88-9,11.35-1.15,1.68-.76,2.75-.37,3.4,2.07,3.47,11,5.24,13.45,5.41a1,1,0,0,1,.91-.11,1.12,1.12,0,0,1,.83,1.11,1.08,1.08,0,0,1-.77,1A1.84,1.84,0,0,1,656.72,426.14Z"/><path class="cls-21" d="M667.32,431.92a1,1,0,0,1-.47-1.91s4.71-2.52,5-6.25c.17-2.43-1.55-5-5.11-7.56a1,1,0,0,1,1.19-1.64c4.17,3,6.17,6.17,5.94,9.35-.36,4.86-5.83,7.77-6.07,7.89A1,1,0,0,1,667.32,431.92Z"/><path class="cls-21" d="M636.45,417.12l-.17,0a1,1,0,0,1-.83-1.17c0-.26,1.17-6.44,4.92-7.9,1.81-.7,3.83-.21,6,1.46a1,1,0,1,1-1.23,1.61c-1.57-1.21-2.93-1.61-4-1.18-2.24.87-3.39,4.89-3.65,6.36A1,1,0,0,1,636.45,417.12Z"/><path class="cls-30" d="M712.16,479.06c14.81,3.25,19.83,16.43,30.22,29,2.26,2.74-1.44-26.63,1.84-46.77Z"/><path class="cls-30" d="M687.32,489.13c2.94-.26,18.5-7.08,20.43-7.93a.19.19,0,0,1,.27.17c-.2,2.77-17.66,23.6-26.37,27.26a.2.2,0,0,1-.26-.25l5.76-19.11A.17.17,0,0,1,687.32,489.13Z"/><ellipse class="cls-24" cx="711.98" cy="403.68" rx="16.21" ry="14.91"/><circle class="cls-25" cx="710.06" cy="406.9" r="10.69"/><circle class="cls-14" cx="708.16" cy="407.99" r="7"/><circle cx="707.81" cy="407.85" r="4.17"/><path class="cls-48" d="M804.58,397.77c2.38,25.1-40.91,61-51.72,50.49-4.05-3.92,31.53-16.69,29.7-36.49-1.3-14-15.1.34-14.06-2.5.53-1.47,5.22-23.48,5.35-25,1-11.07-9.68-25-13.75-29.35-4.25-4.6-13.38-3.44-17.69-5.66-.64-.6-37.6,5.36-44.25-4.76-19.47-29.65-33.09-5.49-31.86-16,3.78-32.18,54.81-34.92,69.33-30.83,10.37-5.23,25.18,5.81,46.49,13.65,24,8.84,29.63,41.3,31.26,52.79C816,370.67,803.75,389.05,804.58,397.77Z"/><path class="cls-4" d="M738,400c0,3.68-7.08-9.62-17.29-12.07-10.75-2.59-24.9,1-24.9-2.69s3.79-3.43,14.29-3.43C729.55,381.76,738,396.88,738,400Z"/><path class="cls-4" d="M656.25,357.56c-.84-1.51-.63-2.32-1-3.52a20.87,20.87,0,0,0-3.24,6.35c3.63,6.53,6,12.52,8.21,11.32C663.42,369.92,661.36,366.73,656.25,357.56Z"/><path class="cls-49" d="M659.75,385.28c1.64-8.83-9.15-13.42-9.15-13.42"/><path class="cls-49" d="M649.57,378s8.43,3.39,8.74,7.29"/><path class="cls-31" d="M689.92,436.27c1.62,14.71-12.45,24.09-22.3,24.28-13,.26-20.6-10.32-17.42-18,1.88-4.53,9.24.1,18.88.1S689.39,431.52,689.92,436.27Z"/><path class="cls-50" d="M687.56,442.05c-1.15,2.64-5.16,3.67-5.16,3.67,1.38,1.72-4.93,2.87-5.39,4.4s-5.16-.73-5.16-.73-1.08,3.1-2.75,3.33-3.79-2.6-3.79-2.6"/><path class="cls-51" d="M667.57,459.82c-2.87,1.62,8.55-1.23,14.13-4.95,8.19-5.46,9.49-18.52,7.34-19.78-1.26-.73-5,15.18-8.73,17.74S675.22,455.51,667.57,459.82Z"/><path class="cls-52" d="M689.63,432.73c-14.87,17.27-39.56,7-39.56,7s-4.37,25.35,20.76,20.32S689.63,432.73,689.63,432.73Z"/><g class="cls-53"><path class="cls-43" d="M854.37,252.22H797.09L817.28,241l-.41-24.09-28,4-.31,32.31,23.9,11.19H751l10.71-5.81q5.46-3,10.72-5.38l-1.65-78.35a116.91,116.91,0,0,1-10.35-6.31q-5.1-3.47-10.25-6.73l57.17.85-17.82,11.48-.52,31.45h27.51l-.82-42.22-21-12.89,57.69.85-18,11.47L832.84,241Z"/><path class="cls-43" d="M912.57,253.78l-32.65,1.84.72-7.93a44.68,44.68,0,0,1-6.59.64q-3.3.07-6.6.07a25,25,0,0,1-6.59-1,21.19,21.19,0,0,1-6.7-3.19,18.1,18.1,0,0,1-5.15-5.74,17,17,0,0,1-2.06-8.64,21.57,21.57,0,0,1,2-9.64,18.27,18.27,0,0,1,5-6.37,20.09,20.09,0,0,1,6.74-3.54,24.54,24.54,0,0,1,7.21-1.14,61.6,61.6,0,0,1,8.45.57q4.13.57,8.35,1c.13-1.23.24-2.48.31-3.75s.1-2.58.1-3.9a60,60,0,0,0-.47-7.51A25.75,25.75,0,0,0,883,189a11.18,11.18,0,0,0-3.3-4.6,8.32,8.32,0,0,0-5.41-1.7,11.8,11.8,0,0,0-5.61,1.34,12,12,0,0,0-4.48,4.61,8.15,8.15,0,0,1,2,3.47,16.4,16.4,0,0,1,.52,4.32v.85q-1.54,9.92-9.07,9.92a6.44,6.44,0,0,1-5.56-3.33,14.12,14.12,0,0,1-2.16-7.86,21.41,21.41,0,0,1,2.57-10.77,25.49,25.49,0,0,1,6.34-7.51,25.78,25.78,0,0,1,8.14-4.39,26.19,26.19,0,0,1,8.08-1.42q11.85,0,18.49,7.51t6.65,24.51c0,1.23,0,2.46-.05,3.68s-.09,2.46-.16,3.69l-2.47,32.58q3.92,2.41,7.62,5T912.57,253.78ZM883.52,220.2c-1.78-.28-3.57-.59-5.35-.92a29.53,29.53,0,0,0-5.36-.49,12.24,12.24,0,0,0-3.45.49,8.67,8.67,0,0,0-3.09,1.63,7.84,7.84,0,0,0-2.22,3.05,12,12,0,0,0-.82,4.74,9.24,9.24,0,0,0,.72,3.76,8.45,8.45,0,0,0,1.91,2.76,7.83,7.83,0,0,0,2.57,1.7,7.19,7.19,0,0,0,2.73.57,34.29,34.29,0,0,0,5.41-.43q2.73-.42,5.3-.85Z"/><path class="cls-43" d="M971.3,183.22a16.52,16.52,0,0,1-2.58,9.57,8,8,0,0,1-6.9,3.75,7,7,0,0,1-5-1.63,15.52,15.52,0,0,1-2.93-3.68,40.63,40.63,0,0,0-2.37-3.68,3.89,3.89,0,0,0-3.35-1.63,7,7,0,0,0-6.08,3.33,24.46,24.46,0,0,0-3.4,7.86,17.33,17.33,0,0,0-.15,2.69q-.06,2.41-.16,6.09t-.2,8.08q-.11,4.4-.21,8.36t-.21,7c-.06,2-.1,3.38-.1,4l25,12.47-59.55,8.36q5.35-4.68,10.71-9.28t10.72-9.14l-3.81-49.45-23-8.5,41.52-12.47-.21,13a58.63,58.63,0,0,1,8.92-7,18.58,18.58,0,0,1,10.14-2.9,13.54,13.54,0,0,1,3.81.57,13.82,13.82,0,0,1,3.71,1.7,11.14,11.14,0,0,1,3.09,3,12.88,12.88,0,0,1,2,4.61A24.6,24.6,0,0,1,971.3,183.22Z"/><path class="cls-43" d="M1034.14,183.22a16.52,16.52,0,0,1-2.58,9.57,8,8,0,0,1-6.9,3.75,6.94,6.94,0,0,1-4.94-1.63,15.56,15.56,0,0,1-2.94-3.68,40.63,40.63,0,0,0-2.37-3.68,3.89,3.89,0,0,0-3.35-1.63,7,7,0,0,0-6.08,3.33,24.46,24.46,0,0,0-3.4,7.86,18.92,18.92,0,0,0-.15,2.69q-.06,2.41-.15,6.09t-.21,8.08q-.11,4.4-.21,8.36t-.2,7c-.07,2-.11,3.38-.11,4l25,12.47L966,254.21q5.36-4.68,10.72-9.28t10.71-9.14l-3.81-49.45-23-8.5,41.51-12.47-.2,13a58.08,58.08,0,0,1,8.91-7,18.61,18.61,0,0,1,10.14-2.9,13.66,13.66,0,0,1,3.82.57,14,14,0,0,1,3.71,1.7,11.42,11.42,0,0,1,3.09,3,13.05,13.05,0,0,1,1.95,4.61A23.85,23.85,0,0,1,1034.14,183.22Z"/><path class="cls-43" d="M1100.07,185.49l-2.57,84.44a92.12,92.12,0,0,1-2.48,19.41,49.38,49.38,0,0,1-6.23,15.09,28.57,28.57,0,0,1-10.2,9.71,28.88,28.88,0,0,1-14.27,3.4,24.91,24.91,0,0,1-9.17-1.84,25.83,25.83,0,0,1-8.39-5.46,28.25,28.25,0,0,1-6.13-8.85,29.36,29.36,0,0,1-2.37-12.19,14.86,14.86,0,0,1,2.47-8.85,7.52,7.52,0,0,1,6.39-3.47q3.3,0,5.56,3.4a13.71,13.71,0,0,1,2.27,7.79,10.93,10.93,0,0,1-1.29,5.24,9.23,9.23,0,0,1-3,3.54,16,16,0,0,0,5.87,6.24,14.18,14.18,0,0,0,7.22,2.12,10.92,10.92,0,0,0,8.6-3.68,25.27,25.27,0,0,0,5-9.21,59.55,59.55,0,0,0,2.42-12q.67-6.45,1-12.12t.26-11.4c0-3.73.12-7.49.26-11.27-3.23,1.14-6.23,2.11-9,2.91a32.86,32.86,0,0,1-9.11,1.2,29.47,29.47,0,0,1-9.64-1.56,20.86,20.86,0,0,1-8-5,24.32,24.32,0,0,1-5.51-8.79,36.39,36.39,0,0,1-2.06-13,40.08,40.08,0,0,1,.56-5.74q.57-3.61,1.34-7.44c.52-2.55,1-5,1.6-7.37s1-4.15,1.24-5.38L1027.85,173l35.34,16.72q-.62,2.41-1.7,6.94t-2.21,9.43q-1.14,4.88-2,9.35a40.47,40.47,0,0,0-.83,6.59,13.9,13.9,0,0,0,1.24,6.09,13.52,13.52,0,0,0,3.14,4.25,12.12,12.12,0,0,0,4.23,2.48,14.27,14.27,0,0,0,4.58.78,29.64,29.64,0,0,0,6-.71,18.86,18.86,0,0,0,5.92-2.27l.21-35.28L1062.26,180Z"/><path class="cls-43" d="M1216.79,186.48a15.68,15.68,0,0,1-2.68,9.14,25.9,25.9,0,0,1-6.95,6.8,45.55,45.55,0,0,1-9.48,4.89,91.18,91.18,0,0,1-10.3,3.26,95.29,95.29,0,0,1-9.48,1.91q-4.38.65-7,.78l.82,28.9,23.9,13.61-65,1.13,22.15-16-.93-66.45-24.31-15.16,49.55,1.84c1.85.1,4.14.29,6.85.57a64.52,64.52,0,0,1,17.21,4.32,31.2,31.2,0,0,1,7.82,4.53,22.38,22.38,0,0,1,5.62,6.66A18.86,18.86,0,0,1,1216.79,186.48Zm-14.21,0a7.16,7.16,0,0,0-1.45-4.46,12.88,12.88,0,0,0-3.7-3.26,26.83,26.83,0,0,0-5-2.27,42.24,42.24,0,0,0-5.46-1.41c-1.79-.33-3.42-.57-4.9-.71s-2.62-.21-3.45-.21c-1.58,0-3.19.05-4.84.14s-3.26.24-4.84.42l.51,26.07a12.28,12.28,0,0,0,2.53.29h2.42c1,0,2.32-.07,4.07-.22a48,48,0,0,0,5.77-.85,55.46,55.46,0,0,0,6.38-1.7,27.68,27.68,0,0,0,5.93-2.69,15.45,15.45,0,0,0,4.38-3.89A8.53,8.53,0,0,0,1202.58,186.48Z"/><path class="cls-43" d="M1287.05,218.08q0,9.78-3.55,16.5a32.32,32.32,0,0,1-9.07,10.91,37,37,0,0,1-12,6.1,43.94,43.94,0,0,1-12.36,1.91,39.53,39.53,0,0,1-12-2,34.67,34.67,0,0,1-11.44-6.24,32.65,32.65,0,0,1-8.55-11,36.09,36.09,0,0,1-3.35-16.22q0-10.35,3.61-17.15a30.55,30.55,0,0,1,9.12-10.76,33.7,33.7,0,0,1,12.15-5.53,56.11,56.11,0,0,1,12.83-1.56,38.32,38.32,0,0,1,11.79,2,34,34,0,0,1,11.23,6.16,31.84,31.84,0,0,1,8.35,10.84A36.28,36.28,0,0,1,1287.05,218.08Zm-17-.28a29.89,29.89,0,0,0-1.39-9.36,24.07,24.07,0,0,0-3.81-7.36,17.51,17.51,0,0,0-5.61-4.82,14.31,14.31,0,0,0-6.8-1.7,19.84,19.84,0,0,0-7.42,1.49,20.74,20.74,0,0,0-11.54,11.47,24.93,24.93,0,0,0-1.85,9.85,36.71,36.71,0,0,0,1.29,10.06,23.75,23.75,0,0,0,3.7,7.79,17.26,17.26,0,0,0,5.72,5,15.24,15.24,0,0,0,7.32,1.77,23.29,23.29,0,0,0,8-1.34,16.54,16.54,0,0,0,6.49-4.32,20.41,20.41,0,0,0,4.33-7.58A34.67,34.67,0,0,0,1270.05,217.8Z"/><path class="cls-43" d="M1334.34,160.84l-.93,13.32c-3.36-.38-6.69-.73-10-1.07s-6.63-.73-10-1.2q-.84,13.46-1.76,26.78t-1.85,26.78a11.14,11.14,0,0,1-.1,1.41,9.81,9.81,0,0,0-.11,1.42,28,28,0,0,0,.31,4,14.43,14.43,0,0,0,1,3.68,7.76,7.76,0,0,0,1.91,2.69,4.23,4.23,0,0,0,2.93,1.07,8.92,8.92,0,0,0,6-2.2,18.11,18.11,0,0,0,4.33-5.6,34.92,34.92,0,0,0,2.78-7.58,51.27,51.27,0,0,0,1.34-8.29,72.59,72.59,0,0,1,1.23,13.18,40.83,40.83,0,0,1-1.44,11.26,28,28,0,0,1-4,8.65,18.35,18.35,0,0,1-6.18,5.59,16.1,16.1,0,0,1-7.93,2,14.61,14.61,0,0,1-7.93-2.13,16.81,16.81,0,0,1-5.62-5.88,29.36,29.36,0,0,1-3.29-8.85A52.61,52.61,0,0,1,1294,229v-2.13c0-.66,0-1.37.11-2.12q.82-13.74,1.59-27.13t1.4-27.14c-1.86-.18-3.7-.4-5.52-.63s-3.65-.5-5.51-.78l.41-11.2a16.37,16.37,0,0,0,4.54-1,22.65,22.65,0,0,0,4.58-2.26,22.42,22.42,0,0,0,4.12-3.41,17.38,17.38,0,0,0,3.14-4.53c.76-1.7,1.46-3.54,2.12-5.52s1.23-4.06,1.75-6.24.94-4.32,1.29-6.45.58-4.17.72-6.16l8.44.29L1314.46,158Z"/><path class="cls-43" d="M1379,160.84l-.93,13.32c-3.37-.38-6.7-.73-10-1.07s-6.63-.73-10-1.2q-.83,13.46-1.75,26.78t-1.85,26.78a9.57,9.57,0,0,1-.11,1.41,11.43,11.43,0,0,0-.1,1.42,26.66,26.66,0,0,0,.31,4,14.43,14.43,0,0,0,1,3.68,7.76,7.76,0,0,0,1.91,2.69,4.21,4.21,0,0,0,2.93,1.07,8.92,8.92,0,0,0,6-2.2,18.08,18.08,0,0,0,4.32-5.6,34.41,34.41,0,0,0,2.79-7.58,51.27,51.27,0,0,0,1.34-8.29,72.59,72.59,0,0,1,1.23,13.18,40.83,40.83,0,0,1-1.44,11.26,28,28,0,0,1-4,8.65,18.53,18.53,0,0,1-6.18,5.59,16.1,16.1,0,0,1-7.93,2,14.58,14.58,0,0,1-7.93-2.13,16.81,16.81,0,0,1-5.62-5.88,29.36,29.36,0,0,1-3.3-8.85,52.63,52.63,0,0,1-1.08-10.91v-2.13c0-.66,0-1.37.11-2.12q.81-13.74,1.59-27.13t1.39-27.14c-1.85-.18-3.69-.4-5.51-.63s-3.66-.5-5.51-.78l.41-11.2a16.38,16.38,0,0,0,4.53-1,22.73,22.73,0,0,0,4.59-2.26,22.42,22.42,0,0,0,4.12-3.41,17.38,17.38,0,0,0,3.14-4.53,57.41,57.41,0,0,0,2.11-5.52c.66-2,1.24-4.06,1.76-6.24s.94-4.32,1.28-6.45.59-4.17.72-6.16l8.45.29L1359.06,158Z"/><path class="cls-43" d="M1436.84,226.58c0,.66,0,1.32,0,2s0,1.33,0,2l-41.93,1.13q1.34,8.35,6.08,12.33a16.26,16.26,0,0,0,10.71,4,32.21,32.21,0,0,0,5.88-.56,27.16,27.16,0,0,0,5.87-1.85,24.71,24.71,0,0,0,10.09-8.21,32.12,32.12,0,0,1-3.81,10.48,27.59,27.59,0,0,1-6.33,7.51,26.18,26.18,0,0,1-7.94,4.46,25.51,25.51,0,0,1-8.5,1.49,22.61,22.61,0,0,1-11-2.83,29,29,0,0,1-9.06-7.79,38.69,38.69,0,0,1-6.13-11.91,48.59,48.59,0,0,1-2.27-15.16,45.63,45.63,0,0,1,2.58-15.72,39.67,39.67,0,0,1,6.8-12.12,29.49,29.49,0,0,1,9.78-7.72,26.47,26.47,0,0,1,11.64-2.69,20.91,20.91,0,0,1,11.49,3.26,28.69,28.69,0,0,1,8.71,8.92,45.2,45.2,0,0,1,5.51,13.11A64.07,64.07,0,0,1,1436.84,226.58Zm-15.76-7.23A36.81,36.81,0,0,0,1420,212a23.2,23.2,0,0,0-2.58-6.24,14.5,14.5,0,0,0-4-4.32,9.89,9.89,0,0,0-10.77-.07,13,13,0,0,0-3.81,4.18,25.68,25.68,0,0,0-2.52,6.09,52.23,52.23,0,0,0-1.5,7.16Z"/><path class="cls-43" d="M1496.49,183.22a16.59,16.59,0,0,1-2.57,9.57,8,8,0,0,1-6.91,3.75,7,7,0,0,1-4.94-1.63,15.56,15.56,0,0,1-2.94-3.68,40.63,40.63,0,0,0-2.37-3.68,3.88,3.88,0,0,0-3.34-1.63,7,7,0,0,0-6.08,3.33,24.24,24.24,0,0,0-3.4,7.86,18.06,18.06,0,0,0-.16,2.69q0,2.41-.15,6.09t-.21,8.08q-.11,4.4-.2,8.36t-.21,7c-.07,2-.1,3.38-.1,4l25,12.47-59.54,8.36q5.36-4.68,10.71-9.28t10.71-9.14L1446,186.34l-23-8.5,41.52-12.47-.21,13a58.08,58.08,0,0,1,8.91-7,18.64,18.64,0,0,1,10.15-2.9,13.6,13.6,0,0,1,3.81.57,14,14,0,0,1,3.71,1.7,11.14,11.14,0,0,1,3.09,3,13.25,13.25,0,0,1,2,4.61A24.55,24.55,0,0,1,1496.49,183.22Z"/><path class="cls-43" d="M871.8,384l-24.49,1.38.54-5.95a31.78,31.78,0,0,1-4.94.48c-1.65,0-3.3,0-4.95,0a18.57,18.57,0,0,1-4.94-.74,15.58,15.58,0,0,1-5-2.39,13.45,13.45,0,0,1-3.87-4.31,12.66,12.66,0,0,1-1.54-6.48,16.16,16.16,0,0,1,1.47-7.22A13.59,13.59,0,0,1,827.8,354a15.26,15.26,0,0,1,5.06-2.66,18.4,18.4,0,0,1,5.41-.85,47,47,0,0,1,6.34.42c2.06.29,4.14.54,6.26.75.1-.92.18-1.86.23-2.82s.08-1.93.08-2.92a45.39,45.39,0,0,0-.35-5.63,19.52,19.52,0,0,0-1.24-4.94,8.46,8.46,0,0,0-2.47-3.46,6.28,6.28,0,0,0-4.06-1.27,8.85,8.85,0,0,0-4.21,1,9,9,0,0,0-3.36,3.45,6.23,6.23,0,0,1,1.47,2.6,12.45,12.45,0,0,1,.38,3.25v.63q-1.15,7.44-6.79,7.44a4.83,4.83,0,0,1-4.18-2.5,10.55,10.55,0,0,1-1.62-5.89,16.08,16.08,0,0,1,1.93-8.08,19.13,19.13,0,0,1,4.75-5.63,19.44,19.44,0,0,1,6.11-3.3,20.05,20.05,0,0,1,6.06-1.06q8.89,0,13.87,5.63t5,18.39c0,.92,0,1.84,0,2.76s-.07,1.84-.12,2.76l-1.85,24.44c1.95,1.21,3.86,2.45,5.71,3.72S869.9,382.8,871.8,384ZM850,358.82c-1.34-.22-2.68-.44-4-.69a21.88,21.88,0,0,0-4-.38,9.12,9.12,0,0,0-2.59.38,6.55,6.55,0,0,0-2.32,1.22,6.07,6.07,0,0,0-1.66,2.28,9.08,9.08,0,0,0-.62,3.56,6.89,6.89,0,0,0,.55,2.82,6.38,6.38,0,0,0,1.43,2.07,6.13,6.13,0,0,0,1.93,1.28,5.4,5.4,0,0,0,2,.42,26.65,26.65,0,0,0,4.06-.32c1.36-.21,2.69-.42,4-.64Z"/><path class="cls-43" d="M923.57,375.93l-33.53.31,14.45-7.65V349.47a17.13,17.13,0,0,0-2-9,6.8,6.8,0,0,0-6.22-3.35,11.79,11.79,0,0,0-4.44,1,6.44,6.44,0,0,0-3.52,3.61l-1.7,20.61a19.36,19.36,0,0,0,2.44,2.13c1.1.85,2.25,1.7,3.43,2.55,1.34,1,2.79,2,4.33,3.08l-31.75.21L878,363l-2.32-25.61-5.18-2q-2.94-1.12-5.64-2.29l-6.41-2.65,30.67-7-.38,6.48q2.7-1.49,5.79-3a13.88,13.88,0,0,1,6-1.49,12.77,12.77,0,0,1,10.89,5.21q3.87,5.2,3.86,15c0,1.63-.06,3.45-.19,5.47s-.3,4.06-.5,6.11-.43,4.09-.66,6.11-.45,3.88-.65,5.58Z"/><path class="cls-43" d="M981.68,395.8l-26.74,5.1.39-9.25a25.11,25.11,0,0,1-4.56,1.06,32.89,32.89,0,0,1-4.64.32A30.41,30.41,0,0,1,937,391.6a23,23,0,0,1-8.27-4.62,23.91,23.91,0,0,1-6-8.29,30,30,0,0,1-2.32-12.43,29,29,0,0,1,1.86-10.68,26.34,26.34,0,0,1,4.87-8.08,21.46,21.46,0,0,1,6.83-5.15,18.13,18.13,0,0,1,7.85-1.81,29.07,29.07,0,0,1,7.92,1.12,27.57,27.57,0,0,1,7.45,3.34l1.39-36.66L941.5,297.19l31.83,3.08L965,390.38Zm-25-40.91a13.32,13.32,0,0,0-5.56-3.09,22.32,22.32,0,0,0-6-.95,10.61,10.61,0,0,0-5.14,1.27,11.83,11.83,0,0,0-4,3.62,18,18,0,0,0-2.59,5.57,26,26,0,0,0-.92,7.07,16.27,16.27,0,0,0,1.47,7.17,14.85,14.85,0,0,0,8.88,7.87,17.32,17.32,0,0,0,5.33.9,15.43,15.43,0,0,0,7.65-2.13Z"/><path class="cls-43" d="M1034.52,314.29l-.69,10c-2.52-.28-5-.55-7.5-.79s-5-.55-7.49-.91q-.62,10.1-1.31,20.09t-1.39,20.08a7.56,7.56,0,0,1-.08,1.06,7.68,7.68,0,0,0-.08,1.06,20.82,20.82,0,0,0,.23,3,11.1,11.1,0,0,0,.78,2.77,5.73,5.73,0,0,0,1.43,2,3.12,3.12,0,0,0,2.2.8,6.69,6.69,0,0,0,4.48-1.65,13.38,13.38,0,0,0,3.24-4.19,26,26,0,0,0,2.09-5.69,37.84,37.84,0,0,0,1-6.21,53.86,53.86,0,0,1,.93,9.88,30.7,30.7,0,0,1-1.08,8.45,21.31,21.31,0,0,1-3,6.48,14,14,0,0,1-4.64,4.19,12.06,12.06,0,0,1-6,1.49,11,11,0,0,1-5.95-1.59,12.66,12.66,0,0,1-4.21-4.41,21.89,21.89,0,0,1-2.47-6.64,39.46,39.46,0,0,1-.81-8.18v-1.6c0-.49,0-1,.07-1.59q.63-10.31,1.2-20.35t1-20.35c-1.39-.14-2.76-.3-4.13-.48s-2.74-.37-4.13-.58l.31-8.4a12.71,12.71,0,0,0,3.4-.74,17.11,17.11,0,0,0,3.43-1.7,17.3,17.3,0,0,0,3.1-2.55,13.3,13.3,0,0,0,2.35-3.4,43.93,43.93,0,0,0,1.59-4.15c.48-1.48.92-3,1.31-4.67s.71-3.24,1-4.84.44-3.13.55-4.62l6.33.21-2,26.57Z"/><path class="cls-43" d="M1092.55,390.48l-32.37-1.27,11-8.18V361.58q0-6.58-2.47-10.2a8.24,8.24,0,0,0-7.27-3.61,20.13,20.13,0,0,0-4.52.58,12,12,0,0,0-4.29,1.86q-.22,6.06-.42,12.06t-.35,12.06l9.81,8.08-32.37,1.8,12.44-9.45-2-71.41-19-6.91,33.85-6.9-1.63,51a15.74,15.74,0,0,1,3.94-1.17,25.93,25.93,0,0,1,4-.32h.31a31.87,31.87,0,0,1,7.19.91,21.82,21.82,0,0,1,7.14,3.08A17.24,17.24,0,0,1,1081,349a18.9,18.9,0,0,1,2.16,9.51c0,1.35-.09,3-.27,5s-.4,4-.65,6.17-.54,4.16-.85,6.11-.57,3.56-.78,4.83Z"/><path class="cls-43" d="M1131.65,363.6c0,.5,0,1,0,1.49s0,1,0,1.48l-31.45.85q1,6.29,4.56,9.25a12.2,12.2,0,0,0,8,3,23.82,23.82,0,0,0,4.4-.42,20.08,20.08,0,0,0,4.41-1.38,18.71,18.71,0,0,0,4.09-2.5,18.46,18.46,0,0,0,3.48-3.67,24.34,24.34,0,0,1-2.86,7.87,20.94,20.94,0,0,1-4.75,5.63,19.77,19.77,0,0,1-6,3.35,19.44,19.44,0,0,1-6.38,1.11,17,17,0,0,1-8.23-2.12,22,22,0,0,1-6.8-5.85,29,29,0,0,1-4.59-8.92,36.25,36.25,0,0,1-1.7-11.37,34.33,34.33,0,0,1,1.93-11.8,29.84,29.84,0,0,1,5.1-9.08,22,22,0,0,1,7.34-5.79,19.74,19.74,0,0,1,8.73-2,15.62,15.62,0,0,1,8.61,2.44,21.36,21.36,0,0,1,6.53,6.7,33.82,33.82,0,0,1,4.14,9.82A48.22,48.22,0,0,1,1131.65,363.6Zm-11.82-5.42a28.6,28.6,0,0,0-.85-5.53A17.34,17.34,0,0,0,1117,348a10.57,10.57,0,0,0-3-3.24,6.84,6.84,0,0,0-4.06-1.22,7,7,0,0,0-4,1.16,9.84,9.84,0,0,0-2.85,3.14,18.91,18.91,0,0,0-1.9,4.57,40.74,40.74,0,0,0-1.12,5.36Z"/><path class="cls-43" d="M1230.24,318.44l-16.46,6.48-25.19,66.73L1164,322.05l-17.31-3.4,45.2-14.45-14.21,13.71,14.45,44.73L1207.21,323l-13.91-12.65Z"/><path class="cls-43" d="M1266.24,357.22a26.32,26.32,0,0,1-2.66,12.38,24.29,24.29,0,0,1-6.8,8.18,27.56,27.56,0,0,1-9,4.57,32.75,32.75,0,0,1-9.28,1.44,29.73,29.73,0,0,1-9-1.49,25.91,25.91,0,0,1-8.57-4.67,24.7,24.7,0,0,1-6.42-8.24,27.12,27.12,0,0,1-2.51-12.17q0-7.75,2.71-12.85a23,23,0,0,1,6.83-8.08,25.5,25.5,0,0,1,9.12-4.14,42,42,0,0,1,9.62-1.17,28.79,28.79,0,0,1,8.85,1.48,25.85,25.85,0,0,1,8.42,4.63,23.76,23.76,0,0,1,6.26,8.13A27.21,27.21,0,0,1,1266.24,357.22Zm-12.75-.21a22.27,22.27,0,0,0-1-7,18,18,0,0,0-2.86-5.53,13.2,13.2,0,0,0-4.21-3.61,10.72,10.72,0,0,0-5.1-1.28,14.91,14.91,0,0,0-5.56,1.12,15.56,15.56,0,0,0-5,3.24,16,16,0,0,0-3.64,5.37,18.68,18.68,0,0,0-1.39,7.38,27.4,27.4,0,0,0,1,7.55,17.78,17.78,0,0,0,2.78,5.84,12.89,12.89,0,0,0,4.29,3.77,11.37,11.37,0,0,0,5.49,1.33,17.33,17.33,0,0,0,6-1,12.27,12.27,0,0,0,4.87-3.24,15.31,15.31,0,0,0,3.24-5.68A25.79,25.79,0,0,0,1253.49,357Z"/><path class="cls-43" d="M1296.22,389.42l-35.15,1.81,13.21-11.59-2.55-80.33-18.16-9.24,32.68-.53-2.31,89.57Z"/><path class="cls-43" d="M1352,395.8l-26.74,5.1.39-9.25a24.92,24.92,0,0,1-4.56,1.06,32.79,32.79,0,0,1-4.64.32,30.41,30.41,0,0,1-9.15-1.43A23,23,0,0,1,1299,387a23.91,23.91,0,0,1-6-8.29,30.05,30.05,0,0,1-2.31-12.43,29,29,0,0,1,1.85-10.68,26.34,26.34,0,0,1,4.87-8.08,21.5,21.5,0,0,1,6.84-5.15,18.08,18.08,0,0,1,7.84-1.81,29.07,29.07,0,0,1,7.92,1.12,27.44,27.44,0,0,1,7.45,3.34l1.39-36.66-17.07-11.15,31.83,3.08-8.34,90.11Zm-25-40.91a13.26,13.26,0,0,0-5.56-3.09,22.32,22.32,0,0,0-6-.95,10.64,10.64,0,0,0-5.14,1.27,11.83,11.83,0,0,0-4,3.62,18,18,0,0,0-2.58,5.57,25.62,25.62,0,0,0-.93,7.07,16.27,16.27,0,0,0,1.47,7.17,14.85,14.85,0,0,0,8.88,7.87,17.32,17.32,0,0,0,5.33.9,15.43,15.43,0,0,0,7.65-2.13Z"/><path class="cls-43" d="M1388.71,363.6c0,.5,0,1,0,1.49s0,1,0,1.48l-31.45.85q1,6.29,4.56,9.25a12.2,12.2,0,0,0,8,3,23.82,23.82,0,0,0,4.4-.42,19.92,19.92,0,0,0,4.41-1.38,18.71,18.71,0,0,0,4.09-2.5,18.46,18.46,0,0,0,3.48-3.67,24.34,24.34,0,0,1-2.86,7.87,20.94,20.94,0,0,1-4.75,5.63,19.77,19.77,0,0,1-6,3.35,19.4,19.4,0,0,1-6.38,1.11,17,17,0,0,1-8.23-2.12,21.81,21.81,0,0,1-6.79-5.85,28.79,28.79,0,0,1-4.6-8.92,36.25,36.25,0,0,1-1.7-11.37,34.33,34.33,0,0,1,1.93-11.8,29.84,29.84,0,0,1,5.1-9.08,22,22,0,0,1,7.34-5.79,19.74,19.74,0,0,1,8.73-2,15.68,15.68,0,0,1,8.62,2.44,21.33,21.33,0,0,1,6.52,6.7,33.82,33.82,0,0,1,4.14,9.82A48.22,48.22,0,0,1,1388.71,363.6Zm-11.82-5.42a28.6,28.6,0,0,0-.85-5.53,17.34,17.34,0,0,0-1.94-4.67,10.57,10.57,0,0,0-3-3.24,6.84,6.84,0,0,0-4.06-1.22,7,7,0,0,0-4,1.16,9.75,9.75,0,0,0-2.86,3.14,18.91,18.91,0,0,0-1.9,4.57,40.74,40.74,0,0,0-1.12,5.36Z"/><path class="cls-43" d="M1428.27,338.42l-.62,14.55-33.46,1.81.47-19.23Z"/><path class="cls-43" d="M902.17,456.34l-15.07,7.34-17.3,52-11-30.61-10,30.29-18.08-51.43-14.53-8.29,40.57-2.55-13.06,7.54,8,24.76,9.58-30.49,10.2,31.24,7.88-23.49-11.2-8.29Z"/><path class="cls-43" d="M950.31,521.06l-32.38-1.28,11-8.18V492.15q0-6.58-2.47-10.2a8.26,8.26,0,0,0-7.26-3.61,20.65,20.65,0,0,0-4.52.58,11.83,11.83,0,0,0-4.29,1.86c-.15,4-.3,8.06-.42,12.06s-.25,8-.35,12.06L919.4,513,887,514.79l12.44-9.46-2-71.41-19-6.9,33.84-6.91-1.62,51a16.62,16.62,0,0,1,3.94-1.17,25.92,25.92,0,0,1,4-.31h.31a31.74,31.74,0,0,1,7.18.9,21.78,21.78,0,0,1,7.15,3.08,17.43,17.43,0,0,1,5.45,5.95,19,19,0,0,1,2.16,9.51c0,1.35-.09,3-.27,5s-.4,4-.66,6.16-.54,4.16-.85,6.11-.57,3.56-.77,4.83Z"/><path class="cls-43" d="M994,514.57,969.47,516l.54-6a33.16,33.16,0,0,1-5,.47c-1.65,0-3.29.06-4.94.06a18.68,18.68,0,0,1-5-.75,15.78,15.78,0,0,1-5-2.39,13.61,13.61,0,0,1-3.86-4.3,12.69,12.69,0,0,1-1.55-6.48,16.18,16.18,0,0,1,1.47-7.23,13.73,13.73,0,0,1,3.75-4.78A15.35,15.35,0,0,1,955,482a18.68,18.68,0,0,1,5.41-.85,46.94,46.94,0,0,1,6.33.43q3.09.42,6.26.74c.1-.92.18-1.86.23-2.81s.08-1.93.08-2.93a43.53,43.53,0,0,0-.35-5.63,19.52,19.52,0,0,0-1.23-4.94,8.44,8.44,0,0,0-2.48-3.45,6.23,6.23,0,0,0-4-1.28,8.82,8.82,0,0,0-4.21,1,9,9,0,0,0-3.36,3.45,6.13,6.13,0,0,1,1.46,2.61,12.35,12.35,0,0,1,.39,3.24v.64q-1.15,7.44-6.8,7.43a4.83,4.83,0,0,1-4.17-2.49,10.61,10.61,0,0,1-1.62-5.9,16.08,16.08,0,0,1,1.93-8.08,19.11,19.11,0,0,1,4.75-5.63,19.36,19.36,0,0,1,6.1-3.29,19.76,19.76,0,0,1,6.07-1.06q8.88,0,13.87,5.63t5,18.38c0,.92,0,1.84,0,2.76s-.06,1.85-.11,2.77l-1.86,24.44q2.94,1.8,5.72,3.72T994,514.57Zm-21.79-25.18q-2-.31-4-.69a21.76,21.76,0,0,0-4-.37,9.11,9.11,0,0,0-2.59.37,6.72,6.72,0,0,0-2.32,1.22,5.83,5.83,0,0,0-1.66,2.29,9,9,0,0,0-.62,3.56,6.87,6.87,0,0,0,.54,2.81,6.32,6.32,0,0,0,1.43,2.07,6.07,6.07,0,0,0,1.93,1.28,5.49,5.49,0,0,0,2,.42A26.72,26.72,0,0,0,967,502l4-.64Z"/><path class="cls-43" d="M1034.37,491.83A45,45,0,0,1,1033,504a25.78,25.78,0,0,1-4.17,8.92,18,18,0,0,1-6.65,5.48,20.08,20.08,0,0,1-8.69,1.86,19.07,19.07,0,0,1-8.85-2.13,21.55,21.55,0,0,1-7.18-6.06,30.38,30.38,0,0,1-4.83-9.35,41.75,41.75,0,0,1,.23-24.86,30.82,30.82,0,0,1,5.41-9.78,24,24,0,0,1,7.84-6.21,20.93,20.93,0,0,1,9.31-2.18,16.6,16.6,0,0,1,5.76,1.17,20.87,20.87,0,0,1,5.87,3.4,18.54,18.54,0,0,1,4.56,5.52,15.62,15.62,0,0,1,1.81,7.65,10.82,10.82,0,0,1-1.77,6.49,5.56,5.56,0,0,1-4.72,2.44,6.54,6.54,0,0,1-5-2.29,9.17,9.17,0,0,1-2.09-6.42,23.53,23.53,0,0,1,.2-2.93,9.26,9.26,0,0,1,.73-2.71,7.81,7.81,0,0,0-2.86-2.12,8.13,8.13,0,0,0-3.17-.64,7,7,0,0,0-5,2,15,15,0,0,0-3.32,4.94,26.67,26.67,0,0,0-1.82,6.64,47.75,47.75,0,0,0-.54,7,29.2,29.2,0,0,0,.93,7.6,18.59,18.59,0,0,0,2.7,5.95,13.67,13.67,0,0,0,4.25,3.93,11,11,0,0,0,5.64,1.43,10,10,0,0,0,5.26-1.48,19.21,19.21,0,0,0,4.56-3.88,35.07,35.07,0,0,0,3.82-5.37A64.37,64.37,0,0,0,1034.37,491.83Z"/><path class="cls-43" d="M1101.51,513.72l-37.32,10.95,12.37-12.75-15.69-33.05-6.1,5.63-.31,19.45,15.45,8.5-41.18,2.23L1044,504.05l-3.24-69-18.24-5.84,33.53-3.51-.92,47.29,16.38-19.13-12.21-10H1099l-17.77,11.48-12.82,13.39,17.38,39.42Z"/><path class="cls-43" d="M1130.8,469l-.62,14.56-33.46,1.8.47-19.23Z"/><path class="cls-43" d="M1186.27,514.57,1161.78,516l.54-6a33.15,33.15,0,0,1-4.94.47q-2.48.06-5,.06a18.61,18.61,0,0,1-4.94-.75,15.73,15.73,0,0,1-5-2.39,13.61,13.61,0,0,1-3.86-4.3,12.69,12.69,0,0,1-1.54-6.48,16.18,16.18,0,0,1,1.46-7.23,13.73,13.73,0,0,1,3.75-4.78,15.45,15.45,0,0,1,5.06-2.66,18.73,18.73,0,0,1,5.41-.85,47.09,47.09,0,0,1,6.34.43q3.09.42,6.25.74c.11-.92.18-1.86.24-2.81s.07-1.93.07-2.93a45.4,45.4,0,0,0-.34-5.63,20,20,0,0,0-1.24-4.94,8.42,8.42,0,0,0-2.47-3.45,6.28,6.28,0,0,0-4.06-1.28,8.85,8.85,0,0,0-4.21,1,9.14,9.14,0,0,0-3.36,3.45,6.27,6.27,0,0,1,1.47,2.61,12.81,12.81,0,0,1,.38,3.24v.64q-1.15,7.44-6.8,7.43a4.83,4.83,0,0,1-4.17-2.49,10.61,10.61,0,0,1-1.62-5.9,16.08,16.08,0,0,1,1.93-8.08,19.13,19.13,0,0,1,10.86-8.92,19.75,19.75,0,0,1,6.06-1.06q8.88,0,13.87,5.63t5,18.38q0,1.38,0,2.76c0,.93-.07,1.85-.12,2.77l-1.85,24.44c1.95,1.2,3.86,2.44,5.71,3.72S1184.37,513.37,1186.27,514.57Zm-21.79-25.18c-1.34-.21-2.67-.44-4-.69a21.87,21.87,0,0,0-4-.37,9.11,9.11,0,0,0-2.59.37,6.72,6.72,0,0,0-2.32,1.22,5.93,5.93,0,0,0-1.66,2.29,9,9,0,0,0-.62,3.56,6.87,6.87,0,0,0,.54,2.81,6.32,6.32,0,0,0,1.43,2.07,6,6,0,0,0,1.94,1.28,5.4,5.4,0,0,0,2,.42,26.72,26.72,0,0,0,4.06-.31l4-.64Z"/><path class="cls-43" d="M1219.57,469l-.61,14.56-33.46,1.8.46-19.23Z"/><path class="cls-43" d="M1309,502.25l-31.76-1.91,10.36-6.91c.1-2.2.19-4.37.27-6.54s.11-4.33.11-6.53a34.83,34.83,0,0,0-.31-4.94,11.82,11.82,0,0,0-1.08-3.72,5.66,5.66,0,0,0-2.2-2.39,6.89,6.89,0,0,0-3.59-.85,5.16,5.16,0,0,0-3.32,1.17,10.33,10.33,0,0,0-2.52,3,17.41,17.41,0,0,0-1.62,4.15,25.84,25.84,0,0,0-.73,4.62q-.39,4.47-.7,9t-.62,9l10.28,7-33.53.32,14.45-7.65V480a20.93,20.93,0,0,0-.7-5.37,14.32,14.32,0,0,0-2-4.51,5.55,5.55,0,0,0-2.59-2,9.24,9.24,0,0,0-3-.48,11.79,11.79,0,0,0-4.44,1,6.44,6.44,0,0,0-3.52,3.61l-1.7,20.62,10.2,7.75-31.76.22,13-7.34-2.31-25.6-5.18-2q-2.94-1.11-5.64-2.28l-6.41-2.66,30.67-7-.39,6.48a16.8,16.8,0,0,1,6.22-3.62,22.76,22.76,0,0,1,6.46-.95,10.08,10.08,0,0,1,6,1.86,22.87,22.87,0,0,1,4.94,4.94,52.68,52.68,0,0,1,7.26-4.36,17.52,17.52,0,0,1,7.81-1.91,11.43,11.43,0,0,1,5.91,1.49,11.85,11.85,0,0,1,4.13,4.19,21.69,21.69,0,0,1,2.44,6.38,37.69,37.69,0,0,1,.81,8.13c0,1.35-.07,3-.2,4.83s-.27,3.74-.42,5.58c-.21,2.13-.39,4.32-.54,6.59Z"/><path class="cls-43" d="M1357.65,487.8a26.25,26.25,0,0,1-2.67,12.38,24.37,24.37,0,0,1-6.8,8.18,27.75,27.75,0,0,1-9,4.57,33,33,0,0,1-9.27,1.43,29.33,29.33,0,0,1-9-1.49,25.86,25.86,0,0,1-8.58-4.67,24.55,24.55,0,0,1-6.41-8.24,27,27,0,0,1-2.51-12.16q0-7.76,2.7-12.86a23,23,0,0,1,6.84-8.08,25.35,25.35,0,0,1,9.12-4.14,42,42,0,0,1,9.62-1.17,28.7,28.7,0,0,1,8.84,1.49,25.54,25.54,0,0,1,8.42,4.62,23.76,23.76,0,0,1,6.26,8.13A27.08,27.08,0,0,1,1357.65,487.8Zm-12.75-.22a22.31,22.31,0,0,0-1.05-7,17.9,17.9,0,0,0-2.85-5.52,13.21,13.21,0,0,0-4.21-3.62,10.71,10.71,0,0,0-5.1-1.27,15,15,0,0,0-5.57,1.11,15.55,15.55,0,0,0-8.65,8.61,18.52,18.52,0,0,0-1.39,7.39,27.73,27.73,0,0,0,1,7.54,17.9,17.9,0,0,0,2.79,5.84,12.89,12.89,0,0,0,4.28,3.78,11.48,11.48,0,0,0,5.49,1.32,17.66,17.66,0,0,0,6-1,12.44,12.44,0,0,0,4.86-3.25,15.25,15.25,0,0,0,3.25-5.68A26.08,26.08,0,0,0,1344.9,487.58Z"/><path class="cls-43" d="M1387.63,520l-35.16,1.81,13.21-11.58-2.55-80.34L1345,420.64l32.68-.53-2.32,89.58Z"/><path class="cls-43" d="M1426.72,494.17c0,.5,0,1,0,1.49s0,1,0,1.49l-31.44.85q1,6.27,4.56,9.24a12.12,12.12,0,0,0,8,3,23.19,23.19,0,0,0,4.41-.43,19.84,19.84,0,0,0,4.4-1.38,18.84,18.84,0,0,0,7.57-6.16,24.28,24.28,0,0,1-2.86,7.86,20.61,20.61,0,0,1-4.75,5.63,19.72,19.72,0,0,1-12.32,4.47,16.91,16.91,0,0,1-8.23-2.13,21.81,21.81,0,0,1-6.8-5.84,29.06,29.06,0,0,1-4.6-8.93,36.54,36.54,0,0,1-1.7-11.37,34.47,34.47,0,0,1,1.93-11.79,29.9,29.9,0,0,1,5.1-9.09,22.32,22.32,0,0,1,7.34-5.79,19.77,19.77,0,0,1,8.73-2,15.73,15.73,0,0,1,8.62,2.44,21.69,21.69,0,0,1,6.53,6.7,33.76,33.76,0,0,1,4.13,9.83A47.67,47.67,0,0,1,1426.72,494.17Zm-11.82-5.42a27.64,27.64,0,0,0-.85-5.52,17.4,17.4,0,0,0-1.93-4.68,11,11,0,0,0-3-3.24,7.41,7.41,0,0,0-8.07-.05,9.72,9.72,0,0,0-2.86,3.13,19.49,19.49,0,0,0-1.89,4.57,40.89,40.89,0,0,0-1.12,5.37Z"/></g></g></g></svg>