<?xml version="1.0" encoding="utf-8"?>
<!-- Generator: Adobe Illustrator 25.4.1, SVG Export Plug-In . SVG Version: 6.00 Build 0)  -->
<svg version="1.1" id="Layer_1" xmlns="http://www.w3.org/2000/svg" xmlns:xlink="http://www.w3.org/1999/xlink" x="0px" y="0px"
	 viewBox="0 0 1920 1020" style="enable-background:new 0 0 1920 1020;" xml:space="preserve">
<style type="text/css">
	.st0{clip-path:url(#SVGID_00000110460313661500812240000006627071020745401262_);}
	.st1{fill:#3A2A00;}
	.st2{fill:#99825B;}
	.st3{fill:#B59E64;}
	.st4{fill:#84724C;}
	.st5{fill:#F4E9D3;}
	.st6{fill:#C1B9AA;}
	.st7{opacity:0.35;fill:#C1B9AA;enable-background:new    ;}
	.st8{opacity:0.16;fill:#3A2A00;enable-background:new    ;}
	.st9{fill:#294093;}
	.st10{fill:#FFED00;}
	.st11{fill:#003F38;}
	.st12{fill:#BF6800;}
	.st13{fill:#673A6F;}
	.st14{fill:#1F306D;}
	.st15{fill:#8D58A0;}
	.st16{fill:#FDE8E1;}
	.st17{fill:#C75967;}
	.st18{opacity:0.73;fill:#E1CFC9;enable-background:new    ;}
	.st19{fill:#EC6665;}
	.st20{opacity:0.35;fill:#F29274;enable-background:new    ;}
	.st21{fill:#FFFFFF;}
	.st22{fill:#83D0F5;}
	.st23{fill:#008ACD;}
	.st24{fill:#1D1D1B;}
	.st25{opacity:0.6;fill:#83D0F5;enable-background:new    ;}
	.st26{fill:#E1CFC9;}
	.st27{fill:#EFEEEE;}
	.st28{fill:none;stroke:#3A2A00;stroke-miterlimit:10;}
	.st29{fill:#D3D3D3;}
	.st30{fill:#0959CC;}
	.st31{fill:#E0EADF;}
	.st32{fill:#C9D1C9;}
	.st33{fill:none;stroke:#003F38;stroke-width:3;stroke-linecap:round;stroke-miterlimit:10;}
	.st34{fill:#012822;}
	.st35{opacity:0.33;}
	.st36{fill:#8E0715;}
	.st37{opacity:0.42;fill:#8E0715;enable-background:new    ;}
	.st38{opacity:0.54;}
	.st39{fill:#FFED00;stroke:#F7931E;stroke-width:3;stroke-miterlimit:10;}
	.st40{opacity:0.42;enable-background:new    ;}
	.st41{fill:#F7931E;}
	.st42{fill:#0959CC;stroke:#294093;stroke-width:3;stroke-miterlimit:10;}
	.st43{fill:none;stroke:#E0EADF;stroke-width:2;stroke-miterlimit:10;}
	.st44{fill:none;stroke:#D3D3D3;stroke-width:2;stroke-linecap:round;stroke-miterlimit:10;}
	.st45{fill:#FEFFE9;}
	.st46{fill:none;stroke:#000000;stroke-width:2;stroke-linecap:round;stroke-linejoin:round;}
	.st47{fill:none;stroke:#D3D3D3;stroke-linecap:round;stroke-linejoin:round;}
	.st48{opacity:0.49;fill:#D3D3D3;enable-background:new    ;}
	.st49{fill:none;stroke:#F29274;stroke-width:2;stroke-linecap:round;stroke-linejoin:round;}
</style>
<g id="Game_over">
	<g>
		<defs>
			<rect id="SVGID_1_" x="1" y="0" width="1919" height="1018.2"/>
		</defs>
		<clipPath id="SVGID_00000030456886832361137700000006842438625327401372_">
			<use xlink:href="#SVGID_1_"  style="overflow:visible;"/>
		</clipPath>
		<g style="clip-path:url(#SVGID_00000030456886832361137700000006842438625327401372_);">
			<rect x="-19" y="547.6" class="st1" width="1823.8" height="530.3"/>
			<rect x="1" y="-2.2" class="st2" width="340.8" height="549.7"/>
			<polygon class="st3" points="1989.7,857.7 360.4,628.6 348,120.3 1939.2,-316.2 			"/>
			<polygon class="st4" points="535.2,240.7 395.6,198.3 391.8,698.6 538.9,653.9 			"/>
			<polygon class="st5" points="1344.2,92 341.8,271.1 341.8,-2.2 1344.2,-2.2 			"/>
			<polygon class="st1" points="1956.7,1018.2 336.8,729.6 335.9,799.8 1957.7,1181.7 			"/>
			<polygon class="st1" points="1955.9,895.5 337.4,676.9 336.6,747 1956.9,1058.5 			"/>
			<path class="st5" d="M343,221.2l-6.3,508.4l88.6,15.8c-1.8-12.7-2.7-25.6-2.5-38.5l2.8-251c1.1-97.5,62-186.9,144.1-201.3l0,0
				c92.5-16.3,175.7,66.8,174.8,187.9l-2.4,312.1c-0.1,15.6-1.7,31.1-4.9,46.3l188.1,33.5c-4.1-18.6-6.1-37.6-6-56.6l1.9-345.9
				c0.7-134.1,117-263,281.7-292.2l0,0c195.5-34.7,383.3,80,383.7,263.2l1,473.5c0.2,25.1-3.7,50.1-11.5,74l380.4,67.8L1949-156.7
				L343,221.2z"/>
			<path class="st6" d="M746.4,623.3l38.7,2.7c7.8,0.5,14.1-5.9,14.2-14.3l0.6-89.4c0.1-8.4-6.2-15.2-14-15.2l-38.6,0.1
				c-7.3,0-13.3,6.6-13.3,14.7l-0.7,85.9C733.2,615.8,739.1,622.8,746.4,623.3z"/>
			<path class="st6" d="M748.5,502l38.7-0.2c7.8,0,14.2-6.9,14.2-15.3l0.6-89.2c0-8.4-6.2-14.7-14-14.1l-38.7,3
				c-7.3,0.6-13.3,7.5-13.3,15.6l-0.7,85.7C735.3,495.5,741.2,502.1,748.5,502z"/>
			<path class="st6" d="M745.5,747l38.7,5.6c7.8,1.1,14.2-4.8,14.2-13.3l0.6-89.6c0.1-8.4-6.2-15.7-14-16.3l-38.7-2.8
				c-7.3-0.5-13.3,5.6-13.3,13.7l-0.7,86.1C732.3,738.5,738.1,746,745.5,747z"/>
			<path class="st6" d="M731.8,804c21.4,3.5,43.6,7,66.1,9.2 M797.8,813.2l0.2-35.8c0.1-8.5-6.2-16.3-14-17.4l-38.7-5.8
				c-7.3-1.1-13.3,4.6-13.3,12.8l-0.3,37 M731.8,800.2c20.6,3.7,41.1,6.6,62.7,12.7C772.9,806.7,752.4,803.8,731.8,800.2
				L731.8,800.2z"/>
			<path class="st6" d="M400.3,546.9l23.9,0.7c4.8,0.1,8.7-5.1,8.8-11.7l0.8-69.9c0.1-6.6-3.8-11.7-8.5-11.5l-23.9,1
				c-4.5,0.2-8.3,5.5-8.4,11.9l-0.8,67.7C392.1,541.5,395.7,546.8,400.3,546.9z"/>
			<path class="st6" d="M402.8,442.7l22.8,8.4c4.5,1.7,9.4-2.1,10.9-8.5l15.6-68.4c1.5-6.5-1.1-12.9-5.8-14.3l-23.5-6.8
				c-4.5-1.3-9.2,2.8-10.6,9.1l-14.7,66.5C396.1,434.8,398.5,441.1,402.8,442.7z"/>
			<path class="st6" d="M430.1,328.2l15.6,23.8c3.1,4.7,8.7,4.7,12.5,0l42.2-51.9c4.1-5,4.7-13,1.4-17.7l-17-23.8
				c-3.2-4.6-9.1-4.2-13,0.9l-40.5,51.9C427.7,316.1,427.1,323.6,430.1,328.2z"/>
			<path class="st6" d="M503.7,242.5l4.5,33.9c0.9,6.6,5.9,10.4,11.2,8.3l59.2-23.2c5.8-2.3,9.8-9.8,8.8-16.8l-5.1-35.6
				c-1-6.9-6.5-10.5-12.2-8l-58.5,25.4C506.4,228.7,502.8,235.9,503.7,242.5z"/>
			<path class="st6" d="M612.1,212.7l-12.4,37.2c-2.4,7.2,0.2,14.5,5.8,16.5l62.1,21.3c6.1,2.1,13.3-2.3,15.9-9.8l13.8-39.1
				c2.7-7.7-0.2-15.5-6.5-17.3l-63.9-18.9C621.2,200.8,614.6,205.4,612.1,212.7z"/>
			<path class="st6" d="M727.5,260.3l-31.3,24.9c-6,4.8-8.1,13.7-4.7,20l36.6,68.8c3.5,6.6,11.5,8.4,17.9,3.9l33.4-23.9
				c6.7-4.8,9-14.2,5.2-21l-39.2-70.1C741.8,256.5,733.8,255.3,727.5,260.3z"/>
			<path class="st6" d="M399.1,643.6l23.9,2.5c4.8,0.5,8.7-4.5,8.8-11.1l0.8-70c0.1-6.6-3.8-12.1-8.5-12.2l-23.9-0.8
				c-4.5-0.1-8.3,4.9-8.4,11.3l-0.8,67.9C391,637.6,394.6,643.2,399.1,643.6z"/>
			<path class="st6" d="M431.5,664.2c0.1-6.6-3.8-12.4-8.5-12.9l-23.9-2.5c-4.6-0.5-8.3,4.3-8.4,10.7l-0.9,76c0,3.2,2.2,6,5.4,6.6
				c9.8,1.7,19.6,3,29.5,6.6c3.2,1.2,6.8-0.3,8.2-3.4c0.8-1.6,9.2-6.8,9.7-8c0.4-1,4.9-1.3-7,0.5L431.5,664.2z"/>
			<path class="st6" d="M1070.6,133.1l9.4,47.2c1.9,9.3,11.9,14,22.5,10.6l120.3-39c12.1-3.9,20.2-15.2,18-25.2L1229.7,76
				c-2.2-9.8-13.6-14.2-25.5-9.8l-118.1,43.5C1075.6,113.5,1068.7,124,1070.6,133.1z"/>
			<path class="st6" d="M930.5,258.8l30.2,31.7c6,6.3,16.8,6,24.2-0.8l81.9-75.6c8.1-7.5,9.2-18.7,2.4-25l-33.8-31.7
				c-6.5-6.1-17.9-4.9-25.5,2.6l-77.3,75.6C925.7,242.3,924.8,252.7,930.5,258.8z"/>
			<path class="st6" d="M876.1,417.6l43,10.9c8.6,2.2,17.8-3.2,20.5-12l28.8-95.2c2.8-9.1-2.3-17.8-11.3-19.4l-44.7-8
				c-8.5-1.5-17.3,4.4-19.9,13.1l-26.6,91.5C863.4,407,868,415.5,876.1,417.6z"/>
			<path class="st6" d="M932.6,852.7l0.7-130c-0.1-9.3-7.1-17.1-16.3-18.3l-45-4.8c-8.5-0.9-15.4,5.4-15.4,14.2l-0.7,114.1
				c25,8.2,50.4,17.4,76.6,27.1C932.5,854.2,932.6,853.4,932.6,852.7z"/>
			<path class="st6" d="M873,560l44.9,1.2c8.8,0.3,16.2-6.7,16.5-15.5c0-0.2,0-0.3,0-0.5l0.5-96.3c0.1-8.6-6.7-15.6-15.3-15.7
				c-0.3,0-0.7,0-1,0l-44.9,1.9c-8.7,0.6-15.4,7.7-15.4,16.4l-0.6,92.3C857.6,552.4,864.4,559.6,873,560z"/>
			<path class="st6" d="M872.2,692.2l45,4.6c8.1,1,15.4-4.8,16.4-12.8c0.1-0.7,0.1-1.4,0.1-2l0.5-96.7c0-9.1-7.2-16.6-16.3-17
				l-44.9-1.3c-8.3-0.2-15.2,6.4-15.4,14.7c0,0.2,0,0.4,0,0.6l-0.6,92.6C856.9,683.6,863.7,691.4,872.2,692.2z"/>
			<path class="st6" d="M1593.2,682.2l90.2,6.2c18.3,1.3,33.4-8.2,33.3-21.3l-0.5-138c0-13-15.1-23.5-33.4-23.4l-90,0.2
				c-16.8,0-30.3,10-30.2,22.2l0.2,129.8C1562.9,670.2,1576.4,681,1593.2,682.2z"/>
			<path class="st6" d="M1595.6,496l90.2-0.6c18.3-0.1,33.4-10.7,33.3-23.7l-0.5-137.5c0-12.9-15.1-22.3-33.4-20.9l-89.9,6.9
				c-16.8,1.3-30.3,12.2-30.2,24.4l0.2,129.4C1565.2,486.2,1578.7,496.1,1595.6,496z"/>
			<path class="st6" d="M1593.7,870.2l90.3,13.1c18.4,2.7,33.5-5.8,33.4-18.8l-0.4-138.6c0-13-15.2-24.7-33.5-26l-90.2-6.6
				c-16.8-1.2-30.3,7.7-30.3,20l0.2,130.4C1563.2,855.9,1576.8,867.8,1593.7,870.2z"/>
			<path class="st6" d="M1563.4,955c49.4,8.3,101.2,16.9,154.5,23.7 M1717.9,978.7l-0.2-55.4c0-13.1-15.2-26-33.6-28.7l-90.4-13.5
				c-16.9-2.5-30.4,5.4-30.4,17.8l0.1,56 M1563.5,949.1c47.5,8.5,95.2,15.9,146.5,28.4C1658.7,965,1611,957.6,1563.5,949.1
				L1563.5,949.1z"/>
			<path class="st6" d="M1289.5,76.9l-25.4,55.3c-4.9,10.6,0.6,21,12.4,23.1l133.4,24.5c13.4,2.5,29.1-4.8,34.8-16.2l29.8-59.7
				c5.9-11.8-0.8-23-14.8-24.9l-139-19C1308.5,58.5,1294.5,66,1289.5,76.9z"/>
			<path class="st6" d="M1542.7,132.5l-69.8,40.8c-13.2,7.7-17.6,21.1-10.1,30.2l83.4,99.9c8.2,9.8,26.4,11.9,40.9,4.6l76.9-38.7
				c15.6-7.8,20.9-22.5,11.8-32.5l-92.5-102.5C1575,125,1556.8,124.3,1542.7,132.5z"/>
			<path class="st7" d="M773.6,132.6l-0.3,42c-0.1,8.2,6,13.7,13.7,12.2l85.7-16.6c8.5-1.6,15.5-10.1,15.6-18.9l0.3-44.9
				c0-8.8-6.9-14.2-15.4-12.2l-85.7,20.3C779.9,116.3,773.7,124.4,773.6,132.6z"/>
			<path class="st7" d="M1632.2,62.9l0.2,63.8c0,12.4,14.2,20.5,32,18l204.6-29.4c21-3,38.2-16.7,38.1-30.5l-0.4-70.7
				c-0.1-13.8-17.4-21.7-38.3-17.8L1664,34.5C1646.3,37.8,1632.1,50.5,1632.2,62.9z"/>
			<path class="st7" d="M393.5,219.1l-0.4,32.4c-0.1,6.3,3.5,10.8,8.1,9.9l50.2-9.7c4.9-1,9-7.1,9.1-13.8l0.4-34.2
				c0.1-6.6-3.9-11.1-8.8-9.9l-50.2,11.9C397.3,206.8,393.6,212.8,393.5,219.1z"/>
			<path class="st7" d="M342.2,292.3l-0.4,31.2c-0.1,6.1,3.2,10.5,7.4,10l46.2-6.6c4.5-0.6,8.3-6.4,8.4-12.8l0.4-32.8
				c0.1-6.4-3.6-10.9-8.1-10l-46.2,8.6C345.7,280.6,342.2,286.2,342.2,292.3z"/>
			<path class="st7" d="M1841.7,506.5l0.4,69.8c0.1,13.6,16.9,25.2,37.8,25.9l68.8,2.3c22.3,0.7,40.6-10.3,40.5-24.7l-0.5-73.5
				c-0.1-14.3-18.5-25.7-40.8-25.5l-68.7,0.7C1858.2,481.7,1841.6,492.9,1841.7,506.5z"/>
			<path class="st7" d="M827.7,338.2l-0.3,43.6c-0.1,8.5,6.5,15,14.7,14.5l91.9-6.1c9.3-0.7,16.5-8.3,16.8-17.6l0.2-46.8
				c0-9.1-7.4-15.7-16.6-14.7l-91.9,10.1C834.4,322.1,827.8,329.7,827.7,338.2z"/>
			<path class="st7" d="M771.4,435.4l-0.3,42.3c-0.1,8.2,6.1,14.9,13.7,14.8l85.9-1c8.7-0.3,15.7-7.4,15.6-16.2l0.3-45.3
				c0-8.8-6.9-15.6-15.4-15.1l-85.9,4.7C777.7,420.2,771.5,427.2,771.4,435.4z"/>
			<path class="st8" d="M503.9,483.3l0.1,14.6c0,6.7-2.9,12.6-6.8,13.3l-26.9,4.6c-6.5,1.1-12.4-5.7-12.5-15.4l-0.2-21.1
				c-0.1-9.7,5.6-16.4,12.2-15l27,5.5C500.8,470.6,503.8,476.6,503.9,483.3z"/>
			<path class="st8" d="M590,380.1l-0.2,16c-0.1,7.3,4.8,13,10.8,12.5l33.2-2.3c6.4-0.4,11.7-7,11.7-14.6l0.1-16.6
				c0.1-7.6-5.1-13.3-11.5-12.6l-33.2,3.2C595,366.4,590.1,372.8,590,380.1z"/>
			<path class="st8" d="M617,424.8l-0.2,16.3c-0.1,7.5,4.9,13.4,11.2,13.1l34.5-1.3c6.6-0.2,12.1-6.8,12.2-14.5l0.2-16.9
				c0.1-7.8-5.3-13.7-11.9-13.2l-34.5,2.3C622.2,410.9,617,417.3,617,424.8z"/>
			<path class="st8" d="M1012.1,708l-0.1,20.7c0,9.5,8,18.2,18.1,19.5l55.8,6.9c10.8,1.3,19.7-5.7,19.7-15.7l0.1-21.7
				c0-10-8.8-18.9-19.6-19.9l-55.8-5.3C1020.3,691.5,1012.2,698.5,1012.1,708z"/>
			<path class="st8" d="M1113.1,718.4l-0.1,21.8c0,10,8.9,19.3,20.2,20.7l62,7.7c12,1.5,21.9-5.8,22-16.4v-23
				c0-10.5-9.8-20-21.9-21.2l-62-5.8C1122.2,701.1,1113.1,708.4,1113.1,718.4z"/>
			<path class="st8" d="M1020.7,273.8l-0.1,20.6c0,9.5,8.1,16.3,18.2,15.2l56-5.9c10.8-1.1,19.8-10.1,19.8-20l0.1-21.6
				c0-9.9-8.8-16.8-19.7-15.3l-56,7.4C1028.9,255.6,1020.7,264.4,1020.7,273.8z"/>
			<path class="st8" d="M1284.5,475.2v23.5c0,10.8,10.6,19.6,23.7,19.7l73.2,0.2c14.3,0,26-9.2,26-20.6v-24.9
				c0-11.4-11.7-20.4-25.9-20l-73.2,1.8C1295.1,455.4,1284.5,464.4,1284.5,475.2z"/>
			<path class="st8" d="M557.3,428.2l-0.2,15.6c-0.1,7.2,4.5,12.8,10.3,12.6l31.8-1.2c6.1-0.2,11.2-6.5,11.2-13.9l0.1-16.2
				c0.1-7.4-4.9-13.1-11-12.7l-31.8,2.1C562.1,414.9,557.3,421,557.3,428.2z"/>
			<path class="st8" d="M1228,406.4v22.9c0,10.5,10,18.8,22.5,18.4l69.3-2.1c13.5-0.4,24.5-9.7,24.5-20.8v-24.2
				c0-11.1-11-19.4-24.5-18.6l-69.2,4C1238,386.8,1228,395.9,1228,406.4z"/>
			<path class="st8" d="M1353.4,400.2v24.2c0,11.1,11.2,19.9,25.3,19.4l78-2.3c15.2-0.5,27.7-10.4,27.7-22.2v-25.7
				c0-11.8-12.5-20.6-27.7-19.7l-77.9,4.6C1364.7,379.3,1353.4,389,1353.4,400.2z"/>
			<path class="st6" d="M592.8,252.6c-21.1,11.5-66.5,54.3-83,82.5c-14,24-27.2,65.2-38.5,102.4l-4.3,293.1L422,742.9l2.7-368
				l38.3-49.8c2.5-7.8,5-13.9,7.6-17.6C489.5,280.8,604.3,246.3,592.8,252.6z"/>
			<path class="st6" d="M1239.6,134.2c-40.1,16.9-126.7,79.2-158,120.4c-26.7,35-51.8,95.2-73.4,149.5l-8.2,427.9L932.4,855
				c-5.8,0.5-11.6-20.5-11.6-26.3l-1.2-515.9l73-72.7c4.7-11.4,9.6-20.4,14.5-25.7C1043,175.4,1261.7,125,1239.6,134.2z"/>
			<rect x="31.9" y="-46" class="st9" width="274.1" height="398.9"/>
			<path class="st10" d="M231.9-45.5c8.6,15.7,13,33.3,13,51.1c0,58.9-47.8,106.7-106.7,106.7c-24.4,0-48-8.3-67-23.7
				c28.3,51.7,93.1,70.7,144.8,42.5S286.7,38,258.4-13.7C251.7-25.9,242.7-36.7,231.9-45.5z"/>
			<rect x="34.3" y="-2.2" class="st6" width="12.6" height="354.9"/>
			<rect x="34.3" y="180.7" class="st6" width="274.1" height="12.6"/>
			<rect x="34.3" y="21.2" class="st6" width="274.1" height="12.6"/>
			<rect x="34.3" y="341.1" class="st6" width="274.1" height="12.6"/>
			<rect x="295.9" y="-2.2" class="st6" width="12.6" height="354.9"/>
			<rect x="165.1" y="-2.2" class="st6" width="12.6" height="354.9"/>
			<rect x="1" y="136.3" class="st1" width="342.1" height="34.2"/>
			
				<rect x="154.9" y="-119.2" transform="matrix(0.615 -0.7885 0.7885 0.615 25.3234 155.6103)" class="st1" width="34.2" height="342.1"/>
			<polygon class="st1" points="710,51.9 397,93.8 397,-46 710,-4.1 			"/>
			<polygon class="st11" points="683.8,33.6 423.3,67.7 423.3,-46 683.8,-11.9 			"/>
			<polygon class="st3" points="976.5,83.2 786.4,93.8 786.4,-46 976.5,-35.4 			"/>
			<polygon class="st12" points="958.2,58.6 804.6,67.2 804.6,-45.5 958.2,-36.9 			"/>
			<polygon class="st1" points="1973,202.2 1783,219.6 1783,-36.1 1973,-18.7 			"/>
			<polygon class="st13" points="2037.9,134.3 1847.8,151.7 1847.8,-104 2037.9,-86.6 			"/>
			<polygon class="st9" points="1562.6,987.1 1515.5,973.4 1515.5,622.1 1562.6,608.4 			"/>
			<polygon class="st14" points="1581.7,962.2 1558,990.1 1558,573.8 1581,553.3 			"/>
			<polygon class="st14" points="1358.4,1061.9 1334.7,1089.8 1334.7,673.6 1357.7,653.1 			"/>
			<polygon class="st14" points="1358.4,1087.6 1334.7,1115.6 1334.7,699.3 1357.7,678.8 			"/>
			<polygon class="st9" points="1909.7,1051.4 1862.6,1037.7 1862.6,686.5 1909.7,672.8 			"/>
			<polygon class="st9" points="1671.3,810.5 1286.8,728.9 1296.3,650.3 1685.7,691 			"/>
			<polygon class="st9" points="1905.2,351 1444.1,385 1438.8,604.2 1914,619.6 			"/>
			<g>
				<path class="st13" d="M1848.4,416.9c-0.3,0.2-5.5,2.7-5.8,2.8c-8.1,2.6-3.9,9.5-2,13.6c2.8,5.9,1.7,12.8-1.2,13.7
					c-3.4,1.1-8.7,2.8-12.3,3.7c-8.5,1.9-17.4,1-25.3-2.8c-6.6-3-12.2-7.7-16.3-13.7c-2.3-3.4-9-6.9-9.9-10.6
					c-1.4-6,3.7-8.6,6.3-14.3s7.4-8.1,10.9-13.5c2-3.1,8.9-6,12.7-6.5c7-1,14.5,3.5,21.8,6.9c1.9,0.9,9.1,0.2,9.3,0.1l2.7-3.3
					c0.4-0.6,0.7-1.3,0.9-2l2.1-8.4c0.2-0.4,2.9-3.2,3.2-3l5.3,0.8c0.2,0.1,0.4,0.1,0.6,0l5.2-0.1l4.8-0.5l5.3-1.8
					c1.5-0.8,3-1.7,4.3-2.8c2.4-2,4.4-4.8,4.5-4.6l2.2-2.3l2-0.3c0.1,1,0.2,2,0.2,3c0.1,1.2,0,2.5-0.2,3.7l-1.6,3l-4.4,3.9l-5.7,3.7
					l-3.7,1.3l-2.8,0.4l-2.7,0.4c-0.1,0.1-3.8,2.3-3.8,2.5l-2.2,2l-2.1,3.9c-0.2,0.4-1.8,4.8-1.5,5.4l2.1,13.6
					c0.2,0.3-2.2,2-2.5,2.2L1848.4,416.9z"/>
				<path class="st15" d="M1850.5,478.2c-2.4,5.3-8.7,9.9-16.6,11.1c-12.4,1.9-22-3.8-39.8-12c-1.4-0.7-7-5.9-8.4-6.6
					c-11.7-5.9-23.5-9.6-30.2-17c-3.8-4.2-6.4-6-8-10.1c-1.9-4.2-1.8-9.1,0.3-13.1c1.9-3.9,2.9-4.1,7.7-6.1c5-2.1,10.8-3.2,18.7-4.4
					c6-0.9,12.1-0.5,17.8,1.3c5.3,1.6,13,2.1,18.4,4.6s11,6.3,15.6,9.3c5.6,3.6,9.5,8.4,13,13c5.8,7.5,8.1,11.2,9.8,16.6
					C1850.6,470,1852.3,474.3,1850.5,478.2z"/>
				<path class="st16" d="M1814.4,476.8c-2.3,5.4-6.7,9.7-12.2,11.9c-6.2,2.7-18.5,6-25,3c-5.4-2.5-9.7-12.9-12-17.9
					c-3-6.4-4.1-11.5-0.8-18.5c1.4-3.1,1.5-6.3,3.9-8.5c7.1-6.6,21.6-3.8,30.8,0.5c7.5,3.5,18.5,9.4,19.8,17.1
					C1819.8,469.3,1816.7,472,1814.4,476.8z"/>
				<path class="st17" d="M1783.8,476.9l-0.2-0.1c-0.9-0.4-1.6-1.2-1.9-2.2c0-0.3,0.1-0.7,0.4-0.9c0.7-0.7,1.2-1.5,1.6-2.4
					c1.3-2.2,1.3-6,1.3-6c0-0.3,0.2-0.5,0.6-0.5l0,0c0.3,0,0.6,0.2,0.6,0.5v0c0,0.2,0,4.1-1.5,6.6c-0.5,1-1.1,1.8-1.8,2.6
					c0.2,0.6,0.7,1,1.3,1.3c0.9,0.4,1.8,0.5,2.8,0.5c0.3,0,0.6,0.2,0.6,0.5c0,0,0,0,0,0c0,0.3-0.2,0.6-0.5,0.6
					C1785.9,477.5,1784.8,477.3,1783.8,476.9z"/>
				<path class="st18" d="M1804.5,483.6c-1,0.6-1.8,0.8-2.7,1.2c-1.7,0.9-4.9,0.1-3.8,0.4c0.6,0.1,2.9,1.9,5.2,1.3
					c0.7-0.2,1.3-1,2-1.3c0.9-0.3,1.7-0.5,2.4-0.7c2.5-0.8,2.6-2,3.1-2.2c1.4-0.5,0.3-0.5-1.5-0.1
					C1807.7,482.5,1806.1,483,1804.5,483.6z"/>
				<path class="st18" d="M1766.1,467.4c0.2,1.1,0.6,1.9,0.8,2.8c0.4,1.8,3.1,3.8,2.2,3.1c-0.5-0.4-3.4-1-4.4-3.1
					c-0.3-0.6-0.1-1.6-0.3-2.4c-0.3-0.9-0.7-1.5-1-2.3c-1-2.5-0.2-3.3-0.4-3.8c-0.5-1.5,0.2-0.6,1,1.1
					C1764.8,464.2,1765.5,465.8,1766.1,467.4z"/>
				<path class="st19" d="M1781.6,484c-1.6-0.7-2.8-2.1-3.4-3.7c-0.1-0.3,0.1-0.6,0.4-0.7c0.3-0.1,0.6,0.1,0.7,0.4
					c0,0.2,1.3,4.9,9,3.4c0.3,0,0.6,0.2,0.6,0.5c0,0.2-0.1,0.5-0.4,0.6C1786.2,485.1,1783.8,484.9,1781.6,484z"/>
				
					<ellipse transform="matrix(0.4191 -0.9079 0.9079 0.4191 617.6203 1908.2522)" class="st20" cx="1800.2" cy="471.4" rx="3.7" ry="4.4"/>
				
					<ellipse transform="matrix(0.4191 -0.9079 0.9079 0.4191 617.0204 1908.179)" class="st21" cx="1799.8" cy="471.9" rx="2.9" ry="3.4"/>
				
					<ellipse transform="matrix(0.4191 -0.9079 0.9079 0.4191 616.881 1908.343)" class="st22" cx="1799.9" cy="472.1" rx="1.9" ry="2.2"/>
				<path class="st23" d="M1799.1,473.6c-0.1-0.1-0.3-0.1-0.4-0.2l0.5-0.7c0.1,0.1,0.2,0.1,0.4,0.2l-0.3,0.8L1799.1,473.6z
					 M1800,473.8V473c0.1,0,0.3,0,0.4-0.1l0.3,0.8C1800.4,473.8,1800.2,473.8,1800,473.8L1800,473.8z M1798.2,472.9
					c-0.1-0.2-0.2-0.4-0.3-0.6l0.8-0.2c0,0.1,0.1,0.2,0.2,0.4L1798.2,472.9z M1801.2,473.4l-0.5-0.6c0.1-0.1,0.2-0.2,0.2-0.3
					l0.8,0.3C1801.6,473,1801.4,473.2,1801.2,473.4L1801.2,473.4z M1797.9,471.5c0-0.1,0.1-0.3,0.1-0.4c0-0.1,0.1-0.2,0.1-0.3
					l0.7,0.5c-0.1,0.1-0.1,0.2-0.1,0.3L1797.9,471.5z M1800.9,472.4c0-0.1,0-0.2,0-0.4l0.8-0.1c0,0.2,0,0.5-0.1,0.7L1800.9,472.4z
					 M1799.1,471.1l-0.4-0.7c0.2-0.1,0.4-0.2,0.7-0.2l0.1,0.8C1799.3,471,1799.2,471,1799.1,471.1L1799.1,471.1z M1800.8,471.7
					c-0.1-0.1-0.1-0.2-0.2-0.3l0.6-0.6c0.2,0.2,0.3,0.3,0.4,0.5L1800.8,471.7z M1799.8,471l0.1-0.8c0.2,0,0.4,0.1,0.6,0.2h0.1
					l-0.4,0.7l0,0C1800.1,471,1800,471,1799.8,471L1799.8,471z"/>
				<circle class="st24" cx="1799.9" cy="472.2" r="1"/>
				
					<ellipse transform="matrix(0.4191 -0.9079 0.9079 0.4191 613.7055 1881.9076)" class="st20" cx="1777.6" cy="461.3" rx="3.7" ry="4.4"/>
				
					<ellipse transform="matrix(0.4191 -0.9079 0.9079 0.4191 613.118 1881.9861)" class="st21" cx="1777.4" cy="461.8" rx="2.9" ry="3.3"/>
				
					<ellipse transform="matrix(0.4191 -0.9079 0.9079 0.4191 612.9677 1882.0092)" class="st22" cx="1777.3" cy="462" rx="1.9" ry="2.2"/>
				<path class="st23" d="M1776.5,463.5c-0.1-0.1-0.3-0.1-0.4-0.2l0.5-0.7c0.1,0.1,0.2,0.2,0.4,0.2l-0.3,0.8L1776.5,463.5z
					 M1777.4,463.7v-0.8c0.1,0,0.3,0,0.4,0l0.2,0.8C1777.8,463.6,1777.6,463.7,1777.4,463.7z M1775.7,462.7
					c-0.1-0.2-0.2-0.4-0.3-0.6l0.8-0.2c0,0.1,0.1,0.3,0.2,0.4L1775.7,462.7z M1778.7,463.2l-0.5-0.6c0.1-0.1,0.2-0.2,0.2-0.3
					l0.8,0.4C1779,462.9,1778.9,463.1,1778.7,463.2L1778.7,463.2z M1775.3,461.4c0-0.1,0.1-0.3,0.1-0.4c0-0.1,0.1-0.2,0.1-0.2
					l0.7,0.5c0,0-0.1,0.1-0.1,0.1c0,0.1-0.1,0.1-0.1,0.2L1775.3,461.4z M1778.4,462.3c0-0.1,0-0.2,0-0.4l0.8-0.1
					c0,0.2,0,0.5-0.1,0.7L1778.4,462.3z M1776.6,461l-0.4-0.7c0.2-0.1,0.4-0.2,0.7-0.2l0.1,0.8
					C1776.8,460.9,1776.7,460.9,1776.6,461L1776.6,461z M1778.3,461.5c-0.1-0.1-0.1-0.2-0.2-0.3l0.6-0.6c0.2,0.2,0.3,0.3,0.4,0.5
					L1778.3,461.5z M1777.3,460.8l0.1-0.8c0.2,0,0.4,0.1,0.6,0.2h0.1l-0.4,0.7l0,0C1777.6,460.9,1777.5,460.8,1777.3,460.8
					L1777.3,460.8z"/>
				<circle class="st24" cx="1777.4" cy="462.1" r="1"/>
				
					<ellipse transform="matrix(0.4191 -0.9079 0.9079 0.4191 609.8513 1882.1448)" class="st25" cx="1775.9" cy="464.5" rx="1.5" ry="4.7"/>
				
					<ellipse transform="matrix(0.4191 -0.908 0.908 0.4191 617.7226 1908.4457)" class="st25" cx="1800.2" cy="471.5" rx="1.5" ry="4.7"/>
				<path class="st9" d="M1796.7,477.1c-0.1,0-0.2-0.1-0.3-0.1c-1.7-1.1-1.8-1.2-4.5-4.6c-2.5-3.1-9.3-4.7-10.1-4.9
					c-1,0.1-8.9,0.4-9.9-4.2c-0.9-4-7.7-5-7.8-5l0.2-1.1c0.3,0,7.6,1.2,8.7,5.9c0.4,2,2.8,2.8,4.7,3.1c1.4,0.2,2.8,0.3,4.2,0.2h0.1
					h0.1c0.3,0.1,7.9,1.7,10.8,5.3c2.7,3.4,2.7,3.4,4.3,4.4c1.1,0.7,5.4,0.6,7.9,0.4l0,0c2.9,0,5.6,1.3,7.4,3.4
					c0.4,0.6,0.9,1.1,1.5,1.6l0,0l1.1-0.1c0.1,0.5-0.1,1-0.6,1.2c-0.7,0.3-1.5-0.3-2.9-2c-1.6-1.9-4-3-6.5-3
					C1804.3,477.6,1798.7,478,1796.7,477.1z"/>
				<path class="st26" d="M1765.4,455c0.6,0.1,10.2-3.9,14.7-1.1c7.3,4.6,18.5,4.3,22.2-0.9c1.8-2.5,2.2,8.3,3,9.9
					c2,4,6.1,13.5,9.3,13.4c1.8-0.1,3.8-11,5.4-10.7c2.7,0.6-6.3-9.4-14.2-15c-5.2-3.7-11.8-4.4-15.1-5.7
					c-9.1-3.5-15.8-2.8-20.1,0.1c-3.4,2.4-5.4,6.1-5.3,8.1C1765.4,454.4,1764.4,454.7,1765.4,455z"/>
				<path class="st27" d="M1776.2,451c2.6-0.7,10.3,5.2,13.5,4.7c7.1-1,10.7-4.8,15-5.8c2.7-0.6-9.8-5.7-19.3-7.4
					c-6.3-1.1-13.1-0.6-16,1.4C1764.1,447.5,1765.8,453.8,1776.2,451z"/>
				<path class="st27" d="M1819.5,461.3c0.9,2.5,1.5,3.5,1.4,5.5c-0.1,2.5-4,9.3-5.5,9.9c-1.2,0.4,0.3-1.1-1-2.3
					c-1.7-1.5-2.2-4.1-3.7-7.1c-1.2-2.4-2.9-4.9-3.2-7.5c-0.2-1.4-3.7-9.4-2.8-9.7C1807.4,449,1817.4,455.8,1819.5,461.3z"/>
			</g>
			<g>
				<path class="st16" d="M1877,529.3c-1.2,2.5-2.7,17.7-6.1,24.7s-17.3,4.3-15.5,1.8c6.7-9.2,10.8-8.8,1.7-13
					c-5.2-2.4-9.1-2.4-14.9-5.1s-16.8,2.7-21-1.2c-5.2-4.8-32-11.1-33.8-16.5s5.4-7.2,7.7-12c1.2-2.6-1.5-9.6,2.6-14
					c8.3-8.9,25.7-21.4,32.2-22c3.8-0.3,7.2,4,10.2,6.8c3.6,3.4,7.7,6.1,12.2,8.2c7.6,3.5,28.3,1.8,28.4,8.9
					C1880.8,510.8,1880.9,520.9,1877,529.3z"/>
				<path class="st26" d="M1888.2,536.4c-8,17.4-30.9,33.9-37.8,30.7c-3.2-1.5,11.9-13.1,12-19.2c0.1-4.4-4.9-7.3-3.2-12.9
					c1-3.3,7.1-3.3,8.7-6.7c3.6-7.8,3.3-17.9,7.7-22.5c2.3-2.4-6.2-16.2-4-17.4c3-1.7,16.5,9.7,18.7,10.7
					C1897.1,502.3,1896.2,519,1888.2,536.4z"/>
				<path class="st17" d="M1836.4,527.7c-0.1-0.1-0.2-0.2-0.2-0.4c0-0.5,0.3-0.5,1.3-0.6c0.8-0.1,0.9-0.4,1-0.5
					c0.4-0.8-0.6-2.7-1.4-3.8l-3.2,1.4h-0.1c-0.4,0-9.4-1-12.3-4.9c-0.8-1.1-1.1-2.4-0.9-3.7c0.1-0.8,0.4-1.6,0.7-2.3
					c1.1-2.7,3.9-4.3,6.8-3.9c0.3,0,0.5,0.3,0.4,0.6c0,0.3-0.3,0.5-0.6,0.4l0,0c-2.4-0.3-4.8,1-5.8,3.3c-0.3,0.7-0.5,1.4-0.6,2.1
					c-0.2,1.1,0,2.2,0.7,3c2.6,3.4,10.5,4.4,11.5,4.5l3.7-1.6l0.2,0.3c0.2,0.3,2.5,3.4,1.7,5.1l-0.1,0.1l2.6-0.1
					c0.6-0.5,0.9-1.1,1-1.9c-0.1-0.6-0.4-1.1-0.9-1.4c-0.2-0.2-0.2-0.5-0.1-0.7c0.2-0.2,0.4-0.2,0.6-0.1c0.8,0.5,1.2,1.3,1.3,2.2
					c-0.1,1.1-0.6,2.1-1.5,2.7l-0.1,0.1h-0.2l-2.7,0.1l-1.9,0.1C1837.1,527.9,1836.8,527.9,1836.4,527.7z"/>
				<path class="st17" d="M1815.9,516.9c-0.1,0-0.2-0.1-0.2-0.2c0-0.1-1-2,0-3.3s2.9-1.4,6.1-0.7c0.3,0.1,0.4,0.3,0.4,0.6
					c-0.1,0.3-0.3,0.4-0.6,0.4c-2.7-0.6-4.5-0.4-5.1,0.4s0.1,2.3,0.1,2.3c0.1,0.2,0,0.5-0.2,0.7C1816.2,517,1816,517,1815.9,516.9z"
					/>
				<path class="st17" d="M1838.3,512.5c0,0-0.1-0.1-0.1-0.1c-1.4-1.5-3.4-2.4-5.4-2.5c-0.3,0-0.5-0.2-0.5-0.5
					c0-0.3,0.2-0.5,0.5-0.5c0,0,0,0,0,0c0.1,0,3-0.1,6.1,2.8c0.2,0.2,0.2,0.5,0,0.7C1838.7,512.6,1838.5,512.6,1838.3,512.5z"/>
				
					<ellipse transform="matrix(0.4191 -0.9079 0.9079 0.4191 596.6082 1936.8937)" class="st20" cx="1812" cy="502.2" rx="4.8" ry="5.6"/>
				
					<ellipse transform="matrix(0.4191 -0.9079 0.9079 0.4191 595.5834 1937.0276)" class="st21" cx="1811.6" cy="503" rx="3.5" ry="4"/>
				
					<ellipse transform="matrix(0.4191 -0.9079 0.9079 0.4191 595.4031 1937.0504)" class="st1" cx="1811.6" cy="503.2" rx="2.1" ry="2.4"/>
				
					<ellipse transform="matrix(0.4191 -0.9079 0.9079 0.4191 595.4367 1937.229)" class="st24" cx="1811.7" cy="503.3" rx="1.1" ry="1.3"/>
				
					<ellipse transform="matrix(0.4191 -0.9079 0.9079 0.4191 606.0767 1989.275)" class="st20" cx="1857.7" cy="521" rx="5.3" ry="6.2"/>
				
					<ellipse transform="matrix(0.4191 -0.9079 0.9079 0.4191 604.7379 1988.407)" class="st21" cx="1856.4" cy="521.6" rx="3.5" ry="4"/>
				
					<ellipse transform="matrix(0.4191 -0.9079 0.9079 0.4191 604.5594 1988.4404)" class="st1" cx="1856.3" cy="521.7" rx="2.1" ry="2.4"/>
				
					<ellipse transform="matrix(0.4191 -0.9079 0.9079 0.4191 604.5513 1988.2635)" class="st24" cx="1856.2" cy="521.7" rx="1.1" ry="1.3"/>
				<path class="st19" d="M1826.3,530.8c-2-1-3.7-2.4-5-4.2c-0.2-0.3-0.1-0.7,0.2-0.9c0.3-0.2,0.7-0.1,0.9,0.2
					c0.2,0.2,3.7,5.7,10.2,4.4c0.3-0.1,0.7,0.2,0.8,0.5c0.1,0.3-0.2,0.7-0.5,0.8C1830.6,532,1828.3,531.7,1826.3,530.8z"/>
				<path class="st26" d="M1838.5,526.2c-0.4,0.9-0.6-0.8-1.8-1.4c-0.4-0.2-0.6-0.1-0.9-0.4c-0.5-0.6-1.7-0.1-1.4-0.7s0.2-0.6,1-0.6
					c0.4,0,1.3-0.8,1.7-0.6s1,1.7,1.2,2.1C1838.7,525.1,1838.7,525.7,1838.5,526.2z"/>
				<path class="st20" d="M1824.2,513.8c-0.5,1.2-0.1,3.2,1.2,5.1c0.6,1,6.5,3.7,5.8,3.4c-1.7-0.3-3.4-0.7-5.1-1.3
					c-1.6-0.7-3-1.7-4.2-3c-0.7-1.3-0.8-2.9-0.1-4.3c1.2-2.5,4.9-4.8,6.2-4.2S1825.3,511.3,1824.2,513.8z"/>
				<path class="st1" d="M1885.7,577.3c-0.2,1.4-6.7,1.5-9.9,3.9c-2.5,1.8-6.7-0.2-8.6,0.3c-5.6,1.3-9.3,1.3-12.8,4.7
					c-4.7,4.6-6.5,12.5-8.8,16c-1.7,2.6-3.3,1.5-6.7,1.5c-3.9,0-9.2,4-11.1,4.1c-1.6,0-10.5-0.2-16.4-5.8c-2-1.8,21.4-7.8,25.2-18
					c2.3-6.2,14.8-4.6,14.9-17.8c0-3.9,2.8-7.3,4.8-9.8c3.7-4.3,11.5-1.5,12.2-5c0.8-4.3,2.5-8,3.1-11.3c0.2-5.8,2.7-6.8,3.4-13.6
					c1.7-14.4,3.9-22.9,5.3-31.4c-6.5-1.7-16.4-5.8-25-5.5c-1.9,0.1-10.1-4.3-11.8-5.1c-10.5-5.3-8-7.1-12.1-11.2
					c-1,2.1-1.6,2.1-5.5,3.9c-3.5,1.6-15.3,8.5-23.7,12.7c2.5,2-7.3,11.3-2.7,16.6c3.6,4.2-7.8,4.5-7.1,10.8c0.4,3.6-0.9,5-3.1,7.4
					c-2.8,3.1-10.7,9.3-12.8,13.2c-3.3,6.1-3.2,11-4.4,13l0,0c0,4.9,0.2,9.7,0.8,14.6c0.5,3.4,2.5,6.1,3.4,8.6
					c2.8,7.5,4.4,23.2-1.3,3.6c-0.3-1.1-9.9-6.6-10.4-7.6c-0.9-1.7-1.8-5.8-0.8-7.8c0.7-1.6,3.6-4.8,5-5.5c0.9-0.4,0.4-3.2,0.2-5.3
					c-1.3-1.3-3-7.2-5-9.6c-2.7-3.3,0-7.7,1.9-14c1.4-4.9,2.4-3.9,6.2-8.8c1.1-1.4-0.8-6.2,1.8-7.6c2.4-1.4,4.8-0.1,5.8-1.9
					c1.6-2.9,3.6-7.5,4.8-8.8c2.7-2.8,10.2-2.3,9.7-5.8c-0.5-3.2-1.8-3.6,0.2-4.2c2.9-1.4,11.4-4.6,14.7-7.3
					c2.2-1.8,4.5-6.8,6.2-9.5c1.8-3,2.9-3.6,4-4.1c1.3-0.7,2.6-1.3,4-1.7c1.8-0.5,3.2-2.2,4.5-2.1c-0.2-0.6,1-1.7,1.5-1.8
					c2.9-0.6,3.8,0.9,8.8,0.9c3,0,9.3-2.6,13-0.7c5.7,2.9,12.6,2.6,22.2,3.9c0.8,0.1,4.8,5.2,5.6,5.4c3.8,1.2,8.6,0.9,10.7,3.5
					c1.8,2.2,6.3,5.1,5.9,8.7c-1,9.1,9.5,10,8.6,12.1c-0.3,0.6,2.5,0.8-0.5,6.5c1.1,3.1-0.7,2.9-0.5,7.9c0.3,7.2-2.9,6.2-4.7,15.5
					c-0.5,2.5,1.3,5.7,0,8.5c-3.5,7.4-5.5,15.5-6,23.7C1892.1,569,1886.1,575,1885.7,577.3z"/>
				<path class="st1" d="M1856.6,566.5c1-6.5,8.2-20.5,5.3-21.7c-5.4-2.3-11.9-5.5-20.3-6.5c-0.6-0.1-1.1-0.6-1-1.5
					c0-1.2-1.5-3.6-1.6-5c-0.3-1.6-0.7-3.1-1.4-4.5c-1.9-1.3-3.2-2.1-3.6-2.1c-1.5-0.5-3-1.1-4.5-1.7c-1.4-0.6-2.1-1.1-3.8-1.8
					c-1.8-0.7-3.5-1.7-5-3c-0.9-1-3.4-1-6.5,1.9c-1.2,1.1-3.6,2.3-4.3,3.3c-2.8,0.8-4.8-2.1-8.5-2.2c-2.3-0.1-5.1-2-6.8-1.4
					c-4.9,1.9-9.4,8.4-13.1,12.3c-2.6,2.7-4.9,5.7-6.9,8.8c-3.3,5.2-3.3,13.4-1.4,22.2c1.5,6.4,3.7,12.7,6.5,18.6
					c3.1,6.7,6.8,12.4,10.2,16c3.8,3.9-2.5,4.5,2.8,6.9c3.7,1.7,16.1-4.7,19.9-4.2c6.5,0.7,18.3-5.4,24.1-7.9c5-2.1-0.7-2.6,4.9-2.3
					C1850.3,591.3,1856.1,570.3,1856.6,566.5z M1820.2,535.1c-3-1.7-2.6-1.9-3.7-4.2c-0.3-0.7-0.5-4.1,0-4.6
					c0.8-1.1,1.9-1.9,3.2-2.4c0.6,0.3,2-0.9,2.7-0.5c1.5,0.7,2.8,1.1,4.8,1.8c3,1.2,8,3.7,8,4.7c0,0.7-0.4,1.2-0.5,2
					c-0.3,2-2.4,5.3-3.1,5.3C1826.1,537.9,1824.8,537.6,1820.2,535.1L1820.2,535.1z"/>
				<path class="st28" d="M1837.8,527.6c0,0-0.2-0.2-0.3-0.3C1837.7,527.4,1837.8,527.5,1837.8,527.6z"/>
				<path class="st1" d="M1865.3,512.8c0.2-0.9,1.9-1.3,0.8-2.5c-1.5-1.6-6.6-3.4-9.8-4.5c-2.6-0.9-5.5-0.3-7.4-0.9
					c-2.8-0.9-2.9,2.1-3.1,3.3s-2.6,3.5-0.7,4.6c1.9,1.1,6.8,0.4,9.9,0.9C1861.1,514.8,1865,515,1865.3,512.8z"/>
				<path class="st1" d="M1826.8,500.2c-1,1-3.3,2.4-5.6,1.2c-1.1-0.6-1.9-3.2-3-4.2c-1.6-1.5-4.7-6.7-6.2-7.1
					c-1.9-0.5,3.5-1.5,4.2-2.3s2.1,0.7,3.9,1.5c1.3,0.6,2.4,1.4,3.3,2.5c1.3,1.3,4.4,3.9,5.1,5.2
					C1829.5,498.8,1827.7,499.2,1826.8,500.2z"/>
			</g>
			<g>
				<path class="st16" d="M1754.8,465.1c34.3,23.7-29.8,71.3-57.9,50.8c-12.3-9-3.4-9.6-5-24.7c-0.7-6.4-2.8-11.6-2.6-19
					c0.2-12.4-3.6-17.5,16.6-15.6C1725.3,458.5,1739.4,454.5,1754.8,465.1z"/>
				<path class="st26" d="M1763.7,474.6L1763.7,474.6c0.1,0.5,0.1,1,0,1.5c-1.1,7.9,1.4,22.8-9.3,24.6c-1.9,0.4-3.8,0.2-5.5-0.6
					l-0.3-0.2c-0.1,0.3-0.3,0.6-0.5,0.9l0,0c-0.5,0.9-1.1,1.7-2,2.3c-0.3,0.2-0.7,0.4-1,0.6l0,0c-3,2-7,5.5-10.3,2.6
					c-0.8-0.6-1.3-1.5-1.3-2.5c0-0.9,0.3-1.8,0.8-2.5c1.2-1.9,3.4-3.9,5.6-6c1.4-1.5,2.6-3.2,3.5-5c-0.6-2.8-1-5.9-1.4-9.1l-0.2-1.3
					c-0.1-1.1-0.3-2.3-0.4-3.5c-1.1-9.1-5.2-12.6-4.5-15.5c0.3-1.4,1.7-2.7,5-4.3c0.7-0.4,1.5-0.7,2.3-0.8c1.6-0.3,3.2-0.2,4.7,0.3
					c0.6,0.2,1.2,0.4,1.8,0.7c3.2,1.7,6.1,4.1,8.2,7l0,0C1761.7,467.3,1763.6,471.4,1763.7,474.6z"/>
				<path class="st27" d="M1764.4,473.8c-2.2-5.7-5.7-14.2-10.8-17.5c-1.3-0.9-2.8-1.4-4.4-1.5c-0.8,0-1.6,0.1-2.3,0.3
					c-2.3,0.6-4,2.5-4.3,4.8c-1,5.4,3,13.6,5.3,17.3c1.9,3,7.1,8.7,6.7,12.1c-0.2,1.8-0.1,1.4-0.1,1c0.2,1.5,0.3,3.1,0.3,4.6
					c0,0.8,0,1.6,0,2.4c-0.7-5.4-1.8-10.7-4.4-14.7c-1.2,9.3-7.5,14.1-14.4,19.1c-0.5-0.1-1-0.3-1.5-0.3c-1.8-0.9-3.8-1.3-5.8-1.3
					c-1.6-0.4-2.9-0.6-3.5-0.8s-2-0.8-3.6-1.4c-2.5-2-5.4-4.7-7.4-2.8c0,0,0,0.1,0,0.1c0.1,0.6-0.1,1.1-0.6,1.5
					c0,0.2-0.1,0.4-0.1,0.5c0.3,1,0.8,1.8,1.6,2.5c2.6,4.3,5.2,5.8,9.3,6.8c1.8,0.3,3.7,0.3,5.4-0.1c-0.6,0.5-1.2,1-1.8,1.5h0.2
					c-3.4,2.4-6.3,4.4-9,6.4c-2.3-0.2-4.6,0.2-6.8,1c-1-2.3-2.5-2.9-4.6-2.2c-2.4-2.3-6.7-4-10.8-5.2c2.7-0.3,5.4-0.9,8-1.9
					c7.3-2.5,7.7-5.5,8.5-8.9c-0.2-0.7,0.1-1.5,0.6-2.1l0,0c-0.5-1.3-3-0.5-4-0.2c-1.2,0.4-2.2,1.1-3,2c-4.3,1.9-9.2,5.2-12.7,7.3
					c-2.9,1.7-4.5,2.5-6.7,3.7c1.1-0.4,2.3-0.4,3.4-0.2h0.2c-1.1,0.1-2.2,0.3-3.5,0.6c-2.2,2.6-1.5,8.1-0.7,12
					c0.9,3.9,2.6,7.6,5.1,10.8c-0.9,0.4-1.6,1.9-1.6,3.7h-0.1c-1.5,0.1-2.2,5.8-1.5,12.6s2.4,12.2,4,12.1c0.1,0,0.2,0,0.3-0.1
					c0.2,1.6,0.5,3.3,0.8,5c-0.9,2-1.2,4.2-0.9,6.3c0.4,3.7,1.9,6.6,3.5,7.1c0.4,1.8,0.8,3.6,1.3,5.5c-0.1,0-0.1,0-0.2,0
					c-1.3,0.1-2.1,3.4-1.7,7.3s1.8,7,3.1,6.8c0.1,0,0.2,0,0.3-0.1c0.4,2.2,1.5,3.9,2.6,3.8c0.4,0,0.7-0.2,0.9-0.5
					c3,7.4,5.4,6.9,7.1,2.3c4-1.4,9.6-7,15.4-14.5c0.8-0.5,1.6-1,2.3-1.6c7-5,7.8-1.7,11.3-6.3c2.9-3.9,5.1-6.9,5-11.4
					c1.7-1.2,3.3-2.6,4.6-4.3c1.2-1.6,1.3-3.7,0.4-5.4c0.2-1.7,0.2-3.4,0-5.1c-0.1-0.8-0.2-1.6-0.3-2.3l0,0l0,0
					c4.5-4.7,7.5-8,9.5-12.3c-0.2,0-0.5,0-0.7,0c0.3-0.2,0.7-0.4,1-0.6c0.7-0.5,1.4-1,2.1-1.5c2.4-1.9,3.8-4.7,3.8-7.8
					c1.5-1.5,2.3-4.8,1.9-8.5c-0.4-4.3-2.3-7.8-4.4-8.4c-0.3-1.2-0.8-2.4-1.4-3.5c-0.3-0.5-0.6-1-0.9-1.4c-0.1,0.2-0.2,0.3-0.3,0.5
					c-0.6,1-1.1,2.2-1.3,3.4c0.1-1.5,0.5-2.9,1.3-4.2l0.2,0.3c2-3.1,5.1-5.9,5.4-11.9C1766.9,489.4,1766.8,480.3,1764.4,473.8z
					 M1743.3,557.9c0-0.2-0.1-0.5-0.1-0.8c0.3,0,0.7,0,1,0C1743.9,557.4,1743.6,557.7,1743.3,557.9z M1757.7,520.5
					c0,0.3,0,0.6,0,0.9h-0.1c0,0.1,0,0.2,0,0.3c-0.2-0.1-0.4-0.1-0.6-0.2c0-2.3-0.1-4.7-0.3-7c-0.1-0.2-0.2-0.4-0.4-0.7l0.3,0.2
					l0.2,0.1l-0.2-0.9c-0.1-0.1-0.1-0.2-0.2-0.3l0.1,0.1c0,0.1,0,0.2,0,0.2l0.2,0.3c0.2,2.3,0.3,4.6,0.3,6.8v0.8l0.5,0.2
					c0-0.5,0-0.9,0.1-1.3C1757.7,520.1,1757.7,520.3,1757.7,520.5z M1757.7,520c0-1.3,0.3-2.7,0.7-3.9c0,0.2,0.1,0.3,0.1,0.5
					s0.1,0.3,0.2,0.5l-0.3-0.3C1758.1,517.8,1757.8,518.9,1757.7,520L1757.7,520z M1759.3,519.3L1759.3,519.3L1759.3,519.3
					L1759.3,519.3L1759.3,519.3L1759.3,519.3z M1759,517.9c0,0.1,0.1,0.2,0.1,0.3c-0.1-0.4-0.2-0.7-0.3-1.1
					C1759.5,517.9,1760.8,519.5,1759,517.9L1759,517.9z M1759,516.9c0,0.1,0,0.2,0.1,0.3c-0.1-0.4-0.2-0.7-0.3-1.1
					C1759.5,516.9,1760.8,518.3,1759,516.9L1759,516.9z M1758.7,515.5c0,0.2,0.1,0.3,0.2,0.5l-0.3-0.3c0,0.1-0.1,0.2-0.1,0.3
					c-0.3-1.3-0.4-2.6-0.3-3.8C1758.2,513.3,1758.3,514.5,1758.7,515.5L1758.7,515.5z"/>
				<path class="st29" d="M1701.1,507.7c-1.6,0.1-3.2,0.1-4.8,0c-0.3,0-0.5-0.3-0.4-0.5s0.3-0.5,0.5-0.4l0,0c11.9,1,15-5.8,15.2-6.1
					c0.1-0.2,0.3-0.4,0.6-0.3c0.2,0.1,0.4,0.3,0.3,0.6c0,0,0,0.1,0,0.1C1712.2,501.3,1709.8,506.8,1701.1,507.7z"/>
				<path class="st29" d="M1728,506.9c-1.5,0.2-3,0-4.4-0.3c-6.8-1.8-10.1-8.7-10.2-9c-0.1-0.2,0.1-0.5,0.3-0.6
					c0.2-0.1,0.4,0,0.5,0.2c0,0.1,3.3,6.8,9.7,8.5c3.9,1,8.2-0.1,12.8-3.3c0.2-0.2,0.5-0.1,0.7,0.1c0.2,0.2,0.1,0.5-0.1,0.7
					C1734.5,505.1,1731.3,506.5,1728,506.9z"/>
				<path class="st29" d="M1695,561.3c-0.4,0-0.9-0.1-1.3-0.3c-1.6-0.8-2.9-3.7-4-8.4c-0.8-3.5-1.2-6.7-1.2-6.8
					c-0.1-0.3,0.1-0.5,0.4-0.6c0.3-0.1,0.5,0.1,0.6,0.4c0,0,0,0.1,0,0.1c0.4,3.5,2,13,4.7,14.5c0.4,0.2,0.9,0.2,1.2,0
					c0.2-0.1,0.5,0,0.6,0.2s0,0.5-0.2,0.6C1695.5,561.1,1695.3,561.2,1695,561.3z"/>
				<path class="st29" d="M1728.2,537.1c-1.9,0.2-3.8-0.1-5.6-0.7c-0.2-0.1-0.4-0.3-0.3-0.6c0.1-0.2,0.3-0.4,0.6-0.3
					c3.2,1.2,6.7,0.9,9.6-0.8c9.4-5.5,12.8-24.3,12.8-24.5c0-0.3,0.3-0.4,0.5-0.4c0.3,0,0.4,0.3,0.4,0.5c-0.7,3.5-1.7,7-2.9,10.4
					c-2.8,7.4-6.2,12.4-10.3,14.8C1731.5,536.4,1729.9,537,1728.2,537.1z"/>
				<path class="st29" d="M1718.9,577.9c-1.9,0.2-3.8-0.1-5.6-0.7c-0.2-0.1-0.4-0.3-0.3-0.6c0.1-0.2,0.3-0.4,0.6-0.3c0,0,0,0,0,0
					c3.1,1.2,6.7,0.9,9.6-0.8c9.4-5.5,12.8-24.3,12.8-24.5c0-0.3,0.3-0.4,0.5-0.4c0,0,0,0,0,0c0.2,0,0.4,0.3,0.4,0.5c0,0,0,0,0,0
					c-0.7,3.5-1.7,7-2.9,10.3c-2.8,7.4-6.2,12.4-10.3,14.8C1722.2,577.2,1720.6,577.7,1718.9,577.9z"/>
				<path class="st19" d="M1708.6,510c1.7,1.5,3.8,1.2,5.6,0.4c0.5-0.3,0.7-0.8,0.5-1.3c-0.1-0.5-0.6-0.7-1.1-0.6c0,0,0,0,0,0
					c-0.4,0.2-0.8,0.3-1.2,0.5l0,0h-0.2h-0.3c-0.2,0-0.4,0-0.6,0h-0.1h-0.3l-0.3-0.1c0,0-0.3-0.1-0.2,0s-0.2-0.1-0.2-0.1l-0.2-0.1
					l-0.2-0.1c0.2,0.1-0.1-0.1-0.1-0.1c-0.3-0.3-0.8-0.3-1.1,0c0,0-0.1,0.1-0.1,0.1C1708.2,509,1708.2,509.6,1708.6,510L1708.6,510z
					"/>
				<circle class="st20" cx="1730.8" cy="479.6" r="5.6"/>
				
					<ellipse transform="matrix(0.9952 -9.775660e-02 9.775660e-02 0.9952 -38.762 168.0827)" class="st20" cx="1695.9" cy="479.6" rx="5.8" ry="5.3"/>
				<path class="st21" d="M1700.7,479.6c0.1,2.6-1.9,4.8-4.5,5c-2.5,0.4-4.9-1.4-5.3-3.9c0,0,0,0,0,0c-0.1-2.6,1.8-4.8,4.4-5
					C1697.9,475.3,1700.3,477,1700.7,479.6C1700.7,479.6,1700.7,479.6,1700.7,479.6z"/>
				<path class="st22" d="M1698.9,479.7c0.2,1.7-1,3.2-2.7,3.4c-1.6,0.2-3.1-1-3.3-2.7c0,0,0,0,0,0c-0.2-1.7,1-3.2,2.7-3.4
					C1697.3,476.8,1698.8,478,1698.9,479.7C1698.9,479.7,1698.9,479.7,1698.9,479.7z"/>
				<path class="st23" d="M1696,482.8c-0.2,0-0.5,0-0.7-0.1l0.2-0.9c0.2,0,0.3,0.1,0.5,0.1L1696,482.8z M1696.7,482.7l-0.2-0.9
					c0.2,0,0.3-0.1,0.5-0.2l0.5,0.8l0,0l0,0C1697.2,482.6,1697,482.7,1696.7,482.7L1696.7,482.7z M1694.6,482.4
					c-0.2-0.1-0.4-0.3-0.6-0.5l0.7-0.7c0.1,0.1,0.3,0.2,0.4,0.3L1694.6,482.4z M1698,482l-0.7-0.7c0.1-0.1,0.2-0.3,0.3-0.4l0.8,0.5
					C1698.3,481.6,1698.2,481.8,1698,482z M1693.5,481.4L1693.5,481.4c-0.1-0.2-0.2-0.4-0.3-0.7l0.9-0.2c0,0.2,0.1,0.3,0.2,0.5
					L1693.5,481.4z M1698.8,480.7l-0.9-0.2c0-0.2,0.1-0.3,0.1-0.5h0.9C1698.9,480.2,1698.8,480.5,1698.8,480.7L1698.8,480.7z
					 M1694.1,480h-0.9c0-0.2,0-0.5,0.1-0.7l0.9,0.2C1694.1,479.6,1694.1,479.8,1694.1,480L1694.1,480z M1697.9,479.5
					c0-0.2-0.1-0.3-0.2-0.5l0.4-0.2l0.4-0.2l-0.4,0.2l0.4-0.2c0.1,0.2,0.2,0.5,0.3,0.7L1697.9,479.5z M1694.3,479l-0.8-0.5
					c0.1-0.2,0.3-0.4,0.4-0.6l0.7,0.7C1694.5,478.7,1694.4,478.9,1694.3,479L1694.3,479z M1697.3,478.6c-0.1-0.1-0.2-0.2-0.4-0.3
					l0.5-0.8c0.2,0.1,0.4,0.3,0.6,0.5L1697.3,478.6z M1695.1,478.3l-0.2-0.4l-0.2-0.4c0.2-0.1,0.4-0.2,0.7-0.3l0.2,0.9
					C1695.4,478.2,1695.2,478.2,1695.1,478.3L1695.1,478.3z M1696.5,478.1c-0.2,0-0.3-0.1-0.5-0.1v-0.9c0.2,0,0.5,0,0.7,0.1
					L1696.5,478.1z"/>
				<path d="M1697.1,480c0.1,0.8-0.5,1.4-1.2,1.5c-0.7,0.1-1.4-0.5-1.5-1.2c0,0,0,0,0,0c-0.1-0.8,0.5-1.4,1.2-1.5
					C1696.4,478.7,1697.1,479.2,1697.1,480C1697.1,480,1697.1,480,1697.1,480z"/>
				<path class="st21" d="M1735.4,479.6c0.1,2.6-1.9,4.8-4.5,5c-2.6,0.4-4.9-1.4-5.3-3.9c0,0,0,0,0,0c-0.1-2.6,1.8-4.8,4.4-5
					C1732.6,475.3,1735,477,1735.4,479.6C1735.4,479.6,1735.4,479.6,1735.4,479.6z"/>
				<path class="st22" d="M1733.8,479.3c0.2,1.7-1,3.2-2.7,3.4c-1.6,0.2-3.1-1-3.3-2.7c0,0,0,0,0,0c-0.2-1.7,1-3.2,2.7-3.4
					C1732.1,476.4,1733.6,477.6,1733.8,479.3C1733.8,479.3,1733.8,479.3,1733.8,479.3z"/>
				<path class="st23" d="M1730.8,482.5c-0.3,0-0.5,0-0.7-0.1l0.2-0.9c0.2,0,0.3,0.1,0.5,0.1L1730.8,482.5z M1731.6,482.4l-0.2-0.9
					c0.2,0,0.3-0.1,0.5-0.2l0.5,0.8l0,0l0,0C1732.1,482.2,1731.8,482.3,1731.6,482.4L1731.6,482.4z M1729.4,482.1
					c-0.2-0.1-0.4-0.3-0.6-0.5l0.7-0.6c0.1,0.1,0.2,0.2,0.4,0.3L1729.4,482.1z M1732.9,481.6l-0.7-0.7c0.1-0.1,0.2-0.2,0.3-0.4
					l0.8,0.5C1733.2,481.3,1733,481.5,1732.9,481.6L1732.9,481.6z M1728.4,481L1728.4,481c-0.1-0.2-0.2-0.4-0.3-0.7l0.9-0.2
					c0,0.2,0.1,0.3,0.2,0.5L1728.4,481z M1733.6,480.4l-0.9-0.2c0-0.2,0.1-0.3,0.1-0.5h0.9C1733.7,479.9,1733.7,480.1,1733.6,480.4
					L1733.6,480.4z M1728.9,479.6h-0.9c0-0.2,0-0.5,0.1-0.7l0.9,0.2C1729,479.3,1729,479.4,1728.9,479.6L1728.9,479.6z
					 M1732.7,479.1c0-0.2-0.1-0.3-0.2-0.5l0.4-0.2l0.4-0.2l-0.4,0.2l0.4-0.2c0.1,0.2,0.2,0.5,0.3,0.7L1732.7,479.1z M1729.2,478.6
					l-0.8-0.5c0.1-0.2,0.3-0.4,0.5-0.6l0.7,0.7C1729.4,478.4,1729.3,478.5,1729.2,478.6L1729.2,478.6z M1732.2,478.3
					c-0.1-0.1-0.3-0.2-0.4-0.3l0.5-0.8c0.2,0.1,0.4,0.3,0.6,0.5L1732.2,478.3z M1729.9,477.9l-0.2-0.4l-0.2-0.4l0,0
					c0.2-0.1,0.4-0.2,0.7-0.3l0.2,0.9C1730.2,477.8,1730.1,477.9,1729.9,477.9L1729.9,477.9z M1731.3,477.8c-0.2,0-0.3-0.1-0.5-0.1
					v-0.9c0.2,0,0.5,0,0.7,0.1L1731.3,477.8z"/>
				<path d="M1732,479.7c0.1,0.8-0.5,1.4-1.2,1.5c-0.8,0.1-1.4-0.5-1.5-1.2c0,0,0,0,0,0c-0.1-0.8,0.5-1.4,1.2-1.5
					C1731.2,478.4,1731.9,478.9,1732,479.7C1732,479.7,1732,479.7,1732,479.7z"/>
				<path class="st17" d="M1709.7,495.7c-1.7,0.3-3.3-0.6-4-2.2c-1-2.1-0.4-5.6,1-6.3c1-0.5,0.2-4.5-1.1-7.9c-0.1-0.2,0-0.5,0.3-0.6
					c0.2-0.1,0.5,0,0.6,0.3c0.5,1.3,2.8,7.9,0.6,9c-0.8,0.4-1.5,3.2-0.6,5.1c0.8,1.7,2.5,2.1,5,1.2c0.2-0.1,0.5,0,0.6,0.3
					c0.1,0.2,0,0.5-0.3,0.6c0,0,0,0,0,0C1711.1,495.4,1710.4,495.6,1709.7,495.7z"/>
				<path class="st22" d="M1736.5,484.7c0.1,1-2.9,2.7-6.5,3.1s-7.5-2-7.6-3s1.6-1.5,5.3-1.9S1736.4,483.6,1736.5,484.7z"/>
				<path class="st22" d="M1701.7,484.1c0.1,1.2-3.9,3.1-6.3,3.3s-3.8-2.7-4-3.9s2.3-0.6,4.7-0.9S1701.6,482.9,1701.7,484.1z"/>
				<path class="st30" d="M1750.2,479.1c-1.9,0-3.9,0.2-5.8,0.5c-3.9,0.8-6.8,2.1-8.4,4.2c-0.8-0.5-1.6-0.9-2.5-1.2h-0.1
					c-4-0.6-8-0.2-11.8,1.1c-3.2-2.1-12-6.3-19.2-0.1l-0.2,0.2c0.1-0.2,0-0.5-0.3-0.6c-6.5-2.7-10.9-0.4-11.1-0.3l-0.3,0.1v0.3
					c0.2,1.9,1.4,3.5,3,4.4c2.4,1,5.5-0.1,9.4-3.4c7.9-6.7,18.2,0,19.1,0.9c2,2.2,4.9,3.4,7.9,3.2c0.4,0,0.8-0.1,1.2-0.2
					c4-0.9,5.7-1.8,5.8-3c0-0.2-0.1-0.5-0.2-0.7c3.7-4.6,13.4-4.5,13.5-4.5c0.3,0,0.5-0.2,0.5-0.5c0,0,0,0,0,0
					C1750.6,479.3,1750.5,479.1,1750.2,479.1C1750.2,479.1,1750.2,479.1,1750.2,479.1z M1694,486.8c-1.3-0.7-2.2-1.9-2.5-3.3
					c1.1-0.4,4.9-1.7,10,0.5c0.1,0,0.2,0,0.2,0C1698.5,486.7,1695.8,487.6,1694,486.8z M1730.9,487.3L1730.9,487.3
					c-3,0.7-6.1-0.3-8.1-2.7c-0.1-0.1-0.1-0.1-0.2-0.2c3.5-1.1,7.1-1.3,10.8-0.9c0.9,0.2,1.7,0.6,2.4,1.2l0,0v0.1l0,0
					c0.1,0.1,0.1,0.2,0.2,0.3C1735.9,485.3,1735.6,486.2,1730.9,487.3L1730.9,487.3z"/>
				<path class="st15" d="M1708.6,439.8l-10.9-4c-0.3-1.2-1.3-2-2.5-2.1c-0.8-0.1-1.6-0.1-2.4,0c-1,0.1-2,0.5-2.7,1.2
					c0,0.1,0.1,0.3,0.2,0.4c0.1-0.2,0.2-0.3,0.3-0.5c1,3.2,6.2,4.8,12,5.5h0.4c5.3,0.4,10.5,0.6,15.8,0.4c1.8-0.2,3.5-0.4,5.2-0.8
					C1718.9,440.6,1713.7,440.5,1708.6,439.8z M1744.3,431.4c-4.1,3-8.6,5.3-13.4,7c4-1,7.9-2.4,11.6-4.2l0.3-0.2
					c1.5-0.7,2.9-1.8,3.9-3.2l0.1-0.1C1746.2,430.4,1745.4,430.6,1744.3,431.4L1744.3,431.4z"/>
				<path class="st15" d="M1749.3,434.7c-0.8-1.8-1.4-3.1-2.2-3.7c-0.1-0.1-0.2-0.1-0.3-0.2c-1,1.4-2.4,2.4-3.9,3.2l-0.3,0.2
					c-3.7,1.8-7.6,3.3-11.6,4.3c-2.2,0.8-4.5,1.3-6.9,1.6c-1.7,0.4-3.4,0.7-5.2,0.8c-5.3,0.2-10.7,0.1-16-0.4h-0.4
					c-5.8-0.7-11-2.2-12-5.5c-0.1,0.1-0.2,0.3-0.3,0.5l-0.1,0.2c-0.3,0.7-0.6,1.4-0.6,2.2c-0.5,4.8-1.4,11.1,0.2,16
					c-0.1,0.3-0.2,0.6-0.3,0.9c-0.8,2.5-0.6,3.5,2.3,4.5c1.2,0.4,2.3,0.8,3.5,1.1l0,0c15,4.3,30.9,4.2,45.9-0.1
					c2.5-0.7,4.9-1.6,7.3-2.5c0.7-0.3,1.4-0.6,2.2-0.9l0.3-0.1l0.1,0.1c2-1,1.5-1.4,1.2-4.3C1751.8,446.4,1752.3,441.5,1749.3,434.7
					z M1694.3,439.2L1694.3,439.2c-0.1-0.1,0-0.2,0.1-0.3L1694.3,439.2z"/>
				<path class="st15" d="M1694.4,438.9l-0.1,0.4h-0.1C1694.2,439.1,1694.3,439,1694.4,438.9z"/>
				<path class="st13" d="M1694.4,439.5l-0.1,0.4l-0.1,0C1694.3,439.7,1694.4,439.6,1694.4,439.5z"/>
				<path class="st13" d="M1747.5,430.3c0,0.5-0.1,0.9-0.3,1.3c-0.1-0.1-0.2-0.1-0.3-0.2c-1,1.3-2.4,2.4-3.9,3.2l-0.4,0.2
					c-3.7,1.8-7.6,3.3-11.6,4.3c-2.2,0.8-4.5,1.3-6.9,1.6c-1.7,0.4-3.4,0.7-5.2,0.8c-5.3,0.2-10.7,0.1-16-0.4h-0.4
					c-5.7-0.7-11-2.2-12-5.5c-0.1,0.1-0.2,0.3-0.3,0.5c0,0.1-0.1,0.1-0.1,0.2c-0.1-0.2-0.1-0.4-0.1-0.6
					c-0.8-7.9,20.2-11.6,26.4-11.5S1747.1,423.7,1747.5,430.3z"/>
			</g>
			<g>
				<ellipse class="st31" cx="1503.3" cy="501.8" rx="34.5" ry="58.3"/>
				<path class="st32" d="M1482.5,484.3c0.9-2.1,5-6.1,10-5.4c3.5,0.5,7,4.9,8.3,6.1c2.6,2.4-4.2,4.1-9.1,4.1
					S1481.5,486.7,1482.5,484.3z"/>
				<path class="st32" d="M1503.3,525.4c-3.5,3.2-17.1,10.3-23.7,4.6c-4.6-4,2.9-23.5,2.7-30.2c-0.2-6.8-6.5,4.9,2.7,9.2
					C1492.9,512.8,1507.5,521.6,1503.3,525.4z"/>
				<path class="st32" d="M1530.2,482.5c-0.9-2.1-5-6.1-10-5.4c-3.5,0.5-7,4.9-8.3,6.1c-2.6,2.4,4.2,4.1,9.1,4.1
					S1531.2,485,1530.2,482.5z"/>
				<path class="st11" d="M1501.5,477l-1.7,4.4c0,0-10.8-7.1-12.6-7.1s-4,1.8-4,1.8v-1.8l4.2-1.9L1501.5,477z"/>
				<path class="st11" d="M1510.3,476.3l1.7,4.4c0,0,10.8-7.1,12.6-7.1s4,1.8,4,1.8v-1.8l-4.2-1.9L1510.3,476.3z"/>
				<path class="st11" d="M1492.7,424.3v0.1C1492.8,424.2,1492.8,424.1,1492.7,424.3z"/>
				<path class="st11" d="M1482,500.3c0.1,0.5,0.2,0.9,0.3,1.4c0-0.7,0.1-1.3,0.2-1.9h-0.2C1482.1,499.8,1482,500.1,1482,500.3z"/>
				<path class="st33" d="M1515.1,470.9c-4.7-9.9-6.6-8.6-6.6-8.6"/>
				<path class="st34" d="M1474.2,525c4.1,1.2,15.9,3.4,17.7-3s-6.8-19.3-11.1-20.5L1474.2,525z"/>
				<path class="st34" d="M1543.1,517.8c0-4.3-1.2-16.2-7.9-16.2s-16.5,12-16.5,16.5s5.6,8,12.4,7.8S1543.1,522.1,1543.1,517.8z"/>
				<path class="st11" d="M1453,474.6c-1.4,3.9,4.8,4.3,3.4,7.5c-5.5,12.1-0.6,17.7,12,32.6c0.2,0.2-1.5,7.2-1.3,7.1
					c-0.5,4.4,4.6,3.1,2,7.6c-7.3,12.4,3.5,24.6,8.3,29.1c2.2,2.1,2.2,8.5,4.1,14.1c2.3,6.9,10.4,14.5,15,2.8
					c1.1-2.8-3.8-15.3-8.2-31.4c-4.8-17.9-6.8-33.7-6-42.3c1.9,8.1,4.3,9.4,5.8,10.2c1.2,0.7,1.7,0.9,0.2,6.4
					c-2,7.2,0.2,14.9,5.6,19.9c0.1,0.1,0.2,0.1,0.3,0.1c0.1,0,0.3-0.1,0.3-0.2c0.2-0.2,0.1-0.5-0.1-0.6c0,0,0,0,0,0
					c-5.2-4.8-7.2-12.2-5.3-19c1.6-5.9,1.1-6.5-0.6-7.4c-1.4-0.8-3.8-2-5.7-10.9c0-0.2-0.2-0.3-0.4-0.4c0.1-0.9,0.3-1.7,0.6-2.5
					c-3.3-5.4-5.2-18.6-5.2-24.7c0-4.8,2.3-9.7,1.7-13.9c7.8-0.3,14.5-2.5,18.4-5.7c1.2,0.2,2.5,0.3,3.7,0.3
					c0.5,3.8,2.7,7.8,5.7,11.3c0.4,1.9,0.4,4.8-1,9.2c-2.3,7.3-1.4,8.7-0.9,9.4c0,0.1,0.1,0.2,0.1,0.2s0,0.1-0.3,0.5
					c-0.7,0.9-0.5,2.3-0.3,4c0.4,2.8,0.9,6.3-2,9.8c-0.2,0.2-0.1,0.5,0.1,0.6c0.1,0.1,0.2,0.1,0.3,0.1c0.1,0,0.3-0.1,0.4-0.2
					c3.1-3.8,2.6-7.7,2.2-10.5c-0.2-1.5-0.4-2.7,0.1-3.4c0.6-0.9,0.6-1.2,0.2-1.8s-1.2-1.8,1-8.7c0.9-2.6,1.4-5.4,1.2-8.2
					c1.9,1.9,3.9,3.5,6.2,4.9c-0.1,0.1-0.1,0.3,0,0.4c0.8,1.8,1.7,3.7,2.6,5.8c3.4,8.3,7.3,10.6,9.6,11.9c2.2,1.2,2.7,1.5,0.4,5.6
					c-3.1,5.3-3.3,11.7-0.8,17.2c0.1,0.1,0.2,0.2,0.4,0.2c0.1,0,0.2,0,0.2-0.1c0.2-0.1,0.3-0.4,0.2-0.6c-2.4-5.2-2.1-11.3,0.8-16.3
					c2.6-4.6,1.8-5.4-0.7-6.9c-2.2-1.3-6-3.5-9.3-11.5c-0.8-1.9-1.6-3.7-2.3-5.3c1.3,0.7,2.6,1.2,4,1.6c0,0.1,0,0.2,0,0.2
					c0.6,2,1.5,4,2.5,5.9c1.6,2.9,4.2,6.7,8.1,8.7c0.1,0,0.1,0.1,0.2,0c0.2,0,0.5-0.2,0.5-0.4c0-0.2-0.1-0.4-0.3-0.4
					c-6.4-3.2-9.6-12.1-10.1-13.7c1,0.2,1.9,0.3,2.9,0.3c2.7,0,7.1,8.4,8.5,10.3c1.2,1.6-3.6,11.2-3.9,13.1c-0.3,2.1,1.8-2,1.8,4.4
					c0,8.9-8.3,23.9-9.4,40.5c-1.4,21.5,1.7,27.5,3.9,31c5.8,9.2,0.7-22.3,10.9-15.8c4.4,2.8-1-18.2,5.7-22.5
					c13.4-8.7,12.4-4,12.9-14.7c0.1-3.4,5.6-12.9,4.6-15.2c-2.2-5.2-0.5-12.8,0-19.4c0.5-5.9-8.4-10-5.5-14.4
					c4.2-6.3,1.7-14.9-4.8-16.2c-1.4-0.3-11.1-1.9-12.3-7.9c0.7-2.1,10.2,4.8,12.4,3.8c5.2-2.3-10.2-8-3.1-12.9
					c4.6-3.2-7.4-2.1-7.4-2.1c-5.6-8.1-12-2.8-14.6-4.9c-12.4-10-21.4-9-21.2-9.6c5.7-16.6-11.8-4.6-9.4,3.2c0.2-0.1,0.2-0.1,0,0.1
					v-0.1c-1.3,0.9-11.1,11.3-11.4,9.2c-1.3-9-15.1-5-17.4,1.7c-1.4,4.1-5.3,3.4-8.1,7.2c-1.6,2.2,0.8,15-5.7,21.5
					C1449.6,466.6,1457.3,462.8,1453,474.6z"/>
				<path class="st34" d="M1508.5,499.4c-0.3,0-0.6-0.3-0.6-0.6c0-0.3,0.3-0.6,0.6-0.6c0,0,0.1,0,0.1,0c1.3,0.1,3.3,0,3.8-0.6
					c0.1-0.1,0.1-0.3,0.1-0.5c0-0.1-0.2-0.7-0.4-1.3c-4.9-16-4.7-17.7-3.9-18.3c0.3-0.2,0.7-0.1,0.8,0.1c0.2,0.2,0.2,0.5,0,0.8
					c-0.2,0.6,0.2,3.7,4.3,17c0.3,1,0.4,1.3,0.4,1.4c0.2,0.5,0,1.1-0.3,1.5c-0.8,0.9-2.6,1.1-3.8,1.1
					C1509.2,499.5,1508.9,499.5,1508.5,499.4z"/>
				<g class="st35">
					<path class="st34" d="M1506.8,499.6c0.1,0,0.2,0,0.3-0.1c0.3-0.2,0.4-0.6,0.2-0.8c0,0,0,0,0,0c-0.3-0.5-0.8-0.8-1.3-0.9l0,0
						c-0.5,0-1,0.4-1.2,0.8c-0.2,0.3-0.1,0.7,0.2,0.8c0.3,0.2,0.7,0.1,0.8-0.2c0.1-0.1,0.1-0.2,0.2-0.2c0.1,0.1,0.2,0.2,0.3,0.3
						C1506.3,499.5,1506.5,499.6,1506.8,499.6z"/>
				</g>
				<path class="st21" d="M1525.9,483.7c0.5,0.5,0.8,0.3,0.8,1.1c0,1-3.6,2.5-5.5,2.5c-3.2,0-6.8-1-6.3-2.3c1.1-1.9,3-3.1,5.1-3.5
					C1522.4,481.1,1525.2,483,1525.9,483.7z"/>
				<ellipse class="st36" cx="1520.8" cy="484.1" rx="2.9" ry="2.7"/>
				<circle cx="1520.7" cy="483.8" r="1.2"/>
				<path class="st21" d="M1486.6,486.4c-0.4,0.5-0.7,0.3-0.6,1.1s3.6,1.8,5.3,1.6c3-0.4,6.1-1.6,5.5-2.8c-1.2-1.5-3.1-2.5-5.1-2.6
					C1489.6,483.7,1487.2,485.6,1486.6,486.4z"/>
				<ellipse class="st36" cx="1491.7" cy="486.3" rx="2.7" ry="2.6"/>
				<circle cx="1491.7" cy="486.2" r="1.2"/>
				<path class="st36" d="M1502,508.1c0.1,0.1,0.2,0.1,0.3,0.1c0.1,0,0.3-0.1,0.4-0.2c0.2-0.3,0.5-0.6,0.7-0.9
					c1.8-0.9,4.8-2.6,6.1-2.2c2.6,0.8,4.3,1.2,5.3,1.5c0.5,0.5,0.9,1,1.2,1.6c0.1,0.2,0.4,0.3,0.6,0.1c0.2-0.1,0.3-0.4,0.2-0.6
					c-0.3-0.4-0.6-0.8-0.9-1.2c-0.1-0.4-1.3-1.4-2.8-3c-0.9-1.1-2.2-1.7-3.6-1.7c-2,0-7.6,4.9-7.6,5.9
					C1501.7,507.7,1501.8,508,1502,508.1z"/>
				<path class="st36" d="M1509.7,510c1.2,0,2.4-0.4,3.5-1.1l0.2-0.1c0.1,0,0.2,0,0.3,0c0.3,0,0.6-0.4,0.5-0.7c0,0,0,0,0,0
					c0-0.2-0.2-0.5-0.4-0.6c-0.4-0.2-0.8,0-1.2,0.3c-1.2,0.7-3.3,2-6.5-0.5c-0.3-0.2-0.7-0.2-0.9,0.1c-0.2,0.3-0.1,0.6,0.1,0.9
					C1506.5,509.3,1508,509.9,1509.7,510z"/>
				<path class="st37" d="M1503.3,506.6c0,1.2,4.1,2.5,6.4,2.4s5.6-1,5.6-2.2s-3.3-2.2-5.6-2.2S1503.3,505.4,1503.3,506.6z"/>
			</g>
			<g>
				<path class="st11" d="M1577.1,510.7c1.5,4,13.1,7.3,23.8,2.5c10.4-4.7,16-15.6,14.5-19.4s-20.2-13.4-30.7-8.9
					C1573.9,489.5,1575.5,506.7,1577.1,510.7z"/>
				<path class="st34" d="M1572.7,503.4c0.9,2.9,10.4,2,20.9-2c10.3-3.8,19.3-10.5,16.8-11.9c-10.2-5.8-9.8-2.1-20.1,1.7
					C1579.8,495,1571.8,500.5,1572.7,503.4z"/>
				<path class="st31" d="M1545.9,420.8c-0.3,16.3,17.6,42.6,6.3,56.3c-9.2,11.1,9.7,21.2,24,19.9c3.2-0.3,43-12.8,49.7-22.5
					s0-19.5,4.4-25.4c9.5-12.6,8.7-24.6,8.2-28.5c-3-23.1-25.1-41.4-44-42.7C1561.8,375.7,1546.4,392.6,1545.9,420.8z"/>
				<path class="st32" d="M1605.1,487.2c7-2.2-23.1,14.6-30.1,9.3c-4.9-3.7-7.2-15.8-7.8-22.5c-0.7-6.9,2.2-2.7,11.7,1
					C1587.1,478.2,1599.7,488.9,1605.1,487.2z"/>
				<path class="st32" d="M1561,447.4c6.5,10.9-4.4,13.5-5,18.6c-0.5,4.5-1.5-5.7-6-20.1c-3.9-12.3-5.3-31.3-2.9-21.7
					C1548.2,429.1,1555,437.4,1561,447.4z"/>
				<path class="st32" d="M1626.8,452.2c-6.8,6-4.4,9.3-3.7,9.6s0.7-0.7,4.1-7.5s7.9-11.4,7.2-11.7S1630.4,449.1,1626.8,452.2z"/>
				<path class="st32" d="M1577.7,453.3c8.5,3,7.5,7,6.9,7.6s-0.9-0.4-6.6-5.4s-11.5-7.7-11-8.3S1573.2,451.7,1577.7,453.3z"/>
				<ellipse class="st36" cx="1586.3" cy="437.4" rx="2.7" ry="2.6"/>
				<circle cx="1586.3" cy="437.4" r="1.2"/>
				<path class="st11" d="M1597.4,442c0.3,0,0.5-0.2,0.5-0.5c0-0.1-0.1-0.2-0.2-0.3c-2.5-2.1-5.1-4.1-7.9-5.8
					c-4.3-2.7-10.8-6-17.2-6.4c-0.3,0-0.5,0.2-0.5,0.4c0,0.2,0.2,0.5,0.4,0.5c0,0,0,0,0,0c11.9,0.7,24.3,11.8,24.5,11.9
					C1597.2,442,1597.3,442,1597.4,442z"/>
				<ellipse class="st36" cx="1623.2" cy="436.2" rx="2.7" ry="2.6"/>
				<circle cx="1623.2" cy="436.2" r="1.2"/>
				<path class="st11" d="M1614.3,441.1c0.1,0,0.3-0.1,0.3-0.2c0.1-0.1,8.1-9.4,13.5-10.4c0.2-0.1,0.4-0.3,0.4-0.5
					c-0.1-0.2-0.3-0.4-0.5-0.4c-5.8,1.1-13.7,10.3-14.1,10.7c-0.2,0.2-0.2,0.5,0,0.6C1614.1,441,1614.2,441.1,1614.3,441.1z"/>
				<path class="st11" d="M1605.1,454.9c0.1,0,0.2,0,0.3-0.1c0.2-0.2,0.3-0.4,0.1-0.6l-2.8-4c-0.1-0.2-0.4-0.3-0.6-0.1
					c-0.2,0.1-0.3,0.4-0.1,0.6l2.8,4C1604.8,454.8,1604.9,454.9,1605.1,454.9z"/>
				<path class="st11" d="M1612.1,454.9c0.2,0,0.3-0.1,0.4-0.2l2.2-4c0.1-0.2,0.1-0.5-0.2-0.6c0,0,0,0,0,0c-0.2-0.1-0.5-0.1-0.6,0.2
					c0,0,0,0,0,0l-2.2,4c-0.1,0.2,0,0.5,0.2,0.6c0,0,0,0,0,0C1611.9,454.8,1612,454.9,1612.1,454.9z"/>
				<path class="st11" d="M1603.7,468.2c0.1,0,0.3-0.1,0.4-0.2c2.1-2.6,4-3.8,5.3-3.5c1.6,0.3,2.2,2.5,2.2,2.5
					c0.1,0.2,0.3,0.4,0.6,0.3c0.2-0.1,0.4-0.3,0.3-0.6l0,0c0-0.1-0.8-2.7-2.9-3.2c-1.8-0.4-3.9,0.9-6.2,3.8c-0.2,0.2-0.1,0.5,0,0.6
					c0,0,0,0,0,0C1603.5,468.2,1603.6,468.2,1603.7,468.2z"/>
				<path class="st11" d="M1564.9,457.2c0.1,0,0.1,0,0.2,0c0.2-0.1,0.3-0.4,0.2-0.6c0,0,0,0,0,0c-4.9-10.6-4-11.9-3.8-12
					c0.5-0.4,3.1,1.3,5.8,4.3c0.2,0.2,0.5,0.2,0.7,0s0.2-0.5,0-0.7c-1.2-1.3-5.3-5.6-7-4.5c-0.9,0.6-1.4,2.7,3.4,13.2
					C1564.6,457.2,1564.8,457.3,1564.9,457.2z"/>
				<path class="st11" d="M1531.7,492.9c25.4-22.5,18.2-6.2,34.5-0.2c15.8,5.7,44.3,16.6,37.5,19.6c-13.2,5.8-25.6,8.6-41.5,3.3
					C1545.7,510,1526.7,497.3,1531.7,492.9z"/>
				<path class="st34" d="M1568.9,493.2c12,6.2,33.9,18.6,32,20c-8.5,6.1-16.2-0.3-28.3-6.6s-23.6-23.2-22.6-25.3
					S1556.9,487,1568.9,493.2z"/>
			</g>
			<g>
				<path class="st31" d="M1529.4,533.7c0,5.5,10.3,18.6,8.4,23.3c-3.7,8.9-16.6,27.5-9.7,24.2s22.5,12.9,27.6,12.9s11.2-3.5,14.6-7
					c4-4.2,6.1-11.9,11.1-16.8c3.7-3.7,4.2-6.3,4.2-13.4c0-2.5,5-13,3.7-15.1c-5.3-8.7-0.5-10.4-2.6-13.8
					c-2.2-3.6-6.4-14.6-9.3-17.2c-4.8-4.3-5.1,2.2-11.3,2.2c-6.1,0-16.3-6-21.1-2c-5,4.3-3.9,4.5-6.3,11.9
					C1537.1,527.7,1529.4,528.2,1529.4,533.7z"/>
				<path class="st32" d="M1543.2,557.2c0.6,1.3-11.4-23.4-7.3-24.4c3.1-0.7,6.8-15.6,10.7-17.4c3.7-1.7,17.5,3.9,20,2.1
					c3.6-2.5,9.7-4.7,9-6c-1-2.2-18.3-12.4-27.2-8.3c-4.5,2.1-30.9,52.4-33.5,54.5c-1.3,1,4.2,25.1,11.3,24.6
					C1533.7,581.8,1542.9,556.6,1543.2,557.2z"/>
				<path class="st3" d="M1514.1,565.7l-0.6,5.5c0,1.2,0.7,2.3,1.8,2.7c1.2,0.4,2.4,0.7,3.6,0.7c-2.7,3.8-5,12.7-3.6,15.2
					c1.7,2.9,3.1-1.4,4.8-1.7c2.9-0.5,5.7,7.4,7-0.5c0.5-3.3,3.3-11.7,6.6-18.2c2.6-5.2,6.4-11.4,6.4-13.1c0-3.8-2.5-7.2-3.1-10.4
					s-1-1.5-4.3-8.2c2.2-3.9-0.2-4.3,3.3-6.6c1.2-0.8,4,14.1,4.8,12.8c1.4-2.1-1.3-10.9-1.2-17.8c0-3.2,2.3-5.8,2.9-8.2
					c0.5-2.1,3.4-4.3,5.2-5.4c1.7-1.1,3.8-1.3,5.7-0.6c2.3,0.8,4.3,2.5,6.6,2.7c1.8,0.1,4.6,0,6.5,0c3.5,0,3.9-3.5,7-3.9
					c0.8,0.9,1.7,1.7,2.7,2.5c1.7,1.6,3,3.6,3.6,5.8c0.6,2.5,2.5,3.3,3.5,6.4c2,6,0.2,11.2,1.7,13.2c0.7,0.9,3.2,6,2.7,7
					c-2.3,4.2-1,0.5-2.9,8.9c-0.8,3.4-1.5,6.8-1.9,9.9c-0.3,2.4-1.2,4.8-2.7,6.7c-2.5,3.2-5.5,3.8-4,4.1
					c0.6,0.1-12.9,18.1-12.8,20.5c0.1,1.6,9.6-5.5,10.8-8c1-1.9,0.6,5,1.9,5.3c5.8,1.2,6.4-12.5,6.8-10.3c0.2,1.2,6.1,4.4,7,3.1
					c2.6-4-3.4-8.6-2.7-12c0.2-0.8,1,0.3,1-0.7c-1.4-16.2-0.9-9.9-1-14.2c0-1.3,2.8-1.5,2.4-5.5c-0.5-4.6,3.6-0.5,4.1-3.1
					c0.3-1.5,6,3.4,4.3-8.7c0.4-2.2-3.3-8.2-7.2-12.8c-1.4-1.7,0.1-6.1-0.7-8.4c-1.1-3.3-3.6-4.6-2.9-5.3c0.2-0.2,4.1,4.1,4.6,4.1
					c5.8,0-0.7-6.5-1.2-8s-5.9-6.3-6.3-6.8c0.9-0.7-7.2-2.1-7.2-2.9c0-2.1,1.2-0.5,3.8-1.7c3-0.4,0-2.9-0.7-3.1
					c-3.6-1.2-6-2.6-12.3-2.6c-3.7,0-9.2,1-9.2,0.7c0-0.9-5.5-5.2-9.3-5.7c-2.1-0.2-6.7-2.9-9.4-2.9c-7.5,0-6.3,0.8-6.3,2.2
					c0,1,21,3.1,2.4,5.3c-1.7,1-5.5,4.3-6.8,6.3c-0.1,0.2-14,11.1-14,11.3c-2.4,2.6,7.7-1.2,0.5,7c-2.3,2.5,4.5,0.2,3.4,3.8
					c-0.9,3-8.2,5.1-8.2,8c0,2.2,3.4,0.5,1.7,4.6c-0.9,2.2,2.7,1.9,2.9,3.4c1.9-0.1-6.3,12-6.3,13c-1.2,1.4,7.9-0.5,6.3,1l-3.2,8
					c-0.4,0.9-0.4,2-0.1,2.9L1514.1,565.7z"/>
				<path class="st3" d="M1545,531.7c0-0.9,2.9-1.7,6.8-1.7c1.5,0,4.6,1.2,5.8,1.5c0.6,0.1,1.6,1.4,2.3,2.5c0.9,1.7,1.6,3.5,2,5.4
					c0,0.6-2.6-3.1-4.7-2.8c-1,0.2-3.9-2.8-5.2-2.8c-1.5,0-2.8-1.4-4-1.6C1546.2,532,1545,532.2,1545,531.7z"/>
				<path class="st3" d="M1569.9,539.5c0-0.5,2.2-6.4,3.8-6.7c1.4-0.4,2.8-0.7,4.2-0.8c3.9,0,4.9,0.4,4.9,1.3c0,0.6,0.8,1.4-1,1.7
					c-1.3,0.2-2.7,0.4-4,0.4c-1.5,0-4.2,1.4-5.2,2C1571.1,538.5,1569.9,540.1,1569.9,539.5z"/>
				<path class="st5" d="M1560.7,564.9c0.6,3.1,2.7,5.3,3.8,5.1s1.8-4.6,1.2-7.7c-0.2-0.8-0.5-1.7-0.9-2.4c-0.4-1-1.5-1.6-2.5-1.2
					c-0.7,0.1-2.5-0.6-2.6,0.9C1559.9,561.3,1560.3,563.1,1560.7,564.9z"/>
				<path class="st5" d="M1566.6,563.6c0,1.9-1.4,6.3-0.6,6.3s3.6-4.4,3.6-6.3c0-0.5,0.5-0.2,0.4-0.6c-0.2-1.1,0.6-2.3,0.3-2.8
					c-0.4-0.8-4.2-2.5-4.5-1.2C1565.6,559.6,1566.6,562.7,1566.6,563.6z"/>
				<path class="st6" d="M1563.2,569.7c-2-1.7-4-7.8-3.8-10.3c0-0.3,0.2-0.7,0.5-0.9c0.8-0.6,2.5-0.3,3.7,0c0.3,0.1,0.7,0.1,1,0.2
					l0,0l0.1-0.1h0.3v0.2c0,0.1,0,0.1,0,0.2c0,0.2,0.1,0.7,0.2,1.2c0.6,3,1.8,9.4-0.7,10h-0.2C1563.8,570.2,1563.5,570,1563.2,569.7
					z M1563.5,559c-1.1-0.2-2.7-0.5-3.3,0c-0.2,0.1-0.3,0.3-0.3,0.5c-0.2,2.4,1.8,8.3,3.6,9.9c0.2,0.3,0.6,0.4,0.9,0.3
					c2.1-0.5,0.9-6.8,0.4-9.4c-0.1-0.5-0.2-0.9-0.2-1.1C1564.2,559.2,1563.9,559.1,1563.5,559z"/>
				<path class="st6" d="M1565.9,570.2c-0.2-0.1-0.7-0.2,0.4-6.5l-0.9-4.7l0.1-0.1c0.3-0.3,0.7-0.6,1.1-0.6c1.4-0.1,3.4,1.4,3.8,1.8
					s0.3,0.9,0.1,1.5c-0.2,0.5-0.3,1-0.3,1.5c-0.2,1.6-3,6.5-3.9,7.1C1566.2,570.2,1566.1,570.2,1565.9,570.2L1565.9,570.2z
					 M1566.6,558.7c-0.3,0-0.5,0.1-0.7,0.3l0.8,4.6l0,0c-0.4,2-0.7,4-0.7,6c0.8-0.7,3.4-5.2,3.6-6.7c0.1-0.6,0.2-1.1,0.3-1.6
					c0.2-0.6,0.2-0.8,0-1C1569.1,559.5,1568,558.9,1566.6,558.7L1566.6,558.7z"/>
				<path class="st36" d="M1557.2,560.4c0.1,0,0.1,0,0.2-0.1c4.1-2.7,9.5-2.7,13.7,0c0.2,0.1,0.4,0.1,0.5-0.1
					c0.1-0.2,0.1-0.4-0.1-0.5l0,0c-4.4-2.9-10.1-2.9-14.5,0c-0.2,0.1-0.2,0.3-0.1,0.5c0,0,0,0,0,0
					C1556.9,560.3,1557,560.4,1557.2,560.4z"/>
				<path class="st11" d="M1555.8,564.3c0.2,0,0.3-0.1,0.4-0.3c0.6-7.1,1.5-10.8,2.8-11.4c0.7-0.4,1.7,0.2,2.8,0.8
					c1,0.7,2.1,1.2,3.3,1.4c1.7,0.2,5.8,0.2,6.5-3.8c0.3-1.7-5.5-15.5-6.2-17.1c-0.1-0.2-0.3-0.3-0.5-0.2c0,0,0,0,0,0
					c-0.2,0.1-0.3,0.3-0.2,0.5c2.5,5.9,6.3,15.6,6.1,16.7c-0.2,1.4-1.3,3.8-5.7,3.2c-1.1-0.2-2.1-0.7-3.1-1.3
					c-1.2-0.7-2.4-1.4-3.4-0.9c-1.6,0.8-2.5,4.3-3.2,12C1555.4,564.1,1555.6,564.3,1555.8,564.3
					C1555.8,564.3,1555.8,564.3,1555.8,564.3L1555.8,564.3z"/>
				<path class="st11" d="M1574.1,566.2c0.2,0,0.3-0.1,0.4-0.3c0.4-4.7-1-9.3-3.9-13c-0.1-0.2-0.3-0.2-0.5-0.1
					c-0.2,0.1-0.2,0.3-0.1,0.5c1.9,2.5,3.2,5.5,3.7,8.6c0.2,1.3,0.3,2.6,0.1,3.9C1573.7,566,1573.8,566.1,1574.1,566.2
					C1574,566.2,1574,566.2,1574.1,566.2L1574.1,566.2z"/>
				<path class="st11" d="M1549.2,551.4c0.9,0,1.8-0.2,2.7-0.6c1-0.4,1.9-1,2.8-1.6c0.1-0.1,0.1-0.4,0-0.5c0,0,0,0,0,0
					c-0.1-0.2-0.3-0.2-0.5-0.1c0,0,0,0,0,0c0,0-4.4,3.6-7.5,1.2c-0.2-0.1-0.4-0.1-0.5,0.1c-0.1,0.2-0.1,0.4,0.1,0.5
					C1547.1,551.1,1548.2,551.5,1549.2,551.4z"/>
				<path class="st11" d="M1579,553.4c0.1,0,0.2-0.1,0.3-0.2c0.1-0.2,0.1-0.4-0.1-0.5c0,0,0,0,0,0c-2.4-1.6-3.2-5.6-3.2-5.6
					c0-0.2-0.2-0.3-0.4-0.3c0,0,0,0,0,0c-0.2,0-0.3,0.2-0.3,0.4c0,0,0,0,0,0c0,0.2,0.8,4.3,3.5,6.1
					C1578.9,553.4,1578.9,553.4,1579,553.4z"/>
				<path class="st11" d="M1560.9,582c3.8,0,7.7-2.3,11.5-6.8c0.1-0.2,0.1-0.4,0-0.5s-0.4-0.1-0.5,0l0,0c-4.1,4.9-8.3,7.1-12.3,6.5
					c-7.8-1.2-12.7-12.6-12.7-12.7c-0.1-0.2-0.3-0.3-0.5-0.2c0,0,0,0,0,0c-0.2,0.1-0.3,0.3-0.2,0.5c1,2.1,2.1,4.2,3.5,6.1
					c3,4.1,6.4,6.6,9.8,7.1C1560,582,1560.5,582,1560.9,582z"/>
				<g class="st38">
					<path class="st11" d="M1560.6,585.8c1.8,0,3.5-0.4,5.2-1.1c0.2-0.1,0.3-0.3,0.2-0.5s-0.3-0.3-0.5-0.2l0,0
						c-7,3.4-16.2-2.7-16.2-2.8c-0.2-0.1-0.4-0.1-0.5,0.1c0,0,0,0,0,0c-0.1,0.2-0.1,0.4,0.1,0.5c1.8,1.1,3.7,2.1,5.7,2.8
						C1556.4,585.4,1558.4,585.8,1560.6,585.8z"/>
				</g>
				<g class="st38">
					<path class="st11" d="M1557.2,586.4c0.3,0,0.7-0.1,1-0.2c0.3-0.2,0.5-0.5,0.5-0.8c0-0.2-0.1-0.4-0.3-0.4c0,0,0,0,0,0
						c-0.2,0-0.4,0.1-0.4,0.3c0,0,0,0,0,0c0,0.1-0.1,0.2-0.2,0.3c-1.3,0.8-7.6-1.7-11.2-3.5c-0.2-0.1-0.4,0-0.5,0.2c0,0,0,0,0,0
						c-0.1,0.2,0,0.4,0.2,0.5c0,0,0,0,0,0c0,0,2.4,1.2,5.1,2.2C1553.3,585.8,1555.2,586.3,1557.2,586.4z"/>
				</g>
				<path class="st21" d="M1547.3,545c0.8,1.6,2.6,2.4,4.2,1.8c1.6-0.4,2.3-0.9,2.3-2.2c0-0.2,1.3-0.4,1.3-0.5
					c-0.2-1.1-2.6-2.5-4-2.9c-1.5-0.5-5.4,1.1-5.7,1.9C1545.3,543.5,1547.1,544.5,1547.3,545z"/>
				<path class="st21" d="M1576.6,546.3c0,1.6,2.1,2.4,3.7,2.4c1,0.1,2-0.4,2.7-1.2c0.3-0.4,0.7-0.9,0.7-1.4s1-0.6,0.8-1
					c-0.5-1-3-2.2-4.2-2.2s-3.1,0.4-3.4,1.6C1576.7,545.1,1576.6,545.7,1576.6,546.3z"/>
				<circle class="st36" cx="1580.1" cy="545.6" r="2.1"/>
				<circle class="st36" cx="1550.5" cy="543.4" r="2.1"/>
				<circle cx="1580.1" cy="545.6" r="1"/>
				<circle cx="1550.5" cy="543.4" r="1"/>
			</g>
			<polygon class="st30" points="1912.9,614.1 1436.9,599.5 1296.3,650.3 1685.7,691 			"/>
			<path class="st3" d="M1405.1,653.2c-0.2,1.8-20.2,1.3-43.3-0.9c-21.9-2.2-38.7-5.2-38.5-6.8s17.3-1.4,39.2,0.5
				C1385.7,648.1,1405.3,651.4,1405.1,653.2z"/>
			<path class="st3" d="M1493.6,645.8c-0.2,2-24.4,1.7-52.3-0.6c-26.3-2.1-46.3-5.2-46.1-7s20.6-1.8,46.9,0.2
				C1470,640.4,1493.8,643.8,1493.6,645.8z"/>
			<path class="st3" d="M1568.2,668.6c-0.3,2.2-28.4,1.2-60.8-2c-30.3-3-53.4-6.8-53.1-8.7s23.7-1.4,54,1.4
				C1540.8,662.2,1568.5,666.5,1568.2,668.6z"/>
			<path class="st3" d="M1804.8,642.3c-0.3,2.7-42.5,2.3-90.5-0.5c-44.3-2.6-77.7-6.5-77.4-8.8s34.1-2.4,78.4-0.1
				C1763.4,635.4,1805.1,639.7,1804.8,642.3z"/>
			<path class="st3" d="M1488.8,624.8c-0.2,2-24.1,2.2-51.7,0.5c-26-1.5-45.8-4.2-45.6-6s20.4-2.2,46.4-0.8
				C1465.5,619.9,1489,622.8,1488.8,624.8z"/>
			<path class="st3" d="M1739.7,668.4c-0.3,2.5-35.8,1.6-76.5-1.8c-37.9-3.2-66.6-7.5-66.3-9.7s29.4-1.8,67.4,1.1
				C1705,661.1,1740,665.9,1739.7,668.4z"/>
			<path class="st3" d="M1630.7,642.9c-0.3,2.3-31.8,2-67.9-0.5c-33.8-2.3-59.3-5.8-59.1-7.8s26.2-2.1,60,0
				C1599.9,636.8,1631,640.6,1630.7,642.9z"/>
			<path class="st3" d="M1784.2,622.9c-0.3,2.6-41.1,2.9-87.5,0.8c-43-1.9-75.3-5.2-75-7.5s33.1-2.9,76.1-1.3
				C1744.2,616.7,1784.5,620.3,1784.2,622.9z"/>
			<path class="st3" d="M1566.2,614c-0.3,2.2-28.1,2.7-60.2,1.2c-30-1.3-52.9-3.9-52.7-5.8s23.4-2.6,53.5-1.5
				C1539,609.1,1566.4,611.9,1566.2,614z"/>
			<g>
				<path class="st39" d="M1630.7,491.1l-16.3,7.9l-25.6,58.9l-12.2-54.9l-9.9-0.4l30.3-15.2l-11,11.3l7.9,33l14.7-33.2l-10.9-7.1
					L1630.7,491.1z"/>
				<path class="st39" d="M1693.7,532.5c1,5.5,0.3,10.2-2.1,14c-2.4,3.8-5.8,6.9-9.8,8.9c-4.1,2.1-8.6,3.4-13.2,4
					c-4.2,0.6-8.4,0.7-12.7,0.3c-4.7-0.5-9.4-1.8-13.7-3.8c-4.1-1.9-7.9-4.4-11.2-7.5l-7.2,18.7l2.9-42.1c1.5,6,4.8,11.5,9.3,15.7
					c4.8,4.4,11.1,7.1,17.6,7.4c1.6,0.1,3.1,0,4.7-0.2c1.8-0.2,3.6-0.6,5.2-1.3c1.6-0.7,3-1.7,4.2-3c1.1-1.3,1.6-3.1,1.3-4.8
					c-0.3-2.5-1.6-4.7-3.5-6.3c-2-1.7-4.3-3.2-6.7-4.3c-2.3-1.1-4.8-1.9-7.3-2.6c-2.4-0.6-4.2-1-5.6-1.3c-2.8-0.5-5.7-1.2-8.8-2.1
					c-2.9-0.8-5.6-2-8.2-3.5c-2.3-1.4-4.3-3.2-5.9-5.4c-1.6-2.3-2.3-5.1-2.2-7.9c-0.1-3.2,0.7-6.4,2.2-9.2c1.4-2.5,3.3-4.7,5.6-6.5
					c2.4-1.9,5-3.3,7.8-4.4c2.9-1.2,5.9-2,9-2.7c4.1-0.9,8.3-1.2,12.5-0.9c4.6,0.4,9.1,1.3,13.4,2.7l9.6-14.3l1.5,35.8
					c-2.6-2.8-5.5-5.4-8.6-7.7c-2.9-2.1-6-3.9-9.2-5.4c-3-1.3-6.2-2.3-9.4-2.8c-3-0.5-6.1-0.5-9.2,0c-1.2,0.2-2.4,0.6-3.6,1
					c-1.3,0.5-2.6,1.2-3.8,1.9c-1.1,0.7-2.2,1.7-3,2.7c-0.8,1-1.2,2.3-1.1,3.6c0,1.3,0.6,2.4,1.7,3.1c1.2,0.8,2.5,1.5,3.9,1.9
					c1.6,0.4,3.1,0.8,4.7,1c1.6,0.2,3,0.4,4,0.5c3.1,0.4,6.7,1,11.1,1.8c4.6,0.9,9.2,2.2,13.5,4c4.7,1.9,9,4.5,12.8,7.7
					C1690.2,522.8,1692.8,527.4,1693.7,532.5z"/>
			</g>
			<polygon class="st14" points="1928.7,363.5 1928.7,662.9 1905.2,677.7 1671.3,810.5 1685.7,691 1905.2,617.1 1905.2,351 			"/>
			<polygon class="st14" points="1707.1,1139.4 1673,1163.9 1673,798.4 1706.2,780.4 			"/>
			<polygon class="st14" points="1928.7,1026.5 1905.1,1054.5 1905.1,638.2 1928.1,617.7 			"/>
			<rect x="1625.9" y="785.2" class="st9" width="47.1" height="378.7"/>
			<rect x="1287.6" y="718.6" class="st9" width="47.1" height="378.7"/>
			<rect y="0" class="st40" width="1920" height="1018.2"/>
			<path class="st10" d="M455.5,256h967.9c9.5,0,17.2,7.7,17.2,17.1v463c0,9.5-7.7,17.2-17.2,17.2H455.5c-9.5,0-17.1-7.7-17.1-17.2
				v-463C438.4,263.7,446.1,256,455.5,256z"/>
			<path class="st41" d="M1423.4,264c5.1,0,9.2,4.1,9.2,9.1c0,0,0,0,0,0v463c0,5.1-4.1,9.2-9.2,9.2l0,0H455.5
				c-5.1,0-9.1-4.1-9.1-9.2l0,0v-463c0-5.1,4.1-9.1,9.1-9.1L1423.4,264 M1423.4,248H455.5c-13.9,0-25.1,11.3-25.1,25.1v463
				c0,13.9,11.3,25.2,25.1,25.2c0,0,0,0,0,0h967.9c13.9,0,25.2-11.3,25.2-25.1v0v-463C1448.6,259.3,1437.3,248,1423.4,248
				L1423.4,248L1423.4,248z"/>
			<path class="st42" d="M578.2,350.8c0,1.8-0.5,3.6-1.5,5.1c-1,1.6-2.3,3.1-3.8,4.4c-1.5,1.3-3.2,2.4-4.9,3.3
				c-1.6,0.8-3.2,1.5-4.9,1.9c1.6,0.5,3.1,1.2,4.5,1.9c1.5,0.8,2.9,1.8,4.1,2.9c1.2,1.1,2.2,2.4,2.9,3.9c0.7,1.5,1.1,3.2,1.1,4.9
				c0,2-0.7,4-2,5.6c-1.5,1.7-3.2,3-5.2,4c-2.3,1.2-4.6,2.1-7.1,2.8c-2.6,0.7-5.2,1.3-7.8,1.8s-5.1,0.8-7.4,1.1l-5.7,0.6l-33,3.6
				l18.5-10.9l-3.8-44.1L505,333.4l40.2,0.8c1.6,0.1,3.6,0.2,5.8,0.4s4.7,0.5,7.1,1c2.5,0.5,4.9,1.1,7.2,1.9c2.3,0.7,4.4,1.7,6.5,3
				c1.8,1.1,3.4,2.6,4.6,4.4C577.6,346.6,578.2,348.7,578.2,350.8z M564.7,350.8c0-1.2-0.4-2.3-1.1-3.2c-0.8-1-1.9-1.7-3-2.3
				c-1.3-0.7-2.7-1.2-4.1-1.6c-1.5-0.4-3-0.8-4.5-1c-1.4-0.2-2.8-0.4-4.2-0.5c-1.3-0.1-2.3-0.1-3.2-0.1c-1.3,0-2.6,0-3.9,0.1
				s-2.6,0.2-3.8,0.3l0.5,17c1.1,0.1,2.3,0.2,3.4,0.3s2.3,0.1,3.4,0.1c1.3,0,3.1-0.1,5.3-0.4c2.3-0.2,4.5-0.7,6.7-1.3
				c2.1-0.6,4.1-1.5,5.8-2.8C563.8,354.5,564.7,352.7,564.7,350.8z M560.3,377.6c0-1.2-0.4-2.4-1.2-3.3c-0.9-1-2-1.8-3.2-2.4
				c-1.4-0.7-2.9-1.3-4.4-1.7c-1.6-0.4-3.2-0.8-4.8-1c-1.6-0.2-3.1-0.4-4.4-0.5s-2.5-0.2-3.3-0.2h-0.2l0.7,19.2
				c0.8-0.1,1.9-0.2,3.3-0.4c1.4-0.2,2.8-0.5,4.4-0.8c1.6-0.4,3.2-0.8,4.7-1.4c1.5-0.5,2.9-1.2,4.3-1.9c1.2-0.7,2.2-1.5,3.1-2.5
				C559.9,379.9,560.3,378.7,560.3,377.6L560.3,377.6z"/>
			<path class="st42" d="M610.3,393.3l-36.8,1.4l13.8-8.8l-2.7-61.1l-19-7l34.2-0.4l-2.4,68.1L610.3,393.3z"/>
			<path class="st42" d="M662.9,368.8c0.1,3.4-0.9,6.7-2.8,9.4c-1.9,2.6-4.3,4.7-7.1,6.2c-2.9,1.6-6.1,2.8-9.4,3.5
				c-3.2,0.7-6.4,1.1-9.7,1.1c-3.2,0-6.3-0.4-9.4-1.1c-3.2-0.7-6.2-1.9-9-3.5c-2.7-1.6-5-3.7-6.7-6.3c-1.8-2.7-2.7-6-2.6-9.2
				c-0.1-3.5,0.9-6.9,2.8-9.8c1.9-2.6,4.3-4.7,7.2-6.1c3-1.5,6.2-2.6,9.5-3.1c3.3-0.6,6.7-0.9,10.1-0.9c3.1,0,6.2,0.4,9.3,1.1
				c3.1,0.7,6.1,1.9,8.8,3.5c2.6,1.5,4.9,3.7,6.5,6.2C662.1,362.4,663,365.6,662.9,368.8z M649.6,368.7c0-3.6-1.4-7.1-4.1-9.5
				c-1.3-1.2-2.8-2.1-4.4-2.8c-1.7-0.7-3.5-1-5.3-1c-2,0-3.9,0.3-5.8,0.9c-1.9,0.5-3.6,1.4-5.2,2.5c-1.5,1.1-2.8,2.5-3.8,4.1
				c-1,1.7-1.5,3.6-1.5,5.6c0,2,0.3,3.9,1,5.7c0.6,1.7,1.6,3.2,2.9,4.4c1.3,1.3,2.8,2.2,4.5,2.9c1.8,0.7,3.8,1,5.7,1
				c2.1,0,4.2-0.2,6.3-0.8c1.8-0.5,3.6-1.3,5.1-2.5c1.5-1.1,2.6-2.6,3.4-4.3C649.2,372.9,649.6,370.8,649.6,368.7L649.6,368.7z"/>
			<path class="st42" d="M721.2,368.8c0.1,3.4-0.9,6.7-2.8,9.4c-1.9,2.6-4.3,4.7-7.1,6.2c-2.9,1.6-6.1,2.8-9.4,3.5
				c-3.2,0.7-6.4,1.1-9.7,1.1c-3.2,0-6.3-0.4-9.4-1.1c-3.2-0.7-6.2-1.9-9-3.5c-2.7-1.6-5-3.7-6.7-6.3c-1.8-2.7-2.7-6-2.6-9.2
				c-0.1-3.5,0.9-6.9,2.8-9.8c1.9-2.6,4.3-4.7,7.1-6.1c3-1.5,6.2-2.6,9.5-3.1c3.3-0.6,6.7-0.9,10-0.9c3.1,0,6.2,0.4,9.2,1.1
				c3.1,0.7,6.1,1.9,8.8,3.5c2.6,1.5,4.8,3.7,6.5,6.2C720.4,362.4,721.3,365.6,721.2,368.8z M707.9,368.7c0-3.6-1.4-7.1-4.1-9.5
				c-1.3-1.2-2.8-2.1-4.4-2.8c-1.7-0.7-3.5-1-5.3-1c-2,0-3.9,0.3-5.8,0.9c-1.9,0.5-3.6,1.4-5.2,2.5c-1.6,1.1-2.8,2.5-3.8,4.1
				c-1,1.7-1.5,3.6-1.5,5.6c0,2,0.3,3.9,1,5.7c0.6,1.7,1.6,3.2,2.9,4.4c1.3,1.3,2.8,2.2,4.5,2.9c1.8,0.7,3.8,1,5.7,1
				c2.1,0,4.2-0.2,6.3-0.8c1.8-0.5,3.6-1.3,5.1-2.5c1.5-1.1,2.6-2.6,3.4-4.3C707.5,372.9,707.9,370.8,707.9,368.7L707.9,368.7z"/>
			<path class="st42" d="M788.6,398.1l-28,3.9l0.4-7c-1.6,0.4-3.2,0.7-4.8,0.8c-1.6,0.2-3.2,0.2-4.8,0.2c-3.2,0-6.4-0.4-9.6-1.1
				c-3.1-0.7-6-1.9-8.7-3.5c-2.5-1.6-4.7-3.8-6.3-6.3c-1.7-2.9-2.5-6.1-2.4-9.5c-0.1-2.8,0.6-5.6,1.9-8.1c1.3-2.4,3-4.5,5.1-6.1
				c2.1-1.7,4.6-3,7.2-3.9c2.6-0.9,5.4-1.4,8.2-1.4c2.8,0,5.6,0.3,8.3,0.8c2.7,0.5,5.3,1.4,7.8,2.5l1.5-27.9l-17.8-8.5l33.3,2.3
				l-8.7,68.4L788.6,398.1z M762.5,367c-1.8-1.2-3.7-2-5.8-2.3c-2.1-0.5-4.2-0.7-6.3-0.7c-1.8,0-3.7,0.3-5.4,1
				c-1.6,0.6-3,1.5-4.2,2.8c-1.2,1.2-2.1,2.7-2.7,4.2c-0.7,1.7-1,3.5-1,5.4c0,1.9,0.5,3.8,1.5,5.5c1,1.5,2.4,2.8,4,3.8
				c1.6,1,3.4,1.7,5.3,2.2c1.8,0.4,3.7,0.7,5.6,0.7c2.7,0,5.5-0.6,8-1.6L762.5,367z"/>
			<path class="st42" d="M832,350.2l-2,48.1c-0.1,3.8-0.8,7.5-2,11.1c-1,3.2-2.7,6.1-4.9,8.6c-2.2,2.4-4.9,4.3-8,5.5
				c-3.5,1.3-7.3,2-11.1,1.9c-2.4,0-4.9-0.4-7.2-1c-2.4-0.7-4.6-1.7-6.6-3.1c-1.9-1.3-3.6-3.1-4.8-5c-1.3-2.1-1.9-4.5-1.9-7
				c-0.1-1.9,0.6-3.7,1.9-5c1.3-1.3,3.1-2.1,5-2c1.7,0,3.3,0.7,4.4,1.9c1.1,1.2,1.8,2.8,1.8,4.4c0,1.1-0.3,2.1-1,3
				c-0.6,0.9-1.4,1.5-2.4,2c1.2,1.6,2.8,2.8,4.6,3.6c1.8,0.8,3.7,1.2,5.7,1.2c2.4,0.1,4.8-0.6,6.8-2.1c1.7-1.4,3-3.2,3.9-5.2
				c0.9-2.2,1.6-4.5,1.9-6.8c0.4-2.5,0.6-4.8,0.8-6.9c0.1-2.2,0.2-4.4,0.2-6.5s0.1-4.3,0.2-6.4c-2.5,0.7-4.9,1.2-7.1,1.7
				c-2.4,0.5-4.7,0.7-7.2,0.7c-2.5,0-5.1-0.3-7.6-0.9c-2.3-0.5-4.4-1.5-6.3-2.8c-1.8-1.3-3.3-3-4.3-5c-1.1-2.3-1.7-4.9-1.6-7.4
				c0-1.1,0.2-2.2,0.5-3.3c0.3-1.4,0.7-2.8,1-4.2s0.8-2.9,1.2-4.2s0.8-2.4,1-3.1l-11.5-12.8l27.7,9.5c-0.3,0.9-0.8,2.2-1.3,4
				s-1.1,3.5-1.7,5.4s-1.1,3.6-1.5,5.3c-0.4,1.2-0.6,2.5-0.6,3.8c0,1.2,0.3,2.4,1,3.5c0.6,1,1.5,1.8,2.5,2.4c1,0.7,2.1,1.1,3.3,1.4
				c1.2,0.3,2.4,0.4,3.6,0.5c1.6,0,3.2-0.2,4.7-0.4c1.6-0.2,3.2-0.7,4.7-1.3l0.2-20.1l-15.3-9.9L832,350.2z"/>
			<path class="st42" d="M924.5,394.1l-33.8-1l11.5-6.2v-14.7c0-3.3-0.9-5.9-2.6-7.8s-4.2-2.8-7.6-2.8c-1.6,0-3.2,0.2-4.7,0.4
				c-1.6,0.2-3.1,0.7-4.5,1.4c-0.2,3.1-0.3,6.1-0.5,9.2s-0.2,6.1-0.4,9.2l10.3,6.2l-33.8,1.4l13-7.2l-2.1-54.3l-19.9-5.2l35.4-5.2
				l-1.7,38.8c1.3-0.4,2.7-0.7,4.1-0.9c1.4-0.2,2.8-0.2,4.2-0.2h0.3c2.5,0,5,0.2,7.5,0.7c2.6,0.4,5.1,1.2,7.5,2.3
				c2.2,1.1,4.2,2.6,5.7,4.5c1.6,2.1,2.4,4.6,2.3,7.2c0,1.3-0.1,2.5-0.3,3.8c-0.2,1.5-0.4,3.1-0.7,4.7s-0.6,3.2-0.9,4.6
				s-0.6,2.7-0.8,3.7L924.5,394.1z"/>
			<path class="st42" d="M965.4,373.7c0,0.4,0,0.8,0,1.1s0,0.8,0,1.1l-32.9,0.6c0.5,2.9,2.3,5.4,4.8,7c2.5,1.5,5.4,2.3,8.4,2.3
				c1.5,0,3.1-0.1,4.6-0.3c1.6-0.2,3.1-0.6,4.6-1c1.5-0.5,2.9-1.1,4.3-1.9c1.3-0.8,2.6-1.7,3.6-2.8c-0.6,2.2-1.6,4.2-3,6
				c-1.4,1.7-3.1,3.2-5,4.3c-1.9,1.1-4,2-6.2,2.5c-2.2,0.6-4.4,0.8-6.7,0.9c-2.9,0-5.9-0.5-8.6-1.6c-2.6-1-5-2.5-7.1-4.4
				c-4.3-4-6.7-9.6-6.6-15.4c0-3.1,0.6-6.2,2-9c1.3-2.6,3.1-5,5.3-6.9c2.3-1.9,4.9-3.4,7.7-4.4c2.9-1,6-1.5,9.1-1.5
				c3.1,0,6.2,0.6,9,1.9c2.6,1.2,4.9,2.9,6.8,5.1c1.9,2.2,3.4,4.7,4.3,7.5C964.9,367.5,965.4,370.6,965.4,373.7z M953.1,369.6
				c-0.1-1.4-0.4-2.8-0.9-4.2c-0.5-1.3-1.1-2.5-2-3.6c-0.9-1-1.9-1.9-3.1-2.5c-2.7-1.2-5.8-1.2-8.4,0c-1.2,0.6-2.2,1.4-3,2.4
				c-0.8,1-1.5,2.2-2,3.5c-0.5,1.3-0.9,2.7-1.2,4.1L953.1,369.6z"/>
			<path class="st42" d="M996.8,393.3l-36.8,1.4l13.8-8.8l-2.7-61.1l-19-7l34.2-0.4l-2.4,68.1L996.8,393.3z"/>
			<path class="st42" d="M1027.3,393.3l-36.8,1.4l13.8-8.8l-2.7-61.1l-19-7l34.2-0.4l-2.4,68.1L1027.3,393.3z"/>
			<path class="st42" d="M1066.4,383.5c0,0.9-0.2,1.8-0.7,2.5c-0.4,0.7-1,1.3-1.7,1.8c-0.7,0.5-1.6,0.9-2.4,1
				c-0.9,0.2-1.8,0.3-2.7,0.3c-0.9,0-1.9-0.1-2.8-0.4c-1-0.2-1.9-0.6-2.8-1.2c-0.8-0.5-1.5-1.2-2.1-1.9c-0.6-0.8-0.8-1.8-0.8-2.7
				c0-1,0.2-2,0.8-2.9c0.5-0.8,1.2-1.5,2.1-2c0.9-0.5,1.8-0.9,2.8-1.1c1-0.2,2-0.4,3-0.4c0.9,0,1.8,0.2,2.7,0.5
				c0.9,0.3,1.6,0.8,2.3,1.4c0.7,0.6,1.2,1.4,1.6,2.2C1066.2,381.5,1066.4,382.5,1066.4,383.5z M1075,319.8l-9.8,53.7l-9.6-1.1
				l2.2-53.9L1075,319.8z"/>
			<path class="st16" d="M1774.6,1008.7c0.9,12.3,2.7,22.3,0,22.5s-9-9.4-9.9-21.8s0.6-22.5,3.3-22.7S1773.8,996.4,1774.6,1008.7z"
				/>
			<path class="st26" d="M1766.6,1012.8c0.8,13,7.4,16.4,7.4,17.9c0.1,2.7-8.9-5.4-9.2-19.6c-0.3-12.4-2.7-17.9-2.1-16.9
				C1763.4,995.8,1765.8,1000.7,1766.6,1012.8z"/>
			<path class="st26" d="M1774.4,1006.6c0-2.8-0.3-12.6-0.3-11.8s3.2,10.4,3.2,13.2C1777.2,1008,1774.4,1007.6,1774.4,1006.6z"/>
			<g id="Malfoy">
				
					<ellipse transform="matrix(0.3392 -0.9407 0.9407 0.3392 290.303 1649.9777)" class="st29" cx="1319.6" cy="618.3" rx="28.9" ry="9.7"/>
				<path class="st34" d="M1547.3,1270.9c8.1-37.5,9.4-186.6,13.8-325.9c6.7,140.1,13.2,289.8,20.9,325.9
					c10,46.5,222.7,38.6,184.3,0c-70.4-70.8-53-535.6-80-571c-22.4-29.3-103.1-44.4-126.8,33.7c-20-70.8-73.6-75-94.5-47.6
					c-27,35.3-31.7,514-102.1,584.9C1324.6,1309.5,1537.3,1317.4,1547.3,1270.9z"/>
				<path class="st43" d="M1655.2,793c0,0,38.2,515.2,70.5,507.4"/>
				<path class="st43" d="M1663.8,788.7c0,0,38.2,515.2,70.5,507.4"/>
				<path class="st29" d="M1717.3,947.9c2.1,3.1,1.6,11.7,16.3,1.7s39.3-34.6,37.2-37.7s-15.7,2.5-30.5,12.4
					S1715.2,944.8,1717.3,947.9z"/>
				<path class="st16" d="M1784.3,1006.9c-4.5,4.5-17.7-2.2-24.4-10.8c-1.9-2.4-3.6-4.9-5.2-7.5c-14.9-0.5-23.1-11.5-23.1-28.7
					c0-17.6-25.5-42.6,19.6-48.7c15.4-2.1,10.9,18.3,22.1,32c7.6,9.3,3.9,27.1-4.2,37.4c0.4,3.8,1,8.1,3.1,11.8
					C1777.6,1001.9,1788,1003.2,1784.3,1006.9z"/>
				<path class="st27" d="M1770.1,911c0,0-51.8,21-51.3,38.9c0.3,10-81.9-263.8-56.4-309.7c0,0,46.9-15.3,46.7,8.6
					C1708.6,725.1,1742.8,832.1,1770.1,911z"/>
				<path class="st16" d="M1269,585.1c20.4-44.5,30.5-27.7,58.5,2.3c11.4,12.2,47.5,33.1,16.8,42.2c-45.1,13.4-27.4-6.8-43.8-9.5
					C1278.4,616.6,1259.5,605.9,1269,585.1z"/>
				
					<ellipse transform="matrix(0.8714 -0.4906 0.4906 0.8714 -112.9443 706.7111)" class="st26" cx="1291.4" cy="568.8" rx="7.1" ry="15.5"/>
				
					<ellipse transform="matrix(0.6222 -0.7828 0.7828 0.6222 30.7637 1220.6829)" class="st26" cx="1280.2" cy="578.5" rx="7" ry="15.5"/>
				
					<ellipse transform="matrix(0.6227 -0.7825 0.7825 0.6227 23.4057 1223.8562)" class="st26" cx="1280.6" cy="587.7" rx="7.1" ry="15.5"/>
				
					<ellipse transform="matrix(0.4296 -0.903 0.903 0.4296 187.0937 1496.6155)" class="st26" cx="1278.2" cy="600.2" rx="7.1" ry="15.5"/>
				
					<ellipse transform="matrix(0.8774 -0.4798 0.4798 0.8774 -114.2012 688.2758)" class="st16" cx="1289.6" cy="567.6" rx="6.7" ry="14.9"/>
				
					<ellipse transform="matrix(0.6338 -0.7735 0.7735 0.6338 25.0952 1203.4785)" class="st16" cx="1283.5" cy="575.2" rx="6.7" ry="14.8"/>
				
					<ellipse transform="matrix(0.6338 -0.7735 0.7735 0.6338 15.4846 1204.0935)" class="st16" cx="1279.4" cy="585.7" rx="6.7" ry="14.8"/>
				
					<ellipse transform="matrix(0.4399 -0.898 0.898 0.4399 178.377 1481.6396)" class="st16" cx="1277.1" cy="597.8" rx="6.8" ry="14.7"/>
				<path class="st26" d="M1290.1,593.9c1.7-1.8,1.3-4.8-0.7-6.7s-2.6,0.3-4.3,2.1s-3.8,2.5-1.7,4.4S1288.4,595.7,1290.1,593.9z"/>
				<path class="st26" d="M1294.7,583.5c1.7-1.8,1.3-4.8-0.8-6.7s-2.6,0.3-4.3,2.1s-3.8,2.5-1.7,4.4S1293,585.3,1294.7,583.5z"/>
				<path class="st26" d="M1288.3,606.1c1.7-1.8,1.3-4.8-0.8-6.7s-2.6,0.3-4.3,2.1s-3.8,2.5-1.7,4.4S1286.6,607.9,1288.3,606.1z"/>
				<path class="st27" d="M1441.7,709c-32.8,9.1-131.7-60.2-129.3-64.1c21.5-34.3,13.2-57.7,20.7-52.6
					c16.4,11.2,50.9,23.5,81.2,34.6c0.5-0.8,1.1-1.7,1.8-2.8c1.9-2.7,4.4-6,5.7-8c24.7-37.8,56.9-55.6,71.5-46
					S1447.3,707.4,1441.7,709z"/>
				<path class="st29" d="M1446.9,682.3c-6.7,7.6,17.1-48.6,6.2-58.1s-24.3-19.6-17.7-27.2s26.9-2.1,37.8,7.4
					S1453.6,674.7,1446.9,682.3z"/>
				<path class="st44" d="M1416,624.2c19.7,3.8,14.3,31.3,14.3,31.3"/>
				<path class="st44" d="M1429.9,670.4c0,0,0.2-36.9-13.9-43.9"/>
				<path class="st44" d="M1414.4,685c0,0,12.6-40.4,7.1-49.5"/>
				<path class="st29" d="M1660,716.3c3.3,9.6,2.6-51.5,16.3-56.2s36.1-6.1,32.8-15.7s-30.2-15-43.9-10.3S1656.7,706.7,1660,716.3z"
					/>
				<path class="st11" d="M1664,641.1c-23.3,36,15.4,126.1,9.8,144.6c-2.8,9.2-75.1,15.8-131.4,9s-151.8-35.1-125.8-51.9
					c14-9.1,33.7-69.3,54.4-129.7c-18.1-13.5-55.4-12.3-49.2-21.2c23.7-33.8,58.3-100.6,58.3-100.6c1.4,0.5,51.3-10.3,52.6-9.6
					c0.1-0.1,0.3-0.1,0.4-0.2c29.6,53.1,98.1-0.1,103.3-0.2c61.4-1.2,80.8,145.1,88.9,161.7C1728.3,648.6,1699.6,648.5,1664,641.1z"
					/>
			</g>
			<path class="st16" d="M1686.4,351.3c-13.6,19.1-35.2,36.9-58.9,52c-3.1,34-5.5,68.2,5.2,78c30.2,27.7-122,33-99.4,6.3
				c5.2-6.2,11.3-24.6,18.5-47c-25.8,9.3-45.7,12.5-50,7.4c-26.7-31.8-32.1-73-33.3-90.7c-0.4-4.9,1.4-9.8,4.9-13.4
				c27.5-27.8,30.8-180.9,163.9-155.7C1697,199.6,1736,281.9,1686.4,351.3z"/>
			<path class="st26" d="M1510.9,354.8c0-2.4,4.9-4.4,5.5-6c0.8-2.2,4.3,1.9,4.3,4.3c0,2.4-1.9,4.3-4.3,4.3l0,0
				C1514,357.4,1510.9,357.1,1510.9,354.8z"/>
			<ellipse class="st26" cx="1489.7" cy="341.3" rx="2.3" ry="2.7"/>
			<path class="st17" d="M1510.7,356.4c-3.6,0-16.4-2.5-20.4-7.9c-1.3-1.7-2.2-4.5,0.2-8.1c2.3-3.4,6.9-8.9,12.1-15.3
				c12.5-15.2,35.6-43.4,31.4-49.4c-0.4-0.6-0.3-1.5,0.3-1.9c0.6-0.4,1.5-0.3,1.9,0.3l0,0c5,7-11.3,28-31.5,52.6
				c-5.2,6.4-9.7,11.9-12,15.1c-1.5,2.2-1,3.7-0.5,4.5c2.8,4.6,14.8,7,18,7.2c0.4-0.3,0.8-0.3,1.2-0.1c0.7,0.2,1.1,0.8,1.1,1.5
				c0,0.6-0.4,1.1-1,1.3C1511.3,356.4,1511,356.4,1510.7,356.4z"/>
			<path class="st17" d="M1524.9,364.1c-0.7,0-1.4-0.6-1.4-1.3c0-0.5,0.3-1,0.7-1.2c0.1,0,6.3-3.4,6.7-8.4c0.2-3.2-2.1-6.6-6.8-10.1
				c-0.6-0.4-0.7-1.3-0.3-1.9s1.3-0.7,1.9-0.3c5.6,4,8.2,8.2,7.9,12.5c-0.5,6.5-7.8,10.4-8.1,10.5
				C1525.3,364,1525.1,364.1,1524.9,364.1z"/>
			<path class="st17" d="M1483.7,344.3c-0.1,0-0.2,0-0.2,0c-0.7-0.1-1.2-0.8-1.1-1.5c0,0,0,0,0,0c0.1-0.4,1.6-8.6,6.6-10.5
				c2.4-0.9,5.1-0.3,8,2c0.6,0.4,0.7,1.3,0.3,1.9c0,0,0,0,0,0c-0.5,0.6-1.3,0.7-1.9,0.2c-2.1-1.6-3.9-2.1-5.4-1.6
				c-3,1.2-4.5,6.5-4.9,8.5C1484.9,343.9,1484.3,344.3,1483.7,344.3z"/>
			<path class="st26" d="M1584.8,427c19.8,4.3,26.5,21.9,40.3,38.7c3,3.7-1.9-35.5,2.4-62.4L1584.8,427z"/>
			<path class="st26" d="M1551.6,440.4c3.9-0.3,24.7-9.4,27.3-10.6c0.1-0.1,0.3,0,0.3,0.1c0,0,0,0.1,0,0.1
				c-0.3,3.7-23.6,31.5-35.2,36.4c-0.1,0.1-0.3,0-0.4-0.1c0-0.1,0-0.1,0-0.2l7.7-25.5C1551.4,440.5,1551.5,440.4,1551.6,440.4z"/>
			<ellipse class="st20" cx="1584.5" cy="326.4" rx="21.6" ry="19.9"/>
			<circle class="st21" cx="1581.9" cy="330.7" r="14.3"/>
			<circle class="st11" cx="1579.4" cy="332.1" r="9.3"/>
			<circle cx="1578.9" cy="332" r="5.6"/>
			<path class="st45" d="M1708.1,318.5c3.2,33.5-54.6,81.4-69,67.4c-5.4-5.2,42.1-22.3,39.7-48.7c-1.7-18.7-20.2,0.5-18.8-3.3
				c0.7-2,7-31.4,7.2-33.4c1.3-14.8-12.9-33.3-18.4-39.2c-5.7-6.1-17.8-4.6-23.6-7.6c-0.8-0.8-50.2,7.2-59.1-6.3
				c-26-39.6-44.2-7.3-42.5-21.3c5-42.9,73.2-46.6,92.5-41.1c13.8-7,33.6,7.8,62,18.2c32,11.8,39.6,55.1,41.7,70.4
				C1723.3,282.3,1707,306.9,1708.1,318.5z"/>
			<path class="st1" d="M1619.2,321.4c0,4.9-9.4-12.8-23.1-16.1c-14.3-3.5-33.2,1.3-33.2-3.6s5.1-4.6,19.1-4.6
				C1608,297.1,1619.2,317.3,1619.2,321.4z"/>
			<path class="st1" d="M1510.1,264.8c-1.1-2-0.8-3.1-1.3-4.7c-1.9,2.6-3.4,5.4-4.3,8.5c4.8,8.7,8.1,16.7,11,15.1
				C1519.7,281.3,1516.9,277.1,1510.1,264.8z"/>
			<path class="st46" d="M1514.8,301.8c2.2-11.8-12.2-17.9-12.2-17.9"/>
			<path class="st46" d="M1501.2,292.1c0,0,11.2,4.5,11.7,9.7"/>
			<path class="st27" d="M1555.1,369.9c2.2,19.6-16.6,32.1-29.8,32.4c-17.4,0.3-27.5-13.8-23.2-24c2.5-6,12.3,0.1,25.2,0.1
				S1554.4,363.5,1555.1,369.9z"/>
			<path class="st47" d="M1551.9,377.6c-1.5,3.5-6.9,4.9-6.9,4.9c1.8,2.3-6.6,3.8-7.2,5.9s-6.9-1-6.9-1s-1.4,4.1-3.7,4.4
				s-5.1-3.5-5.1-3.5"/>
			<path class="st48" d="M1525.2,401.3c-3.8,2.1,11.4-1.6,18.9-6.6c10.9-7.3,12.7-24.7,9.8-26.4c-1.7-1-6.7,20.3-11.7,23.7
				S1535.4,395.6,1525.2,401.3z"/>
			<path class="st49" d="M1554.7,365.2c-19.8,23-52.8,9.3-52.8,9.3s-5.8,33.8,27.7,27.1S1554.7,365.2,1554.7,365.2z"/>
			<path class="st12" d="M1302.7,592.2c-10,45.1-18.1,81.7-78.7,68.3c-57.4-12.7-49.5-49.6-37.8-94.4c24.4-93.3,40.4-76.4,73.9-69
				S1323.6,497.8,1302.7,592.2z"/>
			<path class="st41" d="M1200.9,571.3c-6.4,27.5-15.5,50-19.6,48c-6.5-3.2-3.2-20.2,4-49.7c6.3-26,14.8-51.1,19.2-50.1
				S1207.3,543.7,1200.9,571.3z"/>
			<path class="st41" d="M1224.5,588.8c-6.1,27.6,2.6,67-20.5,54.7c-16.1-8.6-1.7-30.6,4.5-58.2c10.6-47.9,15.1-50.4,19.1-48.2
				C1245.1,546.7,1230.6,561.2,1224.5,588.8z"/>
			<path class="st41" d="M1253.1,604.4c-4.8,27.9-5.7,51.9-19.1,48.2c-18.4-5-3.8-4.1,3-51.8c5.1-36.2,1.1-52.1,19.1-48.2
				C1273,556.2,1260.7,560.1,1253.1,604.4z"/>
			<path class="st41" d="M1282.2,598.4c-6.7,50.5-15.3,45.7-19.1,48.2c-25.3,16.9-3.1-24.2,3-51.8s4.6-39,19.1-48.2
				C1304.6,534.2,1286,570.3,1282.2,598.4z"/>
			<path class="st41" d="M1304.8,582.8c-6.1,27.6-11,50.2-15.4,49.2s-3.1-24.2,3-51.8c3.6-16.5,9.3-32.5,16.8-47.6
				C1309.6,538.2,1310.9,555.2,1304.8,582.8z"/>
			<path class="st27" d="M1219.2,512.7h-0.3H1219.2C1219.2,512.6,1219.2,512.7,1219.2,512.7z"/>
			<path class="st27" d="M1219.2,512.7h-0.3H1219.2C1219.2,512.6,1219.2,512.7,1219.2,512.7z"/>
			<path class="st27" d="M1310.3,516c2,5.2-0.7,11-5.9,13c-0.9,0.4-1.9,0.6-2.9,0.6c0.9,2,1.2,4.3,0.7,6.4c-1.2,5.4-6.6,8.9-12,7.6
				c-4.8-1.1-8.1-5.4-7.9-10.2c-10.4,2.5-21.2-1.4-27.7-9.8c-2.1,3.7-6.4,5.7-10.6,4.9c0,0.2,0,0.3-0.1,0.5
				c-0.5,2.3-2.8,3.8-5.1,3.3c-2.3-0.5-3.8-2.8-3.3-5.1c0.3-1.2,1-2.2,2.1-2.8c-0.7-1-1.2-2.2-1.5-3.4c-1.1,1-2.4,1.7-3.8,2.1
				c0,0.4-0.1,0.8-0.2,1.3c-0.1,0.5-0.3,1-0.4,1.5c2.2,0.8,3.4,3.3,2.6,5.5c-0.4,1.1-1.1,1.9-2.1,2.4c3.1,4.6,1.8,10.9-2.8,14
				c-2.3,1.5-5.1,2-7.7,1.4c-0.3-0.1-0.5-0.1-0.8-0.2l0,0c-0.5,2.3-2.8,3.8-5.1,3.3c-2.3-0.5-3.8-2.8-3.3-5.1c0.3-1.4,1.2-2.5,2.5-3
				c-2.4-4.4-1.2-9.9,2.9-12.9c-5-2.5-7-8.6-4.5-13.5c1.2-2.4,3.3-4.2,5.8-5h0.3c0,0,0-0.1,0-0.1l-0.3,0.1c-0.6-0.1-1.1-0.2-1.7-0.3
				c-8.3-1.8-14-8.1-12.7-14.1c0.9-4.1,4.9-7,10.1-7.7c0-0.3,0.1-0.6,0.1-0.9c1.2-5.4,6.6-8.9,12-7.7c2.7,0.6,5.1,2.3,6.5,4.7
				c3.3-3.5,7.7-5.2,12.1-4.2s7.4,4.2,9,8.5c9-11.9,25.9-14.3,37.8-5.3c4.4,3.3,7.7,7.9,9.4,13.1c1.3-0.2,2.6-0.2,3.8,0.1
				c5.4,1.2,8.9,6.6,7.7,12C1312.7,512.8,1311.7,514.6,1310.3,516z"/>
			<circle class="st27" cx="1218.7" cy="577" r="4.3"/>
			<circle class="st27" cx="1283.9" cy="549.3" r="4.3"/>
			
				<ellipse transform="matrix(0.9993 -3.664371e-02 3.664371e-02 0.9993 -20.3346 48.2933)" class="st26" cx="1307.3" cy="578.9" rx="15.5" ry="7.1"/>
			
				<ellipse transform="matrix(0.9993 -3.769019e-02 3.769019e-02 0.9993 -20.835 49.5791)" class="st16" cx="1304.6" cy="577.4" rx="14.7" ry="6.8"/>
			<path class="st26" d="M1290.1,577.7c0,2.4,2.3,4.4,5.1,4.4s1.7-2,1.7-4.4s1.1-4.4-1.7-4.4S1290.1,575.3,1290.1,577.7z"/>
		</g>
	</g>
</g>
<g id="Vinder">
	<rect x="1916.8" y="548.8" class="st1" width="1823.8" height="530.3"/>
</g>
</svg>
