<svg xmlns="http://www.w3.org/2000/svg" xmlns:xlink="http://www.w3.org/1999/xlink" width="370" height="470" viewBox="0 0 370 470"><defs><style>.cls-1{fill:none;}.cls-2{fill:#003f38;}.cls-3{fill:#012822;}.cls-4{fill:#e0eadf;}.cls-5{fill:#c9d1c9;}.cls-6{fill:#8e0715;}.cls-7{clip-path:url(#clip-path);}</style><clipPath id="clip-path"><rect class="cls-1" x="1217.02" y="3349.82" width="1919.03" height="1018.24"/></clipPath></defs><g id="voldemort"><path class="cls-2" d="M210.33,438.71c-5,12.9-42.61,23.88-77.31,8.3-33.85-15.2-52-50.69-47.25-63s65.82-43.71,99.88-29.08C220.58,369.92,215.28,425.82,210.33,438.71Z"/><path class="cls-3" d="M224.54,414.82c-3,9.38-33.84,6.41-68-6.35-33.41-12.47-62.88-34-54.65-38.64,33.3-18.73,31.89-6.69,65.42,5.39C201.6,387.58,227.58,405.43,224.54,414.82Z"/><path class="cls-4" d="M311.73,146.32c1,52.88-57.29,138.65-20.51,183.21,29.86,36.17-31.55,68.9-78.18,64.71-10.45-.94-140-41.55-161.61-73.2s.06-63.32-14.47-82.59C6,197.37,8.77,158.27,10.4,145.62c9.65-75,81.7-134.72,143-138.81C259.89-.31,310.06,54.61,311.73,146.32Z"/><path class="cls-5" d="M119.11,362.26c-22.65-7,75,47.49,97.89,30.26,15.85-11.95,23.26-51.34,25.34-73,2.15-22.28-7-8.87-38.12,3.31C177.76,333.18,136.72,367.73,119.11,362.26Z"/><path class="cls-5" d="M262.74,232.68c-21.09,35.29,14.45,44,16.31,60.4,1.65,14.46,4.84-18.67,19.5-65.26,12.59-40,17.24-101.81,9.5-70.59C304.07,173.25,282.16,200.17,262.74,232.68Z"/><path class="cls-5" d="M48.53,248.61c22,19.35,14.26,30.14,11.87,31.3S58.06,277.69,47,255.64,21.4,218.7,23.75,217.47,37,238.45,48.53,248.61Z"/><path class="cls-5" d="M208.21,251.93c-27.6,9.89-24.34,22.79-22.54,24.74s3-1.21,21.36-17.65,37.41-24.94,35.67-26.94S222.71,246.73,208.21,251.93Z"/><path class="cls-2" d="M357.88,380.8c-82.66-73.26-59-20-112.24-.69-51.32,18.67-144.22,53.94-121.92,63.76,43,19,83.17,28.08,135,10.65C312.41,436.46,374,395.09,357.88,380.8Z"/><path class="cls-3" d="M237,381.84C198.09,402,126.74,442.47,133,447,160.63,466.93,185.75,446,225,425.6s76.89-75.32,73.47-82.29S275.82,361.67,237,381.84Z"/><ellipse class="cls-6" cx="180.18" cy="200.17" rx="8.77" ry="8.5"/><circle cx="180.18" cy="200.17" r="3.89"/><path class="cls-2" d="M144.26,215.43a1.5,1.5,0,0,1-1-2.61,204,204,0,0,1,25.63-18.9c14-8.77,35.06-19.48,55.81-20.68a1.5,1.5,0,0,1,.17,3c-38.56,2.24-79.2,38.45-79.6,38.82A1.55,1.55,0,0,1,144.26,215.43Z"/><ellipse class="cls-6" cx="60.4" cy="196.28" rx="8.77" ry="8.5"/><circle cx="60.4" cy="196.28" r="3.89"/><path class="cls-2" d="M89.12,212.22A1.52,1.52,0,0,1,88,211.7c-.26-.31-26.37-30.55-44-33.91a1.5,1.5,0,1,1,.56-2.95c18.68,3.56,44.65,33.62,45.74,34.9a1.5,1.5,0,0,1-1.14,2.48Z"/><path class="cls-2" d="M119.17,257.14a1.51,1.51,0,0,1-1.23-2.36l9.1-13.09a1.5,1.5,0,1,1,2.46,1.71l-9.09,13.09A1.52,1.52,0,0,1,119.17,257.14Z"/><path class="cls-2" d="M96.44,257.14a1.52,1.52,0,0,1-1.32-.77l-7.31-13.1a1.5,1.5,0,0,1,2.62-1.46l7.31,13.1a1.5,1.5,0,0,1-.57,2A1.53,1.53,0,0,1,96.44,257.14Z"/><path class="cls-2" d="M123.72,300.57a1.51,1.51,0,0,1-1.16-.55c-6.83-8.32-12.85-12.23-17.4-11.29-5.17,1.06-7.26,8.08-7.28,8.15a1.5,1.5,0,0,1-2.89-.82c.1-.36,2.6-8.83,9.55-10.27,5.8-1.2,12.65,2.94,20.34,12.33a1.5,1.5,0,0,1-.21,2.11A1.46,1.46,0,0,1,123.72,300.57Z"/><path class="cls-2" d="M249.77,264.83a1.55,1.55,0,0,1-.63-.13,1.51,1.51,0,0,1-.74-2c15.83-34.38,12.94-38.58,12.2-39.07-1.74-1.15-9.9,4.34-18.82,14.07a1.5,1.5,0,0,1-2.22-2c4-4.32,17.29-18.13,22.7-14.54,3.05,2,4.55,8.74-11.13,42.82A1.5,1.5,0,0,1,249.77,264.83Z"/></g></svg>