<?xml version="1.0" encoding="utf-8"?>
<!-- Generator: Adobe Illustrator 26.0.1, SVG Export Plug-In . SVG Version: 6.00 Build 0)  -->
<svg version="1.1" id="Layer_1" xmlns="http://www.w3.org/2000/svg" xmlns:xlink="http://www.w3.org/1999/xlink" x="0px" y="0px"
	 viewBox="0 0 737 737" style="enable-background:new 0 0 737 737;" xml:space="preserve">
<style type="text/css">
	.st0{fill:#F3D1D6;}
	.st1{fill:#0033CC;}
</style>
<path class="st0" d="M606.2,371.3c0.3,30.6-34.8,53-78.4,50.1c-23.3-1.6-44.4-10.1-58.9-22.4c-0.8,0-1.7-0.1-2.5-0.1
	c-34.4-2.3-65.4-16.7-86.5-37.6c-9.1,35.2-38,59.4-72.4,57.1c-10.2-0.7-20.1-3.6-29-8.5c-25.8,18.1-67.6,28.2-115,25
	c-78.9-5.3-143.2-45.5-143.6-89.7c-0.2-26.6,22.6-48.5,58-60.7c-0.1-1.1-0.1-2.2-0.1-3.3c-0.2-24.1,19.9-42.2,44.9-40.5
	c5.1,0.3,10.2,1.5,14.9,3.4c8.7-27.1,36.4-46.2,70.4-47.1c-0.4-3.2-0.5-6.4-0.6-9.7c-0.5-56.1,46.3-98.5,104.6-94.6
	c46.3,3.1,86,34.6,100.4,75.7c25.3,2.6,46.3,21.7,51.3,45.4l1,0.1c63.1,4.2,114.7,49.1,115.1,100.2c0,4.6-0.3,9.1-1.1,13.6
	C595.4,338.9,606,354.6,606.2,371.3z"/>
<path class="st1" d="M643.4,427.3c0.3,30.6-34.8,53-78.4,50.1c-23.3-1.6-44.3-10.1-58.9-22.4c-0.8,0-1.7-0.1-2.5-0.1
	c-34.5-2.3-65.5-16.8-86.5-37.6c-9.1,35.2-38,59.4-72.4,57.1c-10.2-0.7-20.1-3.6-29-8.5c-25.8,18.1-67.6,28.2-115,25
	c-78.9-5.3-143.2-45.5-143.6-89.7c-0.2-26.6,22.6-48.5,58-60.7c-0.1-1.1-0.1-2.2-0.1-3.3c-0.2-24.1,19.9-42.2,44.9-40.5
	c5.1,0.3,10.2,1.5,14.9,3.5c8.7-27.1,36.4-46.2,70.4-47.1c-0.4-3.2-0.5-6.4-0.6-9.7c-0.5-56.1,46.3-98.5,104.6-94.6
	c46.3,3.1,86,34.6,100.4,75.7C475,227,496,246.1,501,269.8l1,0.1c63.1,4.3,114.7,49.1,115.1,100.2c0,4.6-0.3,9.1-1.1,13.6
	C632.6,394.9,643.2,410.6,643.4,427.3z"/>
<path class="st0" d="M681,489.4c0.3,30.6-34.8,53-78.4,50.1c-23.3-1.6-44.3-10.1-58.9-22.4c-0.8,0-1.7-0.1-2.5-0.1
	c-34.5-2.3-65.5-16.8-86.5-37.6c-9.1,35.2-38,59.4-72.4,57.1c-10.2-0.7-20.1-3.6-29-8.5c-25.8,18.2-67.6,28.2-114.9,25
	c-78.9-5.3-143.2-45.5-143.6-89.7c-0.2-26.6,22.6-48.5,58-60.7c-0.1-1.1-0.1-2.2-0.1-3.3c-0.2-24.1,19.9-42.2,44.9-40.5
	c5.1,0.3,10.2,1.5,14.9,3.5c8.7-27.1,36.4-46.2,70.4-47.1c-0.4-3.2-0.6-6.4-0.6-9.7c-0.5-56.1,46.4-98.5,104.6-94.6
	c46.3,3.1,86,34.6,100.4,75.7c25.3,2.6,46.3,21.7,51.3,45.4l1,0.1c63.1,4.2,114.7,49.1,115.1,100.2c0,4.6-0.3,9.1-1.1,13.6
	C670.2,457,680.8,472.7,681,489.4z"/>
<path class="st1" d="M718.2,545.3c0.3,30.6-34.8,53-78.4,50.1c-23.3-1.6-44.3-10.1-58.9-22.4c-0.8,0-1.7-0.1-2.5-0.1
	c-34.4-2.3-65.4-16.8-86.5-37.6c-9.1,35.2-38,59.4-72.4,57.1c-10.2-0.7-20-3.6-29-8.5c-25.8,18.1-67.6,28.2-115,25
	c-78.9-5.3-143.1-45.5-143.5-89.7c-0.2-26.6,22.6-48.5,58-60.7c-0.1-1.1-0.1-2.2-0.1-3.3c-0.2-24.1,19.9-42.2,44.9-40.5
	c5.1,0.3,10.2,1.5,14.9,3.5c8.7-27.1,36.4-46.2,70.4-47.1c-0.4-3.2-0.5-6.4-0.6-9.7c-0.5-56.1,46.3-98.5,104.6-94.6
	c46.3,3.1,86,34.6,100.4,75.7c25.3,2.6,46.3,21.7,51.3,45.4l1,0.1c63.1,4.2,114.7,49.1,115.1,100.2c0,4.6-0.3,9.1-1.1,13.6
	C707.4,513,718,528.7,718.2,545.3z"/>
<ellipse transform="matrix(9.758288e-02 -0.9952 0.9952 9.758288e-02 -64.3661 1014.2601)" class="st1" cx="527.1" cy="542.6" rx="51" ry="88.3"/>
</svg>
