<svg id="Layer_1" data-name="Layer 1" xmlns="http://www.w3.org/2000/svg" width="260mm" height="260mm" viewBox="0 0 737.01 737.01"><defs><style>.cls-1{fill:#f3d1d6;}.cls-2{fill:#2a509f;}</style></defs><path class="cls-1" d="M606.18,371.31c.27,30.58-34.82,53-78.41,50.1-23.33-1.57-44.35-10.12-58.87-22.39-.81,0-1.67-.06-2.48-.12C432,396.58,401,382.16,379.88,361.27c-9.13,35.25-38,59.43-72.41,57.11a71,71,0,0,1-29-8.46c-25.8,18.15-67.65,28.18-115,25-78.9-5.32-143.17-45.46-143.57-89.68-.24-26.56,22.61-48.55,58-60.68-.06-1.1-.13-2.2-.14-3.29-.21-24.06,19.86-42.23,44.87-40.54a47.56,47.56,0,0,1,14.93,3.45c8.71-27.1,36.39-46.21,70.44-47.1-.35-3.19-.54-6.43-.57-9.66-.51-56.15,46.34-98.53,104.56-94.61,46.34,3.12,86,34.63,100.37,75.68,25.34,2.59,46.34,21.7,51.31,45.35l1,.07c63.08,4.25,114.65,49.11,115.11,100.2a74.65,74.65,0,0,1-1.12,13.61C595.42,338.94,606,354.65,606.18,371.31Z"/><path class="cls-2" d="M643.4,427.26c.27,30.57-34.82,53-78.41,50.09-23.33-1.57-44.35-10.12-58.87-22.39-.81,0-1.67-.06-2.48-.11-34.46-2.33-65.46-16.75-86.54-37.64-9.13,35.25-38,59.43-72.4,57.12a71.2,71.2,0,0,1-29-8.47c-25.8,18.15-67.65,28.19-115,25-78.9-5.32-143.17-45.46-143.57-89.68-.24-26.56,22.61-48.54,58-60.68-.06-1.1-.13-2.19-.14-3.29-.21-24.06,19.86-42.23,44.87-40.54a47.56,47.56,0,0,1,14.93,3.45c8.71-27.1,36.39-46.21,70.44-47.09-.35-3.2-.54-6.44-.57-9.67-.51-56.14,46.34-98.53,104.56-94.61,46.34,3.12,86,34.63,100.37,75.68C475,227,496,246.13,501,269.79l1,.06c63.08,4.26,114.66,49.11,115.11,100.2A74.57,74.57,0,0,1,616,383.66C632.64,394.89,643.25,410.59,643.4,427.26Z"/><path class="cls-1" d="M681,489.38c.28,30.57-34.82,53-78.4,50.09-23.33-1.57-44.35-10.12-58.87-22.39-.81,0-1.68-.06-2.49-.11-34.45-2.33-65.46-16.75-86.53-37.64-9.13,35.25-38,59.43-72.41,57.11a71.08,71.08,0,0,1-29-8.46c-25.79,18.15-67.64,28.18-114.95,25C159.4,547.66,95.14,507.52,94.74,463.3c-.24-26.56,22.61-48.55,58-60.68-.07-1.1-.13-2.2-.14-3.29-.22-24.06,19.86-42.23,44.86-40.54a47.49,47.49,0,0,1,14.93,3.45c8.72-27.1,36.4-46.21,70.45-47.09a94.51,94.51,0,0,1-.58-9.67c-.5-56.15,46.35-98.53,104.57-94.61,46.33,3.12,86,34.63,100.37,75.68,25.33,2.59,46.34,21.7,51.3,45.35l1,.07c63.08,4.25,114.65,49.11,115.11,100.2a75.54,75.54,0,0,1-1.12,13.61C670.21,457,680.82,472.71,681,489.38Z"/><path class="cls-2" d="M718.19,545.32c.28,30.57-34.82,53-78.4,50.09-23.33-1.57-44.35-10.11-58.87-22.39-.81,0-1.68-.06-2.49-.11C544,570.59,513,556.16,491.9,535.27c-9.13,35.25-38,59.43-72.41,57.12a71.39,71.39,0,0,1-29-8.46c-25.79,18.14-67.64,28.18-115,25C196.62,603.6,132.36,563.46,132,519.25c-.24-26.57,22.61-48.55,58-60.69-.07-1.1-.13-2.19-.14-3.29-.22-24.06,19.86-42.22,44.86-40.54a47.49,47.49,0,0,1,14.93,3.45c8.72-27.1,36.4-46.21,70.45-47.09a94.5,94.5,0,0,1-.57-9.67c-.51-56.14,46.34-98.53,104.56-94.61,46.34,3.13,86,34.63,100.37,75.68,25.34,2.59,46.34,21.7,51.3,45.36l1,.07c63.08,4.25,114.65,49.1,115.11,100.19a75.66,75.66,0,0,1-1.12,13.62C707.43,513,718,528.65,718.19,545.32Z"/><ellipse class="cls-2" cx="527.07" cy="542.59" rx="51.01" ry="88.29" transform="translate(-64.33 1014.23) rotate(-84.4)"/></svg>