<svg xmlns="http://www.w3.org/2000/svg" width="261.313" height="262.969" viewBox="0 0 261.313 262.969">
  <g id="Group_1" data-name="Group 1" transform="translate(0.125 1.969)">
    <path id="Path_1" data-name="Path 1" d="M0,0H170V170H0Z" transform="translate(45 42)" fill="#c969f4" opacity="0.238"/>
    <path id="Path_3" data-name="Path 3" d="M125.742-93.656a261.942,261.942,0,0,1,29.376,1.409,105.69,105.69,0,0,1,20.65,4.173,41.042,41.042,0,0,1,13.387,6.883,29.942,29.942,0,0,1,7.7,9.376,34.9,34.9,0,0,1,3.523,11.761,113.928,113.928,0,0,1,.813,14.092,71.508,71.508,0,0,1-1.355,14.254,36.36,36.36,0,0,1-4.824,12.195,35.753,35.753,0,0,1-9.431,9.864A54.99,54.99,0,0,1,170.4-2.276a116.471,116.471,0,0,1-22.167,4.607,255.017,255.017,0,0,1-30.3,1.572H90.188A273.381,273.381,0,0,1,62.871,2.71,115.984,115.984,0,0,1,42.709-.921,49.306,49.306,0,0,1,28.726-7.1a31.454,31.454,0,0,1-8.834-8.78,32.4,32.4,0,0,1-4.607-11.49,72.26,72.26,0,0,1-1.3-14.254H34.8q0,9.756,2.818,15.284a17.782,17.782,0,0,0,9.322,8.292q6.5,2.764,17.073,3.469t26.178.7h27.75a218.09,218.09,0,0,0,30.243-1.734q12.032-1.734,19.187-5.528a22.146,22.146,0,0,0,10.081-9.918,34.366,34.366,0,0,0,2.927-14.9,45.7,45.7,0,0,0-2.005-14.634,17.1,17.1,0,0,0-7.913-9.322q-5.908-3.469-16.639-4.932a216.147,216.147,0,0,0-28.075-1.463H97.125a323.5,323.5,0,0,1-32.682-1.409,133.681,133.681,0,0,1-22.818-4.065A48.4,48.4,0,0,1,26.883-88.4a28.322,28.322,0,0,1-8.4-9.051,31.739,31.739,0,0,1-3.74-11.328,98.163,98.163,0,0,1-.867-13.5,69.093,69.093,0,0,1,1.355-14.092,31.417,31.417,0,0,1,5.041-11.761A35.644,35.644,0,0,1,30.352-157.5a59.709,59.709,0,0,1,16.422-6.883,147.077,147.077,0,0,1,24.119-4.173q14.092-1.409,33.17-1.409h20.813q15.609,0,27.316,1.138a113.031,113.031,0,0,1,20.162,3.577,52.357,52.357,0,0,1,14.038,6.07,29.98,29.98,0,0,1,8.889,8.672,32.4,32.4,0,0,1,4.607,11.436,71.435,71.435,0,0,1,1.3,14.2H180.375q0-9.756-2.818-15.284a17.782,17.782,0,0,0-9.322-8.292q-6.5-2.764-17.127-3.469t-26.232-.7H104.063a327.285,327.285,0,0,0-34.254,1.463q-13.441,1.463-21.246,4.932t-10.84,9.322q-3.035,5.854-3.035,14.634a55.011,55.011,0,0,0,.759,9.647,17.734,17.734,0,0,0,3.089,7.425,18.175,18.175,0,0,0,6.558,5.366,44.108,44.108,0,0,0,11.165,3.577,123.906,123.906,0,0,0,16.964,2.005q10.027.6,23.9.6Z" transform="translate(-14 168)" fill="#250ea5" opacity="0.941"/>
    <path id="Path_2" data-name="Path 2" d="M28.313-169.875v20.792H162.8L18.875-23.594V0H198.188V-21.087H56.33L198.188-146.281v-23.594Z" transform="translate(63 261)" fill="#cb0ef8"/>
  </g>
</svg>
